<svg version="1.2" xmlns="http://www.w3.org/2000/svg" viewBox="0 0 350 350" width="350" height="350">
	<title>favicon</title>
	<style>
		.s0 { fill: #ffffff } 
		.s1 { fill: #040404 } 
	</style>
	<path id="Shape 1" fill-rule="evenodd" class="s0" d="m175 350c-96.78 0-175-78.23-175-175 0-96.78 78.22-175 175-175 96.77 0 175 78.22 175 175 0 96.77-78.23 175-175 175z"/>
	<path class="s1" d="m141 47c4.91 2.43 6.79 4.76 8.56 9.73q0.37 1.15 0.75 2.33 0.43 1.23 0.87 2.5 1.43 4.21 2.82 8.44 1.06 3.15 2.13 6.31 2.88 8.57 5.71 17.17 2.85 8.64 5.72 17.27 0.55 1.65 1.12 3.35 2.75 8.31 5.66 16.57 0.56 1.58 1.13 3.2 1.06 2.99 2.14 5.97c0.48 1.33 0.48 1.33 0.96 2.69q0.41 1.15 0.84 2.33c0.59 2.14 0.59 2.14 0.59 6.14q0.98 0.49 2 1c0.62 2.06 0.62 2.06 1 4q-0.01-1.64-0.03-3.32-0.12-15.54-0.18-31.08-0.03-7.98-0.09-15.97-0.07-7.71-0.08-15.43-0.01-2.93-0.04-5.87-0.04-4.13-0.03-8.25-0.03-1.2-0.05-2.44c0.05-6.8 2.17-11.89 6.56-17.08 3.8-3.06 7.79-2.72 12.42-2.74q1.13-0.01 2.3-0.02 3.78-0.02 7.56-0.04 1.28 0 2.61-0.01 6.87-0.03 13.74-0.05 7.05-0.02 14.11-0.08 5.45-0.04 10.91-0.04 2.6-0.01 5.19-0.03c19.12-0.2 35.35 4.75 50.1 17.45q0 0.98 0 2 1.48 0.49 3 1 0 0.98 0 2 0.99 0 2 0c14.5 16.61 18.43 36.64 17 58-1.44 15.77-8.45 28.44-19 40q-0.81 0.89-1.64 1.8c-1.36 1.2-1.36 1.2-3.36 1.2q0 0.99 0 2c-2.26 1.73-4.5 3.32-6.88 4.87-1.03 0.68-1.03 0.68-2.08 1.38-5.17 3.33-10.17 5.87-16.04 7.75q-1.1 0.4-2.24 0.8c-11.04 3.41-22.58 2.52-34.01 2.39q-3.31-0.03-6.63-0.04-8.06-0.05-16.12-0.15 0.02 1.75 0.03 3.56 0.16 16.62 0.23 33.24 0.04 8.54 0.12 17.08 0.08 8.25 0.09 16.5 0.02 3.14 0.06 6.29 0.05 4.41 0.04 8.81c0.02 1.3 0.02 1.3 0.05 2.62-0.05 6.2-1.56 9.2-5.62 13.9-4.84 3.86-9.56 3.62-15.55 3.46-5.21-0.7-8.12-2.44-11.45-6.46-5.88-8.34-8.1-19.34-11-29-3.64-12.03-3.64-12.03-8.19-23.75-0.81-2.25-0.81-2.25-0.81-6.25-2.77-1.38-5-1.12-8.1-1.11q-1.91 0-3.88 0-2.11 0-4.22 0.01-2.14 0.01-4.29 0.01-5.66 0-11.32 0.02-5.77 0.02-11.54 0.02-11.32 0.02-22.65 0.05-0.45 1.61-0.91 3.26c-0.75 2.58-1.52 5.04-2.5 7.53-1.83 4.8-3.47 9.65-5.09 14.52q-0.46 1.39-0.94 2.82c-1.54 4.66-3.02 9.3-4.25 14.06-2.55 9.69-5.65 17.73-14 23.75-6.56 2.1-12.91 2.15-19.19-0.88-4.63-2.93-7.48-6.83-9.12-12.06-0.3-5.22 0.45-9.14 2.2-14.05q0.34-0.97 0.69-1.98 1.1-3.14 2.23-6.28 0.77-2.18 1.54-4.37 1.5-4.27 3.01-8.53 2.36-6.72 4.58-13.48c0.33-1.01 0.33-1.01 0.68-2.04q0.67-2.03 1.34-4.06 2.2-6.64 4.42-13.27 0.85-2.55 1.7-5.1 2.98-8.96 5.97-17.92 0.33-1 0.68-2.04 0.75-2.24 1.49-4.48 2.01-6 3.99-12.01c4.31-13.01 8.75-25.99 13.22-38.96 5.29-15.23 5.29-15.23 10.13-30.62 1.7-5.56 3.6-11.04 5.56-16.51q2.5-7.02 4.82-14.11 0.58-1.78 1.19-3.62 1.16-3.56 2.31-7.13c5.07-15.44 5.07-15.44 9.44-19.44 3.94-1.4 7.69-1.86 11.81-1zm81 45q-0.13 3.08-0.11 6.17 0 0.96 0 1.95 0 3.21 0.01 6.42 0.01 2.21 0.01 4.43 0 5.85 0.02 11.69 0.02 5.97 0.02 11.93 0.02 11.7 0.05 23.41 9.5 0.23 18.99 0.33 3.23 0.04 6.45 0.12c17.24 0.62 17.24 0.62 32.56-6.45q1.13-0.77 2.3-1.57 0.84-0.71 1.7-1.43 0-0.99 0-2 0.99 0 2 0c6.48-10.44 8.55-18.8 7-31-0.89-3.38-2.1-6.07-4-9-0.6-0.96-0.6-0.96-1.2-1.95-4.89-7.38-12.12-12.19-20.8-14.05-7.53-0.81-15.13-0.52-22.69-0.37q-3.08 0.02-6.17 0.04c-8.65-0.68-8.65-0.68-16.14 1.33zm-86 45q-0.32 0.97-0.65 1.97c-3.75 11.31-7.5 22.62-11.4 33.88q-0.37 1.09-0.76 2.21-1.86 5.38-3.73 10.75-0.69 1.97-1.37 3.94-0.6 1.73-1.22 3.51c-0.97 2.58-0.97 2.58-0.87 4.74 13.53 0 27.06 0 41 0-0.99-2.97-1.98-5.94-3-9q-1.54-4.99-3.04-9.98c-0.9-2.96-0.9-2.96-1.97-5.5-1.17-2.96-1.97-5.95-2.8-9.02-1.69-6.04-3.77-11.81-6.08-17.63-1.26-3.26-2.25-6.49-3.11-9.87q-0.49 0-1 0z"/>
</svg>