<svg xmlns="http://www.w3.org/2000/svg" viewBox="0 0 420 420" width="420" height="420">
	<style>
		tspan { white-space:pre }
		.shp0 { fill: #000000 } 
		.shp1 { fill: #b37652 } 
		.shp2 { fill: #6d4332 } 
		.shp3 { fill: #ffffff } 
		.shp4 { fill: #d5ab90 } 
		.shp5 { fill: #793d1b } 
		.txt6 { font-size: 116px;fill: #000000;font-family: "DejaVu Sans";font-weight: 400 } 
		.shp7 { fill: #9d4719 } 
	</style>
	<g id="Layer 1 copy 10">
		<path id="Path 0" class="shp0" d="M225.34 1.1C223.65 2.07 221.28 4.31 220.08 6.07C218.72 8.06 217.88 10.81 217.88 13.29C217.88 17.05 217.68 17.33 214.63 17.79C212.83 18.06 205.06 18.75 197.34 19.33C189.62 19.9 182.18 20.58 180.81 20.82C179.43 21.07 165.22 22.4 149.24 23.78C133.26 25.16 114.77 26.78 108.15 27.38C101.54 27.98 95.34 28.67 94.37 28.9C93.25 29.17 92.6 30.31 92.58 32.08C92.55 33.6 93.31 35.51 94.25 36.34C95.2 37.17 98.49 41 101.57 44.86C104.64 48.72 110.62 57.74 114.84 64.9C119.07 72.07 123.4 78.83 124.45 79.93C125.5 81.04 127.74 84.64 129.41 87.95C131.09 91.26 134.28 99.37 136.5 105.99C138.72 112.6 141.81 124.55 143.37 132.54C146.06 146.36 146.19 148.24 145.91 170.62C145.75 183.58 144.98 199.36 144.2 205.7C143.42 212.03 142.09 221.73 141.23 227.24C140.38 232.75 139.39 239.52 139.03 242.27C138.48 246.56 138.66 247.44 140.3 248.39C141.59 249.13 144.69 249.23 149.74 248.69C153.87 248.25 173.72 246.74 193.83 245.34C213.95 243.93 231.99 242.53 233.92 242.22L237.42 241.66C238.59 254.56 238.82 258.42 238.68 258.57C238.54 258.71 231.66 258.34 223.39 257.75C213.05 257.02 191.8 256.97 155.25 257.6C126.04 258.11 89.03 258.47 73 258.41L43.87 258.31C38.94 253.26 35.81 251.34 33.75 250.79C31.42 250.17 24.89 250.07 16.63 250.54C5.72 251.15 3.01 251.61 1.85 253.05C0.61 254.57 0.68 255.48 2.38 260.06C3.45 262.95 5.25 269.38 6.39 274.34C7.52 279.3 10.05 288.32 12 294.38C13.95 300.45 17.84 309.92 20.64 315.43C23.44 320.94 27.8 329.06 30.32 333.46C32.85 337.87 36.06 343.06 37.46 345C38.86 346.94 41.36 350.09 43.02 352.01C44.67 353.93 49.86 359.51 54.54 364.41C59.23 369.32 66.44 375.87 70.57 378.97C74.71 382.08 81.47 386.5 85.61 388.81C89.74 391.11 97.18 394.61 102.14 396.58C107.1 398.56 114.09 400.79 117.67 401.55C121.26 402.3 127.12 403.23 130.7 403.62C134.28 404.01 141.95 405.37 147.74 406.64C153.52 407.92 162.54 409.47 167.78 410.09C173.01 410.71 179.78 411.64 182.81 412.15C185.84 412.66 194.41 413.73 201.85 414.52C209.29 415.32 223.49 416.5 233.42 417.15C243.34 417.81 254.61 418.94 258.47 419.68C262.33 420.42 270.22 421.32 276 421.69C283.27 422.15 291.03 421.84 301.06 420.71C309.05 419.8 319.65 417.91 324.61 416.5C329.57 415.09 336.33 412.72 339.64 411.22C342.95 409.73 348.58 406.55 352.16 404.17C355.75 401.78 360.38 398.2 362.45 396.21C364.53 394.22 366.22 392.25 366.21 391.84C366.2 391.42 367.38 389.62 368.82 387.83C370.27 386.04 372.37 382.77 373.5 380.56C374.63 378.36 376.39 375.65 377.43 374.55C378.46 373.45 379.97 370.29 380.78 367.54C381.59 364.78 382.51 360.95 382.84 359.02C383.16 357.09 384.62 352.26 386.08 348.28C387.94 343.23 389.34 340.9 390.75 340.53C391.85 340.24 394.78 340 397.26 339.99C399.74 339.98 403.46 339.52 405.53 338.97C407.59 338.42 410.48 336.73 411.94 335.22C413.4 333.7 415.46 329.98 416.53 326.95C417.59 323.92 418.7 320.31 419 318.93C419.32 317.39 418.91 315.76 417.91 314.68C417.03 313.71 415.28 312.92 414.04 312.92C412.8 312.92 410.44 311.76 408.78 310.35C407.13 308.94 399.91 304.04 392.75 299.46C385.58 294.88 377.02 289.58 373.71 287.69C370.3 285.73 366.75 282.74 365.51 280.79C364.3 278.9 362.61 276.56 361.75 275.59C360.37 274.05 358.26 273.85 344.4 273.96C330.24 274.08 327.68 273.82 319.6 271.52C314.64 270.1 305.62 268.45 299.55 267.83C293.49 267.22 285.83 266.03 282.52 265.19C279.21 264.35 273.93 263.59 270.79 263.49C265.97 263.35 265 263 264.6 261.31C264.34 260.21 263.85 256.15 263.51 252.29C263.17 248.44 262.68 243.93 262.41 242.27C261.94 239.31 262.02 239.25 268.22 237.9C271.67 237.15 280.59 235.94 288.03 235.21C295.47 234.48 308.32 232.97 316.59 231.85C324.86 230.73 340.64 229.34 351.66 228.75C362.69 228.16 380.39 227.24 391 226.71C402.66 226.12 410.98 226.1 412.04 226.65C413.21 227.26 414.72 227.09 416.55 226.15C418.07 225.37 419.52 223.95 419.77 222.98C420.03 222.02 420.08 212.66 419.88 202.19C419.68 191.64 418.78 178.23 417.86 172.13C416.95 166.06 415.27 155.47 414.13 148.58C412.99 141.69 410.95 131.77 409.6 126.53C408.25 121.29 405.33 110.7 403.12 102.98C400.91 95.27 397.52 84.22 395.59 78.43C393.65 72.64 390.01 63.85 387.5 58.89C384.98 53.93 378.32 41.98 372.7 32.33C367.07 22.69 361.75 13.22 360.86 11.29C359.98 9.36 358.22 7.21 356.96 6.51C355.15 5.5 351.65 5.46 340.14 6.31C332.15 6.9 319.75 7.78 312.58 8.26C305.42 8.74 288.73 10.29 275.5 11.7C262.28 13.12 249.31 14.28 246.69 14.28C242.07 14.3 241.93 14.21 241.93 11.29C241.93 9.64 240.94 6.82 239.72 5.03C238.5 3.23 236.8 1.22 235.96 0.55C235.11 -0.12 233.06 -0.67 231.41 -0.66C229.76 -0.66 227.03 0.14 225.34 1.1Z" />
		<path id="Path 1" class="shp1" d="M227.02 6.83C225.7 7.69 224.68 8.93 224.75 9.59C224.84 10.45 226.24 10.58 229.64 10.07C232.27 9.68 234.64 9.12 234.92 8.84C235.19 8.56 234.74 7.62 233.92 6.76C233.09 5.89 231.74 5.2 230.91 5.22C230.08 5.24 228.33 5.97 227.02 6.83Z" />
		<path id="Path 2" class="shp2" d="M225.27 14.55C224.95 15.23 224.96 16.59 225.29 17.55C225.63 18.52 226.91 19.31 228.15 19.32C229.39 19.32 231.89 18.99 233.69 18.57C235.49 18.15 236.96 17.24 236.95 16.55C236.93 15.86 235.8 14.85 234.42 14.3C233.04 13.74 230.55 13.29 228.88 13.29C227.21 13.29 225.59 13.86 225.27 14.55Z" />
		<path id="Path 3" class="shp3" d="M348.07 13.73C347.84 13.96 343.82 14.39 339.14 14.67C334.45 14.95 323.86 15.62 315.59 16.15C307.32 16.69 297.17 17.6 293.04 18.19C288.91 18.78 277.63 19.97 267.99 20.83C258.34 21.69 241.66 23.27 230.91 24.34C220.16 25.41 198.97 27.42 183.81 28.81C168.65 30.2 151.29 31.78 145.23 32.33C139.17 32.87 128.35 33.82 121.18 34.42C114.02 35.03 107.59 35.71 106.9 35.93C106.05 36.21 106.56 37.55 108.49 40.1C110.05 42.17 113.15 46.56 115.36 49.87C117.58 53.18 121.08 59.04 123.14 62.9C125.2 66.76 128.2 71.15 129.8 72.67C131.4 74.18 134.68 79.82 137.09 85.19C139.5 90.57 142.87 99.02 144.58 103.98C146.29 108.94 148.78 118.64 150.13 125.53C151.48 132.42 153.11 141.21 153.75 145.07C154.62 150.3 154.65 158.98 153.88 179.14C153.31 194.02 152.64 207.33 152.4 208.7C152.15 210.08 151.43 214.82 150.78 219.23C150.14 223.63 149.18 230.17 148.66 233.76C148.13 237.34 147.82 240.4 147.97 240.56C148.12 240.71 152.52 240.39 157.76 239.83C162.99 239.28 178.33 238.13 191.83 237.29C205.33 236.45 220.44 235.32 225.4 234.78C230.36 234.24 239.15 233.3 244.94 232.7C250.73 232.1 260.65 230.77 266.99 229.74C273.32 228.71 282.12 227.58 286.53 227.23C290.94 226.89 302.21 225.52 311.58 224.21C320.95 222.89 338.76 221.33 351.16 220.75C363.56 220.16 376.98 219.24 380.97 218.7C384.97 218.16 393.43 217.72 399.76 217.72L411.29 217.72C411.24 193.26 410.82 183.22 410.32 179.64C409.82 176.06 408.68 167.72 407.78 161.1C406.87 154.49 405.27 145.02 404.22 140.06C403.16 135.1 400.92 125.85 399.25 119.52C397.57 113.18 395.04 104.16 393.62 99.47C392.2 94.79 389.89 87.35 388.48 82.94C387.07 78.53 384.25 71.31 382.2 66.91C380.16 62.5 375.67 53.93 372.22 47.87C368.77 41.8 363.92 33.24 361.44 28.83C358.96 24.42 355.74 19.13 354.3 17.07C352.85 15.02 350.95 13.33 350.08 13.31C349.2 13.3 348.3 13.49 348.07 13.73Z" />
		<path id="Path 4" class="shp2" d="M249.2 240.43L245.94 240.77C246.62 261.35 247.75 272.62 248.88 279.1C250.02 285.58 250.97 293.02 250.99 295.64C251.03 300.03 251.33 300.61 255 303.15L258.97 305.91C258.19 281.83 257.56 272.93 257.06 270.58C256.57 268.24 256.23 265.42 256.3 264.32C256.38 263.22 256.09 258.48 255.65 253.8C255.21 249.11 254.72 244.04 254.56 242.52C254.4 241.01 253.86 239.84 253.36 239.93C252.86 240.02 250.99 240.24 249.2 240.43Z" />
		<path id="Path 5" class="shp1" d="M12.95 257.33C14.06 258.13 17.44 259.07 20.47 259.4C23.5 259.74 26.66 260.04 27.48 260.07C28.31 260.1 30.23 260.06 31.74 259.97C33.26 259.88 34.51 259.47 34.53 259.06C34.54 258.65 33.42 257.74 32.02 257.05C30.53 256.32 25.68 255.81 20.22 255.83C11.84 255.86 11.14 256.01 12.95 257.33Z" />
		<path id="Path 6" class="shp4" d="M132.67 264.19C132.41 264.44 118 264.91 100.64 265.22C83.28 265.54 64.04 266.14 57.89 266.56C47.68 267.26 46.78 267.48 47.62 269.08C48.18 270.15 50.95 271.4 54.79 272.3C58.24 273.11 65.11 274.93 70.07 276.35C76.18 278.09 80.71 278.8 84.1 278.53C86.86 278.31 96.1 277.08 104.65 275.8C119.53 273.57 122.36 273.48 172.29 273.65C200.95 273.75 228 274.14 232.41 274.51C238.08 274.98 240.65 274.84 241.18 274.01C241.6 273.36 241.48 271.26 240.93 269.33C239.95 265.91 239.8 265.82 234.67 265.75C231.77 265.71 228.51 265.53 227.4 265.35C226.3 265.17 204.64 264.74 179.26 264.38C153.89 264.02 132.92 263.93 132.67 264.19Z" />
		<path id="Path 7" class="shp5" d="M13.99 271.08C14.62 274.53 17.05 283.21 19.37 290.37C21.7 297.54 25.43 307.01 27.66 311.42C29.89 315.83 33.33 322.37 35.3 325.95C37.26 329.53 40.55 334.94 42.59 337.97C44.64 341.01 48.39 345.74 50.93 348.5C53.48 351.25 55.55 353.84 55.55 354.26C55.55 354.67 56.22 355.24 57.05 355.51C58.03 355.84 58.31 355.58 57.86 354.76C57.48 354.07 55.35 350.8 53.14 347.49C50.92 344.19 48.84 341.26 48.51 340.98C48.19 340.7 46.52 337.77 44.81 334.47C43.09 331.16 40.32 325.75 38.63 322.44C36.95 319.13 33.36 311.47 30.64 305.41C27.92 299.34 25.38 292.8 25 290.88C24.61 288.95 23.62 285.34 22.8 282.86C21.98 280.38 20.17 275.64 18.77 272.34C17.38 269.03 15.72 265.99 15.1 265.59C14.47 265.18 13.7 264.84 13.39 264.84C13.09 264.83 13.35 267.64 13.99 271.08Z" />
		<path id="Path 8" class="shp4" d="M26.48 267.83C26.48 268.38 27.76 272.32 29.33 276.6C30.89 280.87 32.52 286.17 32.94 288.37C33.36 290.57 35.28 295.76 37.2 299.89C39.12 304.03 41.73 309.89 43.01 312.92C44.28 315.95 46.79 321.14 48.57 324.45C50.36 327.75 52.35 331.13 53.01 331.96C53.67 332.79 55.19 335.61 56.38 338.22C57.57 340.84 60.04 344.68 61.87 346.74C63.7 348.81 66.29 352.08 67.62 354.01C68.95 355.94 70.95 358.58 72.06 359.87C73.17 361.17 77.69 365.21 82.1 368.85C86.51 372.49 93.05 377.15 96.63 379.21C100.21 381.27 103.26 382.75 103.39 382.51C103.53 382.27 101.5 379.09 98.88 375.46C96.27 371.82 91.62 365.62 88.57 361.68C85.52 357.74 81.02 351.58 78.57 348C76.13 344.41 73.05 340.13 71.73 338.48C70.41 336.82 67.66 332.54 65.62 328.96C63.58 325.37 60.21 318.38 58.14 313.42C56.07 308.46 53.18 301.92 51.7 298.89C50.23 295.86 48.76 293.16 48.43 292.88C48.1 292.6 46.59 289.45 45.07 285.86C43.55 282.28 41.91 278.34 41.41 277.1C40.92 275.86 40.06 274.84 39.51 274.84C38.96 274.84 38.06 273.04 37.5 270.83L36.5 266.82C28.74 266.82 26.48 267.28 26.48 267.83ZM264.17 274.59L264.48 278.35C272.25 278.74 280.59 279.78 288.03 280.92C295.47 282.05 305.39 283.7 310.08 284.57C314.76 285.44 320.17 286.21 322.1 286.26C325.03 286.35 325.65 286 325.86 284.11C326.02 282.66 325.57 281.86 324.61 281.86C323.78 281.86 320.51 280.96 317.34 279.86C314.17 278.76 305.04 276.68 297.05 275.23C289.06 273.78 280.49 272.23 278.01 271.78C275.53 271.32 271.33 270.93 268.68 270.89L263.85 270.83L264.17 274.59Z" />
		<path id="Path 9" class="shp5" d="M52.2 280.35C51.83 280.63 52.21 281.53 53.04 282.36C53.86 283.18 54.77 283.86 55.04 283.86C55.32 283.86 58.14 285.39 61.3 287.26C64.47 289.13 70.22 291.62 74.08 292.81C77.94 293.99 89.89 296.77 100.64 298.98C111.38 301.2 120.4 303.18 120.68 303.38C120.95 303.58 124.56 304.47 128.7 305.36C132.83 306.25 139.82 307.42 144.23 307.95C148.64 308.48 154.95 309.56 158.26 310.36C161.56 311.15 168.33 312.68 173.29 313.76C178.25 314.84 186.82 316.46 192.33 317.38C197.84 318.29 205.96 319.68 210.37 320.48C214.78 321.27 223.8 322.8 230.41 323.88C237.02 324.96 251 326.74 261.47 327.83C271.95 328.92 291.56 330.3 305.07 330.89C318.57 331.48 342.24 332.16 357.68 332.39C373.11 332.63 390.02 332.39 395.25 331.86C400.49 331.34 405.36 330.36 406.08 329.68C406.8 329.01 407.84 326.88 408.41 324.95C408.97 323.02 409.29 321.35 409.11 321.24C408.93 321.13 394.8 321.47 377.72 321.99C356.04 322.66 342.26 322.61 332.12 321.84C324.13 321.23 311.96 320.57 305.07 320.37C298.18 320.17 289.83 319.78 286.53 319.49C283.22 319.21 277.13 318.72 273 318.41C268.86 318.11 258.04 317.18 248.95 316.35C239.85 315.53 227.9 314.39 222.39 313.83C216.88 313.27 205.38 311.7 196.84 310.33C188.3 308.97 178.83 307.42 175.79 306.89C172.76 306.36 166.45 305.45 161.77 304.88C157.08 304.3 146.93 302.29 139.22 300.4C131.5 298.52 122.48 296.53 119.18 295.98C115.87 295.43 107.98 293.83 101.64 292.42C95.3 291 84.25 288.47 77.09 286.78C69.92 285.09 61.75 282.84 58.93 281.78C56.1 280.72 53.59 279.85 53.33 279.85C53.08 279.85 52.57 280.08 52.2 280.35Z" />
		<path id="Path 10" class="shp1" d="M154.19 280.71C153.98 281.06 154.8 282.32 156.03 283.49C157.26 284.67 159.84 286.44 161.77 287.43C163.69 288.42 167.08 291.03 169.28 293.23C171.69 295.64 175.08 297.77 177.8 298.58C180.28 299.32 183.1 299.91 184.06 299.91C185.17 299.9 183.51 297.95 179.55 294.62C176.11 291.71 170.92 287.65 168.03 285.6C165.13 283.54 160.93 281.45 158.68 280.96C156.43 280.47 154.41 280.35 154.19 280.71Z" />
		<path id="Path 11" class="shp5" d="M342.63 280.9C342.36 281.43 343.61 282.46 345.4 283.2C347.19 283.94 355.2 288.29 363.19 292.87C371.18 297.46 379.3 302.38 381.23 303.81C383.15 305.24 385.3 306.97 385.99 307.66C386.67 308.35 387.8 308.92 388.49 308.94C389.18 308.95 390.87 309.84 392.25 310.92C393.63 312 395.43 312.87 396.26 312.87C397.37 312.86 397.22 312.41 395.68 311.13C394.53 310.19 392.51 308.62 391.17 307.64C389.83 306.67 386.26 304.24 383.23 302.25C380.2 300.25 371.86 295.23 364.69 291.09C357.53 286.95 349.74 282.74 347.39 281.75C344.92 280.71 342.91 280.35 342.63 280.9Z" />
		<path id="Path 12" class="shp4" d="M137.71 281.86C137.71 282.41 139.66 285.23 142.04 288.12C145.48 292.3 147.33 293.64 151.06 294.63C153.64 295.32 156.77 295.87 158.01 295.85C159.98 295.83 160.07 295.67 158.67 294.6C157.8 293.93 155.54 292.16 153.66 290.66C151.78 289.17 147.99 286.35 145.23 284.4C142.47 282.45 139.66 280.85 138.97 280.85C138.28 280.85 137.71 281.31 137.71 281.86Z" />
		<path id="Path 13" class="shp1" d="M116.18 282.55C115.08 282.8 114.28 283.31 114.39 283.68C114.51 284.06 115.41 285.14 116.39 286.1C117.52 287.2 120.73 288.12 125.12 288.6L132.07 289.37C127.39 282.18 126.83 281.89 122.68 281.98C120.2 282.04 117.28 282.3 116.18 282.55Z" />
		<path id="Path 14" class="shp4" d="M178.82 283.47C179.64 284.35 184.55 288.3 189.74 292.24C194.93 296.17 199.66 300.16 200.26 301.09C201 302.24 203.76 303.12 208.86 303.84C213 304.42 216.61 304.67 216.88 304.4C217.16 304.12 217.16 303.75 216.88 303.57C216.61 303.39 213.45 301.26 209.87 298.83C206.28 296.4 201.54 292.61 199.32 290.39C197.1 288.18 193.95 285.34 192.31 284.08C189.95 282.27 188.07 281.79 183.33 281.82C177.87 281.85 177.47 282 178.82 283.47Z" />
		<path id="Path 15" class="shp1" d="M205.04 284.59C206.52 286.12 211.63 290.07 216.39 293.38C221.16 296.69 227.27 301.08 229.99 303.15C233.52 305.84 235.76 306.84 237.87 306.66L240.82 306.41C234.3 298.78 229.26 293.24 225.4 289.18L218.38 281.79L202.35 281.81L205.04 284.59Z" />
		<path id="Path 16" class="shp4" d="M95.68 283.81C95.65 284.39 96.3 285.09 97.13 285.36C97.96 285.64 100.49 285.86 102.76 285.86C105.63 285.86 106.75 285.48 106.44 284.61C106.18 283.89 103.82 283.23 100.86 283.06C97.77 282.87 95.71 283.17 95.68 283.81ZM232.43 284.63C232.99 285.03 236.14 288.52 239.44 292.38C242.74 296.24 246.12 299.81 246.94 300.32C247.77 300.83 250.03 302.93 251.95 304.98C255.18 308.42 256.11 308.81 263.48 309.76C267.89 310.34 271.83 310.49 272.24 310.11C272.65 309.73 271.31 307.61 269.25 305.41L265.51 301.4C264.71 305.93 264.03 307.41 263.48 307.62C262.93 307.82 259.32 305.9 255.46 303.34C251.6 300.78 247.43 297.61 246.19 296.29C244.95 294.96 243.94 292.75 243.94 291.38C243.94 290 243.37 287.73 242.69 286.34C241.59 284.12 240.81 283.81 236.42 283.85C233.67 283.87 231.87 284.22 232.43 284.63ZM334.07 285.9C334.1 286.43 335.59 288.25 337.38 289.95C339.17 291.64 343.57 295.01 347.15 297.42C350.74 299.84 357.73 304.55 362.69 307.88C371.29 313.67 371.96 313.94 377.22 313.69L382.73 313.42C370.3 304.37 363.31 299.88 359.18 297.6C355.05 295.33 347.69 291.54 342.84 289.2C337.99 286.85 334.04 285.37 334.07 285.9Z" />
		<path id="Path 17" class="shp1" d="M263.95 288.62C263.93 290.39 264.92 292.28 266.71 293.89C268.24 295.27 273.1 299.6 277.51 303.51L285.52 310.63C294.84 310.66 298.56 310.95 299.8 311.3C301.04 311.64 302.28 311.47 302.56 310.92C302.84 310.37 297.81 306.87 291.38 303.15C284.96 299.43 279.08 295.48 278.31 294.38C277.54 293.28 274.79 290.9 272.2 289.1C269.61 287.3 266.7 285.83 265.73 285.84C264.5 285.86 263.97 286.68 263.95 288.62Z" />
		<path id="Path 18" class="shp4" d="M284.52 289.38C285.63 290.26 292.16 294.34 299.05 298.45C305.94 302.56 313.38 307.48 315.59 309.39C318.62 312 320.82 312.98 324.61 313.4C327.36 313.71 329.73 313.72 329.87 313.44C330.01 313.15 327.34 311.46 323.93 309.66C320.53 307.87 314.56 303.56 310.66 300.07C306.75 296.58 301.31 292.67 298.55 291.37C295.8 290.08 291.06 288.74 288.03 288.4C282.86 287.82 282.64 287.88 284.52 289.38Z" />
		<path id="Path 19" class="shp1" d="M315.2 293.28C315.14 293.61 317.57 295.69 320.6 297.89C323.63 300.09 328.14 302.8 330.62 303.9C333.1 305 337.27 307.92 339.89 310.38C344.26 314.49 345.08 314.86 349.91 314.89C352.8 314.91 355.39 314.59 355.65 314.17C355.91 313.76 353.99 311.97 351.39 310.2C348.78 308.43 344.12 305.27 341.03 303.19C337.94 301.1 334.55 298.54 333.51 297.5C332.47 296.46 330.72 295.27 329.62 294.87C328.51 294.46 324.84 293.8 321.46 293.41C318.08 293.01 315.26 292.95 315.2 293.28Z" />
		<path id="Path 20" class="shp4" d="M60.57 297.64C60.58 298.05 60.92 298.86 61.32 299.43C61.73 300 64.76 302.55 68.07 305.1C71.38 307.64 77.24 311.05 81.1 312.67C84.95 314.29 93.75 317.03 100.64 318.75C107.53 320.47 120.6 323.67 129.7 325.85C138.79 328.03 148.71 330.11 151.74 330.46C154.78 330.81 162.67 331.99 169.28 333.09C175.9 334.18 186.04 335.94 191.83 337C197.62 338.06 210.47 339.62 220.39 340.47C230.31 341.31 242.48 342.66 247.45 343.47C252.41 344.28 261.88 345.42 268.49 346C275.1 346.58 289.53 347.12 300.56 347.2C311.58 347.27 327.59 346.81 336.13 346.16C344.67 345.5 357.87 344.41 365.45 343.73C373.04 343.04 379.24 342.15 379.23 341.73C379.23 341.32 375.95 340.97 371.96 340.96C367.96 340.94 348.23 340.49 328.11 339.95C308 339.42 286.35 338.54 280.01 338.01C273.67 337.47 262.4 336.35 254.96 335.51C247.52 334.67 235.57 333.06 228.41 331.93C221.24 330.81 212.22 329.26 208.36 328.5C204.5 327.73 196.61 326.33 190.83 325.38C185.04 324.43 172.41 321.92 162.77 319.8C153.12 317.68 143.88 315.95 142.22 315.95C140.57 315.95 135.84 315.24 131.7 314.36C127.57 313.49 121.93 312.15 119.18 311.38C116.42 310.62 107.18 308.61 98.63 306.93C90.09 305.25 79.49 302.91 75.08 301.74C70.67 300.57 65.83 299 64.31 298.25C62.8 297.5 61.33 296.89 61.05 296.89C60.78 296.89 60.56 297.23 60.57 297.64Z" />
		<path id="Path 21" class="shp1" d="M68.99 316.83C68.79 317.16 69.36 318.78 70.25 320.44C71.15 322.09 72.6 323.96 73.48 324.59C74.36 325.22 76.44 326.98 78.09 328.5C79.74 330.03 82.9 332.04 85.1 332.97C87.31 333.9 94.07 336.11 100.14 337.88C106.2 339.64 112.74 341.69 114.67 342.43C116.6 343.17 122.68 344.75 128.2 345.95C133.71 347.15 141.37 348.51 145.23 348.97C149.09 349.43 159.91 350.97 169.28 352.4C178.65 353.83 189.7 355.65 193.83 356.45C197.97 357.25 205.86 358.6 211.37 359.45C216.88 360.31 231.54 361.47 243.94 362.05C256.34 362.63 278.89 363.52 294.04 364.04C311.04 364.61 331.39 364.62 347.15 364.04C361.21 363.53 373.01 362.76 373.38 362.32C373.75 361.88 374.43 359.13 374.89 356.21L375.71 350.9C371.05 351.79 362.04 352.5 352.67 353.06C343.3 353.62 330.22 354.52 323.6 355.07C316.99 355.61 304.14 355.79 295.04 355.47C285.95 355.15 271.07 354.21 261.98 353.38C252.88 352.56 245.1 351.68 244.69 351.44C244.28 351.2 234.58 350.12 223.14 349.03C211.71 347.95 191.08 345.21 177.3 342.94C163.52 340.67 146.83 337.76 140.22 336.46C133.61 335.16 122.78 332.76 116.17 331.12C109.56 329.49 99.41 326.93 93.62 325.43C87.84 323.94 80 321.25 76.22 319.47C72.44 317.69 69.18 316.5 68.99 316.83Z" />
		<path id="Path 22" class="shp4" d="M86.07 344.61C87.06 346.19 89.05 348.74 90.5 350.27C91.94 351.8 93.69 353.04 94.37 353.03C95.06 353.02 97.77 354.08 100.39 355.39C103 356.7 107.63 358.48 110.66 359.34C113.69 360.2 120.9 361.86 126.69 363.02C132.48 364.19 143.08 366.44 150.24 368.03C157.41 369.63 167.33 371.19 172.29 371.51C177.25 371.83 185.59 372.51 190.83 373.02C196.06 373.54 206.66 374.67 214.38 375.53C222.09 376.4 235.39 377.78 243.94 378.59C253.94 379.55 278.03 380.31 311.58 380.72L363.69 381.37C367.13 375.31 368.15 373.1 368.17 372.55C368.19 371.89 361.25 371.79 347.91 372.26C336.75 372.65 316.56 372.75 303.06 372.49C289.56 372.23 271.75 371.57 263.48 371.03C255.21 370.48 239.88 369.56 229.41 368.98C218.94 368.4 206.99 367.27 202.85 366.46C198.72 365.65 191.5 364.36 186.82 363.59C182.13 362.81 170.41 361.01 160.76 359.58C151.12 358.15 138.94 356.25 133.71 355.35C128.47 354.45 121.48 352.94 118.17 351.98C114.87 351.02 106.98 348.66 100.64 346.75C94.3 344.84 88.02 342.92 86.69 342.5L84.27 341.72L86.07 344.61Z" />
		<path id="Path 23" class="shp1" d="M103.31 367.18C103.68 367.93 105.37 370.33 107.07 372.51C108.77 374.7 112.64 378.89 115.67 381.82C119.12 385.17 124.17 388.6 129.2 391.02C133.61 393.15 139.02 395.42 141.22 396.06C143.43 396.71 147.49 397.89 150.24 398.68C153 399.47 162.02 401.03 170.28 402.14C178.55 403.25 190.73 404.79 197.34 405.56C203.95 406.33 215.23 407.45 222.39 408.05C229.56 408.64 239.25 409.12 243.94 409.11C249.35 409.09 254.1 409.68 256.96 410.71C259.98 411.8 266.3 412.52 276 412.87C284.4 413.18 295.41 412.9 302.06 412.2C308.4 411.54 316.97 410.07 321.1 408.95C325.23 407.82 331.32 405.78 334.63 404.41C337.93 403.05 343.23 400.28 346.39 398.26C349.56 396.24 352.14 393.92 352.14 393.09C352.13 392.26 352.7 390.98 353.4 390.23C354.46 389.1 353.44 388.96 347.15 389.36C343.02 389.63 322.05 389.45 300.56 388.97C279.06 388.49 255.16 387.6 247.45 387C239.73 386.39 225.75 385.02 216.38 383.95C207.01 382.88 194.61 381.56 188.82 381.03C183.03 380.49 173.34 379.61 167.28 379.08C161.21 378.55 153.77 377.42 150.74 376.59C147.71 375.75 141.85 374.41 137.71 373.61C133.58 372.8 124.79 370.99 118.17 369.58C111.56 368.17 105.36 366.74 104.4 366.42C103.15 365.99 102.84 366.21 103.31 367.18Z" />
	</g>
	<text id="2:1 " style="transform: matrix(0.995,-0.105,0.105,0.995,197.956,226.401)" >
		<tspan x="0" y="0" class="txt6">2:1</tspan>
	</text>
	<g id="brick">
		<path id="Path 0" class="shp0" d="M256.54 27.01C255.85 27.4 254.94 28.12 254.5 28.62C254.07 29.12 253.7 29.65 253.69 29.79C253.67 29.94 253.27 30.39 252.8 30.79C252.21 31.28 251.15 31.44 249.43 31.29C247.39 31.12 246.38 31.35 244.06 32.49C242.49 33.27 240.99 33.89 240.73 33.87C240.47 33.85 240.25 33.99 240.23 34.18C240.21 34.38 239.48 34.78 238.61 35.08C237.73 35.38 235.89 36.18 234.52 36.87C233.15 37.55 231.58 38.34 231.04 38.63C230.5 38.91 229.17 39.48 228.09 39.88C227.01 40.28 225.32 41.26 224.34 42.06C223.35 42.85 222.22 44.32 221.82 45.32C221.4 46.39 220.14 47.95 218.78 49.08C217.51 50.15 216.44 51.23 216.41 51.49C216.39 51.75 215.55 52.64 214.55 53.47C213.56 54.3 212.72 55.19 212.69 55.45C212.66 55.71 211.37 57.15 209.81 58.65C208.25 60.15 206.79 61.94 206.56 62.64C206.33 63.34 205.77 64.2 205.31 64.56C204.85 64.91 204.35 65.43 204.21 65.7C204.06 65.98 201.85 67.4 199.3 68.84C196.75 70.29 194.65 71.64 194.64 71.83C194.63 72.03 194.42 72.17 194.16 72.15C193.9 72.13 192.44 72.8 190.91 73.65C189.39 74.5 188 75.61 187.83 76.12C187.65 76.62 187.68 78.93 187.88 81.23C188.1 83.74 188.56 85.79 189.01 86.34C189.42 86.84 190.42 87.62 191.23 88.08C192.05 88.53 192.69 89.06 192.68 89.25C192.66 89.45 193.26 89.88 194.02 90.2C194.78 90.53 195.38 91.01 195.35 91.27C195.33 91.53 195.1 91.72 194.84 91.7C194.58 91.68 193.88 91.99 193.28 92.4C192.67 92.8 191.53 93.67 190.73 94.32C189.94 94.97 189.12 95.48 188.93 95.45C188.74 95.43 188.01 95.8 187.31 96.28C186.62 96.76 185.84 97.12 185.58 97.08C185.32 97.04 184.65 97.35 184.1 97.77C183.54 98.18 182.97 99.16 182.84 99.93C182.71 100.7 182.71 101.67 182.84 102.07C182.96 102.47 183.04 103.98 183.01 105.41C182.98 106.99 183.26 108.52 183.73 109.28C184.16 109.97 185.09 110.91 185.8 111.36C186.5 111.81 187.58 112.71 188.19 113.35C188.8 114 190.22 115.05 191.34 115.69C192.71 116.48 193.85 116.81 194.82 116.69C195.61 116.6 196.83 116.05 197.54 115.48C198.24 114.91 199.54 113.9 200.42 113.24C201.29 112.59 203.07 111.23 204.36 110.23C205.82 109.1 206.68 108.68 206.64 109.12C206.61 109.51 206.34 109.86 206.04 109.9C205.65 109.96 205.57 110.88 205.74 113.44C205.87 115.35 206.17 117.03 206.42 117.19C206.67 117.34 206.84 117.83 206.79 118.29C206.74 118.74 207.04 119.61 207.45 120.23C207.86 120.84 208.57 121.38 209.03 121.43C209.48 121.48 210.74 121.8 211.82 122.14C212.9 122.47 215.19 123.21 216.91 123.77C218.62 124.32 220.66 124.84 221.44 124.9C222.62 125.01 223.03 124.74 223.84 123.33C224.38 122.39 224.98 121.59 225.18 121.54C225.38 121.49 225.57 121.14 225.61 120.75C225.64 120.36 226.29 119.02 227.05 117.78C227.81 116.54 228.46 115.21 228.5 114.82C228.53 114.43 228.72 114.12 228.91 114.14C229.11 114.15 229.58 113.6 229.97 112.92C230.36 112.24 230.69 111.47 230.69 111.2C230.7 110.94 231.07 110.44 231.51 110.09C231.95 109.73 232.4 109.56 232.5 109.7C232.61 109.84 232.8 111.3 232.93 112.94C233.14 115.76 233.24 115.96 234.65 116.47C235.49 116.76 237.63 116.94 239.49 116.86C241.33 116.78 243.49 116.58 244.29 116.4C245.08 116.23 246.64 116.16 247.74 116.25C248.85 116.34 250.42 116.16 251.23 115.83C252.5 115.33 252.73 114.99 252.87 113.36C252.96 112.32 253.17 111.16 253.33 110.79C253.49 110.41 253.84 110.12 254.1 110.14C254.36 110.16 254.55 111.41 254.53 112.91C254.51 114.41 254.53 116.82 254.57 118.26C254.62 119.71 254.81 121.01 255 121.15C255.2 121.3 255.44 121.96 255.55 122.63C255.65 123.29 256.27 124.57 256.92 125.47C257.57 126.38 258.31 127.14 258.57 127.17C258.83 127.2 261.36 126.32 264.2 125.21C267.05 124.1 269.44 123.01 269.52 122.8C269.61 122.59 269.89 122.44 270.15 122.46C270.41 122.49 271.22 122.08 271.95 121.55C272.69 121.03 273.6 120.36 273.98 120.06C274.37 119.77 274.73 118.89 274.8 118.11C274.89 117.08 275.22 116.61 276.02 116.39C276.62 116.21 278.41 116.02 279.98 115.95C281.55 115.89 283.38 115.85 284.03 115.86C284.68 115.87 285.82 115.67 286.56 115.42C287.3 115.17 288.05 114.5 288.23 113.93C288.41 113.35 288.73 111.94 288.95 110.78C289.17 109.62 289.46 107.56 289.59 106.2C289.76 104.46 290 103.79 290.41 103.93C290.73 104.05 291.16 104.58 291.38 105.12C291.59 105.66 292.39 107 293.15 108.09C293.91 109.18 294.99 110.92 295.55 111.95C296.11 112.97 296.55 114.03 296.53 114.29C296.5 114.55 296.9 114.9 297.41 115.08C297.92 115.25 298.27 115.55 298.2 115.74C298.13 115.93 298.29 116.59 298.55 117.2C298.81 117.81 299.35 118.34 299.74 118.37C300.13 118.4 300.43 118.64 300.4 118.9C300.38 119.16 300.84 119.48 301.41 119.61C301.99 119.74 303.13 119.57 303.94 119.23C304.76 118.9 305.49 118.47 305.57 118.28C305.65 118.09 306.3 117.99 307.01 118.06C307.73 118.12 309.2 117.84 310.28 117.43C311.36 117.02 312.89 116.6 313.69 116.49C314.48 116.38 315.85 116 316.74 115.64L318.34 114.99C318.85 109.14 319.23 107.14 319.51 106.77C319.92 106.23 320.12 106.22 320.57 106.75C320.88 107.11 321.5 107.43 321.96 107.46C322.41 107.5 322.77 107.69 322.75 107.88C322.73 108.08 323.54 108.68 324.54 109.23C325.6 109.8 326.81 110.12 327.44 110C328.04 109.88 329.8 108.74 331.35 107.47C332.89 106.19 334.27 105.16 334.4 105.18C334.52 105.2 335.78 104.09 337.2 102.71L339.76 100.2C339.87 93.21 339.82 90.75 339.72 90.22C339.62 89.68 338.78 88.84 337.85 88.35C336.93 87.85 335.18 87.06 333.97 86.58C332.18 85.88 331.79 85.53 331.88 84.66C331.94 84.08 332.2 83.62 332.46 83.64C332.72 83.67 333.4 83.03 333.97 82.23C334.54 81.43 335.21 80.04 335.47 79.15C335.77 78.12 335.73 76.15 335.38 73.79C334.95 70.88 334.64 70.03 334 69.98C333.54 69.95 333.19 69.71 333.21 69.45C333.23 69.19 332.67 68.93 331.95 68.87C331.24 68.81 329.64 68.18 328.39 67.46C327.15 66.74 325.19 65.79 324.06 65.35C322.92 64.91 320.24 63.77 318.1 62.82C315.95 61.87 314.07 60.83 313.91 60.5C313.74 60.17 313.69 58.9 313.79 57.66C313.95 55.78 313.79 55.25 312.77 54.33C312.1 53.73 310.87 52.48 310.04 51.56C309.2 50.64 307.86 49.47 307.05 48.96C305.72 48.12 305.4 48.09 303.52 48.58C302.38 48.88 301.4 49.12 301.34 49.11C301.27 49.1 301.24 48.72 301.27 48.26C301.31 47.81 301.1 47.05 300.83 46.57C300.55 46.1 298.83 45.04 297 44.22C295.18 43.4 293.42 42.71 293.1 42.69C292.77 42.68 292.15 41.87 291.71 40.9C291.13 39.63 290.45 38.98 289.29 38.58C288.4 38.28 284.29 37.61 280.15 37.11C273.01 36.24 272.58 36.13 271.87 35.04C271.46 34.4 271.15 33.46 271.2 32.94C271.24 32.42 270.98 31.24 270.61 30.31C270.17 29.19 269.41 28.38 268.35 27.89C267.47 27.49 264.73 26.97 262.27 26.73C258.77 26.4 257.51 26.46 256.54 27.01Z" />
		<path id="Path 1" fill-rule="evenodd" class="shp7" d="M261.98 28.81C263.99 28.99 266.03 29.42 266.52 29.77C267.4 30.39 267.39 30.44 265.89 32.8C265.05 34.12 263.49 36.41 262.43 37.89C261.37 39.36 259.87 41.36 259.09 42.33C257.98 43.72 256.89 44.35 254 45.31C250.9 46.33 249.73 46.47 246.44 46.21C244.3 46.05 242.46 45.74 242.36 45.54C242.26 45.33 242.94 44.25 243.88 43.14C244.81 42.02 246.28 40.36 247.14 39.45C248.01 38.53 249.06 37.44 249.49 37.02C249.92 36.6 251.69 34.65 253.43 32.69C255.17 30.72 256.99 28.98 257.46 28.81C257.94 28.64 259.98 28.64 261.98 28.81ZM271.14 31.03C271.51 31.59 271.74 32.57 271.65 33.22C271.5 34.29 271.47 34.27 271.28 32.95C271.17 32.15 270.94 31.17 270.77 30.76C270.61 30.36 270.77 30.48 271.14 31.03ZM249.73 30.4C250.3 30.47 251.18 30.74 251.68 31.01C252.36 31.38 252.03 31.46 250.34 31.34C248.98 31.24 248.21 31 248.4 30.73C248.56 30.48 249.16 30.33 249.73 30.4ZM269.53 32.09C269.73 32.1 269.96 32.44 270.06 32.84C270.16 33.24 270.18 34.15 270.11 34.87C270.04 35.58 268.73 38.19 267.19 40.68C265.66 43.16 264.2 45.38 263.94 45.62C263.64 45.91 262.93 45.72 261.89 45.09C261.01 44.56 260.3 44.01 260.31 43.88C260.32 43.75 260.78 42.99 261.33 42.19C261.88 41.39 262.94 39.82 263.69 38.71C264.44 37.6 265.75 35.78 266.61 34.68C267.46 33.58 268.39 32.54 268.67 32.37C268.95 32.2 269.34 32.08 269.53 32.09ZM249.51 32.74C249.96 32.77 250.31 33.12 250.27 33.51C250.24 33.9 248.72 35.74 246.91 37.61C245.09 39.48 242.73 41.39 241.67 41.85C240.6 42.31 238.95 43.04 238 43.48C237.05 43.91 235.03 44.92 233.53 45.72C232.02 46.51 229.46 47.62 227.85 48.19C226.23 48.75 224.65 49.06 224.34 48.89C224.03 48.71 223.84 47.77 223.92 46.79C224 45.82 224.36 44.7 224.73 44.31C225.09 43.91 226.73 42.9 228.38 42.05C230.02 41.21 232.14 40.16 233.09 39.72C234.05 39.29 236.38 38.26 238.28 37.44C240.19 36.62 243.3 35.21 245.21 34.31C247.12 33.41 249.05 32.7 249.51 32.74ZM286.61 39.35C286.88 39.3 287.33 39.62 287.62 40.05C288.05 40.68 287.96 41.14 287.17 42.47C286.64 43.37 285.88 44.32 285.49 44.58C285.08 44.85 282.36 44.9 279.06 44.68C275.92 44.48 272.09 44.04 270.55 43.69C267.92 43.11 267.76 43 268 41.92C268.13 41.29 268.71 40.22 270.3 38.33L278.21 38.88C282.57 39.19 286.34 39.4 286.61 39.35ZM289.62 43.33C289.99 43.36 290.38 43.88 290.47 44.47C290.57 45.07 290.35 46.17 289.98 46.93C289.62 47.68 288.86 48.84 288.3 49.52C287.75 50.19 286.97 50.71 286.58 50.67C286.06 50.63 285.91 50.04 286.03 48.41C286.15 46.72 286.5 45.87 287.56 44.74C288.31 43.93 289.24 43.3 289.62 43.33ZM292.45 44.53C292.65 44.55 293.59 44.84 294.54 45.19C295.49 45.53 296.35 46.14 296.45 46.54C296.56 47 295.76 47.79 294.24 48.71C292.93 49.5 291.48 50.13 291.03 50.1C290.44 50.05 290.31 49.81 290.58 49.24C290.78 48.8 291.1 47.81 291.28 47.04C291.46 46.27 291.71 45.38 291.84 45.07C291.98 44.75 292.25 44.51 292.45 44.53ZM279.11 46.39C281.32 46.55 283.48 46.9 283.91 47.17C284.4 47.47 284.74 48.44 284.8 49.69C284.85 50.8 284.71 51.86 284.48 52.03C284.25 52.21 281.57 51.46 278.53 50.37C275.48 49.29 272.16 48.23 271.15 48.02C269.77 47.74 269.06 47.85 268.35 48.45C267.6 49.08 267.23 49.12 266.64 48.66C266.23 48.33 265.93 47.56 265.99 46.94C266.08 45.84 266.22 45.81 270.59 45.95C273.07 46.03 276.9 46.22 279.11 46.39ZM299.53 47.99C300.22 48.05 300.3 48.46 300 50.73C299.67 53.3 299.58 53.44 297.4 54.75C296.16 55.5 294.72 56.08 294.2 56.05C293.68 56.02 292.43 55.62 291.42 55.17C290.42 54.71 289.54 54.16 289.48 53.94C289.42 53.71 290.59 52.61 292.07 51.49C293.55 50.37 295.65 49.11 296.74 48.69C297.82 48.27 299.07 47.95 299.53 47.99ZM239.68 44.71C240 44.74 240.31 45.03 240.37 45.37C240.42 45.7 240.42 46.98 240.36 48.22C240.26 50.29 240.12 50.53 238.63 51.25C237.75 51.69 235.7 52.74 234.09 53.59C232.47 54.45 230.23 55.64 229.1 56.24C227.98 56.84 226.68 57.32 226.23 57.3C225.68 57.27 225.36 56.82 225.29 55.95C225.23 55.22 225.11 53.98 225.02 53.18C224.89 52.11 225.1 51.54 225.78 51.03C226.29 50.64 228.71 49.49 231.15 48.46C233.59 47.42 236.38 46.15 237.34 45.62C238.3 45.09 239.35 44.68 239.68 44.71ZM260.44 46.54C261.28 46.6 262.06 46.86 262.17 47.13C262.27 47.4 265.79 50.67 269.98 54.39C274.16 58.12 277.83 61.54 278.11 61.99C278.55 62.68 278.49 62.88 277.78 63.15C277.3 63.32 275.49 63.84 273.75 64.3C272.01 64.76 270.37 65.25 270.09 65.4C269.82 65.55 268.72 65.88 267.65 66.14C265.98 66.55 265.56 66.5 264.59 65.8C263.98 65.35 260.61 61.6 257.11 57.46C253.61 53.33 250.78 49.63 250.81 49.24C250.85 48.85 251.54 48.27 252.35 47.95C253.16 47.63 254.97 47.15 256.36 46.9C257.76 46.65 259.59 46.48 260.44 46.54ZM305.73 50.47C306.06 50.48 306.97 51.12 307.75 51.91C308.53 52.69 309.4 53.68 309.68 54.1C309.97 54.51 310.18 55.07 310.17 55.33C310.15 55.59 307.89 56.44 305.15 57.21C302.33 58.01 299.81 58.47 299.35 58.26C298.91 58.06 298.59 57.41 298.63 56.83C298.67 56.24 299.18 55.38 299.76 54.9C300.35 54.43 300.83 53.73 300.85 53.33C300.86 52.94 301.26 52.34 301.73 51.98C302.2 51.63 303.16 51.15 303.86 50.9C304.57 50.66 305.41 50.46 305.73 50.47ZM246.07 47.7C247.59 47.77 247.6 47.8 247.19 49.52C246.96 50.48 246.64 51.74 246.47 52.31C246.27 53.02 245.84 53.33 245.11 53.27C244.53 53.23 243.73 52.89 243.34 52.52C242.95 52.16 242.45 51.1 242.23 50.16C242.02 49.23 242.01 48.34 242.22 48.19C242.44 48.03 243.04 47.84 243.57 47.76C244.1 47.68 245.23 47.65 246.07 47.7ZM271.86 50.53C273.14 50.79 276.47 51.83 279.26 52.84C282.05 53.86 285.99 55.28 288.02 56.01C290.05 56.75 292.85 57.76 294.24 58.27C295.64 58.79 296.99 59.48 297.26 59.82C297.52 60.16 297.91 61.2 298.13 62.13C298.35 63.07 298.51 64.1 298.47 64.42C298.44 64.74 297.94 64.97 297.35 64.92C296.77 64.88 294.31 64.25 291.89 63.53C289.46 62.81 285.83 61.56 283.81 60.74C281.79 59.92 279.51 59.05 278.75 58.81C277.98 58.57 276.55 57.81 275.56 57.12C274.58 56.43 273.48 55.55 273.12 55.16C272.76 54.76 271.62 53.78 270.57 52.97C269.53 52.16 268.66 51.32 268.64 51.1C268.61 50.88 268.8 50.55 269.06 50.38C269.31 50.2 270.57 50.27 271.86 50.53ZM249.17 51.71C249.76 51.76 252.63 54.79 256.8 59.74C260.47 64.11 263.56 68.18 263.65 68.77C263.75 69.37 263.71 70.49 263.56 71.26C263.35 72.32 263.02 72.67 262.21 72.69C261.58 72.71 260.99 72.36 260.78 71.85C260.58 71.38 257.88 67.88 254.78 64.08C251.67 60.29 248.88 56.51 248.56 55.7C248.24 54.89 248.04 53.64 248.11 52.93C248.2 51.95 248.46 51.65 249.17 51.71ZM221.49 49.78C221.77 49.8 222.2 50.75 222.46 51.89C222.71 53.03 223.29 54.7 223.75 55.6C224.21 56.51 224.51 57.71 224.41 58.27C224.32 58.84 223.41 60.25 222.41 61.4C221.4 62.56 220.56 63.71 220.54 63.97C220.51 64.23 220.28 64.43 220.02 64.4C219.76 64.38 219.52 64.68 219.49 65.07C219.46 65.46 219.06 65.77 218.6 65.76C218.14 65.75 217.24 65.66 216.6 65.56C215.95 65.47 213.91 64.95 212.06 64.41C209.76 63.73 208.71 63.21 208.73 62.73C208.75 62.35 211.04 59.71 213.82 56.87C216.6 54.03 219.35 51.27 219.92 50.73C220.5 50.19 221.21 49.76 221.49 49.78ZM311.4 57.73C311.78 57.81 312.11 58.25 312.14 58.71C312.17 59.17 311.76 59.72 311.21 59.94C310.67 60.15 308.83 60.37 307.13 60.41C304.77 60.48 304.04 60.36 304.08 59.91C304.11 59.59 304.63 59.12 305.25 58.86C305.86 58.61 307.33 58.22 308.53 58C309.73 57.77 311.02 57.65 311.4 57.73ZM239.61 54.26C240.43 54.36 241.61 54.63 242.24 54.87C242.88 55.1 243.43 55.61 243.47 56C243.52 56.48 242.52 56.94 240.25 57.47C238.44 57.9 236.59 58.22 236.13 58.19C235.68 58.15 235.29 57.89 235.26 57.61C235.24 57.33 235.88 56.42 236.68 55.59C237.81 54.42 238.46 54.13 239.61 54.26ZM308.49 62.62C310.11 62.72 311.54 63.02 311.65 63.28C311.77 63.54 311.3 64.7 310.6 65.87C309.9 67.03 309.16 68.05 308.96 68.13C308.76 68.2 307.34 67.26 305.81 66.03C304.29 64.8 302.9 63.56 302.74 63.27C302.56 62.95 303.04 62.68 303.99 62.58C304.84 62.49 306.86 62.51 308.49 62.62ZM232.36 56.94C232.64 56.95 232.82 57.33 232.76 57.78C232.7 58.26 231.73 58.98 230.43 59.5C229.21 60 227.92 60.64 227.55 60.92C227.19 61.2 226.69 62.16 226.44 63.06C226.06 64.41 225.49 64.93 222.98 66.21C221.06 67.19 219.82 67.57 219.54 67.26C219.25 66.94 219.55 66.27 220.4 65.3C221.11 64.5 222.95 62.71 224.48 61.34C226.01 59.97 227.56 58.88 227.92 58.91C228.28 58.94 228.55 58.79 228.51 58.57C228.48 58.35 229.21 57.89 230.15 57.55C231.08 57.21 232.08 56.94 232.36 56.94ZM247.42 58.23C247.97 58.25 249.04 59.12 249.97 60.32C251.31 62.04 251.47 62.49 250.92 63.06C250.56 63.43 248.53 64.09 246.4 64.53C244.27 64.97 240.58 65.6 238.2 65.93C235.81 66.27 233.65 66.53 233.39 66.52C233.13 66.52 232.08 65.63 231.07 64.55C230.05 63.47 229.24 62.32 229.27 62C229.29 61.67 229.7 61.34 230.16 61.25C230.63 61.17 233.07 60.75 235.59 60.32C238.11 59.9 241.59 59.25 243.32 58.88C245.05 58.51 246.9 58.22 247.42 58.23ZM315.63 64.12C315.88 64.14 318.81 65.35 322.15 66.8C325.49 68.25 329.24 69.97 332.77 71.84L329.69 74.41C328 75.82 326.23 77.15 325.75 77.37C325.11 77.66 324.02 77.32 321.58 76.09C319.77 75.18 317.59 74.08 316.74 73.65C315.89 73.23 315.06 72.65 314.88 72.38C314.71 72.1 314.57 70.32 314.57 68.43C314.58 66.53 314.72 64.78 314.88 64.53C315.05 64.29 315.38 64.1 315.63 64.12ZM284.29 62.7C285.72 63.18 287.83 63.85 288.98 64.18C290.12 64.52 292.1 65.2 293.36 65.69C294.63 66.18 296.23 66.86 296.92 67.21C298.04 67.77 298.15 68.08 297.98 70.08C297.88 71.32 297.5 72.67 297.13 73.1C296.5 73.83 296.18 73.77 291.63 72.03C288.97 71.02 285.56 69.59 281.32 67.51L281.08 64.8C280.95 63.29 281.03 62.03 281.26 61.96C281.5 61.89 282.86 62.22 284.29 62.7ZM312.48 65.75C312.81 65.78 313.24 66.19 313.43 66.67C313.62 67.14 313.58 68.23 313.34 69.09C313.1 69.95 312.61 70.87 312.26 71.13C311.77 71.5 311.4 71.37 310.74 70.59C310.26 70.03 309.9 69.3 309.94 68.98C309.98 68.65 310.43 67.78 310.94 67.04C311.45 66.3 312.15 65.72 312.48 65.75ZM301.27 65.26C301.52 65.28 302.77 66.13 304.05 67.16C305.34 68.19 307.31 69.8 308.43 70.75C309.55 71.7 311.7 73.49 313.2 74.73C315 76.22 315.85 77.26 315.73 77.8C315.61 78.31 313.97 79.23 311.36 80.25C309.06 81.15 306.64 81.84 305.99 81.79C305.17 81.72 303.92 80.66 298.85 74.79L299.59 70.34C300 67.89 300.45 65.74 300.58 65.55C300.71 65.37 301.02 65.23 301.27 65.26ZM278.54 65.26C278.74 65.24 278.98 65.82 279.08 66.54C279.18 67.27 279.07 68.55 278.84 69.38C278.52 70.51 278.02 71.01 276.83 71.39C275.95 71.66 273.1 72.43 270.48 73.1C267.29 73.91 265.58 74.13 265.28 73.79C265.02 73.5 265.02 72.42 265.27 71.29C265.67 69.5 265.99 69.16 268.58 67.74C270.16 66.87 272.43 66.01 273.62 65.81C274.82 65.61 276.33 65.41 276.99 65.37C277.65 65.33 278.35 65.27 278.54 65.26ZM252.04 65.27C252.56 65.3 253.81 66.31 254.82 67.52C255.84 68.73 256.63 70.09 256.58 70.54C256.53 71.06 255.83 71.55 254.68 71.87C253.67 72.15 251.87 72.54 250.68 72.75C249.48 72.96 245.77 73.83 242.43 74.7C239.08 75.56 235.92 76.24 235.4 76.2C234.72 76.15 234.4 75.7 234.23 74.56C234.11 73.69 234.1 71.97 234.21 70.74C234.41 68.51 234.41 68.5 236.46 68.12C237.59 67.92 238.89 67.71 239.35 67.66C239.81 67.61 242.31 67.2 244.9 66.75C247.49 66.3 249.94 65.77 250.35 65.57C250.76 65.38 251.52 65.24 252.04 65.27ZM333.13 73.14L333.88 74.33C334.32 75.03 334.55 76.28 334.44 77.4C334.29 78.9 333.77 79.8 331.9 81.81C330.15 83.69 329.24 84.32 328.36 84.24C327.72 84.18 326.89 83.79 326.54 83.37C326.18 82.95 325.83 82.06 325.76 81.4C325.67 80.61 326.05 79.72 326.88 78.76C327.57 77.97 329.26 76.39 330.63 75.23L333.13 73.14ZM228.66 65.15C228.97 65.17 229.86 65.89 230.64 66.74C231.41 67.6 232.21 68.85 232.42 69.52C232.62 70.19 232.74 71.27 232.69 71.92C232.63 72.57 232.32 73.07 231.99 73.04C231.67 73.01 230.7 72.24 229.84 71.31C228.9 70.31 228.13 68.86 227.91 67.7C227.72 66.64 227.68 65.62 227.83 65.44C227.97 65.25 228.35 65.12 228.66 65.15ZM209.64 65.66C210.69 65.92 212.81 66.5 217.12 67.78L216.8 69.62C216.63 70.64 216.37 71.56 216.24 71.68C216.1 71.8 214.59 71.52 212.88 71.06C210.38 70.39 209.57 69.93 208.72 68.73C208.13 67.9 207.67 66.77 207.69 66.21C207.73 65.28 207.9 65.23 209.64 65.66ZM225.88 66.81C226.2 66.84 226.56 67.65 226.67 68.6C226.79 69.56 227.03 70.44 227.22 70.55C227.4 70.67 227.77 71.26 228.02 71.87C228.48 72.95 228.44 72.97 226.66 72.54C225.65 72.29 224.06 71.67 223.12 71.16C222.19 70.65 221.42 69.92 221.42 69.53C221.42 69.15 222.29 68.37 223.35 67.8C224.42 67.22 225.55 66.78 225.88 66.81ZM283.09 71.79C283.48 71.83 284.23 72.16 284.76 72.52C285.29 72.88 287.23 74.81 289.09 76.8C290.94 78.79 292.73 80.6 293.07 80.83C293.4 81.05 293.64 81.66 293.6 82.18C293.52 83.08 293.24 83.1 281.14 81.82L279.63 78.36C278.8 76.46 278.12 74.51 278.11 74.04C278.1 73.45 278.75 72.96 280.24 72.46C281.42 72.05 282.7 71.75 283.09 71.79ZM290.31 73.82C290.68 73.85 292.39 74.45 294.09 75.15C295.79 75.85 298.19 77.17 299.42 78.09C300.65 79.01 302.4 80.47 303.31 81.34C304.71 82.68 304.95 83.21 304.81 84.7C304.71 85.67 304.42 86.55 304.15 86.66C303.88 86.77 303.62 87.28 303.57 87.8C303.53 88.32 303.28 88.73 303.02 88.7C302.76 88.68 301.91 88.03 301.12 87.26C300.34 86.48 298.62 84.67 297.29 83.24C295.96 81.8 293.57 79.23 291.97 77.53C290.37 75.82 289.19 74.27 289.34 74.09C289.5 73.91 289.93 73.78 290.31 73.82ZM318.91 76.76C319.23 76.78 320.36 77.31 321.42 77.93C322.48 78.55 323.56 79.07 323.82 79.09C324.08 79.12 324.36 79.73 324.45 80.46C324.54 81.18 324.48 81.87 324.32 81.99C324.15 82.11 323.17 81.7 322.12 81.09C321.08 80.47 319.77 79.56 319.21 79.05C318.65 78.55 318.22 77.81 318.26 77.42C318.29 77.03 318.58 76.74 318.91 76.76ZM205.9 67.67C206.05 67.77 206.32 69.11 206.51 70.66C206.69 72.21 206.88 74.24 206.94 75.16C207.03 76.49 206.71 77.28 205.33 79.06C204.38 80.28 203.26 81.53 202.84 81.83C202.41 82.13 201.56 82.64 200.95 82.97C199.92 83.52 199.65 83.44 197.7 81.99C196.54 81.11 194.87 79.97 194 79.45C193.13 78.92 192.07 78.13 191.64 77.67C191.22 77.22 190.9 76.59 190.93 76.27C190.97 75.94 192.06 75.14 193.36 74.48C194.66 73.83 197.31 72.24 199.25 70.95C201.19 69.66 203.42 68.36 204.2 68.06C204.99 67.75 205.75 67.58 205.9 67.67ZM258.82 72.99C259.29 73.03 260.22 73.64 262.08 75.62L260.78 75.52C260.06 75.47 258.97 75.11 258.34 74.73C257.71 74.35 257.18 73.91 257.15 73.76C257.13 73.6 257.3 73.35 257.53 73.2C257.76 73.04 258.34 72.95 258.82 72.99ZM274.46 74.35C274.77 74.38 275.23 74.58 275.49 74.8C275.76 75.01 276.83 76.81 277.88 78.8C279.44 81.74 279.76 82.81 279.61 84.54C279.49 85.96 279.13 86.89 278.53 87.34C277.71 87.98 277.59 87.94 276.92 86.85C276.53 86.2 276.24 85.35 276.28 84.96C276.32 84.57 276.05 83.91 275.68 83.48C275.31 83.06 274.95 81.96 274.87 81.04C274.78 80.11 274.42 78.48 274.07 77.4C273.71 76.32 273.52 75.19 273.66 74.87C273.79 74.56 274.15 74.32 274.46 74.35ZM270.82 75.6C271.21 75.88 271.43 76.61 271.32 77.22C271.21 77.84 270.74 78.39 270.27 78.45C269.81 78.51 269.13 78.35 268.76 78.09C268.39 77.83 267.5 77.56 266.79 77.49C266.08 77.43 265.4 77.15 265.3 76.88C265.19 76.61 265.38 76.25 265.72 76.08C266.06 75.92 267.19 75.63 268.23 75.43C269.44 75.21 270.37 75.27 270.82 75.6ZM219.56 71.32C220.38 71.54 221.78 72 222.66 72.35C223.55 72.7 225.29 73.57 226.54 74.27C227.79 74.97 229.21 76.08 229.71 76.73C230.21 77.38 230.67 78.57 230.74 79.36C230.81 80.15 230.76 81.05 230.63 81.37C230.5 81.68 230.02 81.91 229.57 81.86C229.11 81.82 228.02 81.49 227.13 81.12C226.25 80.76 224.46 79.86 223.15 79.12C221.84 78.38 220.5 77.76 220.18 77.74C219.85 77.72 219.15 77.18 218.61 76.54C218.05 75.87 217.78 75.08 217.98 74.69C218.17 74.31 218.16 73.56 217.96 73.02C217.76 72.48 217.7 71.79 217.83 71.48C217.98 71.13 218.6 71.07 219.56 71.32ZM253.1 75.26C253.44 75.39 253.73 75.64 253.73 75.81C253.73 75.98 253.45 76.36 253.11 76.66C252.76 76.95 251.73 77.12 250.81 77.02C249.89 76.92 248.73 76.64 248.22 76.39C247.43 76 247.52 75.9 249.01 75.57C249.94 75.37 251.1 75.16 251.59 75.11C252.08 75.05 252.76 75.12 253.1 75.26ZM316.69 80.41C317.24 80.44 317.49 80.81 317.44 81.51C317.39 82.1 317.09 83.19 316.77 83.95C316.29 85.07 315.35 85.67 311.61 87.19C309.09 88.22 306.87 89.04 306.68 89.02C306.48 89 306.37 87.96 306.52 84.4L309.14 83.25C310.58 82.61 312.68 81.7 313.81 81.23C314.94 80.75 316.24 80.38 316.69 80.41ZM208.91 72C209.48 72.05 209.83 72.4 209.8 72.91C209.77 73.36 209.45 73.98 209.09 74.27C208.72 74.56 208.28 74.63 208.09 74.42C207.91 74.21 207.8 73.56 207.86 72.98C207.93 72.24 208.25 71.94 208.91 72ZM257.68 76.92C258.45 77.15 260.91 77.81 263.15 78.39C265.38 78.96 267.93 79.81 268.81 80.27C270.33 81.09 270.39 81.22 270.19 83.6C270.08 84.97 269.68 86.46 269.31 86.92C268.65 87.74 268.54 87.73 264.48 86.36C262.19 85.59 259.59 84.72 258.7 84.43C257.81 84.14 256.52 83.61 255.83 83.25C255.05 82.85 254.61 82.25 254.66 81.66C254.71 81.15 255.09 79.77 255.51 78.6C256.25 76.56 256.33 76.5 257.68 76.92ZM319.83 82.54C320.16 82.57 321.66 83.13 323.17 83.78C324.69 84.44 326.33 85.22 326.83 85.51C327.33 85.8 329.67 86.91 332.04 87.98C334.41 89.05 336.4 90.14 336.46 90.41C336.52 90.68 334.58 92.65 332.15 94.79C329.72 96.93 327.38 98.69 326.95 98.69C326.51 98.69 325.25 98.1 324.14 97.38C323.02 96.66 321.45 95.42 320.65 94.63C319.29 93.29 319.18 92.92 319.1 89.14C319.05 86.92 319.02 84.77 319.02 84.38C319.03 83.99 319.08 83.41 319.14 83.09C319.2 82.76 319.51 82.52 319.83 82.54ZM213.64 74.87C215.66 75.21 216.25 75.57 217.83 77.43C218.97 78.77 219.74 80.23 220.08 83L217.98 82.58C216.82 82.35 214.09 81.76 211.91 81.28C209.73 80.8 207.84 80.29 207.73 80.16C207.61 80.02 208.11 78.95 208.85 77.79C209.59 76.63 210.44 75.41 210.74 75.08C211.12 74.67 212.03 74.6 213.64 74.87ZM252.19 78.67C252.68 78.67 253.01 79.01 253 79.5C252.99 79.96 252.89 80.86 252.78 81.5C252.67 82.15 252.77 83.17 253 83.78C253.24 84.39 253.75 84.91 254.14 84.95C254.53 84.98 255.15 85.41 255.51 85.9C255.88 86.39 255.99 86.94 255.76 87.12C255.54 87.3 252.57 87.41 249.18 87.35C245.78 87.3 240.45 87.15 237.32 87.02C234.19 86.9 229.56 86.78 222.43 86.72L222.04 85.38C221.83 84.64 221.7 83.51 221.75 82.86C221.81 82.21 222.13 81.58 222.47 81.45C222.81 81.33 224.22 81.74 225.6 82.38C226.98 83.01 228.88 83.94 231.52 85.37L239.9 79.15L243.96 78.94C246.2 78.82 248.77 78.71 249.69 78.7C250.6 78.69 251.73 78.68 252.19 78.67ZM273.72 81.39C274.32 81.78 274.53 82.37 274.37 83.25C274.2 84.19 273.88 84.52 273.2 84.46C272.54 84.4 272.24 84.01 272.21 83.18C272.19 82.53 272.32 81.73 272.5 81.41C272.74 80.97 273.06 80.97 273.72 81.39ZM233.25 78.24C233.53 78.45 234.36 78.63 235.07 78.64C235.79 78.65 236.36 78.87 236.34 79.13C236.32 79.39 235.68 79.98 234.92 80.45C234.16 80.91 233.27 81.26 232.95 81.23C232.63 81.19 232.3 80.62 232.23 79.96C232.15 79.3 232.24 78.56 232.41 78.3C232.59 78.05 232.96 78.02 233.25 78.24ZM297.53 85.67C298.16 86.18 299.82 87.73 301.2 89.11C302.59 90.49 303.98 91.64 304.31 91.68C304.63 91.71 306.66 91.13 308.82 90.38C310.97 89.63 313.52 88.67 314.47 88.26C315.42 87.84 316.68 87.53 317.26 87.57C318.23 87.64 318.31 87.87 318.13 90.13C318.02 91.58 317.66 92.82 317.28 93.12C316.9 93.41 313.35 93.61 309.01 93.59C304.83 93.57 299.68 93.41 297.56 93.22C295.44 93.04 293.54 92.72 293.34 92.51C293.14 92.3 293.23 91.88 293.54 91.58C293.85 91.27 294.49 89.77 294.95 88.24C295.42 86.71 295.93 85.3 296.09 85.11C296.24 84.91 296.89 85.16 297.53 85.67ZM293.57 85.27L293.26 87.62C293.08 88.91 292.88 90.03 292.8 90.1C292.73 90.16 289.8 90.02 279.91 89.32L280.13 88.15C280.25 87.5 280.49 86.51 280.67 85.94C280.89 85.25 281.54 84.79 282.58 84.59C283.44 84.42 286.27 84.51 293.57 85.27ZM189.96 78.92C190.37 78.95 192.63 80.32 194.97 81.96C197.31 83.61 199.4 85.39 199.62 85.93C199.83 86.47 199.98 87.4 199.94 87.98C199.9 88.57 199.49 89.33 199.04 89.69C198.29 90.26 197.89 90.13 195.2 88.41C193.55 87.36 191.71 86 191.11 85.4C190.49 84.78 189.92 83.48 189.8 82.42C189.67 81.39 189.49 80.17 189.39 79.7C189.27 79.14 189.46 78.87 189.96 78.92ZM274.59 86.25C274.91 86.27 275.51 86.83 275.91 87.5C276.31 88.16 276.95 89.39 277.33 90.24C277.74 91.12 278.47 91.86 279.07 91.98C280.01 92.17 279.91 92.31 278.1 93.51C277 94.24 273 96.12 269.2 97.7C265.4 99.27 260.75 101.16 258.85 101.9C256.54 102.8 255.07 103.12 254.37 102.86C253.71 102.61 253.14 101.77 252.79 100.52C252.49 99.45 252.29 98.04 252.35 97.39C252.42 96.61 253 95.88 254.08 95.21C254.98 94.67 258.1 93.22 261.02 92.01C264.88 90.4 266.83 89.85 268.2 89.97C269.76 90.1 270.25 89.92 270.97 88.9C271.45 88.22 272.33 87.34 272.92 86.94C273.51 86.54 274.26 86.23 274.59 86.25ZM337.38 93.1C338.19 93.17 338.25 93.54 337.71 99.55L333.37 103.1C330.99 105.05 328.78 106.55 328.46 106.44C328.11 106.31 327.92 105.16 328.08 100.62L332.28 96.82C334.73 94.6 336.86 93.06 337.38 93.1ZM212.67 83.41C214.08 83.74 215.28 84.11 215.34 84.23C215.39 84.35 215.05 84.6 214.58 84.79C214.1 84.97 211.95 85.1 205.88 85.05L205.98 83.87C206.07 82.81 206.29 82.69 208.1 82.74C209.2 82.77 211.26 83.07 212.67 83.41ZM260.33 87.59C261.49 87.82 262.53 88.15 262.64 88.32C262.76 88.5 262.24 89.05 261.5 89.55C260.75 90.05 258.41 91.21 256.28 92.12C254.16 93.04 252.18 93.61 251.89 93.4C251.59 93.2 251.35 92.29 251.35 91.38C251.35 89.76 251.37 89.74 253.99 89.38C255.63 89.16 256.94 88.67 257.43 88.1C258.1 87.32 258.57 87.24 260.33 87.59ZM203.52 83.51C203.91 83.62 204.36 84.21 204.54 84.81C204.78 85.65 204.57 86.19 203.68 87.07C202.88 87.86 202.26 88.11 201.71 87.85C201.21 87.61 200.94 86.95 201 86.09C201.05 85.32 201.48 84.39 201.95 84.01C202.43 83.62 203.14 83.4 203.52 83.51ZM286.45 92.03C287.55 92.12 288.44 92.36 288.43 92.55C288.42 92.75 287.43 92.98 286.25 93.07C285.06 93.17 283.83 93.09 283.52 92.9C283.09 92.64 283.14 92.47 283.7 92.21C284.11 92.02 285.34 91.94 286.45 92.03ZM317.11 94.75C317.18 94.71 319.01 95.79 321.19 97.14C323.36 98.49 325.52 100.09 325.99 100.7C326.59 101.48 326.83 102.67 326.73 107.63L325.39 107.13C324.65 106.85 322.43 105.61 320.44 104.36C318.46 103.12 315.13 100.78 313.05 99.17C309.62 96.52 309.35 96.19 310.25 95.8C310.79 95.56 312.53 95.23 314.11 95.08C315.7 94.93 317.05 94.78 317.11 94.75ZM225.11 88.02C230.16 88.6 234.39 89.14 234.51 89.24C234.64 89.33 233.97 89.63 233.03 89.9C232.09 90.18 230.02 90.57 228.44 90.78C226.85 90.99 224.36 91.36 222.9 91.61C221.44 91.86 219.59 92.22 218.79 92.43C217.99 92.63 216.89 92.93 216.35 93.11C215.81 93.29 214.39 93.66 211 94.46L208.63 91.7C206.63 89.38 206.36 88.84 206.92 88.3C207.29 87.95 208.92 87.62 210.55 87.57C212.18 87.52 214.05 87.37 214.72 87.23C215.39 87.09 220.06 87.45 225.11 88.02ZM248.44 89.92L249.72 94.07C250.52 96.7 250.98 99.36 250.97 101.31C250.95 103.01 250.74 104.54 250.48 104.7C250.23 104.87 248.73 105.13 247.15 105.29C245.57 105.45 242.45 105.58 240.23 105.58C237.52 105.58 236.01 105.4 235.63 105.02C235.19 104.57 235.39 104.06 236.61 102.58C237.61 101.36 238.65 100.63 239.54 100.51C240.3 100.41 241.37 100.1 241.92 99.82C242.83 99.36 242.93 98.93 243.09 94.71C243.19 92.18 243.46 89.92 243.7 89.69C243.93 89.45 245.09 89.41 248.44 89.92ZM299.1 95.56C300.53 95.65 302.95 96.05 304.49 96.45C306.02 96.85 307.87 97.7 308.6 98.35C309.33 98.99 310.89 100.14 312.07 100.9C313.26 101.65 314.63 102.63 315.13 103.06C316.02 103.84 316 103.88 314.01 104.99C312.89 105.61 310 106.59 307.6 107.16C305.2 107.74 302.86 108.19 302.4 108.16C301.93 108.12 300.43 106.37 298.84 103.99C297.34 101.73 295.69 99.17 295.17 98.31C294.66 97.44 294.26 96.47 294.29 96.15C294.32 95.82 294.83 95.52 295.42 95.48C296.01 95.43 297.67 95.47 299.1 95.56ZM239.96 90.88C241.02 90.95 241.47 91.2 241.43 91.69C241.4 92.08 241.4 92.99 241.44 93.71C241.48 94.43 241.61 95.46 241.72 96C241.84 96.53 241.76 97.2 241.53 97.48C241.31 97.77 236.67 98.8 231.22 99.77C225.78 100.75 220.22 101.91 218.88 102.36C217.53 102.8 215.49 103.12 212.23 102.95L211.9 100.07C211.72 98.48 211.76 96.88 212 96.51C212.24 96.14 213.93 95.5 215.76 95.09C217.6 94.68 222.03 93.81 225.62 93.15C229.21 92.48 233.55 91.68 235.28 91.36C237.01 91.04 239.11 90.82 239.96 90.88ZM285.02 94.81C285.53 94.82 285.89 95.24 285.95 95.9C286.01 96.49 286.16 98.38 286.3 100.09C286.43 101.8 286.51 103.57 286.47 104.03C286.44 104.48 285.91 105.06 285.3 105.32C284.69 105.57 282.05 105.77 279.44 105.75C276.82 105.74 274.36 105.81 273.96 105.91C273.55 106.02 272.85 105.8 272.4 105.43C271.76 104.91 271.62 104.1 271.77 101.75C271.95 98.87 272.02 98.72 273.44 98.08C274.26 97.72 275.93 96.92 277.16 96.32C278.39 95.71 280.48 95.12 281.79 95C283.11 94.89 284.56 94.8 285.02 94.81ZM290.22 95.46C290.77 95.69 291.71 96.37 292.31 96.98C292.9 97.59 293.67 98.54 294.02 99.1C294.36 99.65 295.61 101.38 296.78 102.94C297.96 104.51 299.29 106.33 299.74 107C300.2 107.67 300.79 108.77 301.08 109.45C301.36 110.13 301.5 111.64 301.4 112.81C301.29 113.98 300.97 115.23 300.67 115.6C300.22 116.16 300.01 116.07 299.3 115C298.85 114.31 297.95 112.97 297.31 112.02C296.68 111.08 295.72 109.39 295.2 108.27C294.67 107.16 293.8 105.67 293.27 104.97C292.74 104.27 291.98 102.89 291.58 101.9C291.18 100.91 290.34 99.29 289.71 98.29C289.07 97.28 288.7 96.17 288.89 95.77C289.12 95.27 289.52 95.17 290.22 95.46ZM203.62 89.97C203.79 90.18 204.13 91.97 204.36 93.95C204.6 95.93 204.77 97.87 204.74 98.26C204.72 98.65 202.72 100.19 200.3 101.68C197.89 103.17 195.4 104.61 194.78 104.89C193.81 105.32 193.35 105.18 191.3 103.81C190 102.95 188.28 101.78 187.48 101.22C186.68 100.66 186.09 100 186.17 99.74C186.24 99.48 188.79 97.78 191.84 95.95C194.88 94.13 198.71 91.95 200.34 91.12C201.97 90.28 203.45 89.77 203.62 89.97ZM206.51 91.76C206.88 91.79 207.64 92.34 208.2 92.97C208.75 93.61 209.47 94.8 209.81 95.61C210.14 96.42 210.46 98 210.53 99.12C210.64 100.74 210.52 101.14 209.96 101.09C209.57 101.06 208.53 100.03 207.66 98.82C206.78 97.61 205.9 95.66 205.69 94.49C205.49 93.32 205.43 92.22 205.57 92.03C205.71 91.85 206.13 91.73 206.51 91.76ZM268.05 101.38C268.78 101.43 269.24 101.88 269.51 102.8C269.73 103.54 270.01 105.43 270.14 107.01C270.32 109.28 270.22 109.99 269.69 110.36C269.32 110.63 268.01 111.29 266.79 111.84C265.56 112.38 263.11 113.5 261.34 114.31C259.57 115.12 257.7 115.79 257.19 115.79C256.51 115.79 256.13 115.32 255.82 114.09C255.58 113.16 255.49 111.06 255.61 109.44C255.8 107.04 256.03 106.35 256.87 105.74C257.43 105.34 259.94 104.17 262.44 103.15C264.94 102.13 267.46 101.34 268.05 101.38ZM290.19 103.75C290.38 103.76 290.79 104.06 291.09 104.42C291.39 104.78 291.62 105.23 291.6 105.42C291.57 105.62 291.13 105.74 290.61 105.69C289.98 105.64 289.7 105.3 289.75 104.67C289.8 104.15 289.99 103.74 290.19 103.75ZM331.79 107.36C331.9 107.37 331.32 107.96 330.49 108.67C329.67 109.38 328.89 109.85 328.77 109.71C328.66 109.57 329.24 108.98 330.08 108.4C330.91 107.82 331.68 107.35 331.79 107.36ZM316.51 107.37C316.8 107.84 316.94 109.17 316.84 110.34C316.73 111.51 316.46 112.69 316.24 112.98C316.03 113.26 313.87 114.12 311.45 114.88C309.03 115.64 306.18 116.47 305.11 116.72C304.04 116.96 303.02 117.01 302.83 116.82C302.64 116.62 302.61 115.14 303.03 110.57L306.34 109.38C308.16 108.73 310.09 108.05 310.63 107.87C311.17 107.7 312.59 107.33 313.79 107.04C315.78 106.57 316.02 106.6 316.51 107.37ZM232.28 102.49C232.71 102.72 232.81 103.21 232.57 103.88C232.37 104.45 231.61 105.99 230.89 107.3C230.16 108.61 229.26 110.3 228.89 111.05C228.51 111.8 227.15 114.13 225.87 116.23C224.58 118.33 223.26 120.09 222.93 120.14C222.59 120.19 222.17 119.52 221.98 118.65C221.79 117.78 221.7 116.33 221.79 115.43C221.88 114.52 222.41 113.28 222.98 112.68C223.54 112.07 224.02 111.42 224.04 111.22C224.07 111.03 224.69 110.07 225.43 109.08C226.17 108.1 226.79 107.09 226.81 106.83C226.83 106.57 227.48 105.54 228.25 104.55C229.02 103.56 230.09 102.61 230.63 102.44C231.17 102.28 231.91 102.3 232.28 102.49ZM206.22 100.34C206.48 100.35 207.13 100.87 207.67 101.5C208.21 102.13 208.63 102.96 208.6 103.35C208.57 103.74 206.66 105.5 204.35 107.26C202.04 109.02 199.22 111.18 198.09 112.05C196.96 112.92 195.82 113.63 195.56 113.62C195.3 113.61 195 112.79 194.89 111.8C194.78 110.8 194.74 109.41 194.8 108.69C194.88 107.69 195.56 106.94 197.78 105.38C199.35 104.28 201.79 102.69 203.19 101.85C204.6 101.02 205.96 100.34 206.22 100.34ZM285.24 107.3C286.3 107.45 286.43 107.73 286.52 110.09C286.57 111.54 286.45 112.86 286.26 113.04C286.07 113.22 285.37 113.42 284.71 113.49C284.05 113.55 281.58 113.66 279.22 113.72C276.86 113.79 274.77 113.83 274.58 113.81C274.38 113.8 273.96 113.12 273.64 112.31C273.32 111.49 273.12 110.09 273.2 109.18C273.33 107.68 273.49 107.52 274.9 107.4C275.75 107.33 278.17 107.25 280.26 107.21C282.36 107.17 284.6 107.21 285.24 107.3ZM225.56 103.45C226.61 103.48 226.61 103.51 225.74 105.43C225.26 106.5 223.94 108.68 222.81 110.28C220.8 113.13 220.72 113.19 218.89 112.95C217.87 112.82 215.26 112.13 213.1 111.42C210.94 110.71 209.12 110.11 209.06 110.08C208.99 110.06 209.35 109.27 209.84 108.33C210.34 107.39 211.12 106.4 211.58 106.12C212.04 105.84 212.79 105.64 213.24 105.67C213.7 105.7 215.98 105.27 218.32 104.72C220.65 104.17 223 103.65 223.53 103.56C224.06 103.48 224.97 103.43 225.56 103.45ZM185.34 101.81C185.9 101.86 187.85 103.04 189.68 104.45C191.51 105.85 193.2 107.54 193.43 108.22C193.67 108.89 193.92 110.45 193.98 111.69C194.08 113.45 193.95 113.98 193.37 114.15C192.97 114.27 191.64 113.68 190.41 112.85C189.18 112.01 187.32 110.4 186.26 109.26C184.51 107.37 184.34 106.96 184.34 104.46C184.34 101.91 184.41 101.73 185.34 101.81ZM250.53 107.45L250.66 108.77C250.73 109.5 250.89 110.85 251.01 111.77C251.13 112.7 251.13 113.77 251.02 114.15C250.85 114.71 249.9 114.78 246.22 114.49C243.7 114.29 240.13 114.18 238.29 114.23C236.34 114.3 234.84 114.15 234.68 113.88C234.52 113.63 234.33 112.32 234.08 108.5L235.77 107.95C236.7 107.64 238.54 107.27 239.86 107.13C241.18 106.99 244.12 107 250.53 107.45ZM254.12 110.14C254.35 110.16 254.52 111.41 254.51 112.91C254.49 114.41 254.52 116.61 254.64 119.93L254.06 118.22C253.74 117.28 253.45 116.43 253.41 116.35C253.37 116.26 252.58 116.33 251.65 116.51C250.71 116.68 248.56 116.83 246.86 116.84C244.77 116.84 244.01 116.71 244.52 116.45C244.93 116.23 246.28 116.13 247.51 116.23C248.74 116.34 250.42 116.16 251.23 115.83C252.5 115.33 252.73 114.99 252.87 113.36C252.96 112.32 253.18 111.17 253.37 110.79C253.55 110.41 253.89 110.12 254.12 110.14ZM270.41 112.52C270.74 112.54 271.35 113.55 271.76 114.76C272.18 115.97 272.5 117.34 272.47 117.79C272.44 118.25 272 118.92 271.51 119.29C271.01 119.65 269.04 120.69 267.13 121.58C265.22 122.48 262.56 123.59 261.21 124.04C259.87 124.5 258.56 124.76 258.31 124.63C258.06 124.49 257.57 123.31 257.21 122C256.86 120.69 256.71 119.32 256.87 118.94C257.04 118.56 258.91 117.44 261.02 116.44C263.13 115.45 265.98 114.15 267.34 113.56C268.71 112.97 270.09 112.5 270.41 112.52ZM209.46 111.74C209.99 111.96 211.15 112.38 212.04 112.67C212.93 112.96 214.81 113.54 216.21 113.96C217.61 114.38 219.21 115.07 219.76 115.5C220.31 115.93 220.73 116.61 220.7 117C220.67 117.38 220.83 117.77 221.06 117.86C221.29 117.94 221.47 118.98 221.43 122.29L219.31 122.04C218.15 121.9 216.57 121.59 215.81 121.34C215.05 121.1 214.01 120.68 213.51 120.42C213.01 120.15 211.76 119.74 210.74 119.51C209.55 119.23 208.62 118.66 208.18 117.94C207.8 117.31 207.45 115.94 207.41 114.89C207.37 113.84 207.6 112.61 207.92 112.16C208.33 111.58 208.79 111.45 209.46 111.74ZM241.64 116.8C242.8 116.9 243.22 117.03 242.56 117.08C241.9 117.14 240.95 117.06 240.44 116.9C239.93 116.74 240.47 116.7 241.64 116.8ZM223.71 123.79C223.74 123.88 223.65 124.42 223.5 124.98C223.32 125.73 222.92 125.98 222.07 125.91C221.42 125.85 220.91 125.59 220.93 125.33C220.95 125.08 221.4 124.9 221.91 124.94C222.43 124.99 223.04 124.71 223.26 124.33C223.48 123.94 223.68 123.7 223.71 123.79Z" />
	</g>
</svg>