<svg xmlns="http://www.w3.org/2000/svg" viewBox="0 0 520 600" width="520" height="600">
	<style>
		tspan { white-space:pre }
		.shp0 { fill: #808080 } 
		.shp1 { fill: #000000 } 
		.shp2 { fill: #f0de78 } 
		.shp3 { fill: #8e8033 } 
		.shp4 { fill: #b7aa62 } 
		.shp5 { fill: #152809 } 
		.shp6 { fill: #2e5108 } 
		.shp7 { fill: #54762e } 
		.shp8 { fill: #82bb5e } 
		.shp9 { fill: #354c27 } 
		.shp10 { fill: #829d63 } 
		.shp11 { fill: #060606 } 
	</style>
	<path id="Background" class="shp0" d="M260.16 -0.7L520.31 149.5L520.31 449.91L260.16 600.11L0 449.91L0 149.5L260.16 -0.7Z" />
	<g id="Layer 1">
		<path id="Path 0" class="shp1" d="M257.45 18.92C256.93 19.42 250.65 23.18 243.5 27.27C236.35 31.36 219.92 40.78 207 48.2C194.07 55.63 178.89 64.47 173.25 67.85C167.61 71.23 162.77 74 162.5 74C162.22 74 158.74 75.94 154.75 78.32C150.76 80.7 143 85.26 137.5 88.45C132 91.64 124.57 95.95 121 98.02C117.42 100.09 108.87 105.02 102 108.99C95.12 112.96 85.45 118.58 80.5 121.47C75.55 124.36 69.47 127.85 67 129.23C64.52 130.6 56.42 135.23 49 139.5C41.57 143.78 31.45 149.63 26.5 152.52C21.55 155.4 17.16 158.49 16.75 159.38C16.34 160.27 15.99 223.66 15.98 300.25C15.97 411.13 16.22 439.84 17.23 441.15C17.93 442.05 21.54 444.64 25.25 446.9C28.96 449.15 32.22 451 32.5 451C32.77 451 38.06 454.01 44.25 457.69C50.44 461.37 60 466.9 65.5 469.99C71 473.08 81.35 479 88.5 483.16C95.65 487.32 105.89 493.26 111.25 496.36C116.61 499.46 125.39 504.55 130.75 507.66C136.11 510.77 144.77 515.79 150 518.81C155.22 521.83 160.85 525.07 162.5 526C164.15 526.93 176.97 534.33 191 542.45C205.02 550.57 224.37 561.73 234 567.24C243.62 572.75 253.19 578.33 255.25 579.63C257.31 580.93 259.9 582 261 582C262.1 582 265.81 580.27 269.25 578.15C272.69 576.04 280.22 571.58 286 568.26C291.77 564.94 309.55 554.68 325.5 545.47C341.45 536.25 356.97 527.36 360 525.71C363.02 524.06 365.95 522.37 366.5 521.96C367.05 521.55 372 518.62 377.5 515.45C383 512.28 395.82 504.88 406 499C416.17 493.13 431.25 484.42 439.5 479.64C447.75 474.86 454.61 470.96 454.75 470.98C454.89 470.99 460.51 467.72 467.25 463.72C473.99 459.72 485.06 453.31 491.86 449.47C499.75 445.02 504.54 441.69 505.11 440.25C505.62 438.97 506.01 378.35 506.02 299.25C506.03 188.78 505.78 160.16 504.77 158.83C504.07 157.91 499 154.58 493.5 151.43C488 148.27 482.15 144.92 480.5 143.97C478.85 143.02 470.3 138.07 461.5 132.96C452.7 127.85 442.57 122.03 439 120.04C435.42 118.05 427.1 113.23 420.5 109.34C413.9 105.45 403.55 99.43 397.5 95.97C391.45 92.5 382.22 87.23 377 84.24C371.77 81.26 367.05 78.47 366.5 78.05C365.95 77.63 363.02 75.93 360 74.27C356.97 72.62 346.17 66.4 336 60.47C325.82 54.54 314.12 47.81 310 45.51C305.87 43.22 298.45 38.96 293.5 36.04C288.55 33.12 280.9 28.71 276.5 26.24C272.1 23.78 267.26 20.91 265.75 19.88C264.24 18.85 261.96 18 260.7 18C259.43 18 257.97 18.41 257.45 18.92Z" />
		<path id="Path 1" class="shp2" d="M244.92 32.25C236.44 37.2 219.15 47.22 206.5 54.51C193.85 61.81 176.52 71.82 168 76.75C159.47 81.69 140.57 92.6 126 101.01C111.42 109.42 88.25 122.81 74.5 130.75C60.75 138.7 43.09 148.87 35.26 153.35L21.02 161.5L21.02 438.5C43.09 451.15 60.75 461.32 74.5 469.26C88.25 477.2 111.42 490.58 126 498.99C140.57 507.4 156.77 516.75 162 519.76C167.22 522.78 189.05 535.38 210.5 547.76C231.95 560.15 251.97 571.75 255 573.56C260.3 576.72 260.61 576.78 263.5 575.26C265.15 574.4 279.32 566.29 295 557.25C310.67 548.2 329.12 537.53 336 533.54C342.87 529.55 362 518.5 378.5 508.98C395 499.47 417.95 486.21 429.5 479.53C441.05 472.84 458.6 462.72 468.5 457.04C478.4 451.35 489.65 444.85 493.5 442.59L500.5 438.48C501.04 188.4 500.85 162.28 499.8 161.34C499.08 160.7 492.65 156.83 485.5 152.73C478.35 148.64 462.15 139.32 449.5 132.02C436.85 124.72 420.87 115.5 414 111.53C407.12 107.56 385.3 94.94 365.5 83.5C345.7 72.05 324.77 59.98 319 56.68C313.22 53.38 299.05 45.19 287.5 38.48C275.95 31.77 265.11 25.59 263.42 24.76C260.36 23.26 260.24 23.3 244.92 32.25Z" />
	</g>
	<path id="Path 0" class="shp3" d="M250 63.95C244.77 67.1 228.8 76.44 214.5 84.69C200.2 92.94 172.52 108.93 153 120.21C133.47 131.5 102.44 149.38 84.02 159.96L50.55 179.18L50.95 421.5C72.3 433.82 98.3 448.83 122.5 462.79C146.7 476.76 170.55 490.56 175.5 493.47C180.45 496.37 196.65 505.73 211.5 514.26C226.35 522.79 243.22 532.52 249 535.89C254.77 539.25 260.17 541.99 261 541.98C261.82 541.97 277.35 533.35 295.5 522.83C313.65 512.32 341.55 496.18 357.5 486.97C373.45 477.76 399.55 462.7 415.5 453.5C431.45 444.3 450.46 433.33 457.74 429.13L470.97 421.5L471.09 179.5C421.81 150.9 389.27 132.07 367 119.2C344.72 106.33 322.45 93.44 317.5 90.55C312.55 87.66 300.17 80.54 290 74.72C279.82 68.91 269.25 62.75 266.5 61.04C263.75 59.33 261.05 57.99 260.5 58.07C259.95 58.14 255.22 60.79 250 63.95Z" />
	<path id="Path 0" class="shp4" d="M230 75.11C213.77 84.53 170.8 109.35 134.5 130.26C98.2 151.17 64.34 170.69 59.25 173.64L50 179L49.99 300.5C57.92 311.35 64.4 320.57 69.49 328C77.02 338.97 79.81 342.2 84.38 345.25C88.46 347.98 91.27 350.98 94.64 356.25C97.19 360.24 101.1 365.75 103.34 368.5C105.57 371.25 113.05 379.28 119.95 386.34C126.85 393.41 137.22 403.34 143 408.41C148.77 413.48 158 421 163.5 425.11C169 429.23 176.42 434.4 180 436.6C183.57 438.8 189.2 441.79 192.5 443.23C195.8 444.68 203 447.51 208.5 449.51C214 451.51 222.32 454.48 227 456.12C231.67 457.75 238.42 459.71 242 460.46C245.57 461.22 252.77 462.15 258 462.53C263.22 462.91 270.31 463.85 273.75 464.61C278.21 465.6 281.36 465.74 284.75 465.08C287.36 464.58 294.34 462.33 300.25 460.08C306.16 457.84 315.84 454.68 321.75 453.07C327.66 451.46 337.45 448.51 343.5 446.52C349.55 444.53 360.57 439.97 368 436.39C375.42 432.81 384.65 427.51 388.5 424.62C392.35 421.73 398.87 415.63 403 411.08C407.12 406.53 413.65 400.25 417.5 397.13C422.19 393.32 432.16 387.51 447.75 379.48L471 367.5L471 179C452.79 168.37 414.65 146.26 374.5 123.01C334.35 99.76 292.72 75.63 282 69.39C271.27 63.14 261.82 58.02 261 58.01C260.17 57.99 246.22 65.69 230 75.11Z" />
	<path id="Path 0" fill-rule="evenodd" class="shp1" d="M260.75 58.08C261.44 58.04 268.41 61.76 276.25 66.37C284.09 70.97 322 92.96 360.5 115.25C399 137.53 439.63 161.11 471.08 179.5L471 422L453.75 431.86C444.26 437.29 402.52 461.31 361 485.25C319.47 509.19 280.21 531.75 273.75 535.39C267.29 539.02 261.32 542 260.5 542C259.67 542 251.69 537.78 242.75 532.62C233.81 527.46 187.12 500.45 51.5 421.96L50.85 416.73C50.49 413.85 50.14 359.3 49.93 179.5L121.72 138.07C161.2 115.29 207 88.81 223.5 79.22C240 69.64 254.85 60.98 256.5 59.98C258.15 58.98 260.06 58.13 260.75 58.08ZM127.75 140.78L56 182C56 412.47 56.1 419.03 57.75 419.58C58.71 419.9 104.27 446.08 159 477.75C213.72 509.42 259.17 535.5 260 535.7C260.82 535.89 273.9 528.95 289.05 520.28C304.21 511.6 350.21 485.15 391.27 461.5L465.94 418.5L465.93 182.5C344.7 112.39 298.92 85.91 286 78.42C273.07 70.92 262.05 64.62 261.5 64.41C260.95 64.19 246.77 72.02 230 81.79C213.22 91.56 167.21 118.11 127.75 140.78Z" />
	<g id="Layer 2 copy 4">
		<path id="Path 0" class="shp5" d="M259.97 276.18C259.94 276.69 260.25 277.12 260.65 277.14C261.05 277.17 261.84 277.3 262.4 277.43C263.11 277.61 263.38 277.37 263.27 276.66C263.18 276.04 262.51 275.57 261.57 275.46C260.48 275.33 260 275.54 259.97 276.18Z" />
		<path id="Path 1" class="shp6" d="M256.17 278.12C255.38 279.32 254.44 281.62 254.09 283.22C253.74 284.82 252.66 292.96 251.7 301.29C250.42 312.43 249.81 321.25 249.4 334.53C249.1 344.47 248.71 353 248.55 353.48C248.38 353.96 248.12 358.94 247.97 364.55C247.82 370.17 247.45 381.84 247.13 390.5C246.82 399.16 246.41 410.44 246.23 415.57C246.05 420.7 245.66 429.49 245.37 435.1C245.07 440.71 244.68 449.5 244.5 454.64C244.31 459.77 244.37 470.22 244.61 477.86C245.03 490.81 245.14 491.81 246.22 492.59C246.86 493.05 248.18 493.42 249.14 493.41C250.1 493.4 251.15 493.2 251.47 492.96C251.79 492.73 252.12 492.21 252.2 491.8C252.28 491.4 252.08 491.08 251.76 491.08C251.44 491.08 251.21 489.96 251.24 488.6C251.29 486.43 251.36 486.3 251.8 487.58C252.19 488.69 252.24 488.49 252 486.7C251.83 485.42 251.48 474.14 251.23 461.63C250.97 449.13 250.84 434.17 250.94 428.4C251.04 422.63 251.4 411.34 251.73 403.33C252.06 395.31 252.59 387.05 252.91 384.96C253.23 382.88 253.5 378.94 253.52 376.22C253.54 373.49 253.79 369.42 254.08 367.18C254.41 364.65 254.4 363.04 254.06 362.95C253.76 362.87 253.51 361.3 253.51 359.45C253.5 357.61 253.7 354.87 253.94 353.37C254.19 351.87 254.52 350.73 254.68 350.84C254.84 350.95 255.23 344.57 255.55 336.66C255.87 328.75 256.07 319.33 255.99 315.72C255.9 311.5 256.05 309.27 256.43 309.46C256.78 309.63 257.01 308.53 257.01 306.69C257.02 305 257.4 298.64 257.87 292.55C258.39 285.91 259.08 280.65 259.6 279.43C260.28 277.83 260.31 277.23 259.76 276.65C259.37 276.24 258.73 275.92 258.33 275.92C257.93 275.93 256.96 276.92 256.17 278.12ZM266.02 277.68C265.67 278.06 265.81 279.6 266.41 281.91C266.93 283.91 268.05 289.49 268.88 294.3C269.72 299.11 270.81 308.42 271.31 315C271.89 322.7 272.05 328.55 271.75 331.47C271.4 334.95 271.46 336 272.02 335.99C272.42 335.99 272.69 336.31 272.61 336.71C272.52 337.14 273.06 337.44 273.92 337.44C275.32 337.44 275.37 337.3 275.33 333.94C275.31 332.02 274.97 325.2 274.59 318.79C274.2 312.37 273.62 304.37 273.29 301C272.96 297.64 272.04 291.86 271.24 288.18C270.44 284.49 269.34 280.57 268.79 279.46C268.25 278.36 267.52 277.37 267.18 277.27C266.85 277.17 266.32 277.35 266.02 277.68Z" />
		<path id="Path 2" class="shp7" d="M251.61 279.28C250.77 280.17 249.67 281.87 249.17 283.07C248.67 284.28 248.27 286.64 248.27 288.32C248.28 290 247.73 294.01 247.06 297.21C246.39 300.42 245.61 305.54 245.32 308.58C245.03 311.63 244.41 321.73 243.94 331.03C243.47 340.33 242.94 353.45 242.75 360.18C242.56 366.92 242.14 375.97 241.8 380.3C241.47 384.63 240.81 391.58 240.35 395.75C239.88 399.92 239.22 404.25 238.88 405.37C238.47 406.73 238.29 420.76 238.33 447.64C238.37 471.41 238.62 488.76 238.95 490.06C239.34 491.56 239.92 492.35 240.83 492.6C241.55 492.79 242.86 492.79 243.75 492.6C245.13 492.29 245.31 492.02 245.04 490.64C244.87 489.76 244.68 479.59 244.63 468.05C244.58 456.32 244.86 441.91 245.28 435.39C245.68 428.98 246 422.29 245.97 420.53C245.95 418.76 246.18 411.68 246.5 404.78C246.81 397.89 247.22 387.13 247.4 380.88C247.58 374.63 247.85 366.36 247.99 362.51C248.13 358.67 248.4 354.6 248.58 353.48C248.76 352.35 249.13 343.7 249.41 334.24C249.74 323.05 250.43 312.45 251.37 303.92C252.17 296.7 252.84 290.41 252.85 289.92C252.86 289.44 253.24 287.21 253.7 284.97C254.15 282.72 254.82 280.36 255.17 279.72C255.52 279.08 255.62 278.35 255.39 278.1C255.16 277.85 254.56 277.66 254.06 277.66C253.55 277.67 252.45 278.4 251.61 279.28ZM259.87 279.44C259.4 280.46 258.84 283.44 258.61 286.05C258.39 288.66 257.95 293.42 257.63 296.63C257.31 299.84 257.04 304.49 257.03 306.98C257.02 309.46 256.81 311.5 256.57 311.5C256.33 311.5 256.05 315.89 255.95 321.27C255.85 326.64 255.63 335.36 255.47 340.65C255.28 346.8 254.87 351.11 254.34 352.6C253.85 353.97 253.57 356.56 253.66 358.87C253.74 361.03 254 362.8 254.24 362.8C254.48 362.8 254.52 364.18 254.33 365.87C254.13 367.55 253.88 370.76 253.77 373.01C253.65 375.25 253.45 379.19 253.33 381.75C253.2 384.32 252.93 386.75 252.72 387.15C252.51 387.55 252.02 395.29 251.63 404.35C251.22 413.68 250.99 432.57 251.1 447.93C251.19 462.84 251.36 476.75 251.47 478.83C251.57 480.92 251.81 484.06 251.99 485.83C252.24 488.22 252.18 488.67 251.76 487.58C251.31 486.4 251.27 486.57 251.55 488.45C251.74 489.73 251.95 491.18 252.04 491.66C252.12 492.14 252.94 492.76 253.87 493.03C254.87 493.33 256.02 493.31 256.72 492.97C257.77 492.45 257.87 491.91 257.72 487.22C257.63 484.37 257.56 481.64 257.56 481.16C257.56 480.68 257.53 463.63 257.48 443.27C257.44 422.9 257.37 402.31 257.32 397.5C257.27 392.69 257.46 385.34 257.73 381.17C258 377 258.36 372.41 258.53 370.97C258.69 369.52 259.07 366.25 259.36 363.68C259.66 361.11 260.17 353.9 260.5 347.65C260.83 341.39 261.13 333.78 261.15 330.74C261.18 327.69 261.02 319.3 260.78 312.08C260.55 304.87 260.58 294.5 260.85 289.05C261.19 282.14 261.45 279.93 261.71 281.76L262.08 284.39C262.19 280.77 261.88 279.24 261.47 278.65C260.77 277.65 260.66 277.7 259.87 279.44Z" />
		<path id="Path 3" class="shp6" d="M261.4 279.83C261.27 280.37 261.09 289.48 261 300.09C260.91 310.69 260.92 323.3 261.01 328.11C261.11 332.92 260.9 341.84 260.55 347.94C260.19 354.03 259.63 361.51 259.3 364.55C258.97 367.6 258.44 372.32 258.11 375.05C257.79 377.78 257.54 385.78 257.55 392.83C257.57 399.89 257.65 425.03 257.73 448.71C257.88 491 257.9 491.77 259.05 492.59C259.69 493.05 260.74 493.42 261.38 493.41C262.02 493.4 262.89 493.2 263.31 492.96C263.88 492.64 264.11 489.47 264.25 479.71C264.38 470.1 264.67 465.93 265.4 463.09C266.26 459.78 266.31 458.01 265.79 449.1C265.39 442.09 265.4 435.97 265.83 429.56C266.17 424.43 266.3 419.45 266.12 418.49C265.94 417.52 265.21 415.95 264.48 414.99C263.76 414.03 262.77 411.91 262.27 410.29C261.6 408.05 261.49 406.22 261.82 402.71C262.07 400.16 262.33 393.29 262.41 387.44C262.48 381.59 262.35 376.8 262.11 376.8C261.87 376.8 261.79 374.37 261.94 371.41C262.09 368.44 262.22 365.42 262.23 364.7C262.25 363.98 262.52 363.39 262.84 363.39C263.16 363.39 263.29 362.86 263.13 362.22C262.97 361.58 263.14 360.47 263.51 359.74C263.88 359.02 263.94 358.37 263.66 358.29C263.37 358.21 263.24 356.89 263.37 355.37C263.58 353.02 263.68 352.82 264.07 354.06C264.37 355.04 264.5 354.18 264.47 351.44C264.44 349.19 264.72 346.63 265.09 345.75C265.46 344.87 265.56 344.14 265.32 344.14C265.08 344.13 265.27 343.88 265.76 343.58C266.5 343.1 266.66 339.79 266.83 320.99C267.02 299.51 266.99 298.72 265.49 289.34C264.65 284.05 263.83 279.52 263.69 279.28C263.54 279.04 263.02 278.85 262.53 278.85C262.05 278.85 261.54 279.29 261.4 279.83Z" />
		<path id="Path 4" fill-rule="evenodd" class="shp7" d="M264.82 278.85C265.52 278.85 266.04 280.12 266.89 283.95C267.52 286.75 268.56 292.2 269.21 296.05C269.86 299.89 270.81 308.42 271.31 315C271.81 321.59 272.05 328.91 271.85 331.32C271.57 334.68 271.66 335.79 272.26 336.1C272.82 336.39 272.3 337.18 270.42 338.89C268.98 340.2 267.53 341.17 267.21 341.06C266.83 340.92 266.67 332.57 266.76 317.28C266.83 303.89 266.65 293.46 266.36 293.13C266.07 292.81 265.73 291.11 265.6 289.34C265.47 287.58 265.22 285.87 265.05 285.55C264.87 285.23 264.53 283.59 264.3 281.91C263.94 279.31 264.02 278.85 264.82 278.85ZM271.03 280.6C271.34 280.6 271.98 281.19 272.46 281.91C272.95 282.63 273.73 285.84 274.2 289.05C274.68 292.26 275.47 300.13 275.97 306.54C276.46 312.95 277.14 322.14 277.47 326.95C277.81 331.76 277.93 336.02 277.75 336.42C277.57 336.82 277.02 337.15 276.54 337.15C275.88 337.15 275.64 336.34 275.56 333.8C275.5 331.95 275.34 329.66 275.21 328.7C275.08 327.74 274.85 324.32 274.71 321.12C274.56 317.91 274.33 313.58 274.21 311.5C274.09 309.41 273.69 304.82 273.34 301.29C272.98 297.77 272.05 291.93 271.26 288.32C270.48 284.71 269.98 281.5 270.16 281.18C270.33 280.86 270.73 280.6 271.03 280.6ZM266.19 305.96C266.29 309.17 266.29 314.28 266.19 317.33C266.09 320.37 266 317.75 266 311.5C266 305.24 266.09 302.75 266.19 305.96Z" />
		<path id="Path 5" class="shp5" d="M314.92 306.1C315.38 306.99 316.44 310.07 317.29 312.95C318.14 315.84 319.37 321.48 320.03 325.49C320.86 330.51 321.42 337.77 321.81 348.81C322.13 357.63 322.48 367.08 322.61 369.8C322.73 372.53 322.85 380.53 322.89 387.58C322.92 394.64 322.67 403.17 322.33 406.53C322 409.9 321.44 414.49 321.1 416.74C320.76 418.98 319.95 422.79 319.29 425.19C318.63 427.6 317.43 431.79 316.63 434.52C315.83 437.25 314.31 441.31 313.27 443.56C312.22 445.8 310.48 448.5 309.4 449.56C308.33 450.61 306.26 452.49 304.82 453.72C303.15 455.15 300.92 456.34 298.7 456.98C296.77 457.54 294.28 458.44 293.16 459C292.04 459.55 289.67 460.15 287.91 460.32C285.1 460.58 284.92 460.54 286.45 459.98C287.42 459.62 291.48 457.71 295.49 455.74C301.93 452.56 303.06 451.78 305.17 449.01C306.48 447.3 308.49 444.32 309.62 442.39C310.76 440.47 312.53 436.27 313.55 433.06C314.58 429.86 315.91 425 316.51 422.28C317.11 419.55 317.98 414.04 318.46 410.03C318.93 406.02 319.63 398.55 320.01 393.42C320.47 387.33 320.56 379.43 320.29 370.68C320.07 363.3 319.73 357 319.55 356.68C319.37 356.36 319 350.98 318.75 344.73C318.45 337.48 317.65 329.14 316.56 321.7C315.61 315.29 314.55 309.32 314.2 308.44C313.85 307.55 313.17 306.83 312.69 306.83C312.21 306.83 311.82 306.5 311.83 306.1C311.84 305.7 311.72 305.51 311.57 305.67C311.42 305.83 311 308.58 310.65 311.79C310.06 317.14 310.13 318.27 311.48 325.49C312.29 329.82 313.21 337.69 313.54 342.98C313.86 348.27 314.4 357.72 314.73 363.97C315.06 370.22 315.33 380 315.32 385.69C315.32 391.38 315.04 398.6 314.71 401.72C314.38 404.85 313.42 410.16 312.58 413.53C311.74 416.9 310.21 422.01 309.18 424.9C308.14 427.79 306.45 431.85 305.41 433.94C304.37 436.02 302.15 439.43 300.47 441.52C298.8 443.6 296.4 445.98 295.15 446.81C293.89 447.63 291.56 449.09 289.95 450.04C288.35 450.99 286.12 452.13 285 452.58C283.87 453.03 282.76 453.68 282.53 454.02C282.29 454.36 282.09 455.88 282.09 457.4C282.08 458.93 282.28 460.18 282.52 460.18C282.76 460.18 282.96 460.94 282.96 461.87L282.96 463.55C292.01 464.3 292.71 464.19 299.57 461.97C306.33 459.79 307.17 459.35 311.07 455.96C313.38 453.95 315.89 451.38 316.63 450.26C317.38 449.14 318.55 447.17 319.24 445.89C319.92 444.61 321.16 441.79 321.98 439.62C322.8 437.46 323.48 435.42 323.48 435.1C323.48 434.78 323.92 433.67 324.46 432.63C325 431.58 325.5 429.68 325.57 428.4C325.65 427.12 326.13 423.57 326.65 420.53C327.3 416.74 327.76 408.55 328.11 394.58C328.4 383.36 328.81 371.94 329.04 369.22C329.28 366.35 329.18 362.18 328.81 359.31C328.45 356.58 327.51 347.4 326.72 338.9C325.92 330.4 324.78 321.35 324.18 318.79C323.57 316.22 322.37 312.55 321.49 310.62C320.62 308.7 319.33 306.53 318.63 305.8C317.89 305.03 316.67 304.48 315.73 304.49C314.14 304.5 314.12 304.54 314.92 306.1Z" />
		<path id="Path 6" class="shp8" d="M308.87 306.42C308.3 306.99 308.2 309.07 308.45 315.02C308.63 319.34 308.93 325.1 309.12 327.82C309.32 330.55 309.61 335.8 309.78 339.48C309.95 343.17 310.2 347.5 310.33 349.1C310.47 350.71 310.75 354.51 310.96 357.56C311.17 360.6 311.33 370.97 311.3 380.59C311.27 390.21 311.11 399.13 310.95 400.41C310.78 401.69 310.52 404.06 310.38 405.66C310.23 407.26 309.45 411.13 308.63 414.26C307.82 417.39 307.28 420.21 307.44 420.53C307.6 420.85 307.47 421.11 307.15 421.11C306.83 421.11 306.24 422.49 305.85 424.17C305.45 425.85 305.12 427.53 305.12 427.89C305.11 428.25 304.91 428.45 304.67 428.33C304.43 428.21 304.09 428.83 303.9 429.71C303.72 430.59 302.34 433.27 300.84 435.66C299.24 438.21 296.48 441.46 294.15 443.53C291.98 445.47 289.88 447.16 289.49 447.28C289.1 447.41 288.13 447.78 287.33 448.1C286.53 448.42 285.15 448.65 284.27 448.6C282.77 448.52 282.66 448.67 282.66 450.85C282.66 452.33 282.93 453.17 283.39 453.16C283.79 453.16 286.35 451.93 289.08 450.44C291.8 448.95 294.92 447.06 296.01 446.23C297.09 445.4 298.99 443.41 300.23 441.81C301.47 440.2 302.68 438.62 302.92 438.29C303.16 437.96 304.48 435.47 305.84 432.75C307.2 430.04 308.32 427.49 308.32 427.09C308.32 426.69 308.74 425.5 309.27 424.46C309.79 423.42 310.72 420.6 311.35 418.19C311.97 415.79 312.6 413.3 312.76 412.66C312.91 412.01 313.18 410.83 313.36 410.03C313.53 409.23 313.75 407.92 313.86 407.12C313.96 406.32 314.26 404.09 314.52 402.16C314.79 400.24 315.01 392.23 315.01 384.38C315.01 376.52 314.8 365.76 314.56 360.47C314.31 355.18 313.72 345.87 313.23 339.78C312.75 333.68 312.1 328.43 311.8 328.11C311.49 327.79 311.36 327.4 311.51 327.24C311.66 327.08 311.38 324.85 310.89 322.28C310.19 318.57 310.13 316.49 310.59 312.08C310.91 309.03 311.05 306.34 310.91 306.1C310.77 305.86 310.42 305.67 310.13 305.67C309.85 305.67 309.28 306.01 308.87 306.42Z" />
		<path id="Path 7" class="shp5" d="M305.92 308.73C305.55 309.45 304.99 312.93 304.68 316.45C304.36 320.03 304.28 328.67 304.5 335.99C304.71 343.2 304.98 352.38 305.1 356.39C305.22 360.4 305.5 368.93 305.74 375.34C306.02 383.26 305.93 389.15 305.45 393.71C305.06 397.39 304.13 403.17 303.37 406.53C302.61 409.9 301.03 415.54 299.84 419.07C298.66 422.6 297 426.87 296.15 428.56C295.31 430.25 293.2 433.01 291.46 434.68C289.73 436.36 286.9 439.56 285.17 441.81C283.26 444.28 282.1 446.35 282.2 447.06C282.33 447.87 282.9 448.27 284.13 448.39C285.09 448.48 286.83 448.22 288.01 447.81C289.19 447.39 291.93 445.48 294.1 443.56C296.27 441.63 299.23 438.22 300.67 435.98C302.11 433.73 304.01 429.8 304.89 427.23C305.78 424.67 307.3 419.42 308.27 415.57C309.24 411.72 310.3 406.15 310.63 403.18C310.96 400.22 311.24 389.59 311.26 379.57C311.27 369.55 311 358.07 310.66 354.06C310.32 350.05 309.79 342.84 309.48 338.03C309.17 333.22 308.77 324.56 308.58 318.79C308.4 313.01 308.13 308.09 307.99 307.85C307.85 307.61 307.48 307.42 307.17 307.42C306.86 307.42 306.3 308.01 305.92 308.73ZM202.15 309.03C201.7 309.18 200.59 310 199.7 310.84C198.78 311.7 197.69 313.66 197.22 315.29C196.75 316.89 195.98 320.04 195.5 322.28C195.03 324.53 194.12 330.69 193.5 335.99C192.8 341.95 192.34 349.81 192.3 356.68C192.26 362.78 192.35 370.78 192.5 374.47C192.64 378.15 193.19 383.14 193.72 385.54C194.25 387.95 194.91 391.23 195.18 392.83C195.46 394.44 196.14 397.06 196.69 398.66C197.24 400.27 198.58 403.48 199.66 405.81C200.74 408.13 201.88 410.03 202.2 410.03C202.52 410.03 203.5 411.54 204.37 413.38C205.34 415.43 207.67 418.52 210.35 421.3C212.76 423.81 215.89 426.57 217.31 427.42C218.72 428.28 220.36 429.7 220.95 430.58C221.54 431.47 223.14 432.6 224.5 433.11C226.28 433.77 228.5 433.97 232.33 433.84C235.27 433.73 237.84 433.51 238.05 433.35C238.26 433.19 238.28 432.47 238.1 431.75C237.89 430.92 237.18 430.32 236.17 430.1C235.28 429.92 233.51 429.35 232.23 428.83C230.95 428.32 227.41 426.51 224.36 424.8C221.31 423.1 217.52 420.72 215.93 419.51C214.35 418.31 211.51 415.48 209.62 413.24C207.73 410.99 205.27 407.19 204.15 404.78C203.03 402.38 201.32 398.44 200.35 396.04C198.62 391.74 198.6 391.54 198.96 384.38C199.18 380.13 199.11 376.85 198.79 376.51C198.5 376.19 197.94 373.56 197.56 370.68C197.02 366.63 197.02 363.16 197.54 355.52C197.92 350.07 198.73 341.01 199.33 335.4C199.94 329.79 200.71 323.36 201.05 321.12C201.38 318.87 201.98 316.03 202.37 314.79C202.76 313.56 203.55 312.11 204.12 311.58C205 310.77 205.15 310.75 205.14 311.5C205.13 311.98 204.73 317.49 204.26 323.74C203.78 329.99 202.99 340.49 202.51 347.06C202.02 353.64 201.63 361.38 201.63 364.26C201.63 367.15 202.02 370.95 202.49 372.72C202.96 374.48 203.38 377.37 203.43 379.13C203.48 380.89 204.3 385.49 205.24 389.33C206.52 394.51 208.03 398.54 211.04 404.78C214.97 412.97 215.29 413.42 220.75 418.78C226.17 424.09 226.62 424.39 231.79 426.21C234.76 427.25 237.45 427.98 237.77 427.82C238.09 427.65 238.35 426.61 238.35 425.48C238.35 423.68 238.03 423.24 235.58 421.71C234.06 420.75 230.9 418.59 228.56 416.9C226.21 415.21 223.98 413.71 223.6 413.58C223.22 413.44 221.63 412.13 220.08 410.66C218.53 409.19 216.31 406.29 215.15 404.2C213.99 402.12 212.46 398.71 211.74 396.62C211.03 394.54 210.12 390.47 209.73 387.58C209.34 384.7 208.91 376.43 208.76 369.22C208.62 362 208.8 348.62 209.17 339.48C209.66 327.36 209.67 321.45 209.2 317.62C208.85 314.73 208.51 311.9 208.45 311.31C208.38 310.73 207.87 310 207.31 309.68C206.75 309.36 205.83 309.17 205.27 309.26C204.7 309.35 203.96 309.27 203.61 309.09C203.26 308.9 202.61 308.87 202.15 309.03Z" />
		<path id="Path 8" class="shp8" d="M314.73 309.31C314.73 309.39 315.39 313.92 316.2 319.37C317 324.82 317.79 330.07 317.94 331.03C318.1 331.99 318.36 334.35 318.53 336.28C318.7 338.2 318.95 343.19 319.07 347.35C319.2 351.52 319.58 358.08 319.91 361.93C320.25 365.78 320.41 375.09 320.27 382.63C320.13 390.16 319.88 397.77 319.72 399.54C319.56 401.3 319.31 404.06 319.16 405.66C319 407.26 318.49 411.07 318.01 414.11C317.54 417.16 316.75 421.36 316.27 423.44C315.79 425.53 314.57 429.86 313.55 433.06C312.41 436.63 310.57 440.7 308.8 443.56C307.21 446.12 305.35 449.01 304.67 449.97C303.99 450.93 302.11 452.45 300.48 453.34C298.86 454.24 295.75 455.81 293.58 456.84C291.4 457.87 289.63 459.04 289.64 459.45C289.65 459.85 289.92 460.17 290.24 460.17C290.56 460.17 291.94 459.6 293.3 458.9C294.67 458.19 296.04 457.57 296.37 457.51C296.69 457.44 298.13 457.07 299.57 456.67C301.02 456.26 302.98 455.17 303.94 454.23C304.91 453.3 306.35 452.18 307.15 451.74C307.95 451.31 309.16 450.21 309.83 449.3C310.5 448.39 311.54 446.72 312.14 445.6C312.74 444.48 313.3 443.36 313.39 443.12C313.49 442.88 313.6 442.49 313.63 442.25C313.67 442 313.67 441.61 313.63 441.37C313.6 441.13 313.83 440.93 314.15 440.93C314.47 440.93 315.26 439.29 315.9 437.29C316.55 435.29 317.06 433.12 317.05 432.48C317.04 431.84 317.24 431.09 317.48 430.82C317.73 430.55 317.99 429.89 318.06 429.36C318.12 428.83 318.36 427.74 318.59 426.94C318.82 426.14 319.1 425.29 319.2 425.05C319.31 424.81 319.44 424.41 319.48 424.17C319.53 423.93 319.62 423.47 319.69 423.15C319.75 422.83 319.95 422.17 320.13 421.69C320.32 421.21 320.62 419.51 320.8 417.9C320.99 416.3 321.28 413.81 321.45 412.36C321.62 410.92 321.9 408.95 322.07 407.99C322.24 407.03 322.47 397.19 322.58 386.13C322.69 375.06 322.56 364.18 322.29 361.93C322.02 359.69 321.66 352.6 321.49 346.19C321.33 339.78 321.05 333.35 320.88 331.9C320.71 330.46 320.15 326.66 319.65 323.45C319.14 320.24 318.51 317.23 318.24 316.74C317.98 316.26 317.74 315.67 317.7 315.43C317.67 315.19 317.44 313.68 317.18 312.08C316.84 309.9 316.47 309.17 315.73 309.17C315.18 309.17 314.73 309.23 314.73 309.31ZM203.11 312.81C202.99 313.21 202.6 314.46 202.24 315.58C201.88 316.7 201.43 318.93 201.23 320.53C201.03 322.14 200.83 323.84 200.77 324.32C200.71 324.81 200.5 325.85 200.29 326.66C200.08 327.46 199.77 330.08 199.61 332.49C199.45 334.89 199.2 337.65 199.06 338.61C198.92 339.57 198.67 342.06 198.49 344.15C198.31 346.23 197.99 350.3 197.76 353.19C197.54 356.07 197.4 361.32 197.44 364.85C197.48 368.59 197.9 372.71 198.44 374.76C199.16 377.49 199.28 379.73 198.98 384.96L198.59 391.67C201.9 399.8 203.36 402.95 203.97 403.91C204.58 404.87 205.08 406.05 205.08 406.53C205.08 407.01 206.4 409.18 208.01 411.34C209.95 413.94 211.2 415.13 211.67 414.84C212.1 414.58 212.23 414.64 211.98 414.99C211.76 415.31 212.42 416.39 213.45 417.38C214.48 418.38 216.18 419.69 217.22 420.3C218.27 420.91 219.12 421.6 219.12 421.84C219.11 422.08 219.44 422.27 219.84 422.27C220.24 422.26 221.39 422.85 222.4 423.58C223.4 424.31 225.63 425.6 227.35 426.46C229.07 427.31 231.27 428.34 232.23 428.74C233.19 429.14 234.24 429.52 234.56 429.58C234.88 429.65 235.74 429.86 236.46 430.07C237.5 430.36 237.77 430.2 237.77 429.27C237.77 428.35 237.06 427.9 234.42 427.14C232.57 426.6 230.41 425.82 229.61 425.39C228.8 424.96 227.82 424.61 227.42 424.61C227.02 424.61 224 421.92 220.72 418.63C215.18 413.09 214.5 412.17 211.53 405.95C209.77 402.26 208.11 399.11 207.84 398.95C207.57 398.79 207.37 398.47 207.4 398.23C207.43 397.98 207.25 396.99 207.01 396.03C206.77 395.06 206.44 394.27 206.28 394.28C206.12 394.28 205.93 393.44 205.86 392.39C205.78 391.35 205.46 390.43 205.13 390.35C204.8 390.27 204.67 389.95 204.83 389.63C204.99 389.3 204.76 387.4 204.31 385.4C203.87 383.39 203.47 380.44 203.42 378.84C203.37 377.24 202.95 374.48 202.48 372.72C202.02 370.95 201.63 367.15 201.62 364.26C201.62 361.38 201.86 355.74 202.17 351.73C202.47 347.72 202.86 342.21 203.05 339.48C203.23 336.76 203.64 330.99 203.96 326.66C204.28 322.33 204.62 317.28 204.71 315.43C204.83 312.97 204.67 312.08 204.11 312.08C203.69 312.08 203.24 312.41 203.11 312.81ZM209.24 329.13C209.1 337.87 208.99 353.29 209 363.39C209.01 373.49 209.21 383.07 209.45 384.67C209.7 386.27 210.26 389.68 210.71 392.25C211.24 395.28 212.38 398.65 213.96 401.87C215.56 405.12 217.51 407.97 219.65 410.15C221.44 411.98 223.16 413.48 223.48 413.49C223.81 413.5 225.9 414.9 228.15 416.61C230.39 418.32 233.34 420.36 234.7 421.14C236.05 421.93 237.28 422.44 237.42 422.28C237.56 422.12 237.85 421.2 238.06 420.24C238.43 418.58 238.04 418.1 230.97 411.49C226.85 407.64 221.89 402.92 219.94 400.99C217.3 398.39 216.07 396.6 215.1 394C214.1 391.31 213.58 387.8 212.86 378.84C212.06 368.73 212.03 365.86 212.7 357.27C213.18 350.99 213.27 346.39 212.95 344.73C212.66 343.29 212.51 337.25 212.59 331.32C212.73 322.28 212.59 319.98 211.71 317.09C211.13 315.19 210.4 313.55 210.07 313.44C209.7 313.32 209.4 318.91 209.24 329.13Z" />
		<path id="Path 9" class="shp9" d="M272 338.46C271.86 338.86 272.01 346.67 272.33 355.81C272.66 364.95 272.91 377.28 272.88 383.21C272.85 390.39 272.51 395.85 271.88 399.54C271.35 402.58 270.4 406.65 269.76 408.57C269.13 410.5 268.1 412.79 267.47 413.68C266.85 414.56 266.34 415.8 266.34 416.45C266.34 417.09 266.73 417.74 267.21 417.9C267.69 418.06 268.94 418.19 269.98 418.19C271.02 418.18 272.19 417.98 272.58 417.75C272.97 417.51 273.83 415.22 274.49 412.66C275.16 410.09 276.24 405.5 276.89 402.45C277.63 399.03 278.22 393.58 278.42 388.17C278.6 383.35 278.43 374.45 278.03 368.34C277.62 362.25 276.8 354.38 276.19 350.85C275.59 347.33 275.09 343.32 275.09 341.96C275.09 340.6 274.95 339.09 274.79 338.61C274.63 338.13 274 337.73 273.38 337.73C272.77 337.73 272.15 338.06 272 338.46Z" />
		<path id="Path 10" class="shp10" d="M274.95 340.8C275.04 342.16 275.62 346.95 276.25 351.44C276.88 355.93 277.62 361.44 277.89 363.68C278.17 365.92 278.36 374.32 278.31 382.34C278.23 396.02 278.13 397.34 276.62 403.91C275.73 407.76 274.93 411.17 274.84 411.49C274.76 411.81 274.49 412.86 274.25 413.82C274.01 414.78 273.7 415.96 273.56 416.45C273.42 416.94 273.82 417.51 274.49 417.76C275.35 418.08 276.13 417.77 277.4 416.59C278.49 415.58 278.93 414.77 278.59 414.4C278.27 414.05 278.29 412.8 278.65 411.2C278.97 409.76 279.37 407.52 279.54 406.24C279.7 404.96 280.1 400.37 280.41 396.04C280.73 391.71 280.87 383.71 280.72 378.26C280.58 372.8 280.17 364.41 279.81 359.6C279.45 354.79 278.83 348.94 278.43 346.61C277.95 343.79 277.9 342.19 278.29 341.83C278.67 341.47 278.52 340.78 277.85 339.8C277.29 338.99 276.37 338.32 275.81 338.32C274.97 338.32 274.82 338.76 274.95 340.8ZM269.98 339.63C269.67 340.03 269.25 341.08 269.04 341.96C268.81 342.95 268.89 343.45 269.25 343.27C269.64 343.08 269.64 343.37 269.25 344.15C268.93 344.79 268.64 345.9 268.61 346.63C268.58 347.35 268.53 352.27 268.51 357.56C268.48 362.85 268.56 374.92 268.69 384.38C268.89 399.26 268.79 401.97 267.95 404.49C267.37 406.27 266.18 408.15 264.91 409.3C263.77 410.35 262.84 411.53 262.83 411.93C262.83 412.33 263.42 413.51 264.14 414.55L265.46 416.45C267.89 413.06 269.11 410.5 269.75 408.57C270.39 406.65 271.32 402.71 271.81 399.83C272.3 396.94 272.78 390.38 272.87 385.25C272.97 380.12 272.84 369.5 272.59 361.64C272.34 353.78 272.01 345.45 271.86 343.13C271.71 340.8 271.36 338.9 271.07 338.9C270.79 338.9 270.29 339.23 269.98 339.63Z" />
		<path id="Path 11" class="shp9" d="M266.87 342.46C265.78 343.41 265.08 344.18 265.32 344.17C265.56 344.16 265.46 344.87 265.09 345.75C264.72 346.63 264.46 349.13 264.51 351.29C264.55 353.58 264.35 355.23 264.01 355.23C263.69 355.23 263.42 356.21 263.41 357.41C263.4 358.61 263.33 360.45 263.26 361.49C263.19 362.53 262.93 363.38 262.69 363.39C262.45 363.39 262.25 363.98 262.23 364.7C262.22 365.42 262.09 368.44 261.94 371.41C261.79 374.37 261.87 376.8 262.11 376.8C262.35 376.8 262.48 381.59 262.39 387.44C262.31 393.29 262.1 400.31 261.92 403.04C261.74 405.76 261.75 408.58 261.93 409.3C262.11 410.02 262.59 410.62 262.99 410.63C263.39 410.63 264.42 409.91 265.28 409.02C266.14 408.14 267.16 406.62 267.55 405.66C267.94 404.7 268.47 401.16 268.74 397.79C269.02 394.18 268.95 383.53 268.56 371.84C268.09 357.91 268.08 350.81 268.5 347.94C268.86 345.54 268.9 343.44 268.6 342.84C268.26 342.15 268.33 341.75 268.82 341.6C269.22 341.49 269.39 341.24 269.21 341.06C269.02 340.87 267.97 341.5 266.87 342.46ZM278.26 341.8C277.91 342.16 277.97 343.93 278.43 346.61C278.83 348.94 279.45 354.79 279.81 359.6C280.16 364.41 280.58 372.67 280.73 377.96C280.89 383.26 280.72 391.78 280.37 396.91C280.02 402.04 279.36 407.95 278.91 410.03C278.41 412.34 278.3 414.05 278.62 414.4C278.92 414.73 278.96 415.2 278.72 415.47C278.49 415.73 278.92 415.73 279.68 415.47C280.44 415.2 281.13 414.59 281.21 414.11C281.29 413.63 281.79 411.8 282.33 410.03C282.88 408.2 283.53 402.95 283.84 397.79C284.13 392.82 284.38 383.24 284.39 376.51C284.4 369.77 284.13 361.25 283.78 357.56C283.43 353.87 282.76 349.28 282.28 347.35C281.8 345.43 281.04 343.27 280.58 342.54C280.12 341.82 279.54 341.23 279.28 341.23C279.03 341.23 278.57 341.49 278.26 341.8ZM233.82 360.09C233.08 360.51 231.84 362.01 231.04 363.43C230.07 365.18 229.6 366.91 229.6 368.78C229.6 370.3 229.24 372.93 228.78 374.61C228.24 376.63 227.85 382.35 227.64 391.37C227.47 398.91 227.18 405.54 227.01 406.1C226.81 406.72 227.34 407.85 228.37 409.01C229.89 410.72 230.15 410.82 231.02 410.03C231.81 409.32 231.99 408.02 231.97 403.04C231.95 399.67 232.47 392.32 233.12 386.71C233.77 381.1 234.43 373.49 234.59 369.8C234.74 366.11 234.95 362.24 235.05 361.2C235.15 360.16 235.21 359.31 235.19 359.32C235.16 359.32 234.55 359.67 233.82 360.09Z" />
		<path id="Path 12" class="shp10" d="M235.2 361.64C234.94 363.08 234.65 366.89 234.55 370.09C234.44 373.3 233.8 380.78 233.12 386.71C232.44 392.64 231.9 399.99 231.92 403.04C231.94 406.08 231.81 409.23 231.62 410.03C231.44 410.83 231.63 411.99 232.05 412.6C232.47 413.21 233.08 413.56 233.4 413.38C233.72 413.21 234.18 409.17 234.43 404.41C234.68 399.64 235.14 392.6 235.45 388.75C235.76 384.9 236.17 377.82 236.35 373.01C236.53 368.2 236.45 363.08 236.17 361.64L235.66 359.02L235.2 361.64Z" />
		<path id="Path 13" class="shp9" d="M236.31 368.83C236.31 374.02 235.96 382.72 235.52 388.17C235.09 393.62 234.56 401.55 234.35 405.8C234.02 412.59 234.1 413.69 235 414.98C235.56 415.79 236.35 416.44 236.75 416.44C237.23 416.43 237.19 416.24 236.6 415.86C235.83 415.36 235.83 415.29 236.6 415.22C237.08 415.18 237.67 415.17 237.91 415.21C238.16 415.25 238.35 412.85 238.34 409.89C238.34 406.92 238.57 404.23 238.85 403.91C239.14 403.59 239.54 402.34 239.74 401.14C239.96 399.83 239.87 398.95 239.52 398.95C239.2 398.95 239.06 398.5 239.22 397.93C239.38 397.37 239.81 392.85 240.18 387.88C240.55 382.91 240.87 377.92 240.89 376.8C240.9 375.68 240.83 372 240.71 368.64C240.6 365.27 240.24 361.99 239.92 361.35C239.61 360.71 239.05 359.99 238.7 359.75C238.35 359.52 237.86 359.32 237.62 359.32C237.38 359.31 237.37 359.64 237.59 360.04C237.9 360.6 237.8 360.61 237.15 360.09C236.43 359.5 236.31 360.7 236.31 368.83Z" />
		<path id="Path 14" class="shp10" d="M197.13 364.55C197.13 366.32 197.24 366.97 197.37 366.01C197.51 365.05 197.51 363.61 197.37 362.81C197.24 362 197.13 362.79 197.13 364.55ZM240.6 362.63C240.48 362.89 240.44 365.52 240.53 368.49C240.65 372.67 240.88 373.95 241.56 374.17C242.3 374.42 242.41 373.59 242.29 368.54C242.2 364.79 241.9 362.53 241.49 362.38C241.13 362.26 240.73 362.37 240.6 362.63ZM240.75 380.44C240.41 383.09 239.93 388.34 239.68 392.1C239.43 395.87 239.36 398.96 239.52 398.97C239.68 398.97 240 397.99 240.23 396.78C240.46 395.57 240.92 390.91 241.26 386.42C241.59 381.93 241.95 377.67 242.06 376.94C242.16 376.22 242.05 375.63 241.81 375.63C241.57 375.63 241.09 377.8 240.75 380.44Z" />
		<path id="Path 15" class="shp7" d="M247.89 388.75C247.9 391.96 247.99 393.14 248.11 391.37C248.23 389.61 248.23 386.99 248.11 385.54C247.99 384.1 247.89 385.54 247.89 388.75ZM279.46 415.66C278.49 416.16 277.39 417 277 417.53C276.55 418.14 276.48 418.81 276.81 419.36C277.1 419.84 277.54 427.32 277.79 435.98C278.04 444.64 278.21 457.62 278.17 464.84C278.12 472.05 277.82 481.11 277.5 484.95C276.97 491.26 277 492.02 277.89 492.63C278.57 493.1 279.51 493.15 280.91 492.79C282.04 492.5 283.15 492.06 283.39 491.81C283.62 491.57 283.54 488.61 283.21 485.25C282.88 481.88 282.68 474.86 282.78 469.65C282.88 464.44 282.76 460.17 282.52 460.17C282.28 460.17 282.22 456.7 282.39 452.45C282.56 448.2 282.72 444.46 282.75 444.14C282.77 443.82 282.57 437.43 282.29 429.94C282.01 422.46 281.59 416.22 281.35 416.1C281.11 415.97 281.04 415.6 281.18 415.28C281.33 414.96 281.4 414.71 281.33 414.72C281.26 414.73 280.42 415.15 279.46 415.66Z" />
		<path id="Path 16" class="shp10" d="M257.84 426.36C257.84 432.61 257.92 435.23 258.03 432.19C258.13 429.14 258.13 424.03 258.03 420.82C257.92 417.61 257.84 420.1 257.84 426.36Z" />
		<path id="Path 17" class="shp7" d="M266.6 418.15C266.52 418.33 266.29 422.16 266.08 426.65C265.87 431.14 265.58 435.21 265.42 435.69C265.26 436.17 265.41 441.74 265.74 448.08C266.13 455.64 266.14 460.34 265.77 461.78C265.45 462.98 264.99 465.41 264.75 467.17C264.5 468.93 264.3 475.36 264.3 481.44L264.3 492.51C266.98 493.5 268.01 493.51 269.06 493.12C270.59 492.54 270.61 492.48 270.37 487.87C270.24 485.3 270.26 478.48 270.42 472.71C270.58 466.94 270.71 452.51 270.71 440.64C270.71 428.78 270.86 420.51 271.05 422.28L271.4 425.48C271.53 420.96 271.38 419.36 271.14 419C270.9 418.65 269.82 418.23 268.73 418.08C267.64 417.93 266.68 417.96 266.6 418.15Z" />
		<path id="Path 18" class="shp6" d="M271.59 418.18C270.83 418.66 270.68 422.6 270.49 446.31C270.37 461.47 270.31 477.55 270.34 482.04C270.38 486.53 270.54 490.79 270.7 491.51C270.89 492.35 271.58 492.95 272.61 493.18C273.49 493.38 274.73 493.29 275.38 492.98C276.02 492.68 276.72 491.66 276.93 490.73C277.15 489.8 277.65 482.48 278.06 474.46C278.64 462.96 278.65 457.72 278.1 449.68C277.72 444.07 277.41 435.08 277.41 429.71C277.42 420.72 277.32 419.85 276.25 418.78C275.61 418.14 274.49 417.62 273.77 417.62C273.05 417.63 272.07 417.88 271.59 418.18Z" />
		<path id="Path 19" class="shp7" d="M258.36 444.43C258.36 446.52 258.47 447.3 258.6 446.18C258.73 445.06 258.73 443.35 258.6 442.39C258.47 441.43 258.36 442.35 258.36 444.43ZM277.62 459.88C277.62 462.45 277.72 463.37 277.84 461.92C277.97 460.48 277.96 458.38 277.84 457.26C277.71 456.14 277.61 457.32 277.62 459.88Z" />
		<path id="Path 0" fill-rule="evenodd" class="shp11" d="M261.55 274.81C263.38 275.04 265.6 275.51 266.48 275.87C267.37 276.22 269.03 277.37 270.19 278.41C271.35 279.45 272.76 281.09 273.33 282.05C273.99 283.17 274.5 285.69 274.75 289.05C274.97 291.94 275.77 300.59 276.54 308.29C277.3 315.99 278.09 325.56 278.3 329.57C278.64 336.26 278.84 337.21 280.67 341.09C281.77 343.41 282.9 346.56 283.2 348.08C283.49 349.61 284.05 354.53 284.44 359.02C284.94 364.71 285.03 372.56 284.74 384.96C284.51 394.74 284.09 404.19 283.79 405.95C283.5 407.71 283.09 413.75 282.89 419.36C282.69 424.97 282.72 432.58 283.39 442.97L284.92 440.97C285.76 439.86 288.33 437.11 290.62 434.84C293.23 432.27 295.43 429.42 296.52 427.23C297.48 425.31 299.45 419.93 300.92 415.28C302.38 410.63 303.84 405.25 304.17 403.33C304.49 401.4 305.07 396.81 305.46 393.12C305.9 388.88 306.01 383.74 305.74 379.13C305.51 375.12 305.07 365.55 304.75 357.85C304.43 350.15 304.04 339 303.89 333.07C303.74 327.14 303.89 319.27 304.22 315.58C304.64 311.04 305.17 308.31 305.88 307.12C306.46 306.16 307.71 304.92 308.65 304.36C309.59 303.8 311.72 303.28 313.38 303.19C315.65 303.08 316.78 303.33 317.97 304.21C318.83 304.85 320.28 306.69 321.2 308.29C322.17 310 323.46 313.92 324.33 317.77C325.14 321.37 326.06 326.75 326.37 329.72C326.68 332.68 327.19 337.87 327.51 341.23C327.83 344.6 328.24 349.19 328.42 351.44C328.6 353.68 329.04 357.75 329.39 360.47C329.75 363.2 329.84 366.48 329.61 367.76C329.38 369.04 328.99 379.93 328.76 391.96C328.52 403.98 328.01 415.92 327.62 418.49C327.23 421.05 326 426.82 324.9 431.31C323.71 436.15 321.98 441.38 320.65 444.14C319.42 446.71 317.05 450.44 315.4 452.45C313.75 454.45 311.02 457.12 309.34 458.37C307.65 459.63 304.83 461.09 303.07 461.63C301.31 462.17 298.82 463.04 297.54 463.58C295.78 464.31 293.76 464.51 283.25 464.26L283.24 474.9C283.24 480.75 283.49 486.98 283.81 488.74C284.14 490.58 284.17 492.2 283.88 492.53C283.6 492.85 281.7 493.33 279.66 493.59C277.63 493.86 273.07 494.04 269.55 493.99C266.02 493.95 257.71 493.86 251.08 493.81C244.46 493.75 238.81 493.48 238.55 493.21C238.28 492.95 237.93 479.57 237.48 434.23L223.64 434.23L220.94 431.25C219.45 429.61 216.68 427.24 214.79 426C212.89 424.75 210.17 422.42 208.74 420.82C207.31 419.22 205.16 415.94 203.96 413.53C202.75 411.13 201.1 408.37 200.28 407.41C199.47 406.45 198.27 404.48 197.63 403.04C196.99 401.59 195.8 397.66 194.98 394.29C194.17 390.92 193.2 386.46 192.83 384.38C192.46 382.29 192.2 379.93 192.25 379.13C192.31 378.33 192.27 375.84 192.18 373.59C192.08 371.35 192 364 192 357.27C192 350.53 192.2 342.53 192.45 339.48C192.7 336.44 193.05 333.03 193.23 331.9C193.41 330.78 194.34 325.93 195.3 321.12C196.26 316.31 197.37 311.85 197.77 311.21C198.18 310.56 199.53 309.55 200.79 308.94C202.46 308.14 203.79 307.94 205.7 308.18C207.14 308.37 208.78 308.99 209.34 309.57C209.89 310.15 210.94 312.2 211.67 314.12C212.84 317.22 213.01 318.86 213.16 328.41C213.25 334.34 213.37 342.34 213.41 346.19C213.46 350.04 213.38 357.65 213.24 363.1C213.1 368.55 213.21 376.29 213.48 380.3C213.82 385.38 214.41 389 215.45 392.25C216.83 396.61 217.23 397.21 226.4 406.24L226.77 401.58C226.97 399.01 227.21 392.32 227.3 386.71C227.4 381.1 227.85 374.01 228.3 370.97C228.76 367.92 229.44 364.64 229.81 363.68C230.17 362.72 231.13 361.17 231.94 360.24C232.74 359.32 233.99 358.33 234.71 358.06C235.5 357.76 236.66 357.8 237.62 358.18C238.51 358.52 239.81 359.37 240.53 360.07C241.59 361.11 241.88 361.18 242.09 360.47C242.22 359.99 242.49 354.22 242.68 347.65C242.87 341.07 243.27 331.1 243.58 325.49C243.88 319.88 244.42 312.14 244.77 308.29C245.12 304.44 245.63 300.51 245.91 299.54C246.19 298.58 246.73 295.96 247.12 293.71C247.5 291.47 247.69 288.85 247.54 287.88C247.38 286.92 247.63 285.09 248.09 283.8C248.55 282.52 249.46 280.76 250.1 279.89C250.75 279.01 252.84 277.42 254.75 276.35C257.96 274.54 258.47 274.43 261.55 274.81ZM255.04 284.09C254.85 285.22 253.89 293.35 252.9 302.17C251.64 313.52 250.96 323.14 250.59 335.11C250.31 344.41 249.81 355.04 249.48 358.72C249.16 362.41 248.93 367.53 248.99 370.09C249.04 372.66 248.78 384.47 248.4 396.33C248.02 408.2 247.28 424.99 246.75 433.65C246.08 444.8 245.86 455.45 246.01 470.18C246.13 481.62 246.35 491.13 246.51 491.33C246.68 491.52 247.64 491.73 248.66 491.81C249.67 491.89 250.72 491.74 250.99 491.48C251.25 491.22 251.08 487.94 250.6 484.19C249.92 478.94 249.72 470.75 249.72 448.51C249.72 432.64 249.92 413.42 250.16 405.81C250.4 398.19 250.71 391.63 250.85 391.23C250.98 390.83 251.28 388.93 251.5 387C251.72 385.08 251.98 380.88 252.06 377.67C252.15 374.47 252.63 367.91 253.13 363.1C253.64 358.29 254.1 348.97 254.16 342.4C254.22 335.82 254.47 327.56 254.72 324.03C254.96 320.51 255.32 314.34 255.51 310.33C255.7 306.32 256.03 300.29 256.25 296.92C256.47 293.55 256.59 290.54 256.51 290.22C256.43 289.9 256.68 287.53 257.06 284.97C257.43 282.4 258.06 279.58 258.44 278.7C258.82 277.82 258.93 277.1 258.68 277.1C258.42 277.1 257.58 278.21 256.8 279.58C256.03 280.94 255.23 282.97 255.04 284.09ZM269.89 291.79C270.66 295.86 271.43 299.06 271.59 298.91C271.75 298.75 271.52 296.6 271.09 294.13C270.66 291.65 269.92 288.06 269.44 286.13C268.97 284.21 268.34 281.65 268.04 280.45C267.75 279.25 267.26 278.26 266.97 278.26C266.67 278.26 266.89 279.64 267.46 281.32C268.02 283.01 269.12 287.72 269.89 291.79ZM251.18 281.82C250.47 283.2 249.79 286.22 249.46 289.49C249.15 292.45 248.52 296.72 248.06 298.96C247.59 301.21 246.79 308.03 246.28 314.12C245.77 320.21 244.99 335.69 244.54 348.52C244.09 361.35 243.74 372.5 243.76 373.3C243.78 374.1 243.48 377.64 243.1 381.17C242.73 384.7 242.13 390.47 241.78 394C241.43 397.53 240.77 402.38 240.31 404.78C239.84 407.19 239.45 411.52 239.44 414.4C239.42 417.29 239.39 421.36 239.37 423.44C239.34 425.53 239.38 440.48 239.46 456.68C239.54 472.87 239.78 487.3 240 488.74C240.38 491.28 240.47 491.37 242.58 491.51L244.77 491.66C244.36 486.01 244.08 478.99 243.9 472.42C243.71 465.84 243.84 454.3 244.17 446.76C244.51 439.23 245.04 429.91 245.35 426.07C245.66 422.22 246.06 411.85 246.24 403.04C246.42 394.22 246.83 379.52 247.15 370.38C247.47 361.25 247.83 352.72 247.95 351.44C248.06 350.15 248.43 341.5 248.77 332.2C249.11 322.9 249.49 314.76 249.63 314.12C249.77 313.48 250.18 310.07 250.55 306.54C250.92 303.01 251.32 299.21 251.45 298.09C251.58 296.96 252.12 292.64 252.65 288.47C253.19 284.3 253.82 280.43 254.06 279.87C254.29 279.31 254.33 278.87 254.14 278.89C253.96 278.92 253.47 279.07 253.07 279.24C252.67 279.4 251.82 280.56 251.18 281.82ZM258.2 297.5C257.85 303.76 257.3 312.94 256.97 317.91C256.63 322.88 256.11 335.08 255.82 345.02C255.52 354.96 255.02 364.93 254.7 367.18C254.39 369.42 254.12 373.49 254.1 376.22C254.08 378.94 253.81 382.88 253.5 384.96C253.18 387.05 252.8 392.82 252.64 397.79C252.48 402.76 252.09 411.68 251.75 417.61C251.34 425.06 251.34 437.06 251.76 456.38C252.1 471.78 252.5 486.01 252.65 488.01L252.93 491.66L257.01 491.66C257.03 487.37 257.07 469.98 257.12 450.26C257.18 430.54 257.03 408.24 256.8 400.7C256.54 392.12 256.62 384.5 257.01 380.3C257.35 376.61 258 370.84 258.45 367.47C258.9 364.1 259.41 357.81 259.59 353.48C259.77 349.15 260.16 341.15 260.44 335.69C260.73 330.24 260.88 325.52 260.78 325.2C260.67 324.88 260.42 322.65 260.22 320.24C260.01 317.84 259.85 311.15 259.86 305.38C259.87 299.6 260.05 291.54 260.26 287.45C260.46 283.36 260.49 280.01 260.31 280.01C260.14 280.01 259.73 281.39 259.41 283.07C259.09 284.76 258.54 291.25 258.2 297.5ZM271.57 285.84C272.53 289.67 272.67 289.92 272.69 287.88C272.71 286.6 272.22 284.5 271.62 283.22C271.01 281.94 270.5 281.02 270.49 281.18C270.48 281.34 270.96 283.44 271.57 285.84ZM262.2 301.73C262.17 310.79 262.32 320.3 262.53 322.87C262.75 325.43 262.64 332.38 262.28 338.32C261.92 344.25 261.38 353.3 261.07 358.43C260.76 363.56 260.2 369.2 259.82 370.97C259.32 373.28 259.11 388.56 259.05 425.77C259 454.15 259.11 480.59 259.3 484.52L259.63 491.67L263.13 491.66C262.84 478.78 263.03 470.84 263.38 465.71C263.72 460.58 264.05 450.61 264.1 443.56C264.15 436.5 264.38 428.11 264.6 424.9C264.9 420.58 264.81 418.69 264.25 417.61C263.84 416.81 262.91 414.97 262.19 413.53C260.93 411.01 260.9 410.57 261.39 402.45C261.66 397.8 261.86 390.72 261.82 386.71C261.78 382.7 261.7 376.27 261.64 372.43C261.58 368.08 261.92 363.11 262.54 359.31C263.09 355.94 263.42 352.79 263.27 352.31C263.12 351.83 263.24 349.86 263.54 347.94C263.84 346.01 264.32 344.18 264.61 343.86C264.91 343.53 265.13 332.61 265.12 318.79C265.11 298.3 264.94 293.3 264.1 288.18C263.31 283.42 262.99 282.41 262.67 283.66C262.44 284.54 262.23 292.67 262.2 301.73ZM266.7 292.69C267.47 297.81 267.6 302.7 267.43 319.27C267.31 330.44 267.28 339.69 267.36 339.82C267.44 339.96 267.96 339.59 268.52 339.02C269.09 338.44 269.89 337.85 270.3 337.7C270.86 337.51 271.09 335.53 271.18 330.15C271.24 326.15 271.07 319.59 270.81 315.58C270.54 311.57 269.93 305.67 269.45 302.46C268.97 299.25 268.34 295.06 268.04 293.13C267.75 291.21 267.13 288.32 266.68 286.72C266.23 285.11 265.84 284.39 265.81 285.11C265.78 285.84 266.18 289.25 266.7 292.69ZM317.01 307.71C317.31 308.67 318.23 311.69 319.07 314.41C319.9 317.14 321.18 323.83 321.92 329.28C322.88 336.32 323.31 342.57 323.41 350.85C323.48 357.27 323.72 363.43 323.95 364.55C324.17 365.68 324.34 374.86 324.32 384.96C324.3 398.89 324.05 405.23 323.28 411.2C322.72 415.53 321.35 422.61 320.23 426.94C319.1 431.27 317.14 437.57 315.86 440.93C314 445.86 313 447.61 310.78 449.89C309.27 451.45 306.58 453.95 304.82 455.46C302.36 457.55 300.97 458.29 298.84 458.6C297.32 458.82 295.09 459.5 293.89 460.1C292.68 460.7 290.39 461.4 288.79 461.65C286.13 462.08 286.03 462.15 287.62 462.47C288.58 462.66 290.81 462.64 292.58 462.44C294.34 462.24 298.29 461.19 301.34 460.1C304.4 459.02 307.82 457.37 308.92 456.43C310.03 455.5 312.16 453.4 313.64 451.77C315.17 450.09 317.39 446.59 318.74 443.7C320.06 440.9 321.45 437.36 321.81 435.83C322.18 434.31 322.96 431.23 323.55 428.98C324.14 426.74 325.03 422.28 325.54 419.07C326.19 414.88 326.54 406.74 326.78 390.21C326.97 377.54 327.35 366.72 327.63 366.16C327.91 365.6 328.02 364.81 327.87 364.41C327.71 364.01 327.06 357.65 326.42 350.27C325.78 342.89 324.87 333.58 324.41 329.57C323.94 325.56 322.99 320.05 322.3 317.33C321.61 314.6 320.43 311.06 319.69 309.46C318.94 307.85 317.91 306.35 317.38 306.12C316.86 305.89 316.43 305.76 316.44 305.83C316.45 305.9 316.71 306.75 317.01 307.71ZM308.99 315.29L309.06 320.53C309.85 313.3 310.01 310.29 309.93 309.17C309.79 307.29 309.74 307.24 309.35 308.58C309.11 309.38 308.95 312.4 308.99 315.29ZM312.69 324.62C313.43 328.46 314.19 332.79 314.37 334.24C314.56 335.68 314.97 342.24 315.29 348.81C315.61 355.39 316.18 365.49 316.55 371.26C316.94 377.35 317.07 385.67 316.84 391.08C316.63 396.21 316.07 403.04 315.6 406.24C315.14 409.45 313.54 415.88 312.06 420.53C310.58 425.18 308.37 431.08 307.16 433.65C305.5 437.15 303.59 439.8 299.49 444.29C295.66 448.49 293.17 450.69 291.12 451.68C289.51 452.46 287.09 453.38 285.72 453.72C283.36 454.31 283.25 454.45 283.24 456.53L283.23 458.72C287.66 458.1 291.03 456.74 294.32 454.97C297.37 453.33 299.99 451.98 300.16 451.98C300.32 451.98 301.3 451.33 302.34 450.54C303.38 449.74 305.68 446.67 307.44 443.7C309.55 440.15 311.33 436.12 312.64 431.9C313.74 428.37 315.04 423.38 315.54 420.82C316.04 418.25 316.7 414.06 317.01 411.49C317.33 408.92 317.76 404.07 317.97 400.7C318.18 397.34 318.46 394.38 318.58 394.14C318.71 393.9 318.8 388.26 318.79 381.61C318.78 374.95 318.65 368.59 318.51 367.47C318.36 366.35 318.02 358.61 317.75 350.27C317.47 341.93 317.1 334.85 316.93 334.53C316.75 334.21 316.43 331.98 316.21 329.57C315.99 327.17 315.33 321.92 314.73 317.91C314.13 313.9 313.4 309.97 313.12 309.17C312.7 307.98 312.49 308.63 311.97 312.66C311.4 317.08 311.48 318.38 312.69 324.62ZM306.01 331.03C306.02 336.8 306.28 347.95 306.57 355.81C306.87 363.67 307.28 374.29 307.49 379.42C307.78 386.44 307.63 390.77 306.91 396.91C306.23 402.72 305.18 407.69 303.29 414.11C301.83 419.08 299.62 425.12 298.38 427.52C296.94 430.33 294.92 433.06 292.75 435.15C290.89 436.94 288.44 439.57 287.31 440.98C286.17 442.4 284.8 444.28 284.25 445.16C283.7 446.04 283.25 446.9 283.25 447.06C283.25 447.22 283.71 447.35 284.27 447.34C284.83 447.34 286.34 447.05 287.62 446.69C289.19 446.25 291.26 444.77 293.95 442.17C296.26 439.94 299.03 436.47 300.51 433.94C301.91 431.53 303.57 427.86 304.19 425.77C304.81 423.69 306.15 418.84 307.16 414.99C308.96 408.13 309.01 407.62 309.5 389.33C309.77 379.07 309.91 367.53 309.8 363.68C309.69 359.83 309.19 352.22 308.7 346.77C308.2 341.32 307.62 330.83 307.4 323.45C307.18 316.07 306.97 309.99 306.93 309.93C306.89 309.88 306.66 312.24 306.42 315.18C306.18 318.13 305.99 325.26 306.01 331.03ZM198.73 314.53C198.71 315.27 198.04 318.43 197.24 321.55C196.44 324.68 195.24 332.16 194.57 338.17C193.55 347.32 193.41 350.96 193.74 360.47C193.95 366.73 194.2 374.2 194.3 377.09C194.39 379.98 194.65 383.39 194.87 384.67C195.1 385.95 195.95 389.76 196.77 393.12C197.59 396.49 198.64 400.3 199.09 401.58C199.55 402.86 200.64 404.83 201.53 405.95C202.42 407.07 204.27 410.09 205.65 412.66C207.02 415.22 209.09 418.37 210.23 419.65C211.37 420.94 214.04 423.2 216.15 424.69C218.26 426.19 220.84 428.35 221.88 429.5C222.92 430.66 224.37 431.82 225.09 432.08C225.81 432.34 228.89 432.44 231.94 432.3L237.48 432.06C232.51 430.5 227.98 428.37 224.21 426.31C218.6 423.25 216.32 421.56 211.63 417.03C206.6 412.17 205.54 410.78 202.95 405.66C201.33 402.45 199.32 397.8 198.48 395.31C197.64 392.82 197.08 390.33 197.22 389.77C197.37 389.21 197.53 386.65 197.58 384.09C197.63 381.52 197.22 377.19 196.66 374.47C195.83 370.39 195.72 367.85 196.04 360.18C196.25 355.05 196.53 349.67 196.66 348.23C196.79 346.79 197.05 343.51 197.24 340.94C197.44 338.38 198.25 331.42 199.05 325.49C200.07 317.97 200.82 314.26 201.54 313.25C202.11 312.44 202.7 311.46 202.85 311.06C203 310.66 202.78 310.33 202.35 310.33C201.92 310.33 200.94 310.98 200.16 311.76C199.39 312.55 198.74 313.8 198.73 314.53ZM205.45 326.07C205 331.04 204.44 338.65 204.23 342.98C204.01 347.31 203.72 351.38 203.59 352.02C203.46 352.66 203.19 356.33 203 360.18C202.7 366 202.84 368.11 203.84 372.72C204.5 375.76 205.04 379.44 205.03 380.88C205.02 382.32 205.58 385.73 206.26 388.46C206.94 391.19 207.79 394.2 208.16 395.16C208.52 396.13 210.51 400.46 212.59 404.78C215.97 411.85 216.84 413.16 221.08 417.52C223.69 420.2 226.54 422.75 227.42 423.2C228.3 423.66 229.48 424.03 230.04 424.03C230.6 424.03 232.44 424.69 234.13 425.49L237.19 426.94C237.19 424.43 236.66 423.76 235.29 423.05C234.25 422.52 230.38 419.94 226.69 417.31C223 414.69 219.09 411.65 218 410.56C216.91 409.47 215.04 407.13 213.84 405.37C212.64 403.6 211 400.06 210.18 397.5C209.37 394.93 208.54 390.73 208.35 388.17C208.15 385.6 207.76 382.59 207.47 381.46C207.17 380.31 207.09 371.64 207.28 361.64C207.47 351.86 207.64 337.3 207.64 329.28C207.65 320.16 207.42 314.05 207.02 312.95C206.41 311.27 206.38 311.31 206.33 314.12C206.3 315.72 205.91 321.1 205.45 326.07ZM316.47 316.74C316.78 318.51 317.46 323.36 317.98 327.53C318.49 331.7 319.14 341.67 319.41 349.69C319.67 357.7 320.17 365.18 320.5 366.3C320.88 367.57 321.03 373.41 320.88 381.75C320.75 389.13 320.51 395.95 320.34 396.91C320.17 397.88 319.74 402.07 319.4 406.24C319.05 410.41 318.38 416.05 317.9 418.78C317.43 421.5 316.63 425.31 316.11 427.23C315.6 429.16 314.65 432.44 314 434.52C313.35 436.6 311.91 439.88 310.79 441.81C309.66 443.73 307.73 446.68 306.49 448.37C305.25 450.05 303.25 452.05 302.05 452.8C300.85 453.56 297.96 455.13 295.64 456.3C293.31 457.47 291.53 458.62 291.69 458.86C291.84 459.1 292.3 458.99 292.71 458.61C293.12 458.23 295.02 457.55 296.95 457.11C298.87 456.67 301.36 455.75 302.49 455.07C303.61 454.38 306.13 452.17 308.1 450.15C311.31 446.84 311.92 445.8 314.16 439.77C315.53 436.08 317.15 431.23 317.74 428.98C318.34 426.74 319.34 422.54 319.95 419.65C320.57 416.77 321.41 411.26 321.82 407.41C322.29 403.05 322.51 394.59 322.42 384.96C322.34 376.46 322.12 368.07 321.95 366.3C321.78 364.54 321.55 357.46 321.45 350.56C321.35 343.67 320.98 336.06 320.64 333.65C320.29 331.25 319.61 326.59 319.12 323.3C318.63 320.02 317.72 316.08 317.1 314.56C316.47 313.04 315.94 312.18 315.93 312.66C315.91 313.14 316.15 314.98 316.47 316.74ZM201.68 320.53C201.34 323.1 200.66 328.22 200.16 331.9C199.66 335.59 199 342.28 198.69 346.77C198.38 351.26 197.96 357.82 197.76 361.35C197.52 365.49 197.64 369.31 198.11 372.13C198.51 374.54 199.01 376.77 199.21 377.09C199.41 377.41 199.58 381.22 199.58 385.54C199.58 392.67 199.72 393.77 201.1 397.21C201.94 399.29 203.86 403.23 205.36 405.95C207.26 409.39 209.55 412.38 212.87 415.72C216 418.88 218.96 421.23 221.44 422.52L225.23 424.5C215.8 415.03 214.74 413.54 211.67 407.41C209.75 403.56 207.34 398.05 206.32 395.16C205.31 392.28 204.1 388.08 203.63 385.84C203.17 383.59 202.79 380.44 202.8 378.84C202.81 377.24 202.4 374.74 201.9 373.3C201.17 371.19 201.04 368.75 201.26 360.76C201.4 355.31 201.8 347.97 202.14 344.44C202.48 340.91 203.03 334.09 203.37 329.28C203.71 324.47 204.13 318.76 204.31 316.6C204.48 314.43 204.48 312.66 204.3 312.66C204.12 312.66 203.6 313.38 203.14 314.27C202.68 315.15 202.02 317.97 201.68 320.53ZM209.33 348.81C208.85 355.59 208.81 362.13 209.19 370.97C209.49 377.86 210 385.86 210.34 388.75C210.68 391.64 211.39 395.31 211.92 396.91C212.45 398.52 213.53 401.01 214.31 402.45C215.1 403.9 216.56 406.13 217.56 407.41C218.55 408.69 220.03 410.27 220.82 410.91C221.62 411.55 224.65 413.71 227.55 415.71C230.44 417.71 233.8 419.87 235 420.52L237.19 421.69C237.2 419.47 235.2 417.12 230.59 412.66C226.95 409.13 222.34 404.8 220.35 403.04C218.35 401.27 216.23 399.04 215.63 398.08C215.03 397.12 214.12 395.15 213.6 393.71C213.09 392.26 212.41 388.2 212.1 384.67C211.78 381.14 211.35 375.37 211.15 371.84C210.93 368.16 211.09 361.21 211.53 355.52C212.15 347.29 212.15 345.21 211.5 343.27C210.94 341.58 210.77 337.91 210.88 329.86C210.97 323.77 210.8 318.13 210.5 317.33C210.15 316.36 209.98 319.8 209.99 327.53C210.01 333.94 209.71 343.52 209.33 348.81ZM310.4 345.31C310.9 351.25 311.52 358.99 311.77 362.51C312.03 366.04 312.11 369.19 311.94 369.51C311.78 369.83 311.58 377.96 311.49 387.58C311.35 403.63 311.21 405.63 309.9 411.78C309.11 415.47 307.59 421.24 306.52 424.61C305.38 428.21 303.42 432.65 301.77 435.39C300.15 438.09 297.44 441.49 295.34 443.45C293.34 445.31 290.91 447.25 289.95 447.75C288.99 448.25 287.15 448.83 285.87 449.03C283.86 449.36 283.52 449.64 283.39 451C283.26 452.42 283.38 452.53 284.41 452.01C285.05 451.69 286.17 451.42 286.89 451.4C287.61 451.39 289.28 450.8 290.6 450.09C291.91 449.38 295.19 446.44 297.88 443.54C301.33 439.84 303.4 436.98 304.88 433.92C306.04 431.52 307.92 426.81 309.07 423.44C310.21 420.08 311.67 415.22 312.31 412.66C312.94 410.09 313.75 405.76 314.11 403.04C314.46 400.31 314.76 392.57 314.77 385.84C314.78 379.1 314.52 369.66 314.19 364.85C313.86 360.04 313.58 353.21 313.57 349.69C313.55 346.16 313.31 341.57 313.02 339.48C312.73 337.4 312.32 334.38 312.12 332.78C311.92 331.18 311.35 327.9 310.86 325.49C310.37 323.09 309.85 320.99 309.71 320.83C309.57 320.67 309.46 323.68 309.47 327.53C309.48 331.38 309.9 339.38 310.4 345.31ZM273.77 336.57C274.19 336.57 274.48 335.88 274.46 334.96C274.43 334.08 274.22 332.18 273.97 330.74C273.54 328.17 273.53 328.21 273.29 332.34C273.11 335.47 273.23 336.57 273.77 336.57ZM276.83 350.85C277.51 354.71 278.24 363.2 278.67 372.13C279.19 383.32 279.21 388.74 278.71 394C278.35 397.85 277.36 403.62 276.5 406.83C275.64 410.03 274.84 413.64 274.72 414.84C274.6 416.04 274.7 417.02 274.94 417.02C275.18 417.01 275.71 416.82 276.11 416.58C276.51 416.35 277.25 414.32 277.74 412.07C278.23 409.83 278.92 406.42 279.27 404.49C279.62 402.57 279.93 393.91 279.97 385.25C280.01 376.59 279.72 365.31 279.33 360.18C278.93 355.05 278.38 350.07 278.09 349.1C277.81 348.14 277.41 345.71 277.2 343.71C277 341.71 276.6 339.92 276.31 339.74C276.02 339.56 275.77 340.55 275.74 341.93C275.72 343.31 276.21 347.33 276.83 350.85ZM268.96 375.05L268.96 404.49C266.57 408.56 265.33 410.2 264.65 410.76C263.55 411.67 263.5 411.97 264.15 413.54C264.55 414.5 265.01 415.29 265.17 415.3C265.33 415.3 266.05 414.51 266.78 413.54C267.5 412.57 268.5 410.67 269 409.3C269.5 407.94 270.43 404.2 271.08 400.99C271.98 396.51 272.26 392.62 272.32 384.09C272.36 377.99 272.18 366.06 271.92 357.56C271.66 349.06 271.23 341.84 270.98 341.52C270.72 341.19 270.19 341.94 269.74 343.27C269.13 345.1 268.96 352.05 268.96 375.05ZM280.03 349.1C280.49 351.67 280.89 355.74 280.91 358.14C280.92 360.55 281.22 364.22 281.57 366.3C281.92 368.39 282.4 372.59 282.63 375.63L283.05 381.17C283.18 369.42 282.85 362.21 282.39 357.56C281.93 352.91 281.18 347.73 280.72 346.04C280.27 344.36 279.73 342.98 279.53 342.98C279.33 342.98 279.17 343.31 279.18 343.71C279.18 344.11 279.57 346.54 280.03 349.1ZM265.39 349.5C265.28 351.53 265.05 355.02 264.87 357.27C264.7 359.51 264.31 362.27 264 363.39C263.7 364.51 263.48 368.05 263.51 371.26C263.54 374.47 263.58 382.08 263.61 388.17C263.63 394.26 263.47 401.54 263.25 404.35C262.98 407.63 263.05 409.45 263.42 409.45C263.74 409.45 264.73 408.07 265.61 406.39L267.21 403.33C267.21 379.38 267.02 369.01 266.77 364.85C266.49 359.98 266.58 354.9 267.02 350.67C267.4 347.05 267.58 343.98 267.42 343.85C267.26 343.72 266.78 344.11 266.36 344.72C265.93 345.32 265.5 347.47 265.39 349.5ZM273.79 357.27C274.02 364.96 274.18 376.9 274.15 383.8C274.12 390.86 273.78 398.11 273.37 400.41C272.98 402.66 272.16 406.07 271.55 407.99C270.94 409.92 269.78 412.41 268.96 413.53C268.15 414.65 267.49 415.9 267.5 416.3C267.5 416.76 268.36 417.03 269.84 417.03C271.8 417.03 272.21 416.82 272.41 415.72C272.54 415 273.23 411.91 273.93 408.87C274.64 405.82 275.45 402.74 275.73 402.02C276.02 401.29 276.53 396.83 276.86 392.1C277.31 385.88 277.29 380.04 276.8 370.97C276.38 363.21 275.6 355.54 274.75 350.85L273.38 343.27L273.79 357.27ZM237.28 382.92C236.88 387.73 236.3 394.75 236 398.52C235.69 402.28 235.44 407.27 235.45 409.59C235.45 411.92 235.65 414.13 235.88 414.51C236.12 414.89 236.76 409.91 237.32 403.43C237.87 396.96 238.53 389.44 238.78 386.71C239.02 383.98 239.16 377.16 239.07 371.55C238.97 365.31 238.67 361.12 238.29 360.76C237.85 360.35 237.72 362.25 237.84 367.18C237.93 371.03 237.68 378.11 237.28 382.92ZM230.78 369.95C230.79 371.95 230.55 373.85 230.26 374.17C229.97 374.5 229.45 382.1 229.1 391.08C228.5 406.28 228.53 407.48 229.47 408.49C230.43 409.53 230.5 409.11 230.84 399.75C231.03 394.34 231.52 387.69 231.92 384.96C232.32 382.24 232.72 377.38 232.8 374.17C232.88 370.97 233.13 366.7 233.34 364.7C233.56 362.7 233.61 361.06 233.47 361.06C233.33 361.06 232.66 362.24 231.99 363.68C231.16 365.47 230.78 367.46 230.78 369.95ZM234.85 370.53C234.85 371.73 235.12 372.72 235.44 372.72C235.77 372.72 236.02 370.97 236.02 368.64C236.02 366.39 235.92 364.55 235.79 364.55C235.66 364.55 235.4 365.41 235.2 366.45C235 367.49 234.84 369.33 234.85 370.53ZM241.69 369.8C241.82 368.68 241.81 367.11 241.68 366.3C241.55 365.5 241.44 366.42 241.45 368.34C241.45 370.27 241.56 370.92 241.69 369.8ZM233.11 391.96C232.8 395 232.57 400.12 232.6 403.33C232.63 406.53 232.86 409.94 233.1 410.91C233.43 412.19 233.57 411.46 233.62 408.14C233.66 405.65 234.1 398.57 234.6 392.39C235.1 386.22 235.43 380.25 235.32 379.13C235.18 377.6 234.95 378.25 234.41 381.75C234.01 384.32 233.43 388.91 233.11 391.96ZM280.94 406.53C280.61 407.66 280.22 409.62 280.08 410.91C279.85 412.96 279.95 412.82 280.96 409.74C281.81 407.16 282.2 403.84 282.46 397.06C282.66 392.01 282.69 387.88 282.53 387.88C282.38 387.88 282.09 391.62 281.9 396.18C281.7 400.75 281.27 405.41 280.94 406.53ZM277.71 418.32C277.93 433.81 278.3 443.29 278.68 449.39C279.2 457.97 279.19 463.69 278.64 474.75C278.24 482.61 277.8 489.63 277.67 490.35C277.44 491.53 277.64 491.66 279.75 491.66L282.08 491.66C281.65 486.01 281.33 470.99 281.09 454.64C280.85 438.28 280.68 422.87 280.72 420.38C280.76 417.9 280.75 415.87 280.71 415.88C280.66 415.89 279.97 416.45 279.17 417.11L277.71 418.32ZM265.62 449.97C265.25 461.19 264.93 475.01 264.91 480.68C264.89 486.34 265.01 491.13 265.17 491.31C265.33 491.49 266.45 491.84 267.65 492.09L269.83 492.53C269.61 478.07 269.78 466.14 270.07 456.68C270.35 447.22 270.42 434.82 270.21 429.13L269.83 418.78C267.14 418.78 267.07 419 266.69 424.17C266.48 427.14 266 438.75 265.62 449.97ZM272.02 455.51L271.88 491.95C275.54 492.23 275.67 492.12 275.71 490.35C275.73 489.3 275.85 487.66 275.98 486.7C276.11 485.74 276.48 479.12 276.81 471.98C277.26 462.48 277.23 456.71 276.74 450.41C276.36 445.68 276.1 437.35 276.16 431.9C276.22 426.44 276.13 421.26 275.97 420.38C275.72 419.05 275.36 418.78 273.92 418.78C272.96 418.78 272.17 418.84 272.16 418.92C272.16 419 272.09 435.47 272.02 455.51ZM228.44 426.41C229.56 427.1 231.14 427.93 231.94 428.25C232.74 428.57 234.25 429.06 235.29 429.34C236.33 429.62 237.18 429.66 237.18 429.42C237.18 429.18 235.54 428.29 233.54 427.45C231.53 426.61 229.11 425.75 228.15 425.53L226.4 425.14L228.44 426.41Z" />
	</g>
</svg>