<svg xmlns="http://www.w3.org/2000/svg" viewBox="0 0 520 600" width="520" height="600">
	<style>
		tspan { white-space:pre }
		.shp0 { fill: #808080 } 
		.shp1 { fill: #000000 } 
		.shp2 { fill: #42f131 } 
		.shp3 { fill: #25761d } 
		.shp4 { fill: #487d43 } 
		.shp5 { fill: #6d532e } 
		.shp6 { fill: #5b4525 } 
		.shp7 { fill: #175711 } 
		.shp8 { fill: #3daa35 } 
	</style>
	<path id="Background" class="shp0" d="M260.16 -0.7L520.31 149.5L520.31 449.91L260.16 600.11L0 449.91L0 149.5L260.16 -0.7Z" />
	<g id="Layer 1">
		<path id="Path 0" class="shp1" d="M257.45 18.92C256.93 19.42 250.65 23.18 243.5 27.27C236.35 31.36 219.92 40.78 207 48.2C194.07 55.63 178.89 64.47 173.25 67.85C167.61 71.23 162.77 74 162.5 74C162.22 74 158.74 75.94 154.75 78.32C150.76 80.7 143 85.26 137.5 88.45C132 91.64 124.57 95.95 121 98.02C117.42 100.09 108.87 105.02 102 108.99C95.12 112.96 85.45 118.58 80.5 121.47C75.55 124.36 69.47 127.85 67 129.23C64.52 130.6 56.42 135.23 49 139.5C41.57 143.78 31.45 149.63 26.5 152.52C21.55 155.4 17.16 158.49 16.75 159.38C16.34 160.27 15.99 223.66 15.98 300.25C15.97 411.13 16.22 439.84 17.23 441.15C17.93 442.05 21.54 444.64 25.25 446.9C28.96 449.15 32.22 451 32.5 451C32.77 451 38.06 454.01 44.25 457.69C50.44 461.37 60 466.9 65.5 469.99C71 473.08 81.35 479 88.5 483.16C95.65 487.32 105.89 493.26 111.25 496.36C116.61 499.46 125.39 504.55 130.75 507.66C136.11 510.77 144.77 515.79 150 518.81C155.22 521.83 160.85 525.07 162.5 526C164.15 526.93 176.97 534.33 191 542.45C205.02 550.57 224.37 561.73 234 567.24C243.62 572.75 253.19 578.33 255.25 579.63C257.31 580.93 259.9 582 261 582C262.1 582 265.81 580.27 269.25 578.15C272.69 576.04 280.22 571.58 286 568.26C291.77 564.94 309.55 554.68 325.5 545.47C341.45 536.25 356.97 527.36 360 525.71C363.02 524.06 365.95 522.37 366.5 521.96C367.05 521.55 372 518.62 377.5 515.45C383 512.28 395.82 504.88 406 499C416.17 493.13 431.25 484.42 439.5 479.64C447.75 474.86 454.61 470.96 454.75 470.98C454.89 470.99 460.51 467.72 467.25 463.72C473.99 459.72 485.06 453.31 491.86 449.47C499.75 445.02 504.54 441.69 505.11 440.25C505.62 438.97 506.01 378.35 506.02 299.25C506.03 188.78 505.78 160.16 504.77 158.83C504.07 157.91 499 154.58 493.5 151.43C488 148.27 482.15 144.92 480.5 143.97C478.85 143.02 470.3 138.07 461.5 132.96C452.7 127.85 442.57 122.03 439 120.04C435.42 118.05 427.1 113.23 420.5 109.34C413.9 105.45 403.55 99.43 397.5 95.97C391.45 92.5 382.22 87.23 377 84.24C371.77 81.26 367.05 78.47 366.5 78.05C365.95 77.63 363.02 75.93 360 74.27C356.97 72.62 346.17 66.4 336 60.47C325.82 54.54 314.12 47.81 310 45.51C305.87 43.22 298.45 38.96 293.5 36.04C288.55 33.12 280.9 28.71 276.5 26.24C272.1 23.78 267.26 20.91 265.75 19.88C264.24 18.85 261.96 18 260.7 18C259.43 18 257.97 18.41 257.45 18.92Z" />
		<path id="Path 1" class="shp2" d="M244.92 32.25C236.44 37.2 219.15 47.22 206.5 54.51C193.85 61.81 176.52 71.82 168 76.75C159.47 81.69 140.57 92.6 126 101.01C111.42 109.42 88.25 122.81 74.5 130.75C60.75 138.7 43.09 148.87 35.26 153.35L21.02 161.5L21.02 438.5C43.09 451.15 60.75 461.32 74.5 469.26C88.25 477.2 111.42 490.58 126 498.99C140.57 507.4 156.77 516.75 162 519.76C167.22 522.78 189.05 535.38 210.5 547.76C231.95 560.15 251.97 571.75 255 573.56C260.3 576.72 260.61 576.78 263.5 575.26C265.15 574.4 279.32 566.29 295 557.25C310.67 548.2 329.12 537.53 336 533.54C342.87 529.55 362 518.5 378.5 508.98C395 499.47 417.95 486.21 429.5 479.53C441.05 472.84 458.6 462.72 468.5 457.04C478.4 451.35 489.65 444.85 493.5 442.59L500.5 438.48C501.04 188.4 500.85 162.28 499.8 161.34C499.08 160.7 492.65 156.83 485.5 152.73C478.35 148.64 462.15 139.32 449.5 132.02C436.85 124.72 420.87 115.5 414 111.53C407.12 107.56 385.3 94.94 365.5 83.5C345.7 72.05 324.77 59.98 319 56.68C313.22 53.38 299.05 45.19 287.5 38.48C275.95 31.77 265.11 25.59 263.42 24.76C260.36 23.26 260.24 23.3 244.92 32.25Z" />
	</g>
	<path id="Path 0" class="shp3" d="M250 63.95C244.77 67.1 228.8 76.44 214.5 84.69C200.2 92.94 172.52 108.93 153 120.21C133.47 131.5 102.44 149.38 84.02 159.96L50.55 179.18L50.95 421.5C72.3 433.82 98.3 448.83 122.5 462.79C146.7 476.76 170.55 490.56 175.5 493.47C180.45 496.37 196.65 505.73 211.5 514.26C226.35 522.79 243.22 532.52 249 535.89C254.77 539.25 260.17 541.99 261 541.98C261.82 541.97 277.35 533.35 295.5 522.83C313.65 512.32 341.55 496.18 357.5 486.97C373.45 477.76 399.55 462.7 415.5 453.5C431.45 444.3 450.46 433.33 457.74 429.13L470.97 421.5L471.09 179.5C421.81 150.9 389.27 132.07 367 119.2C344.72 106.33 322.45 93.44 317.5 90.55C312.55 87.66 300.17 80.54 290 74.72C279.82 68.91 269.25 62.75 266.5 61.04C263.75 59.33 261.05 57.99 260.5 58.07C259.95 58.14 255.22 60.79 250 63.95Z" />
	<path id="Path 0" class="shp4" d="M246 65.84C238.57 70.14 210.67 86.28 184 101.7C157.32 117.12 121.95 137.56 105.39 147.12C88.84 156.68 74.39 165.17 73.29 166C71.34 167.47 71.32 167.88 72.6 184.5C73.32 193.85 74.33 205.55 74.84 210.5C75.37 215.64 76.67 221.54 77.88 224.25C79.43 227.73 81.27 229.8 84.75 232C87.36 233.64 94.22 236.61 100 238.6C105.82 240.59 113.62 244.2 117.5 246.69C121.6 249.32 129.89 256.63 137.53 264.34C144.7 271.58 152.85 280.87 155.65 285C158.44 289.12 164.45 299.02 169 307C173.55 314.97 178.88 323.75 180.84 326.5C182.81 329.25 186.46 333.91 188.96 336.86C191.46 339.81 196.42 344.15 200 346.5C203.57 348.84 209.42 352.23 213 354.01C216.57 355.8 223.32 358.6 228 360.25C232.67 361.9 240.32 364.32 245 365.63C249.67 366.94 263.17 370.28 275 373.06C286.82 375.83 301 379.4 306.5 381C312 382.6 319.65 385.09 323.5 386.53C327.35 387.96 334.32 391.19 339 393.69C345.91 397.39 349.56 400.34 358.5 409.45C364.55 415.61 371.07 421.74 372.99 423.07C374.91 424.41 378.28 426.31 380.49 427.3C382.69 428.28 389.9 430.68 396.5 432.63C403.1 434.58 411.42 437.75 415 439.68C418.57 441.61 422.62 444.23 424 445.51L426.5 447.83C442.77 438.46 452.79 432.65 459.25 428.87L471 422L470.5 178.7C447.25 165.23 413.5 145.65 380.5 126.5C347.5 107.35 311.72 86.63 301 80.46C290.27 74.29 277.22 66.71 272 63.63C266.77 60.54 261.82 58.02 261 58.03C260.17 58.03 253.42 61.55 246 65.84Z" />
	<path id="Path 0" fill-rule="evenodd" class="shp1" d="M260.75 58.08C261.44 58.04 268.41 61.76 276.25 66.37C284.09 70.97 322 92.96 360.5 115.25C399 137.53 439.63 161.11 471.08 179.5L471 422L453.75 431.86C444.26 437.29 402.52 461.31 361 485.25C319.47 509.19 280.21 531.75 273.75 535.39C267.29 539.02 261.32 542 260.5 542C259.67 542 251.69 537.78 242.75 532.62C233.81 527.46 187.12 500.45 51.5 421.96L50.85 416.73C50.49 413.85 50.14 359.3 49.93 179.5L121.72 138.07C161.2 115.29 207 88.81 223.5 79.22C240 69.64 254.85 60.98 256.5 59.98C258.15 58.98 260.06 58.13 260.75 58.08ZM127.75 140.78L56 182C56 412.47 56.1 419.03 57.75 419.58C58.71 419.9 104.27 446.08 159 477.75C213.72 509.42 259.17 535.5 260 535.7C260.82 535.89 273.9 528.95 289.05 520.28C304.21 511.6 350.21 485.15 391.27 461.5L465.94 418.5L465.93 182.5C344.7 112.39 298.92 85.91 286 78.42C273.07 70.92 262.05 64.62 261.5 64.41C260.95 64.19 246.77 72.02 230 81.79C213.22 91.56 167.21 118.11 127.75 140.78Z" />
	<path id="Path 0" class="shp5" d="M248.14 317.01L242.9 337.82C231.41 341.88 227.7 343.22 227.25 343.41C226.8 343.61 226.61 344 226.84 344.28C227.07 344.56 231.42 345.53 236.52 346.45L245.79 348.11C245.77 363.76 245.49 368.69 245.16 369.18C244.82 369.66 241.96 371.08 238.78 372.33C235.61 373.58 230.87 375.59 228.25 376.8C225.63 378.02 223.5 379.29 223.51 379.62C223.53 379.96 228.18 380.24 233.84 380.24L244.14 380.24C244.85 387.59 245.22 390.55 245.42 391.57C245.71 393.04 245.06 393.87 242.29 395.61C240.36 396.81 236.75 399.11 234.25 400.71C230.65 403.04 230.06 403.7 231.37 403.96C232.28 404.13 235.61 403.66 238.78 402.9C241.96 402.15 244.61 401.65 244.68 401.8C244.75 401.95 245.05 406.15 245.34 411.14L245.87 420.2C233.04 428.82 229.4 431.51 229.52 431.75C229.63 431.99 233.06 431.62 237.14 430.93C241.21 430.24 244.83 429.68 245.17 429.68C245.51 429.67 245.78 431.8 245.77 434.41C245.76 437.02 244.84 445.82 243.72 453.98C242.6 462.13 241.68 470.2 241.68 471.89L241.67 474.98C273.75 474.98 277.91 474.75 277.9 473.95C277.9 473.39 276.8 469.4 275.47 465.1C274.13 460.79 271.17 450.32 268.89 441.82C266.6 433.33 264.74 425.82 264.74 425.14C264.74 424.46 264.83 423.9 264.94 423.89C265.05 423.89 270.34 425.69 276.68 427.9C283.02 430.11 289.23 432.15 290.48 432.44C291.88 432.77 292.59 432.65 292.33 432.14C292.11 431.69 285.82 427.52 278.35 422.88C266.5 415.51 264.72 414.12 264.33 411.96C264.08 410.6 263.61 406.43 263.28 402.69C262.82 397.47 262.92 395.88 263.71 395.89C264.27 395.89 269.09 397.39 274.42 399.21C279.74 401.03 284.56 402.52 285.13 402.5C285.69 402.49 286.15 402.21 286.15 401.87C286.15 401.53 281.8 398.54 276.47 395.23C271.15 391.92 265.87 388.51 264.74 387.64C263.09 386.39 262.48 384.86 261.71 380.07C261.18 376.77 260.93 373.88 261.14 373.65C261.36 373.43 266.24 373.72 271.99 374.31C277.74 374.9 282.54 375.18 282.65 374.93C282.77 374.68 277.67 371.88 271.33 368.71L259.79 362.94L259.78 348.53C272.24 345.33 275.86 344.04 275.86 343.58C275.86 343.13 272.42 341.09 268.22 339.05C264.02 337.01 260.38 334.79 260.13 334.11C259.88 333.43 259.51 329.16 259.31 324.63C259.1 320.1 258.62 316.21 258.23 315.98C257.84 315.76 257.09 312.24 256.58 308.16C256.06 304.08 255.52 299.72 255.37 298.48C255.22 297.23 254.72 296.21 254.24 296.21C253.77 296.21 251.02 305.57 248.14 317.01Z" />
	<path id="Path 0" class="shp6" d="M261.06 338.93C260.82 340.58 260.63 343.32 260.63 345.02C260.62 346.72 260.8 348.11 261.03 348.11C261.25 348.11 264.5 347.34 268.24 346.41C271.97 345.47 275.33 344.45 275.69 344.14C276.04 343.83 275.86 343.18 275.27 342.69C274.69 342.2 271.34 340.48 267.84 338.86L261.48 335.93L261.06 338.93ZM254.17 412.78C251.3 443.6 248.7 470.2 248.4 471.91L247.85 475.01C274.36 474.99 277.91 474.74 277.9 473.95C277.9 473.39 276.8 469.4 275.47 465.1C274.13 460.79 271.17 450.32 268.89 441.82C266.6 433.33 264.74 425.82 264.74 425.14C264.74 424.46 264.83 423.9 264.94 423.89C265.05 423.89 270.34 425.69 276.68 427.9C283.02 430.11 289.23 432.15 290.48 432.44C291.88 432.77 292.59 432.65 292.33 432.14C292.11 431.69 285.82 427.52 278.35 422.88C266.5 415.51 264.72 414.12 264.33 411.96C264.08 410.6 263.61 406.43 263.28 402.69C262.82 397.47 262.92 395.88 263.71 395.89C264.27 395.89 269.09 397.39 274.42 399.21C279.74 401.03 284.56 402.52 285.13 402.5C285.69 402.49 286.15 402.21 286.15 401.87C286.15 401.53 281.8 398.54 276.47 395.23C271.15 391.92 265.87 388.51 264.74 387.64C263.09 386.39 262.48 384.86 261.71 380.07C261.18 376.77 260.93 373.88 261.14 373.65C261.36 373.43 266.24 373.72 271.99 374.31C277.74 374.9 282.54 375.18 282.65 374.93C282.77 374.68 277.67 371.88 271.33 368.71L259.79 362.94C259.47 358.15 257.03 381.97 254.17 412.78Z" />
	<path id="Path 0" class="shp7" d="M245.19 284.47C240.26 290.25 232.52 299.42 227.99 304.86C223.46 310.3 219.12 315.67 218.35 316.81C217.57 317.94 216.94 319.33 216.95 319.9C216.95 320.54 218.72 321.11 221.69 321.42C224.3 321.69 226.71 322.06 227.05 322.24C227.38 322.43 222.1 328.32 215.31 335.34C208.51 342.37 202.94 348.39 202.94 348.73C202.93 349.07 205.62 350.23 208.91 351.3C212.2 352.38 215.76 353.67 216.83 354.18C218.73 355.1 218.61 355.31 209.47 367.06C204.36 373.63 198.77 380.86 197.04 383.13C195.31 385.39 193.89 387.89 193.89 388.69C193.89 389.79 194.79 390.23 197.8 390.58C199.95 390.83 202.92 391.2 204.39 391.41C207.02 391.77 207.05 391.81 205.89 394.04C205.24 395.29 199.69 402.61 193.55 410.31C187.42 418.02 182.39 424.69 182.37 425.14C182.35 425.68 185.4 425.74 191.2 425.3C196.08 424.93 201.18 424.39 202.54 424.1C204.94 423.59 204.87 423.75 199.65 430.37C196.71 434.1 191.44 440.94 187.94 445.57C184.44 450.19 180.92 455.16 180.11 456.62C179.3 458.07 178.83 459.48 179.06 459.75C179.28 460.02 183.36 459.47 188.12 458.53C192.88 457.59 206.78 454.56 219.01 451.8C231.25 449.03 241.63 446.42 242.08 445.99C242.53 445.57 243.09 442.66 243.32 439.53C243.54 436.4 243.64 433.46 243.52 433C243.41 432.53 242.39 432.14 241.26 432.14C240.12 432.14 235.21 433.07 230.34 434.21C225.47 435.34 220.74 436.46 219.84 436.68C218.86 436.92 218.53 436.8 219.01 436.38C219.47 435.99 225.12 432.1 231.58 427.73L243.32 419.79C243.32 404.39 243.26 404.13 241.46 404.16C240.44 404.18 234.42 405.44 228.07 406.97C221.73 408.51 216.46 409.7 216.36 409.62C216.26 409.55 222.35 405.78 229.88 401.25L243.58 393.01C242.75 386.63 242.5 384.13 242.5 383.33C242.49 382.02 241.11 381.87 226.79 381.68L211.09 381.48L243.73 368.9L244.14 349.76C237.44 348.49 231.97 347.39 227.66 346.49C223.36 345.59 219.65 344.69 219.42 344.49C219.2 344.29 223.65 342.63 229.31 340.8C234.97 338.98 240.03 337 240.55 336.41C241.07 335.82 244.16 324.78 247.43 311.86C250.69 298.95 253.69 288.01 254.09 287.56C254.49 287.11 255 286.92 255.22 287.15C255.43 287.38 256.35 292.38 257.24 298.27C258.14 304.16 259.32 313.61 259.86 319.28C260.41 324.94 261.45 330.86 262.17 332.44C263.33 334.94 264.66 335.82 272.79 339.44C277.91 341.72 282.08 343.86 282.06 344.2C282.05 344.54 277.9 345.84 272.85 347.08C265.61 348.87 263.55 349.7 263.08 351C262.75 351.9 262.35 354.62 262.17 357.02C261.95 360.12 262.2 361.69 263.02 362.38C263.66 362.92 270.89 366.77 279.09 370.95C287.28 375.12 293.61 378.55 293.16 378.55C292.7 378.56 286.22 377.83 278.74 376.94C271.26 376.04 264.87 375.31 264.53 375.3C264.19 375.3 263.91 377.15 263.91 379.42C263.91 381.68 264.24 384.19 264.64 384.98C265.03 385.77 274.65 392.17 286 399.19C297.35 406.21 306.57 412.03 306.49 412.13C306.41 412.22 297.53 409.16 286.77 405.33C276.01 401.5 266.84 398.37 266.38 398.37C265.87 398.37 265.67 401.27 265.85 405.99C266.09 412.33 266.4 413.8 267.7 414.73C268.56 415.34 278.72 421.6 290.27 428.62C301.83 435.65 310.73 441.22 310.05 441.01C309.37 440.79 299.65 437.51 288.45 433.7C277.25 429.9 267.87 426.97 267.61 427.2C267.35 427.43 268.12 431.51 269.33 436.26C270.53 441.02 271.94 445.37 272.45 445.93C272.97 446.49 288.59 449.54 307.16 452.72C325.74 455.9 341.4 458.51 341.97 458.51C342.54 458.51 343 458.14 343 457.68C343 457.23 340.44 453.99 337.31 450.47C334.18 446.96 326.86 439.77 321.04 434.49C315.22 429.21 309.53 424.16 308.4 423.27L306.34 421.66L337.65 422.45C333.81 418.33 326.25 411.34 318.36 404.25L304.01 391.36C312.2 389.77 316.52 388.93 318.9 388.48C321.83 387.92 323.23 387.26 323.23 386.42C323.23 385.74 316.19 378.79 307.6 370.97C299 363.16 292.14 356.49 292.36 356.15C292.57 355.81 295.34 354.23 298.51 352.64C301.68 351.06 304.28 349.39 304.28 348.94C304.28 348.48 299.37 343.61 293.36 338.1C287.36 332.6 282.35 327.87 282.23 327.6C282.11 327.33 284.06 326.09 286.55 324.84C289.05 323.59 290.98 322.11 290.82 321.54C290.67 320.98 282.8 310.07 273.32 297.31C263.84 284.54 255.65 274.07 255.12 274.03C254.59 274 250.12 278.69 245.19 284.47Z" />
	<path id="Path 0" class="shp8" d="M248.35 280.35C245.18 283.86 237 293.41 230.18 301.57C223.36 309.72 217.55 317.32 217.27 318.46C216.95 319.78 217.17 320.73 217.89 321.12C218.51 321.45 220.4 321.73 222.1 321.74C223.8 321.74 225.38 322.12 225.6 322.57C225.83 323.03 220.83 328.87 214.5 335.55C208.17 342.23 202.96 348.07 202.94 348.53C202.91 348.98 206.24 350.55 210.34 352.03C216.78 354.34 217.68 354.9 217.04 356.15C216.63 356.94 211.41 363.89 205.45 371.59C199.48 379.3 194.4 386.52 194.15 387.66C193.87 388.95 194.12 389.93 194.82 390.28C195.44 390.59 198.26 391.05 201.09 391.31C203.93 391.57 206.24 391.96 206.24 392.19C206.24 392.41 205.43 393.81 204.43 395.28C203.43 396.75 198.06 403.79 192.49 410.93C186.91 418.07 182.35 424.28 182.35 424.73C182.35 425.18 183 425.55 183.79 425.54C184.59 425.53 190.43 422.33 196.77 418.42C203.11 414.51 211.82 408.79 216.13 405.72C221.05 402.2 227.09 396.75 232.4 391.01C240.34 382.44 240.71 381.88 238.58 381.79C237.33 381.74 231.32 381.46 225.21 381.18L214.11 380.65L244.18 369.12L244.17 349.35C234.89 347.68 229.44 346.57 226.08 345.8L219.96 344.41L240.93 336.99C243.36 328.69 246.1 318.5 248.58 308.98C251.06 299.47 253.43 290.75 253.83 289.62C254.24 288.49 254.79 287.93 255.07 288.39C255.34 288.84 256.52 296.44 257.67 305.27C258.83 314.11 260.16 323.75 260.61 326.69C261.07 329.64 262 332.88 262.68 333.9C263.36 334.92 267.63 337.52 272.18 339.67C276.72 341.82 280.43 343.86 280.41 344.2C280.4 344.54 276.63 345.84 272.04 347.08C267.3 348.37 263.44 349.88 263.1 350.58C262.76 351.26 262.27 353.49 262 355.53C261.73 357.57 261.69 359.98 261.92 360.88C262.15 361.79 264.26 363.59 266.62 364.89C270.2 366.86 271.22 367.1 272.77 366.33C273.79 365.83 275.46 365.06 276.48 364.64C277.49 364.21 281.67 362.31 285.74 360.41C289.82 358.51 293.43 356.54 293.77 356.03C294.11 355.53 296.52 354 299.12 352.64C301.73 351.28 303.97 349.62 304.11 348.94C304.26 348.22 299.89 343.56 293.68 337.82C287.8 332.38 283.15 327.65 283.34 327.31C283.53 326.97 285.17 325.95 286.98 325.05C288.79 324.14 290.46 322.84 290.69 322.16C290.92 321.47 288.69 317.59 285.6 313.31C282.58 309.11 275.08 299.06 268.92 290.97C262.77 282.87 257.36 275.75 256.91 275.14C256.46 274.53 255.65 274.02 255.11 274C254.57 273.98 251.53 276.84 248.35 280.35Z" />
</svg>