<svg xmlns="http://www.w3.org/2000/svg" viewBox="0 0 520 600" width="520" height="600">
	<style>
		tspan { white-space:pre }
		.shp0 { fill: #1361a4 } 
		.shp1 { fill: #a86c20 } 
		.shp2 { fill: #492c11 } 
	</style>
	<path id="Background" class="shp0" d="M260.16 -0.7L520.31 149.5L520.31 449.91L260.16 600.11L0 449.91L0 149.5L260.16 -0.7Z" />
	<g id="portramp copy 6">
		<path id="Path 0" class="shp1" d="M260.75 -4.38C259.16 -4.03 259.05 -2.78 259.51 9.75C259.8 17.31 260.49 38.35 261.06 56.5C261.62 74.65 264.33 152.5 267.07 229.5C269.81 306.5 272.48 375.13 273 382C273.51 388.88 273.95 395.06 273.97 395.75C273.99 396.71 277.25 396.88 288.25 396.48C296.09 396.2 307.23 395.71 313 395.39L323.5 394.81C323.09 382.17 321.84 342.5 320.47 298.5C319.09 254.5 316.6 182.28 314.93 138C313.26 93.72 311.58 50.77 311.2 42.55L310.5 27.6C297.32 19.95 286.52 13.73 278 8.84C264.97 1.38 263.02 -0.04 265.75 -0.02C267.54 -0.01 272.15 -0.56 276.01 -1.25C279.86 -1.94 283.24 -3.06 283.51 -3.75C283.88 -4.71 281.48 -4.97 273.25 -4.88C267.34 -4.82 261.71 -4.6 260.75 -4.38Z" />
		<path id="Path 0" class="shp2" d="M259.82 -2.98C259.64 -2.42 259.73 0.91 260 4.43C260.27 7.95 260.73 11.01 261 11.23C261.27 11.45 265.92 11.38 271.33 11.07L281.16 10.5C271.35 4.84 267.26 2.93 265.75 2.6C264.24 2.27 262.99 1.66 262.99 1.25C262.98 0.84 265.57 0.16 268.74 -0.25C271.91 -0.66 275.4 -1.65 276.5 -2.46C278.31 -3.8 277.65 -3.94 269.32 -3.97C263.93 -3.99 260 -3.58 259.82 -2.98ZM279 59.77C269.53 59.99 264.05 60.52 263.21 61.3C262.42 62.02 261.93 64.78 261.96 68.25C261.99 72.67 262.4 74.22 263.75 74.94C264.83 75.51 273.71 75.53 287 74.97C298.82 74.47 309.29 74.05 310.25 74.03C311.72 74 312 73.04 312 68C312 64.7 311.77 61.33 311.5 60.5C311.1 59.3 309.28 59.04 302.25 59.22C297.44 59.34 286.98 59.59 279 59.77ZM283.5 123.97C274.15 124.33 265.94 124.93 265.25 125.31C264.49 125.73 264 128.14 264 131.5C264 134.53 264.23 137.68 264.5 138.5C264.93 139.78 267.43 139.92 281.75 139.46C290.96 139.17 302.1 138.69 306.5 138.4L314.5 137.87L314.34 123C303.61 123.25 292.85 123.62 283.5 123.97ZM286.72 187.89C271.62 188.38 267.74 188.79 266.93 190C266.36 190.86 266.21 193.85 266.57 197C266.92 200.03 267.49 202.91 267.85 203.41C268.23 203.94 276.37 204.03 287.5 203.63C297.95 203.26 308.64 202.73 311.25 202.47C315.14 202.09 316.1 201.59 316.56 199.75C316.86 198.51 316.74 195.25 316.29 192.5L315.46 187.5C307.74 187.33 297.05 187.56 286.72 187.89ZM288.84 251.86C278.57 252.21 269.8 252.87 269.34 253.33C268.88 253.78 268.61 256.82 268.75 260.08C268.89 263.34 269.34 266.53 269.75 267.17C270.31 268.04 275.14 268.16 288.5 267.64C298.4 267.25 309.37 266.61 312.88 266.21L319.25 265.5C318.34 255.43 317.78 252.27 317.43 252C317.08 251.73 314.71 251.44 312.15 251.36C309.59 251.29 299.1 251.51 288.84 251.86ZM279 316.93L271.5 317.5L271.5 331.5C304.82 331.15 315.96 330.81 317.75 330.52C320.89 330.02 321 329.84 320.99 325.25C320.98 322.64 320.75 319.49 320.49 318.25C320 316.02 319.88 316 303.25 316.18C294.04 316.28 283.13 316.62 279 316.93ZM298.5 380.22C285.85 380.61 274.94 381.17 274.25 381.47C273.47 381.8 273 384.05 273 387.5C273 390.52 273.23 393.68 273.5 394.5C273.92 395.77 276.85 395.98 292.25 395.89C302.29 395.83 313.2 395.49 316.5 395.14L322.5 394.5C322.95 388.3 322.73 384.93 322.29 383L321.5 379.5L298.5 380.22Z" />
	</g>
	<g id="portramp copy 5">
		<path id="Path 0" class="shp1" d="M520.1 122.94C520.05 136.72 519.89 148.01 519.75 148.03C519.61 148.05 509.71 142.42 497.75 135.53C485.79 128.64 475.66 123.03 475.25 123.07C474.84 123.11 467.71 131.77 459.42 142.32C451.13 152.87 414.71 199.3 378.49 245.5C342.27 291.7 300.12 345.36 284.82 364.75C269.52 384.14 257 400.23 257 400.5C257 400.77 264.31 406.92 273.25 414.15C282.19 421.38 291.19 428.47 293.26 429.9L297.02 432.5C300.26 429.4 317.67 407.35 337.8 381.5C357.94 355.65 410.87 288.15 455.43 231.5C499.99 174.85 538.14 126.03 540.21 123L543.97 117.5C538.18 112.38 533.35 108.3 529.5 105.13C525.65 101.96 521.98 99.03 521.35 98.62C520.5 98.07 520.18 104.34 520.1 122.94Z" />
		<path id="Path 0" class="shp2" d="M520 109L520 118C530.46 125.73 533.95 128 534.5 128.03C535.05 128.06 537.19 126.05 539.25 123.55C541.31 121.05 543 118.55 543 118C543 117.45 540.41 114.82 537.25 112.15C534.09 109.49 529.36 105.66 526.75 103.65C524.14 101.64 521.55 100 521 100C520.41 100 520 103.67 520 109ZM460.39 142.14C457.27 146.2 456.72 147.53 457.59 148.85C458.18 149.76 462.68 153.78 467.59 157.79C472.49 161.8 480.89 168.44 486.25 172.54L496 180L503.75 167.5C481.08 149.52 472.2 142.67 469.39 140.68L464.29 137.07L460.39 142.14ZM419.75 194.04L416 199C424.92 206.36 432.23 212.13 438.01 216.56C443.78 220.99 450.04 225.72 451.91 227.06L455.32 229.5C462.02 221.75 463.97 219.16 463.98 218.75C463.99 218.34 458.71 213.79 452.25 208.65C445.79 203.51 437.35 197 433.5 194.17C429.65 191.35 425.82 189.06 425 189.07C424.18 189.08 421.81 191.32 419.75 194.04ZM380.64 244.25C378.5 247.38 377.39 249.9 377.91 250.5C378.38 251.05 385.46 256.74 393.63 263.14C401.81 269.54 410.25 275.84 412.39 277.14L416.29 279.5C420.05 274.85 421.89 272.48 422.82 271.23C424.41 269.08 424.39 268.85 422.5 266.89C421.4 265.76 414.09 259.92 406.25 253.91C398.41 247.91 390.54 242.1 388.75 241C386.96 239.91 385.22 239.01 384.87 239C384.53 239 382.62 241.36 380.64 244.25ZM341.71 293.75C339.71 296.36 338.05 299.06 338.03 299.75C338.01 300.44 346.21 307.55 356.25 315.55C366.29 323.54 375.13 329.96 375.9 329.8C376.67 329.63 378.86 327.25 380.75 324.5L384.19 319.5C375.91 311.9 367.54 305.04 360.25 299.35C352.96 293.66 346.63 289 346.18 289C345.73 289 343.72 291.14 341.71 293.75ZM303.41 342.25C301.78 344.04 299.66 346.51 298.72 347.75C297.06 349.92 297.09 350.08 299.75 352.38C301.26 353.69 308.57 359.52 316 365.34C323.43 371.16 331.19 376.84 333.25 377.96L337 380C341.71 374.96 343.28 372.49 343.54 371.25C343.88 369.59 343.04 368.15 340.35 365.75C338.35 363.96 330.14 357.21 322.1 350.74C314.07 344.28 307.25 338.99 306.94 338.99C306.64 339 305.05 340.46 303.41 342.25ZM264.33 392.25C263.22 393.49 261.56 395.63 260.65 397C259.73 398.38 258.97 399.95 258.95 400.5C258.94 401.05 263.55 405.35 269.21 410.06C274.87 414.77 283.21 421.41 287.75 424.81C292.29 428.22 296.34 431 296.75 431C297.16 431 298.66 429.54 300.09 427.75C301.51 425.96 303.2 423.49 303.84 422.25C304.91 420.17 304.39 419.5 296.75 413.13C292.21 409.36 283.77 402.6 278 398.13C272.23 393.65 267.24 389.99 266.92 389.99C266.6 390 265.43 391.01 264.33 392.25Z" />
	</g>
</svg>