<svg xmlns="http://www.w3.org/2000/svg" viewBox="0 0 520 600" width="520" height="600">
	<style>
		tspan { white-space:pre }
		.shp0 { fill: #1361a4 } 
		.shp1 { fill: #a86c20 } 
		.shp2 { fill: #492c11 } 
	</style>
	<path id="Background" class="shp0" d="M260.16 -0.7L520.31 149.5L520.31 449.91L260.16 600.11L0 449.91L0 149.5L260.16 -0.7Z" />
	<g id="portramp copy 6">
		<path id="Path 0" class="shp1" d="M242.43 356.25C242.73 358.59 245.24 391.32 248 429C250.76 466.67 255.96 536.42 259.56 584C263.15 631.57 265.96 670.57 265.79 670.65C265.63 670.73 257.4 671.52 247.5 672.4C237.6 673.29 226.24 674.01 222.25 674C215.01 674 215 674 215 671.25C214.99 669.74 213.88 655 212.51 638.5C211.15 622 209.8 606.59 209.52 604.25L209 600L258.5 599.99C235.25 586.62 223.78 580.05 218 576.75C212.23 573.45 207.42 570.7 207.33 570.63C207.24 570.56 205.78 552.27 204.08 530C202.39 507.72 199.46 468.35 197.56 442.5C195.67 416.65 193.53 386.87 192.81 376.32C192.09 365.77 191.73 356.91 192 356.65C192.28 356.38 201.61 355.22 212.75 354.08C223.89 352.93 235 352 237.45 352L241.89 352L242.43 356.25Z" />
		<path id="Path 0" class="shp2" d="M244.3 399.88C244.67 400.5 245.26 404.04 245.62 407.75L246.27 414.5C235.6 415.62 224.54 416.52 214.82 417.22C205.1 417.93 196.95 418.27 196.71 418C196.47 417.73 196.02 414.35 195.71 410.5L195.15 403.5C225.65 400.72 236.56 399.65 239.07 399.34C241.94 398.98 243.89 399.18 244.3 399.88ZM250.46 471.25C250.82 475.24 250.97 478.57 250.81 478.66C250.64 478.75 239.62 479.65 226.32 480.66C213.02 481.67 201.91 482.27 201.62 482C201.33 481.72 200.74 478.23 200.3 474.24L199.5 466.98C204.15 466.95 213.6 466.29 223.5 465.49C233.4 464.7 243.37 464.03 245.66 464.02L249.82 464L250.46 471.25ZM255.31 535.25C255.63 539.24 255.81 542.57 255.7 542.66C255.59 542.75 249.65 543.3 242.5 543.87C235.35 544.45 224.26 545.28 217.87 545.71L206.23 546.5C204.82 534.87 204.43 531.42 204.46 531.33C204.48 531.23 214.29 530.44 226.25 529.58C238.21 528.71 249.51 528 251.37 528L254.73 528L255.31 535.25ZM260.17 598.15C260.35 601.54 260.05 604.91 259.5 605.64C258.79 606.58 251.79 607.49 235.66 608.74C212.96 610.49 212.82 610.49 211.4 608.5C210.61 607.4 209.97 605.04 209.98 603.25L210 600L258.5 599.95C249.58 594.95 246.99 593.16 247 592.75C247 592.34 249.89 592 253.42 592L259.83 592L260.17 598.15ZM264.88 663.13L265.01 670.5C238.27 672.56 227.58 673.57 224 674.08C219.09 674.78 217.18 674.7 216.21 673.75C215.41 672.98 214.93 670.11 214.96 666.25C215 660.59 215.21 659.96 217.25 659.55C218.49 659.3 224 658.64 229.5 658.09C235 657.54 245.18 656.79 252.12 656.42L264.74 655.76L264.88 663.13Z" />
	</g>
	<g id="portramp copy 5">
		<path id="Path 0" class="shp1" d="M304.81 363C308.21 371.8 311 379.67 311 380.5C311 381.32 309.76 382.63 308.25 383.4C306.74 384.16 277.38 395.83 243 409.31C208.63 422.8 155.08 443.82 124 456.02C92.93 468.22 64.8 479.26 61.5 480.54L55.5 482.88C38.45 473.13 26.08 465.98 17 460.71L0.5 451.13L0.01 504.5C-46.11 522.79 -59.95 527.91 -60.5 527.68C-61.05 527.45 -64.96 518.54 -69.19 507.88C-73.42 497.22 -77.17 486.7 -77.52 484.5L-78.15 480.5C-69.12 476.8 -59.3 472.91 -50.5 469.47C-41.7 466.03 13.65 444.31 72.5 421.21C131.35 398.11 197.95 371.97 220.5 363.12L261.5 347.03L298.61 347L304.81 363Z" />
		<path id="Path 0" class="shp2" d="M299.16 352.65C300.08 353.67 302.4 358.32 304.31 363C306.23 367.67 308.52 373.86 309.4 376.75L311 382C302.09 385.84 299.05 386.97 298.5 387.01C297.95 387.04 294.45 379.29 290.72 369.78C286.99 360.28 284.21 352.27 284.56 352C284.9 351.72 287.95 351.34 291.34 351.15C296.36 350.86 297.81 351.14 299.16 352.65ZM234.53 362.19C235.5 364.01 239.6 373.94 243.64 384.25C247.69 394.56 251 403.45 251 404C251 404.55 248.19 406.34 244.75 407.98C241.31 409.62 238.22 410.63 237.87 410.23C237.53 409.83 234.89 403.42 232 396C229.12 388.57 225.46 378.67 223.87 374C222.28 369.32 221.01 365.03 221.05 364.45C221.08 363.87 223.44 362.52 226.28 361.45C229.12 360.38 231.74 359.36 232.11 359.19C232.48 359.01 233.57 360.36 234.53 362.19ZM174.14 384.68C174.89 385.61 179.17 395.85 183.65 407.43L191.81 428.5C183.04 432.1 179.83 433 179.02 432.82C178.13 432.63 174.09 423.79 168.82 410.5C164.02 398.4 160.05 388.27 160.01 388C159.96 387.73 162.31 386.48 165.21 385.23C168.12 383.98 171.01 382.97 171.64 382.98C172.26 382.99 173.39 383.76 174.14 384.68ZM116.29 411.73C117.72 414.9 120.76 422.23 123.05 428C125.34 433.77 128.29 441.31 129.6 444.75L132 451C126.96 454.07 124.15 455.23 122.5 455.56C120.6 455.93 119.06 455.66 118.29 454.83C117.63 454.1 115.67 450.13 113.95 446C112.23 441.88 108.6 432.65 105.88 425.5C103.17 418.35 100.96 412.16 100.97 411.75C100.99 411.34 102.91 410.15 105.25 409.11C107.59 408.07 110.44 406.93 111.6 406.59C113.39 406.05 114.07 406.79 116.29 411.73ZM56.8 434.75C57.96 437.91 61.85 448.15 65.44 457.5C69.03 466.85 71.64 474.83 71.23 475.24C70.83 475.64 67.8 477.08 64.5 478.43L58.5 480.89C55.6 473.61 51.68 463.4 47.93 453.5C42.55 439.3 41.36 435.22 42.3 434.19C42.96 433.46 45.86 432 48.75 430.94C51.64 429.87 54.15 429 54.34 429C54.53 429 55.63 431.59 56.8 434.75ZM-2.54 458.84C-0.16 465.1 -0.01 466.63 0 484.25C0 494.56 -0.34 502.84 -0.75 502.64C-1.16 502.44 -3.83 496.7 -6.68 489.89C-9.53 483.07 -13.46 473 -15.43 467.5C-17.39 462 -18.89 457.43 -18.75 457.33C-18.61 457.24 -15.48 456.05 -11.78 454.68L-5.06 452.18L-2.54 458.84ZM-64.63 476.75C-64.37 477.16 -62.5 481.77 -60.48 487C-58.45 492.22 -54.59 502.24 -51.9 509.25L-47 522C-55.14 525.98 -58.39 526.99 -59.47 526.82C-61.01 526.57 -63 522.52 -68.71 508C-72.71 497.82 -76.67 487.81 -77.49 485.75L-79 482C-68.92 477.35 -65.8 476 -65.55 476C-65.3 476 -64.89 476.34 -64.63 476.75Z" />
	</g>
</svg>