<svg xmlns="http://www.w3.org/2000/svg" viewBox="0 0 520 600" width="520" height="600">
	<style>
		tspan { white-space:pre }
		.shp0 { fill: #1361a4 } 
		.shp1 { fill: #a86c20 } 
		.shp2 { fill: #492c11 } 
	</style>
	<path id="Background" class="shp0" d="M260.16 -0.7L520.31 149.5L520.31 449.91L260.16 600.11L0 449.91L0 149.5L260.16 -0.7Z" />
	<g id="portramp copy 6">
		<path id="Path 0" class="shp1" d="M277.57 356.25C277.27 358.59 274.76 391.32 272 429C269.24 466.68 264.04 536.42 260.44 584C256.85 631.58 254.04 670.57 254.21 670.65C254.37 670.73 262.6 671.52 272.5 672.4C282.4 673.29 293.76 674.01 297.75 674C304.99 674 305 674 305 671.25C305.01 669.74 306.12 655 307.49 638.5C308.85 622 310.2 606.59 310.48 604.25L311 600L261.5 599.99C284.75 586.62 296.23 580.05 302 576.75C307.77 573.45 312.58 570.7 312.67 570.63C312.76 570.56 314.22 552.27 315.92 530C317.61 507.73 320.54 468.35 322.44 442.5C324.33 416.65 326.47 386.87 327.19 376.32C327.91 365.77 328.27 356.91 328 356.65C327.73 356.38 318.39 355.22 307.25 354.08C296.11 352.93 285 352 282.55 352L278.11 352L277.57 356.25Z" />
		<path id="Path 0" class="shp2" d="M275.7 399.88C275.33 400.5 274.74 404.04 274.38 407.75L273.73 414.5C284.4 415.62 295.46 416.52 305.18 417.22C314.9 417.93 323.05 418.27 323.29 418C323.53 417.73 323.98 414.35 324.29 410.5L324.85 403.5C294.35 400.72 283.44 399.65 280.93 399.34C278.06 398.98 276.11 399.18 275.7 399.88ZM269.54 471.25C269.18 475.24 269.03 478.57 269.19 478.66C269.36 478.75 280.38 479.65 293.68 480.66C306.98 481.67 318.09 482.27 318.38 482C318.67 481.73 319.26 478.23 319.7 474.24L320.5 466.98C315.85 466.95 306.4 466.29 296.5 465.49C286.6 464.7 276.63 464.03 274.34 464.02L270.18 464L269.54 471.25ZM264.69 535.25C264.37 539.24 264.19 542.57 264.3 542.66C264.41 542.75 270.35 543.3 277.5 543.87C284.65 544.45 295.74 545.28 302.13 545.71L313.77 546.5C315.18 534.88 315.57 531.42 315.54 531.33C315.52 531.23 305.71 530.44 293.75 529.58C281.79 528.71 270.49 528 268.63 528L265.27 528L264.69 535.25ZM259.83 598.15C259.65 601.54 259.95 604.91 260.5 605.64C261.21 606.58 268.21 607.49 284.34 608.74C307.04 610.49 307.18 610.49 308.6 608.5C309.39 607.4 310.03 605.04 310.02 603.25L310 600L261.5 599.95C270.42 594.95 273.01 593.16 273 592.75C273 592.34 270.11 592 266.58 592L260.17 592L259.83 598.15ZM255.12 663.13L254.99 670.5C281.73 672.56 292.43 673.57 296 674.08C300.91 674.78 302.82 674.7 303.79 673.75C304.59 672.98 305.07 670.11 305.04 666.25C305 660.59 304.79 659.96 302.75 659.55C301.51 659.3 296 658.64 290.5 658.09C285 657.54 274.82 656.79 267.88 656.42L255.26 655.76L255.12 663.13Z" />
	</g>
	<g id="portramp copy 5">
		<path id="Path 0" class="shp1" d="M215.19 363C211.79 371.8 209 379.68 209 380.5C209 381.32 210.24 382.63 211.75 383.4C213.26 384.16 242.63 395.83 277 409.31C311.38 422.8 364.93 443.82 396 456.02C427.07 468.22 455.2 479.26 458.5 480.54L464.5 482.88C481.55 473.13 493.93 465.98 503 460.71L519.5 451.13L519.99 504.5C566.11 522.79 579.95 527.91 580.5 527.68C581.05 527.45 584.96 518.54 589.19 507.88C593.42 497.22 597.17 486.7 597.52 484.5L598.15 480.5C589.12 476.8 579.3 472.91 570.5 469.47C561.7 466.03 506.35 444.31 447.5 421.21C388.65 398.11 322.05 371.97 299.5 363.12L258.5 347.03L221.39 347L215.19 363Z" />
		<path id="Path 0" class="shp2" d="M220.84 352.65C219.92 353.67 217.6 358.32 215.69 363C213.77 367.68 211.48 373.86 210.6 376.75L209 382C217.91 385.84 220.95 386.97 221.5 387.01C222.05 387.04 225.55 379.29 229.28 369.78C233.01 360.28 235.79 352.27 235.44 352C235.1 351.73 232.05 351.34 228.66 351.15C223.64 350.86 222.19 351.14 220.84 352.65ZM285.47 362.19C284.5 364.01 280.4 373.94 276.36 384.25C272.31 394.56 269 403.45 269 404C269 404.55 271.81 406.34 275.25 407.98C278.69 409.62 281.78 410.63 282.13 410.23C282.47 409.83 285.11 403.43 288 396C290.88 388.57 294.54 378.68 296.13 374C297.72 369.32 298.99 365.03 298.95 364.45C298.92 363.87 296.56 362.52 293.72 361.45C290.88 360.38 288.26 359.36 287.89 359.19C287.52 359.01 286.43 360.36 285.47 362.19ZM345.86 384.68C345.11 385.61 340.83 395.85 336.35 407.43L328.19 428.5C336.96 432.1 340.17 433 340.98 432.82C341.87 432.63 345.91 423.79 351.18 410.5C355.98 398.4 359.95 388.27 359.99 388C360.04 387.73 357.69 386.48 354.79 385.23C351.88 383.98 348.99 382.97 348.36 382.98C347.74 382.99 346.61 383.76 345.86 384.68ZM403.71 411.73C402.28 414.9 399.24 422.23 396.95 428C394.66 433.77 391.71 441.31 390.4 444.75L388 451C393.04 454.07 395.85 455.23 397.5 455.56C399.4 455.93 400.94 455.66 401.71 454.83C402.37 454.1 404.33 450.13 406.05 446C407.77 441.88 411.4 432.65 414.12 425.5C416.83 418.35 419.04 412.16 419.03 411.75C419.01 411.34 417.09 410.15 414.75 409.11C412.41 408.07 409.56 406.93 408.4 406.59C406.61 406.05 405.93 406.79 403.71 411.73ZM463.2 434.75C462.04 437.91 458.15 448.15 454.56 457.5C450.97 466.85 448.36 474.83 448.77 475.24C449.17 475.64 452.2 477.08 455.5 478.43L461.5 480.89C464.4 473.61 468.32 463.4 472.07 453.5C477.45 439.3 478.64 435.22 477.7 434.19C477.04 433.46 474.14 432 471.25 430.94C468.36 429.87 465.85 429 465.66 429C465.47 429 464.37 431.59 463.2 434.75ZM522.54 458.84C520.16 465.1 520.01 466.63 520 484.25C520 494.56 520.34 502.84 520.75 502.64C521.16 502.44 523.83 496.7 526.68 489.89C529.53 483.07 533.46 473 535.43 467.5C537.39 462 538.89 457.43 538.75 457.33C538.61 457.24 535.48 456.05 531.78 454.68L525.06 452.18L522.54 458.84ZM584.63 476.75C584.37 477.16 582.5 481.77 580.48 487C578.45 492.23 574.59 502.24 571.9 509.25L567 522C575.14 525.98 578.39 526.99 579.47 526.82C581.01 526.57 583 522.52 588.71 508C592.71 497.82 596.67 487.81 597.49 485.75L599 482C588.92 477.35 585.8 476 585.55 476C585.3 476 584.89 476.34 584.63 476.75Z" />
	</g>
</svg>