<svg xmlns="http://www.w3.org/2000/svg" viewBox="0 0 520 600" width="520" height="600">
	<style>
		tspan { white-space:pre }
		.shp0 { fill: #1361a4 } 
		.shp1 { fill: #a86c20 } 
		.shp2 { fill: #492c11 } 
	</style>
	<path id="Background" class="shp0" d="M260.16 -0.7L520.31 149.5L520.31 449.91L260.16 600.11L0 449.91L0 149.5L260.16 -0.7Z" />
	<g id="portramp copy 6">
		<path id="Path 0" class="shp1" d="M244.36 -3.11C238.23 -2.22 232.86 -1.16 232.44 -0.75C232.01 -0.34 237.48 0 244.58 0.01L257.5 0.02C251.3 3.63 241.44 9.37 231.6 15.09C221.75 20.82 213.5 25.95 213.27 26.5C213.04 27.05 223.72 110.75 237 212.5C250.29 314.25 261.46 397.82 261.83 398.22C262.2 398.61 270.15 397.85 279.5 396.53C288.85 395.2 299.42 393.81 303 393.43C306.57 393.05 309.97 392.46 310.54 392.12C311.23 391.71 305.48 344.97 293.41 253C283.42 176.82 271.76 87.95 267.52 55.5C263.27 23.05 259.61 -3.84 259.39 -4.25C259.18 -4.66 258.21 -4.94 257.25 -4.86C256.29 -4.78 250.49 -3.99 244.36 -3.11Z" />
		<path id="Path 0" class="shp2" d="M246.5 -2.97C240.45 -2.02 235.27 -1.1 235 -0.92C234.72 -0.75 239.55 -0.35 245.71 -0.05L256.93 0.5C240.68 9.8 236.31 12.77 236.73 13.11C237.15 13.44 242.67 12.97 249 12.07L260.5 10.42C260.08 1.96 259.81 -1.4 259.62 -2.5C259.43 -3.6 258.88 -4.54 258.39 -4.6C257.9 -4.65 252.55 -3.92 246.5 -2.97ZM262.5 59.51C261.95 59.72 255.87 60.61 249 61.49C242.12 62.37 232.67 63.56 228 64.13C223.32 64.71 219.15 65.47 218.73 65.84C218.3 66.2 218.42 69.42 218.99 73C219.57 76.57 220.28 79.72 220.58 80C220.88 80.27 229.31 79.43 239.31 78.13C249.32 76.82 258.62 75.58 260 75.36C261.37 75.14 263.85 74.69 265.5 74.36C267.15 74.03 268.72 73.63 269 73.46C269.27 73.29 269.04 70.08 268.48 66.32C267.63 60.64 267.13 59.47 265.48 59.31C264.39 59.21 263.05 59.29 262.5 59.51ZM253.5 125.45C244.15 126.69 234.25 128.03 231.5 128.44L226.5 129.18C227.67 140.28 228.12 143.62 228.25 143.76C228.39 143.91 232.1 143.59 236.5 143.05C240.9 142.51 248.1 141.59 252.5 141C256.9 140.41 264.1 139.46 268.5 138.89C272.9 138.32 276.84 137.66 277.25 137.42C277.66 137.19 277.77 135.42 277.5 133.5C277.22 131.57 276.77 128.42 276.5 126.5C276.06 123.44 275.66 123.01 273.25 123.1C271.74 123.15 262.85 124.21 253.5 125.45ZM281.5 186.53C280.95 186.72 271.05 188.06 259.5 189.49C247.95 190.92 237.71 192.29 236.75 192.54C235.22 192.94 235.08 193.85 235.63 199.75C235.97 203.46 236.53 206.78 236.88 207.13C237.22 207.47 245.15 206.73 254.5 205.48C263.85 204.23 274.2 202.91 277.5 202.55C280.8 202.19 284.06 201.58 284.75 201.19C285.67 200.68 285.8 198.71 285.25 193.58C284.84 189.78 284.05 186.55 283.5 186.42C282.95 186.28 282.05 186.33 281.5 186.53ZM283 251.02C279.97 251.44 273.67 252.29 269 252.92C264.32 253.55 256.9 254.52 252.5 255.09C248.1 255.65 244.18 256.43 243.79 256.81C243.41 257.19 243.52 260.42 244.05 264C244.57 267.57 245.11 270.64 245.25 270.81C245.39 270.98 254.95 269.96 266.5 268.53C278.05 267.11 288.96 265.74 290.75 265.47C293.76 265.04 294 264.72 293.99 261.25C293.98 259.19 293.65 255.8 293.24 253.73C292.66 250.8 292.06 250 290.5 250.11C289.4 250.19 286.02 250.6 283 251.02ZM280.5 316.03C273.35 317.03 264.8 318.15 261.5 318.53C258.2 318.91 254.6 319.58 253.5 320.01C251.66 320.73 251.57 321.31 252.34 327.15C252.8 330.64 253.47 333.84 253.84 334.26C254.2 334.68 259 334.38 264.5 333.61C270 332.83 279 331.63 284.5 330.94C290 330.26 296.3 329.4 298.5 329.04C302.43 328.41 302.5 328.33 302.28 324.45C302.16 322.28 301.83 319.04 301.53 317.25C301.04 314.23 300.73 314.01 297.25 314.11C295.19 314.17 287.65 315.03 280.5 316.03ZM293 379.08C285.57 380.1 275.22 381.52 270 382.24L260.5 383.54C260.92 392.03 261.19 395.4 261.38 396.5C261.63 397.94 262.4 398.43 264.11 398.25C265.43 398.12 276.4 396.67 288.5 395.03C300.6 393.4 310.64 391.93 310.82 391.78C311 391.63 310.77 388.35 310.32 384.51C309.73 379.45 309.09 377.48 308 377.37C307.17 377.29 300.42 378.06 293 379.08Z" />
	</g>
	<g id="portramp copy 5">
		<path id="Path 0" class="shp1" d="M-12.63 100.25C-16.42 104.24 -21.94 110.42 -24.91 114L-30.31 120.5C-7.98 141.82 -1.16 148.01 -0.75 148.01C-0.34 148 0 136.07 0 121.5C0 96 -0.08 94.96 -2 94C-3.1 93.45 -4.39 93 -4.88 93C-5.36 93 -8.85 96.26 -12.63 100.25ZM34 128.93C27.67 132.64 17.78 138.42 12 141.78C6.22 145.13 1.36 148.24 1.19 148.69C1.03 149.13 7.33 155.37 15.19 162.54C23.06 169.72 71.8 213.84 123.5 260.59C175.2 307.35 228.3 355.39 241.5 367.35C254.7 379.3 265.73 389.09 266 389.08C266.27 389.08 270.1 385.34 274.5 380.77C278.9 376.2 286.42 367.97 291.21 362.48C296 356.99 299.95 352.05 299.98 351.5C300.01 350.95 294.07 345.11 286.77 338.52C279.47 331.93 234.35 291.15 186.5 247.91C138.65 204.67 87.8 158.66 73.5 145.67C59.2 132.68 47.05 122.07 46.5 122.11C45.95 122.14 40.33 125.21 34 128.93Z" />
		<path id="Path 0" class="shp2" d="M-11.08 99.94C-13.05 101.56 -17.87 106.63 -21.79 111.2C-25.71 115.76 -28.94 120.06 -28.96 120.75C-28.98 121.44 -26.98 123.8 -24.5 126C-21.53 128.64 -19.51 129.75 -18.57 129.25C-17.79 128.84 -13.27 124.22 -8.55 119C-0.27 109.85 0.05 109.32 0.03 104.75C0 100.38 -0.26 99.88 -3.25 98.48C-5.04 97.64 -6.73 96.96 -7 96.97C-7.27 96.98 -9.11 98.31 -11.08 99.94ZM41.37 137.29C35.94 142.94 28.35 151.05 24.5 155.3L17.5 163.03C25.25 171.36 27.73 173.8 28 173.83C28.27 173.85 35.47 166.01 44 156.4C52.53 146.79 59.88 138.15 60.35 137.21C61 135.91 60.16 134.49 56.85 131.24C54.46 128.89 52.22 126.98 51.87 126.99C51.53 126.99 46.81 131.63 41.37 137.29ZM90.39 179.25C85.95 183.79 78.65 191.66 74.16 196.75C69.67 201.84 66.11 206.39 66.25 206.86C66.39 207.33 68.75 209.62 71.5 211.94L76.5 216.16C80.63 211.77 88.2 203.53 95.98 195L110.12 179.5C102.67 172.94 100.04 171.03 99.48 171.02C98.91 171.01 94.82 174.71 90.39 179.25ZM141.07 218.75C138.56 221.37 131.42 229.13 125.21 236C119 242.88 113.94 249.06 113.96 249.75C113.98 250.44 115.91 252.56 118.25 254.47C120.59 256.38 123.06 257.95 123.75 257.97C124.44 257.99 130.55 252.04 137.34 244.75C144.13 237.46 151.33 229.59 153.34 227.25L157 223C150.41 216.09 147.86 214.06 147.07 214.04C146.28 214.02 143.58 216.14 141.07 218.75ZM179.72 271.21C172.26 279.62 165.22 287.74 164.08 289.25C162.63 291.17 162.26 292.53 162.86 293.75C163.34 294.71 165.47 296.96 167.61 298.74L171.5 301.99C179.01 294.63 186.32 286.54 192.59 279.25C199.83 270.84 203.73 265.54 203.26 264.75C202.86 264.06 200.78 261.93 198.64 260C196.51 258.07 194.43 256.37 194.02 256.21C193.61 256.05 187.17 262.8 179.72 271.21ZM225.39 316C217.2 325.35 210.35 333.79 210.17 334.75C209.99 335.71 211 337.96 212.42 339.75C213.84 341.54 216.01 343.26 217.25 343.58C219.01 344.04 220.56 343.11 224.33 339.33C226.99 336.67 234.31 328.76 240.58 321.75C246.86 314.74 252 308.55 252 308C252 307.45 249.86 305.22 247.25 303.04C244.64 300.87 242 299.07 241.39 299.04C240.77 299.02 233.57 306.65 225.39 316ZM281.42 350.23C277.05 354.78 269.77 362.89 265.24 368.25C260.71 373.61 257 378.45 257 379C257 379.55 259.14 381.82 261.75 384.03C264.36 386.25 266.73 388.02 267 387.95C267.27 387.88 272.55 382.35 278.73 375.66C284.91 368.97 292.01 360.8 294.52 357.5C297.03 354.2 299.06 351.39 299.04 351.25C299.02 351.11 297.98 349.99 296.73 348.75C295.49 347.51 293.32 345.48 291.92 344.23L289.37 341.95L281.42 350.23Z" />
	</g>
</svg>