<svg xmlns="http://www.w3.org/2000/svg" viewBox="0 0 520 600" width="520" height="600">
	<style>
		tspan { white-space:pre }
		.shp0 { fill: #1361a4 } 
		.shp1 { fill: #a86c20 } 
		.shp2 { fill: #492c11 } 
	</style>
	<path id="Background" class="shp0" d="M260.16 -0.7L520.31 149.5L520.31 449.91L260.16 600.11L0 449.91L0 149.5L260.16 -0.7Z" />
	<g id="portramp copy 6">
		<path id="Shape 2 copy 3" class="shp1" d="M-55.56 405.88L-49.51 455.52L347.56 407.12L341.51 357.48L-55.56 405.88Z" />
		<path id="Path 0 copy 3" class="shp2" d="M-48.09 404.97L-40.63 404.07L-34.58 453.7L-49.51 455.52L-55.56 405.88L-48.09 404.97ZM15.6 397.21L23.06 396.3L29.11 445.93L14.18 447.75L8.13 398.12L15.6 397.21ZM79.29 389.45L86.75 388.54L92.8 438.17L77.87 439.99L71.82 390.36L79.29 389.45ZM142.97 381.68L150.44 380.77L156.49 430.41L141.56 432.23L135.51 382.59L142.97 381.68ZM206.66 373.92L214.13 373.01L220.18 422.64L205.25 424.46L199.2 374.83L206.66 373.92ZM270.35 366.16L277.82 365.25L283.87 414.88L268.94 416.7L262.89 367.07L270.35 366.16ZM334.04 358.39L341.51 357.48L347.56 407.12L332.63 408.93L326.58 359.3L334.04 358.39Z" />
	</g>
	<g id="portramp copy 5">
		<path id="Shape 2 copy 2" class="shp1" d="M-23.34 132.7L-51.92 173.73L276.34 402.3L304.92 361.27L-23.34 132.7Z" />
		<path id="Path 0 copy 2" class="shp2" d="M-17.17 136.99L-11 141.29L-39.58 182.32L-51.92 173.73L-23.34 132.7L-17.17 136.99ZM35.48 173.66L41.65 177.95L13.08 218.99L0.74 210.39L29.31 169.36L35.48 173.66ZM88.13 210.32L94.3 214.62L65.73 255.65L53.39 247.06L81.96 206.02L88.13 210.32ZM140.79 246.98L146.96 251.28L118.38 292.31L106.04 283.72L134.62 242.69L140.79 246.98ZM193.44 283.65L199.61 287.94L171.04 328.98L158.7 320.38L187.27 279.35L193.44 283.65ZM246.09 320.31L252.26 324.61L223.69 365.64L211.35 357.05L239.92 316.01L246.09 320.31ZM298.75 356.97L304.92 361.27L276.34 402.3L264 393.71L292.58 352.68L298.75 356.97Z" />
	</g>
</svg>