<svg xmlns="http://www.w3.org/2000/svg" viewBox="0 0 520 600" width="520" height="600">
	<style>
		tspan { white-space:pre }
		.shp0 { fill: #1361a4 } 
		.shp1 { fill: #a86c20 } 
		.shp2 { fill: #492c11 } 
	</style>
	<path id="Background" class="shp0" d="M260.16 -0.7L520.31 149.5L520.31 449.91L260.16 600.11L0 449.91L0 149.5L260.16 -0.7Z" />
	<g id="portramp copy 6">
		<path id="Shape 2 copy 3" class="shp1" d="M576.53 406.7L569.54 456.21L173.47 400.3L180.46 350.79L576.53 406.7Z" />
		<path id="Path 0 copy 3" class="shp2" d="M569.09 405.65L561.64 404.6L554.65 454.11L569.54 456.21L576.53 406.7L569.09 405.65ZM505.56 396.68L498.11 395.63L491.12 445.14L506.01 447.24L513 397.73L505.56 396.68ZM442.02 387.71L434.58 386.66L427.59 436.17L442.48 438.27L449.47 388.76L442.02 387.71ZM378.49 378.75L371.05 377.69L364.06 427.2L378.95 429.31L385.94 379.8L378.49 378.75ZM314.96 369.78L307.52 368.73L300.53 418.24L315.42 420.34L322.41 370.83L314.96 369.78ZM251.43 360.81L243.99 359.76L237 409.27L251.89 411.37L258.88 361.86L251.43 360.81ZM187.9 351.84L180.46 350.79L173.47 400.3L188.36 402.4L195.35 352.89L187.9 351.84Z" />
	</g>
	<g id="portramp copy 5">
		<path id="Shape 2 copy 2" class="shp1" d="M541.67 131.99L574.31 169.86L271.33 431.01L238.69 393.14L541.67 131.99Z" />
		<path id="Path 0 copy 2" class="shp2" d="M535.97 136.89L530.28 141.8L562.92 179.68L574.31 169.86L541.67 131.99L535.97 136.89ZM487.37 178.78L481.68 183.69L514.32 221.57L525.71 211.75L493.07 173.88L487.37 178.78ZM438.78 220.67L433.08 225.58L465.73 263.46L477.12 253.64L444.47 215.77L438.78 220.67ZM390.18 262.56L384.48 267.47L417.13 305.35L428.52 295.53L395.87 257.65L390.18 262.56ZM341.58 304.45L335.88 309.36L368.53 347.23L379.92 337.42L347.27 299.54L341.58 304.45ZM292.98 346.34L287.29 351.25L319.93 389.12L331.32 379.31L298.68 341.43L292.98 346.34ZM244.38 388.23L238.69 393.14L271.33 431.01L282.72 421.2L250.08 383.32L244.38 388.23Z" />
	</g>
</svg>