<svg xmlns="http://www.w3.org/2000/svg" viewBox="0 0 500 300" width="500" height="300">
	<style>
		tspan { white-space:pre }
		.shp0 { fill: #000000 } 
		.shp1 { fill: #259ab7 } 
	</style>
	<path id="Path 0" class="shp0" d="M287.93 27.46C286.69 28.2 282.93 30.03 279.61 31.53C276.28 33.03 270.11 37.67 265.9 41.84C260.73 46.95 257.09 52.37 254.7 58.51C252.74 63.51 250.8 71.02 250.38 75.18C249.79 81.11 250.56 85.25 253.91 94.13C257.02 102.37 260.09 107.39 265.11 112.39C268.91 116.19 276.11 121.29 281.11 123.73C288.68 127.42 292.12 128.18 301.61 128.2C311.32 128.23 314.44 127.53 322.82 123.47C328.57 120.68 335.16 115.91 338.71 112C342.04 108.31 346.06 102.61 347.65 99.34C349.22 96.05 351.24 89.28 352.1 84.28C353.42 76.74 353.24 73.49 351.01 65.33C349.35 59.21 346.15 52.62 342.54 47.9C339.36 43.73 334.11 38.49 330.9 36.25C327.69 33.99 321.82 30.76 317.87 29.05C312.85 26.87 307.58 25.96 300.44 26.02C294.82 26.06 289.18 26.71 287.93 27.46ZM429.64 30.22C424.64 32.5 417.3 37.58 413.35 41.52C409.39 45.45 404.86 51.22 403.3 54.34C401.72 57.47 399.63 64.12 398.63 69.12C397.27 75.97 397.25 80.08 398.54 85.79C399.48 89.96 401.57 96.26 403.19 99.81C404.82 103.36 409.21 109.33 412.97 113.07C416.73 116.82 423.71 121.74 428.5 124C435.52 127.32 439.45 128.14 448.62 128.17C458.36 128.21 461.44 127.55 469.83 123.47C476.35 120.3 482.09 115.98 486.9 110.59C492.39 104.45 494.93 99.87 497.34 91.85C499.43 84.91 500.31 78.62 499.9 73.67C499.55 69.44 497.17 61.74 494.52 56.24C491.76 50.51 487.02 43.89 483.2 40.42C479.58 37.13 472.36 32.52 467.15 30.19C459.92 26.94 455.44 25.94 448.21 26C441.2 26.05 436.35 27.15 429.64 30.22ZM293.82 173.03C290.16 173.56 283.49 175.97 279.01 178.39C274.52 180.8 267.52 186.37 263.47 190.75C257.84 196.84 255.4 201.1 253.05 208.93C251.36 214.55 249.98 221.54 250 224.47C250 227.39 251.15 233.18 252.55 237.35C253.94 241.52 256.58 247.31 258.38 250.23C260.2 253.16 265.03 258.48 269.13 262.05C273.22 265.64 280.33 270.01 284.9 271.75C289.54 273.54 296.94 274.98 301.57 275.03C306.92 275.07 313.17 273.81 319 271.51C325.48 268.96 330.78 265.27 337.37 258.7C345.3 250.82 347.12 247.93 349.91 238.86C351.69 233.03 353.15 226.04 353.13 223.33C353.12 220.62 351.73 214.15 350.06 208.93C348.38 203.72 345.13 197.1 342.86 194.2C340.57 191.31 337.01 187.34 334.92 185.38C332.84 183.42 327.89 180.17 323.93 178.14C319.97 176.1 313.06 173.92 308.59 173.27C304.12 172.6 297.47 172.5 293.82 173.03ZM428.08 177.35C422.76 179.94 415.89 185.09 411.41 189.85C406.45 195.11 402.74 200.87 400.83 206.28C399.01 211.45 397.93 218.36 398.01 224.47C398.09 231.94 399.18 236.67 402.51 244.03C405.62 250.9 409.35 255.93 415.24 261.19C419.82 265.28 426.99 269.89 431.16 271.4C435.32 272.93 441.46 274.66 444.8 275.25C448.45 275.91 453.57 275.57 457.68 274.4C461.44 273.36 467.23 271.12 470.56 269.45C473.9 267.78 480.23 262.95 484.63 258.7C489.22 254.28 494.02 247.76 495.9 243.41C498.31 237.83 499.21 232.64 499.27 223.71C499.34 213.78 498.66 210.07 495.49 203.25C493.37 198.66 488.76 192.02 485.26 188.47C481.76 184.93 474.64 179.98 469.42 177.48C461.48 173.68 458.1 172.94 448.54 172.94C439.04 172.94 435.64 173.66 428.08 177.35Z" />
	<path id="Path 3" class="shp1" d="M290.62 191.61C288.77 192.31 285.27 194.25 282.84 195.94C280.4 197.64 277.31 200.41 275.95 202.13C274.58 203.82 272.35 207.49 270.99 210.27C268.91 214.49 268.51 216.65 268.51 223.5C268.51 230.42 268.9 232.5 271.14 237.2C272.6 240.24 275.73 244.67 278.11 247.05C280.49 249.43 284.93 252.57 287.98 254.02C292.66 256.26 294.74 256.67 301.68 256.67C308.62 256.67 310.7 256.26 315.38 254.02C318.43 252.57 322.87 249.43 325.25 247.05C327.63 244.67 330.76 240.24 332.22 237.2C334.46 232.5 334.86 230.42 334.86 223.5C334.86 216.53 334.46 214.51 332.22 209.9C330.76 206.92 328.05 202.76 326.2 200.66C324.32 198.52 320.1 195.5 316.61 193.82C311.32 191.25 309.15 190.76 302.18 190.58C297.27 190.44 292.63 190.87 290.62 191.61ZM437.76 191.61C435.9 192.31 432.4 194.25 429.97 195.94C427.55 197.64 424.44 200.41 423.08 202.13C421.71 203.82 419.49 207.49 418.12 210.27C416.05 214.49 415.64 216.65 415.64 223.5C415.64 230.42 416.05 232.5 418.29 237.2C419.74 240.24 422.88 244.67 425.26 247.05C427.64 249.43 432.07 252.57 435.11 254.02C439.81 256.26 441.89 256.67 448.81 256.67C455.75 256.67 457.83 256.26 462.51 254.02C465.56 252.57 470 249.43 472.38 247.05C474.76 244.67 477.9 240.24 479.35 237.2C481.59 232.5 481.99 230.42 481.99 223.5C481.99 216.53 481.59 214.51 479.35 209.9C477.9 206.92 475.18 202.76 473.33 200.66C471.46 198.52 467.24 195.5 463.74 193.82C458.45 191.25 456.28 190.76 449.33 190.58C444.4 190.44 439.78 190.87 437.76 191.61ZM290.62 45.43C288.77 46.13 285.27 48.07 282.84 49.77C280.4 51.46 277.31 54.24 275.95 55.95C274.58 57.65 272.35 61.32 270.99 64.09C268.91 68.32 268.51 70.48 268.51 77.32C268.51 84.26 268.9 86.34 271.14 91.02C272.6 94.07 275.73 98.49 278.11 100.87C280.49 103.27 284.93 106.4 287.98 107.86C292.66 110.1 294.74 110.5 301.68 110.5C308.62 110.5 310.7 110.1 315.38 107.86C318.43 106.4 322.87 103.27 325.25 100.87C327.63 98.49 330.76 94.07 332.22 91.02C334.46 86.34 334.86 84.26 334.86 77.32C334.86 70.35 334.46 68.35 332.22 63.73C330.76 60.75 328.05 56.59 326.2 54.48C324.32 52.34 320.1 49.34 316.61 47.64C311.32 45.08 309.15 44.58 302.18 44.4C297.27 44.27 292.63 44.69 290.62 45.43ZM437.76 45.43C435.9 46.13 432.4 48.07 429.97 49.77C427.55 51.46 424.44 54.24 423.08 55.95C421.71 57.65 419.49 61.32 418.12 64.09C416.05 68.32 415.64 70.48 415.64 77.32C415.64 84.26 416.05 86.34 418.29 91.02C419.74 94.07 422.88 98.49 425.26 100.87C427.64 103.27 432.07 106.4 435.11 107.86C439.81 110.1 441.89 110.5 448.81 110.5C455.75 110.5 457.83 110.1 462.51 107.86C465.56 106.4 470 103.27 472.38 100.87C474.76 98.49 477.9 94.07 479.35 91.02C481.59 86.34 481.99 84.26 481.99 77.32C481.99 70.35 481.59 68.35 479.35 63.73C477.9 60.75 475.18 56.59 473.33 54.48C471.46 52.34 467.24 49.34 463.74 47.64C458.45 45.08 456.28 44.58 449.33 44.4C444.4 44.27 439.78 44.69 437.76 45.43Z" />
	<path id="Path 0" class="shp0" d="M17.58 2.24C15.42 4.03 13.05 6.96 12.33 8.75C11.27 11.34 11 25.84 11.02 80.25C11.04 143.57 11.17 148.79 12.83 152.5C13.81 154.7 15.71 157.29 17.06 158.26C18.48 159.28 21.28 160.01 23.75 160.01C26.14 160 30.52 158.87 33.75 157.44C36.91 156.02 44 153.6 49.5 152.04C55.08 150.45 65.02 148.65 72 147.95C81.99 146.95 86.41 146.94 94 147.94C99.76 148.69 106.26 150.33 110.5 152.09C114.86 153.9 119.76 157.01 123.5 160.34C127.14 163.57 130.74 168.01 132.64 171.59C134.37 174.84 136.28 179.86 136.89 182.75C137.5 185.64 137.99 191.71 137.98 196.25C137.96 200.79 137.48 206.53 136.9 209C136.32 211.47 134.65 215.96 133.17 218.97C131.7 221.97 128.14 226.81 125.25 229.72C121.74 233.25 117.43 236.2 112.25 238.62C107.99 240.61 102.03 242.63 99 243.11C95.97 243.59 87.42 244 80 244.01C71.55 244.02 63.51 243.43 58.5 242.43C54.1 241.55 46.67 239.68 42 238.27C37.33 236.86 29.11 233.75 23.75 231.36C17.14 228.4 13.11 227.15 11.25 227.48C9.74 227.74 7.18 228.98 5.57 230.23C3.96 231.48 2.05 233.96 1.32 235.75C0.38 238.06 0 244.59 0 258.25C0 274.59 0.27 278.02 1.75 280.97C2.71 282.87 4.85 285.23 6.5 286.2C8.15 287.17 14.22 289.28 20 290.89C25.78 292.5 34.1 294.52 38.5 295.37C42.9 296.22 51.67 297.67 58 298.59C64.38 299.51 75.74 300.26 83.5 300.26C94.51 300.27 100.7 299.68 112.5 297.51C120.75 295.99 131.1 293.42 135.5 291.8C139.9 290.17 147.1 286.83 151.5 284.37C155.9 281.92 162.76 277.23 166.75 273.95C170.74 270.68 176.77 264.29 180.15 259.75C183.53 255.21 187.85 248.13 189.75 244C191.66 239.88 194.3 232.22 195.62 227C196.95 221.78 198.48 212.78 199.03 207C199.57 201.22 199.76 193.13 199.43 189C199.11 184.88 198.18 177.9 197.35 173.5C196.52 169.1 195.26 163.47 194.55 161C193.83 158.53 192.01 153.57 190.49 150C188.98 146.43 185.69 140.35 183.19 136.5C180.68 132.65 175.01 125.9 170.57 121.49C165.9 116.86 158.92 111.3 154 108.31C149.32 105.46 141.22 101.58 136 99.7C130.78 97.81 120.88 95.24 114 93.99C103.52 92.09 98.96 91.79 85.75 92.11L70 92.5L70 56C158.52 55.56 171.1 55.2 173 54.23C174.38 53.53 176.4 51.5 177.5 49.73C179.27 46.88 179.53 44.45 179.79 29C180.04 13.77 179.85 11.05 178.29 8.03C177.31 6.12 174.7 3.32 172.5 1.81L168.5 -0.93L21.5 -1.01L17.58 2.24Z" />
</svg>