<svg xmlns="http://www.w3.org/2000/svg" viewBox="0 0 500 300" width="500" height="300">
	<style>
		tspan { white-space:pre }
		.shp0 { fill: #000000 } 
		.shp1 { fill: #259ab7 } 
		.shp2 { fill: #ff0000 } 
	</style>
	<g id="Path 3 copy">
		<path id="Path 0" class="shp0" d="M291.5 179.41C288.2 180.15 283.25 181.88 280.5 183.26C277.75 184.64 272.8 187.79 269.5 190.26C266.2 192.73 262.33 196.26 260.89 198.12C259.46 199.98 257.37 203.3 256.24 205.5C255.12 207.7 253.49 212.2 252.62 215.5C251.75 218.8 251.02 224.2 251 227.5C250.98 230.8 251.85 236.42 252.93 240C254.02 243.57 256.64 249.2 258.77 252.5C260.89 255.8 264.85 260.36 267.57 262.64C270.28 264.92 276.77 268.86 282 271.41C290.84 275.72 292.04 276.05 299.25 276.02C303.51 276.01 307.79 275.61 308.75 275.13C309.71 274.65 313.84 272.73 317.91 270.88C323.15 268.49 327.29 265.6 332.03 261C335.72 257.42 339.75 252.47 341 250C342.24 247.52 344.32 242.57 345.61 239C347 235.14 347.96 230.26 347.96 227C347.96 223.74 347 218.86 345.61 215C344.32 211.42 342.36 206.7 341.25 204.5C340.15 202.3 336.38 197.54 332.87 193.92C329.08 190 324.28 186.26 321 184.66C317.97 183.18 313.02 181.26 310 180.37C306.97 179.49 302.92 178.61 301 178.42C299.07 178.23 294.8 178.68 291.5 179.41Z" />
		<path id="Path 1" class="shp1" d="M284.5 198.86C281.75 200.42 277.8 203.68 275.72 206.1C273.64 208.52 271.05 212.41 269.97 214.75C268.5 217.92 268.01 221.09 268.03 227.25C268.06 234.62 268.41 236.13 271.28 241.39C273.05 244.63 275.85 248.47 277.5 249.93C279.15 251.38 282.75 253.89 285.5 255.51C290 258.16 291.35 258.45 299 258.41C305.72 258.38 308.39 257.91 311.75 256.18C314.09 254.98 318.06 252.09 320.58 249.75C323.1 247.41 326.48 242.8 328.1 239.5C330.44 234.73 331.04 232.17 331.04 227C331.04 221.66 330.46 219.34 327.79 214C326 210.42 323.17 206.15 321.52 204.49C319.86 202.84 316.02 200.24 313 198.73C308.21 196.33 306.35 195.98 298.5 196C290.47 196.02 288.96 196.33 284.5 198.86Z" />
	</g>
	<g id="Path 3 copy 2">
		<path id="Path 0 copy" class="shp0" d="M443.5 179.41C440.2 180.15 435.25 181.88 432.5 183.26C429.75 184.64 424.8 187.79 421.5 190.26C418.2 192.73 414.33 196.26 412.89 198.12C411.46 199.98 409.37 203.3 408.24 205.5C407.12 207.7 405.49 212.2 404.62 215.5C403.75 218.8 403.02 224.2 403 227.5C402.98 230.8 403.85 236.42 404.93 240C406.02 243.57 408.64 249.2 410.77 252.5C412.89 255.8 416.85 260.36 419.57 262.64C422.28 264.92 428.77 268.86 434 271.41C442.84 275.72 444.04 276.05 451.25 276.02C455.51 276.01 459.79 275.61 460.75 275.13C461.71 274.65 465.84 272.73 469.91 270.88C475.15 268.49 479.29 265.6 484.03 261C487.72 257.42 491.75 252.47 493 250C494.24 247.52 496.32 242.57 497.61 239C499 235.14 499.96 230.26 499.96 227C499.96 223.74 499 218.86 497.61 215C496.32 211.42 494.36 206.7 493.25 204.5C492.15 202.3 488.38 197.54 484.87 193.92C481.08 190 476.28 186.26 473 184.66C469.97 183.18 465.02 181.26 462 180.37C458.97 179.49 454.92 178.61 453 178.42C451.07 178.23 446.8 178.68 443.5 179.41Z" />
		<path id="Path 1 copy" class="shp1" d="M436.5 198.86C433.75 200.42 429.8 203.68 427.72 206.1C425.64 208.52 423.05 212.41 421.97 214.75C420.5 217.92 420.01 221.09 420.03 227.25C420.06 234.62 420.41 236.13 423.28 241.39C425.05 244.63 427.85 248.47 429.5 249.93C431.15 251.38 434.75 253.89 437.5 255.51C442 258.16 443.35 258.45 451 258.41C457.72 258.38 460.39 257.91 463.75 256.18C466.09 254.98 470.06 252.09 472.58 249.75C475.1 247.41 478.48 242.8 480.1 239.5C482.44 234.73 483.04 232.17 483.04 227C483.04 221.66 482.46 219.34 479.79 214C478 210.42 475.17 206.15 473.52 204.49C471.86 202.84 468.02 200.24 465 198.73C460.21 196.33 458.35 195.98 450.5 196C442.47 196.02 440.96 196.33 436.5 198.86Z" />
	</g>
	<g id="Path 3 copy 3">
		<path id="Path 0 copy 2" class="shp0" d="M291.5 25.41C288.2 26.15 283.25 27.88 280.5 29.26C277.75 30.64 272.8 33.79 269.5 36.26C266.2 38.73 262.33 42.26 260.89 44.12C259.46 45.98 257.37 49.3 256.24 51.5C255.12 53.7 253.49 58.2 252.62 61.5C251.75 64.8 251.02 70.2 251 73.5C250.98 76.8 251.85 82.42 252.93 86C254.02 89.57 256.64 95.2 258.77 98.5C260.89 101.8 264.85 106.36 267.57 108.64C270.28 110.92 276.77 114.86 282 117.41C290.84 121.72 292.04 122.05 299.25 122.02C303.51 122.01 307.79 121.61 308.75 121.13C309.71 120.65 313.84 118.73 317.91 116.88C323.15 114.49 327.29 111.6 332.03 107C335.72 103.42 339.75 98.47 341 96C342.24 93.52 344.32 88.57 345.61 85C347 81.14 347.96 76.26 347.96 73C347.96 69.74 347 64.86 345.61 61C344.32 57.42 342.36 52.7 341.25 50.5C340.15 48.3 336.38 43.54 332.87 39.92C329.08 36 324.28 32.26 321 30.66C317.97 29.18 313.02 27.26 310 26.37C306.97 25.49 302.92 24.61 301 24.42C299.07 24.23 294.8 24.68 291.5 25.41Z" />
		<path id="Path 1 copy 2" class="shp1" d="M284.5 44.86C281.75 46.42 277.8 49.68 275.72 52.1C273.64 54.52 271.05 58.41 269.97 60.75C268.5 63.92 268.01 67.09 268.03 73.25C268.06 80.62 268.41 82.13 271.28 87.39C273.05 90.63 275.85 94.47 277.5 95.93C279.15 97.38 282.75 99.89 285.5 101.51C290 104.16 291.35 104.45 299 104.41C305.72 104.38 308.39 103.91 311.75 102.18C314.09 100.98 318.06 98.09 320.58 95.75C323.1 93.41 326.48 88.8 328.1 85.5C330.44 80.73 331.04 78.17 331.04 73C331.04 67.66 330.46 65.34 327.79 60C326 56.42 323.17 52.15 321.52 50.49C319.86 48.84 316.02 46.24 313 44.73C308.21 42.33 306.35 41.98 298.5 42C290.47 42.02 288.96 42.33 284.5 44.86Z" />
	</g>
	<g id="Path 3 copy 4">
		<path id="Path 0 copy 3" class="shp0" d="M443.5 25.41C440.2 26.15 435.25 27.88 432.5 29.26C429.75 30.64 424.8 33.79 421.5 36.26C418.2 38.73 414.33 42.26 412.89 44.12C411.46 45.98 409.37 49.3 408.24 51.5C407.12 53.7 405.49 58.2 404.62 61.5C403.75 64.8 403.02 70.2 403 73.5C402.98 76.8 403.85 82.42 404.93 86C406.02 89.57 408.64 95.2 410.77 98.5C412.89 101.8 416.85 106.36 419.57 108.64C422.28 110.92 428.77 114.86 434 117.41C442.84 121.72 444.04 122.05 451.25 122.02C455.51 122.01 459.79 121.61 460.75 121.13C461.71 120.65 465.84 118.73 469.91 116.88C475.15 114.49 479.29 111.6 484.03 107C487.72 103.42 491.75 98.47 493 96C494.24 93.52 496.32 88.57 497.61 85C499 81.14 499.96 76.26 499.96 73C499.96 69.74 499 64.86 497.61 61C496.32 57.42 494.36 52.7 493.25 50.5C492.15 48.3 488.38 43.54 484.87 39.92C481.08 36 476.28 32.26 473 30.66C469.97 29.18 465.02 27.26 462 26.37C458.97 25.49 454.92 24.61 453 24.42C451.07 24.23 446.8 24.68 443.5 25.41Z" />
		<path id="Path 1 copy 3" class="shp1" d="M436.5 44.86C433.75 46.42 429.8 49.68 427.72 52.1C425.64 54.52 423.05 58.41 421.97 60.75C420.5 63.92 420.01 67.09 420.03 73.25C420.06 80.62 420.41 82.13 423.28 87.39C425.05 90.63 427.85 94.47 429.5 95.93C431.15 97.38 434.75 99.89 437.5 101.51C442 104.16 443.35 104.45 451 104.41C457.72 104.38 460.39 103.91 463.75 102.18C466.09 100.98 470.06 98.09 472.58 95.75C475.1 93.41 478.48 88.8 480.1 85.5C482.44 80.73 483.04 78.17 483.04 73C483.04 67.66 482.46 65.34 479.79 60C478 56.42 475.17 52.15 473.52 50.49C471.86 48.84 468.02 46.24 465 44.73C460.21 42.33 458.35 41.98 450.5 42C442.47 42.02 440.96 42.33 436.5 44.86Z" />
	</g>
	<g id="Path 3 copy 5">
		<path id="Path 0 copy 4" class="shp0" d="M367.5 102.41C364.2 103.15 359.25 104.88 356.5 106.26C353.75 107.64 348.8 110.79 345.5 113.26C342.2 115.73 338.33 119.26 336.89 121.12C335.46 122.98 333.37 126.3 332.24 128.5C331.12 130.7 329.49 135.2 328.62 138.5C327.75 141.8 327.02 147.2 327 150.5C326.98 153.8 327.85 159.42 328.93 163C330.02 166.57 332.64 172.2 334.77 175.5C336.89 178.8 340.85 183.36 343.57 185.64C346.28 187.92 352.77 191.86 358 194.41C366.84 198.72 368.04 199.05 375.25 199.02C379.51 199.01 383.79 198.61 384.75 198.13C385.71 197.65 389.84 195.73 393.91 193.88C399.15 191.49 403.29 188.6 408.03 184C411.72 180.42 415.75 175.47 417 173C418.24 170.52 420.32 165.57 421.61 162C423 158.14 423.96 153.26 423.96 150C423.96 146.74 423 141.86 421.61 138C420.32 134.42 418.36 129.7 417.25 127.5C416.15 125.3 412.38 120.54 408.87 116.92C405.08 113 400.28 109.26 397 107.66C393.97 106.18 389.02 104.26 386 103.37C382.97 102.49 378.92 101.61 377 101.42C375.07 101.23 370.8 101.68 367.5 102.41Z" />
		<path id="Path 1 copy 4" class="shp1" d="M360.5 121.86C357.75 123.42 353.8 126.68 351.72 129.1C349.64 131.52 347.05 135.41 345.97 137.75C344.5 140.92 344.01 144.09 344.03 150.25C344.06 157.62 344.41 159.13 347.28 164.39C349.05 167.63 351.85 171.47 353.5 172.93C355.15 174.38 358.75 176.89 361.5 178.51C366 181.16 367.35 181.45 375 181.41C381.72 181.38 384.39 180.91 387.75 179.18C390.09 177.98 394.06 175.09 396.58 172.75C399.1 170.41 402.48 165.8 404.1 162.5C406.44 157.73 407.04 155.17 407.04 150C407.04 144.66 406.46 142.34 403.79 137C402 133.42 399.17 129.15 397.52 127.49C395.86 125.84 392.02 123.24 389 121.73C384.21 119.33 382.35 118.98 374.5 119C366.47 119.02 364.96 119.33 360.5 121.86Z" />
	</g>
	<path id="Path 0" fill-rule="evenodd" class="shp0" d="M98.81 0.01C110.49 -0.05 112.33 0.2 125.28 3.57C132.94 5.56 142.08 8.53 145.59 10.18C149.1 11.82 154.65 14.99 157.91 17.2C161.18 19.42 166.68 24.34 170.15 28.14C173.62 31.93 178.19 37.77 180.31 41.12C182.44 44.46 185.2 49.72 186.46 52.81C187.72 55.9 189.7 62.22 190.86 66.85C192.56 73.62 192.96 77.65 192.92 87.44C192.88 96.19 192.34 101.96 190.99 108.02C189.96 112.65 187.72 119.6 186.02 123.46C184.31 127.32 181.6 132.48 180 134.93C178.39 137.37 177.08 139.79 177.08 140.31C177.08 140.82 178.68 143.24 180.64 145.69C182.59 148.13 185.45 152.45 186.98 155.28C188.52 158.11 190.86 163.37 192.18 166.97C193.5 170.58 195.58 178.16 196.8 183.82C198.01 189.48 199.01 196.95 199 200.43C198.99 203.9 198.13 211.69 197.08 217.74C196.03 223.79 194.13 232.1 192.86 236.22C191.59 240.34 189.4 246.23 187.99 249.32C186.59 252.41 183.45 257.64 181.03 260.95C178.61 264.25 173.49 269.94 169.65 273.58C165.81 277.22 160.06 281.79 156.87 283.73C153.68 285.67 147.78 288.56 143.76 290.15C139.75 291.74 131.74 294.06 125.97 295.3C120.19 296.54 113.72 297.96 111.59 298.47C109.45 298.97 103.91 299.38 99.27 299.38C93.49 299.38 86.57 298.5 77.36 296.58C69.95 295.03 61.33 292.78 58.19 291.56C55.05 290.35 50.22 288.18 47.46 286.75C44.7 285.32 39.98 282.44 36.97 280.36C33.95 278.27 29.28 274.43 26.59 271.83C23.89 269.23 19.93 264.57 17.79 261.49C15.65 258.4 12.68 253.34 11.19 250.26C9.69 247.17 7.4 241.27 6.09 237.16C4.78 233.04 2.87 224.83 1.84 218.91C0.82 212.99 -0.01 204.99 0 201.13C0.01 197.27 0.98 189.27 2.16 183.35C3.34 177.43 5.63 169.22 7.25 165.1C8.87 160.99 11.57 155.51 13.25 152.94C14.93 150.36 17.71 146.58 22.59 140.77L18.87 135.16C16.82 132.07 13.94 126.6 12.48 122.99C11.01 119.39 9.04 113.29 8.1 109.43C7.15 105.57 6.13 98.83 5.82 94.45C5.52 90.08 5.74 82.5 6.32 77.61C6.9 72.72 8.01 66.19 8.78 63.11C9.55 60.02 11.71 54.12 13.57 50.01C15.43 45.89 19.27 39.36 22.09 35.5C24.91 31.64 29.36 26.59 31.98 24.27C34.6 21.96 39.47 18.27 42.79 16.09C46.11 13.91 51.91 10.79 55.68 9.17C59.44 7.55 67.86 4.84 74.39 3.15C84.84 0.44 87.76 0.06 98.81 0.01ZM86.95 83.76C86.1 84.99 85.78 87.61 85.97 91.96C86.2 96.95 86.66 98.7 88.08 99.97C89.09 100.86 91.96 101.91 94.47 102.3C96.98 102.7 101.09 102.7 103.6 102.3C106.21 101.89 109.14 100.69 110.45 99.5C112.44 97.69 112.73 96.65 112.73 91.36C112.73 86.57 112.34 84.88 110.9 83.33C109.9 82.25 107.33 80.94 105.2 80.42C103.06 79.9 99.78 79.5 97.9 79.52C96.01 79.54 93.06 80.09 91.34 80.75C89.62 81.41 87.65 82.76 86.95 83.76ZM82.83 190.24C81.74 192.58 81.24 195.92 81.23 200.9C81.23 206.17 81.69 209.04 82.93 211.42C83.86 213.22 86.22 215.67 88.18 216.86C91.42 218.82 92.49 218.97 100.18 218.49C104.84 218.21 109.85 217.34 111.36 216.57C113.13 215.66 114.78 213.6 116.04 210.72C117.6 207.14 117.91 204.91 117.63 199.26C117.36 193.6 116.85 191.62 115.01 189.03C113.76 187.26 111.39 185.26 109.76 184.58C108.06 183.87 103.4 183.37 98.81 183.39C92.93 183.42 89.98 183.88 87.63 185.13C85.75 186.13 83.77 188.24 82.83 190.24Z" />
	<path id="Path 0" fill-rule="evenodd" class="shp2" d="M103.5 26.66C107.35 26.89 113.65 27.54 117.5 28.11C121.35 28.68 126.75 29.86 129.5 30.74C132.25 31.62 137.09 33.84 140.25 35.67C143.41 37.5 148.34 41.36 151.19 44.25C154.05 47.14 158.12 52.2 160.24 55.5C162.36 58.8 164.76 63.75 165.58 66.5C166.39 69.25 167.32 76.22 167.64 82C167.97 87.89 167.74 95.9 167.11 100.25C166.5 104.51 165.23 109.69 164.28 111.75C163.34 113.81 160.53 118.34 158.03 121.82C155.54 125.3 151.25 129.83 148.5 131.89C145.75 133.95 142.15 136.39 140.5 137.31C138.85 138.23 136.15 139.49 131.5 141.22L134 142.25C135.38 142.82 139.2 144.49 142.5 145.96C146.16 147.59 151.18 151.15 155.36 155.07C160.97 160.32 163 163.15 166.49 170.5C168.84 175.45 171.23 181.97 171.81 185C172.38 188.03 173.12 192.75 173.44 195.5C173.77 198.25 173.55 205 172.95 210.5C172.31 216.46 170.64 224.13 168.81 229.5C167.12 234.45 164.35 240.53 162.65 243C160.95 245.47 156.83 250.2 153.49 253.5C149.6 257.34 144.73 260.83 139.96 263.19C135.86 265.23 129.13 267.84 125 269.01C120.1 270.4 113.16 271.34 105 271.71C97.16 272.07 89.33 271.82 84 271.04C79.33 270.35 71.67 268.44 67 266.77C62.33 265.11 56.25 262.31 53.5 260.54C50.75 258.77 45.69 254.33 42.25 250.66C38.67 246.85 34.74 241.33 33.04 237.75C31.42 234.31 29.1 227.9 27.88 223.5C26.17 217.28 25.66 212.6 25.59 202.5C25.54 194.53 26.03 187.37 26.87 184C27.62 180.97 30.1 174.71 32.37 170.07C35.66 163.36 37.93 160.32 43.5 155.17C47.63 151.36 52.96 147.59 56.5 146C59.8 144.51 63.63 142.82 65 142.25C67.36 141.27 67.39 141.17 65.5 140.5C64.4 140.1 61.07 138.59 58.1 137.14C55.13 135.69 49.71 131.57 46.04 128C41.32 123.41 38.39 119.45 36.03 114.5C33.66 109.52 32.33 104.75 31.41 98C30.47 91.13 30.38 86.14 31.06 80C31.59 75.33 32.3 70.15 32.64 68.5C32.99 66.85 33.99 63.92 34.86 62C35.74 60.08 38.08 56.02 40.07 53C42.06 49.98 46.12 45.34 49.09 42.7C52.07 40.07 56.75 36.63 59.5 35.07C62.25 33.52 66.75 31.54 69.5 30.68C72.25 29.82 77.88 28.64 82 28.05C86.13 27.47 91.08 26.82 93 26.62C94.92 26.41 99.65 26.43 103.5 26.66ZM74.86 59.54C72.46 61.21 68.81 65.04 66.75 68.04C64.24 71.7 62.63 75.48 61.89 79.5C61.27 82.8 60.99 89.78 61.26 95C61.65 102.6 62.28 105.55 64.38 109.75C65.82 112.64 68.58 116.58 70.5 118.5C72.42 120.42 75.91 122.97 78.25 124.15C80.59 125.34 84.75 126.91 87.5 127.64C90.25 128.38 95.65 128.98 99.5 128.98C103.35 128.98 108.75 128.37 111.5 127.63C114.25 126.88 118.3 125.24 120.5 123.97C122.7 122.71 126 120.28 127.84 118.59C129.68 116.89 132.6 112.8 134.34 109.5C137.38 103.7 137.49 103.08 137.49 91C137.5 80.1 137.21 77.89 135.25 73.75C134.01 71.14 130.64 66.5 127.75 63.44C123.41 58.84 121.38 57.52 116 55.84C112.42 54.73 105.67 53.63 101 53.4C94.95 53.11 90.58 53.49 85.86 54.74C82.21 55.71 77.26 57.87 74.86 59.54ZM75.5 161.22C73.3 162.6 69.47 165.82 67 168.38C64.04 171.45 61.51 175.51 59.6 180.27C57.35 185.89 56.6 189.61 56.23 197C55.97 202.25 56.26 208.96 56.89 212C57.51 215.03 59.3 220.2 60.86 223.5C62.42 226.8 65.45 231.19 67.6 233.26C69.74 235.32 73.97 238.33 77 239.94C80.03 241.55 84.75 243.37 87.5 243.99C90.25 244.61 95.88 245.11 100 245.09C104.13 245.08 109.97 244.33 113 243.44C116.03 242.54 120.75 240.55 123.5 239.01C126.25 237.46 130.19 234.35 132.25 232.1C134.31 229.84 136.86 226.31 137.91 224.25C138.96 222.19 140.53 217.46 141.41 213.75C142.28 210.04 142.99 203.96 142.99 200.25C142.98 196.54 142.3 190.69 141.49 187.25C140.67 183.81 138.91 178.86 137.58 176.25C136.25 173.64 132.99 169.44 130.33 166.93C127.67 164.41 124.15 161.53 122.5 160.54C120.85 159.54 116.58 158.12 113 157.38C109.42 156.64 103.13 156.06 99 156.1C94.88 156.13 88.8 156.74 85.5 157.44C82.2 158.15 77.7 159.85 75.5 161.22Z" />
</svg>