<svg xmlns="http://www.w3.org/2000/svg" viewBox="0 0 500 300" width="500" height="300">
	<style>
		tspan { white-space:pre }
		.shp0 { fill: #000000 } 
		.shp1 { fill: #259ab7 } 
	</style>
	<path id="Path 0" class="shp0" d="M287.93 27.46C286.69 28.2 282.93 30.03 279.61 31.53C276.28 33.03 270.11 37.67 265.9 41.84C260.73 46.95 257.09 52.37 254.7 58.51C252.74 63.51 250.8 71.02 250.38 75.18C249.79 81.11 250.56 85.25 253.91 94.13C257.02 102.37 260.09 107.39 265.11 112.39C268.91 116.19 276.11 121.29 281.11 123.73C288.68 127.42 292.12 128.18 301.61 128.2C311.32 128.23 314.44 127.53 322.82 123.47C328.57 120.68 335.16 115.91 338.71 112C342.04 108.31 346.06 102.61 347.65 99.34C349.22 96.05 351.24 89.28 352.1 84.28C353.42 76.74 353.24 73.49 351.01 65.33C349.35 59.21 346.15 52.62 342.54 47.9C339.36 43.73 334.11 38.49 330.9 36.25C327.69 33.99 321.82 30.76 317.87 29.05C312.85 26.87 307.58 25.96 300.44 26.02C294.82 26.06 289.18 26.71 287.93 27.46ZM429.64 30.22C424.64 32.5 417.3 37.58 413.35 41.52C409.39 45.45 404.86 51.22 403.3 54.34C401.72 57.47 399.63 64.12 398.63 69.12C397.27 75.97 397.25 80.08 398.54 85.79C399.48 89.96 401.57 96.26 403.19 99.81C404.82 103.36 409.21 109.33 412.97 113.07C416.73 116.82 423.71 121.74 428.5 124C435.52 127.32 439.45 128.14 448.62 128.17C458.36 128.21 461.44 127.55 469.83 123.47C476.35 120.3 482.09 115.98 486.9 110.59C492.39 104.45 494.93 99.87 497.34 91.85C499.43 84.91 500.31 78.62 499.9 73.67C499.55 69.44 497.17 61.74 494.52 56.24C491.76 50.51 487.02 43.89 483.2 40.42C479.58 37.13 472.36 32.52 467.15 30.19C459.92 26.94 455.44 25.94 448.21 26C441.2 26.05 436.35 27.15 429.64 30.22ZM293.82 173.03C290.16 173.56 283.49 175.97 279.01 178.39C274.52 180.8 267.52 186.37 263.47 190.75C257.84 196.84 255.4 201.1 253.05 208.93C251.36 214.55 249.98 221.54 250 224.47C250 227.39 251.15 233.18 252.55 237.35C253.94 241.52 256.58 247.31 258.38 250.23C260.2 253.16 265.03 258.48 269.13 262.05C273.22 265.64 280.33 270.01 284.9 271.75C289.54 273.54 296.94 274.98 301.57 275.03C306.92 275.07 313.17 273.81 319 271.51C325.48 268.96 330.78 265.27 337.37 258.7C345.3 250.82 347.12 247.93 349.91 238.86C351.69 233.03 353.15 226.04 353.13 223.33C353.12 220.62 351.73 214.15 350.06 208.93C348.38 203.72 345.13 197.1 342.86 194.2C340.57 191.31 337.01 187.34 334.92 185.38C332.84 183.42 327.89 180.17 323.93 178.14C319.97 176.1 313.06 173.92 308.59 173.27C304.12 172.6 297.47 172.5 293.82 173.03ZM428.08 177.35C422.76 179.94 415.89 185.09 411.41 189.85C406.45 195.11 402.74 200.87 400.83 206.28C399.01 211.45 397.93 218.36 398.01 224.47C398.09 231.94 399.18 236.67 402.51 244.03C405.62 250.9 409.35 255.93 415.24 261.19C419.82 265.28 426.99 269.89 431.16 271.4C435.32 272.93 441.46 274.66 444.8 275.25C448.45 275.91 453.57 275.57 457.68 274.4C461.44 273.36 467.23 271.12 470.56 269.45C473.9 267.78 480.23 262.95 484.63 258.7C489.22 254.28 494.02 247.76 495.9 243.41C498.31 237.83 499.21 232.64 499.27 223.71C499.34 213.78 498.66 210.07 495.49 203.25C493.37 198.66 488.76 192.02 485.26 188.47C481.76 184.93 474.64 179.98 469.42 177.48C461.48 173.68 458.1 172.94 448.54 172.94C439.04 172.94 435.64 173.66 428.08 177.35Z" />
	<path id="Path 3" class="shp1" d="M290.62 191.61C288.77 192.31 285.27 194.25 282.84 195.94C280.4 197.64 277.31 200.41 275.95 202.13C274.58 203.82 272.35 207.49 270.99 210.27C268.91 214.49 268.51 216.65 268.51 223.5C268.51 230.42 268.9 232.5 271.14 237.2C272.6 240.24 275.73 244.67 278.11 247.05C280.49 249.43 284.93 252.57 287.98 254.02C292.66 256.26 294.74 256.67 301.68 256.67C308.62 256.67 310.7 256.26 315.38 254.02C318.43 252.57 322.87 249.43 325.25 247.05C327.63 244.67 330.76 240.24 332.22 237.2C334.46 232.5 334.86 230.42 334.86 223.5C334.86 216.53 334.46 214.51 332.22 209.9C330.76 206.92 328.05 202.76 326.2 200.66C324.32 198.52 320.1 195.5 316.61 193.82C311.32 191.25 309.15 190.76 302.18 190.58C297.27 190.44 292.63 190.87 290.62 191.61ZM437.76 191.61C435.9 192.31 432.4 194.25 429.97 195.94C427.55 197.64 424.44 200.41 423.08 202.13C421.71 203.82 419.49 207.49 418.12 210.27C416.05 214.49 415.64 216.65 415.64 223.5C415.64 230.42 416.05 232.5 418.29 237.2C419.74 240.24 422.88 244.67 425.26 247.05C427.64 249.43 432.07 252.57 435.11 254.02C439.81 256.26 441.89 256.67 448.81 256.67C455.75 256.67 457.83 256.26 462.51 254.02C465.56 252.57 470 249.43 472.38 247.05C474.76 244.67 477.9 240.24 479.35 237.2C481.59 232.5 481.99 230.42 481.99 223.5C481.99 216.53 481.59 214.51 479.35 209.9C477.9 206.92 475.18 202.76 473.33 200.66C471.46 198.52 467.24 195.5 463.74 193.82C458.45 191.25 456.28 190.76 449.33 190.58C444.4 190.44 439.78 190.87 437.76 191.61ZM290.62 45.43C288.77 46.13 285.27 48.07 282.84 49.77C280.4 51.46 277.31 54.24 275.95 55.95C274.58 57.65 272.35 61.32 270.99 64.09C268.91 68.32 268.51 70.48 268.51 77.32C268.51 84.26 268.9 86.34 271.14 91.02C272.6 94.07 275.73 98.49 278.11 100.87C280.49 103.27 284.93 106.4 287.98 107.86C292.66 110.1 294.74 110.5 301.68 110.5C308.62 110.5 310.7 110.1 315.38 107.86C318.43 106.4 322.87 103.27 325.25 100.87C327.63 98.49 330.76 94.07 332.22 91.02C334.46 86.34 334.86 84.26 334.86 77.32C334.86 70.35 334.46 68.35 332.22 63.73C330.76 60.75 328.05 56.59 326.2 54.48C324.32 52.34 320.1 49.34 316.61 47.64C311.32 45.08 309.15 44.58 302.18 44.4C297.27 44.27 292.63 44.69 290.62 45.43ZM437.76 45.43C435.9 46.13 432.4 48.07 429.97 49.77C427.55 51.46 424.44 54.24 423.08 55.95C421.71 57.65 419.49 61.32 418.12 64.09C416.05 68.32 415.64 70.48 415.64 77.32C415.64 84.26 416.05 86.34 418.29 91.02C419.74 94.07 422.88 98.49 425.26 100.87C427.64 103.27 432.07 106.4 435.11 107.86C439.81 110.1 441.89 110.5 448.81 110.5C455.75 110.5 457.83 110.1 462.51 107.86C465.56 106.4 470 103.27 472.38 100.87C474.76 98.49 477.9 94.07 479.35 91.02C481.59 86.34 481.99 84.26 481.99 77.32C481.99 70.35 481.59 68.35 479.35 63.73C477.9 60.75 475.18 56.59 473.33 54.48C471.46 52.34 467.24 49.34 463.74 47.64C458.45 45.08 456.28 44.58 449.33 44.4C444.4 44.27 439.78 44.69 437.76 45.43Z" />
	<path id="Path 0" fill-rule="evenodd" class="shp0" d="M94.41 0C99.4 -0.06 109.15 1.03 116.07 2.41C125.16 4.22 131.6 6.41 139.2 10.25C145 13.18 152.73 18.18 156.37 21.37C160.02 24.56 165.93 30.99 169.52 35.66C173.11 40.33 178.39 49.06 181.25 55.06C184.1 61.06 187.81 70.33 189.48 75.67C191.15 81 193.54 91.09 194.81 98.09C196.07 105.09 197.66 119.28 198.35 129.61C199.2 142.53 199.22 153.71 198.4 165.38C197.75 174.71 196.71 185.08 196.09 188.41C195.48 191.74 194.1 198.29 193.04 202.96C191.97 207.62 189.91 214.72 188.45 218.72C186.98 222.72 183.8 230.08 181.37 235.08C178.94 240.08 174.8 247.45 172.19 251.45C169.57 255.45 165.03 261.38 162.1 264.64C159.17 267.89 153.87 272.87 150.33 275.7C146.79 278.53 140.73 282.76 136.86 285.1C133 287.43 126.15 290.71 121.64 292.38C117.13 294.05 108.96 296.38 103.49 297.54C98.01 298.71 88.26 299.69 81.82 299.71C75.38 299.74 64.84 298.78 58.4 297.59C51.96 296.4 41.68 293.94 35.56 292.12C29.44 290.3 23.25 288.18 21.8 287.41C20.35 286.63 18.38 284.36 17.41 282.36C16.07 279.6 15.65 274.21 15.65 241.14L19.63 236.9C22.5 233.85 24.64 232.66 27.25 232.66C29.24 232.66 34.96 234.34 39.95 236.39C44.95 238.45 53.25 241.17 58.4 242.45C64.25 243.89 71.94 244.76 78.89 244.75C85.25 244.74 93.03 243.92 97.04 242.82C100.91 241.77 106.18 239.78 108.76 238.4C111.33 237.03 116.08 233.13 119.31 229.73C122.54 226.34 126.83 220.29 128.85 216.29C130.87 212.29 133.5 205.9 134.69 202.09C135.88 198.28 136.6 194.88 136.28 194.53C135.95 194.18 133.58 194.92 131.01 196.17C128.43 197.42 123.69 199.36 120.47 200.48C117.25 201.6 110.39 203.1 105.24 203.8C98.58 204.71 92.32 204.69 83.58 203.75C76.81 203.01 68.12 201.58 64.25 200.56C60.39 199.54 52.79 196.39 47.37 193.56C41.95 190.73 34.57 185.72 30.97 182.44C27.38 179.15 22.26 173.7 19.61 170.31C16.95 166.93 12.92 160.34 10.65 155.68C8.38 151.01 5.71 144.46 4.72 141.13C3.73 137.8 2.25 131.8 1.42 127.79C0.56 123.6 -0.04 112.83 0 102.34C0.05 90.06 0.71 81.3 2.01 75.36C3.07 70.53 5.16 63.44 6.65 59.6C8.14 55.77 11.9 48.54 15.01 43.54C18.12 38.54 23.89 31.18 27.83 27.17C31.77 23.17 38.68 17.64 43.19 14.88C47.69 12.12 53.48 8.94 56.06 7.8C58.63 6.67 66.27 4.47 73.04 2.92C79.8 1.37 89.42 0.06 94.41 0ZM70.65 62.87C68.37 65.24 65.08 70.32 63.33 74.15C61.58 77.98 59.56 83.99 58.84 87.49C58.07 91.17 57.76 99.47 58.08 107.19C58.5 117.15 59.31 122.21 61.26 127.19C62.69 130.86 65.8 136.25 68.16 139.19C70.52 142.12 74.56 145.79 77.14 147.35C79.71 148.91 85.25 150.76 89.43 151.46C94.79 152.35 98.95 152.34 103.49 151.43C107.03 150.71 111.51 149.33 113.44 148.36C115.37 147.39 119.28 144.28 122.12 141.44C124.96 138.6 128.51 133.55 130.02 130.22C131.55 126.85 133.39 119.32 134.17 113.25C135.29 104.6 135.27 100.08 134.09 91.43C133.02 83.55 131.57 78.53 128.88 73.36C126.83 69.42 123 64.24 120.37 61.84C117.75 59.44 112.74 56.52 109.25 55.34C105.63 54.11 99.63 53.23 95.29 53.28C90.47 53.33 85.31 54.32 81.23 55.96C77.69 57.39 72.93 60.5 70.65 62.87Z" />
</svg>