<svg xmlns="http://www.w3.org/2000/svg" viewBox="0 0 500 300" width="500" height="300">
	<style>
		tspan { white-space:pre }
		.shp0 { fill: #000000 } 
		.shp1 { fill: #259ab7 } 
	</style>
	<path id="Path 0" class="shp0" d="M356 105.51C350.76 108.25 344.97 112.35 340.9 116.22C337.04 119.89 333.14 124.79 331.51 128C329.98 131.03 327.61 137.32 326.26 142C324.5 148.05 323.93 151.94 324.29 155.5C324.56 158.25 326.18 164.1 327.89 168.5C329.6 172.9 332.68 178.92 334.75 181.87C336.81 184.83 341.43 189.38 345 192C348.57 194.62 353.3 197.67 355.5 198.78C357.7 199.89 362.2 201.51 365.5 202.38C368.8 203.25 373.3 203.97 375.5 203.98C377.7 204 382.88 203.08 387 201.94C391.13 200.8 396.52 198.71 399 197.29C401.48 195.88 405.5 193.09 407.95 191.11C410.4 189.12 414.38 184.8 416.8 181.5C419.21 178.2 421.76 174.15 422.45 172.5C423.14 170.85 424.45 166.24 425.35 162.25C426.26 158.26 427 153.54 427.01 151.75C427.01 149.96 426.31 145.8 425.46 142.5C424.6 139.2 422.88 134.25 421.62 131.5C420.36 128.75 416.87 123.58 413.86 120C410.59 116.11 405.8 111.92 401.94 109.55C398.4 107.38 392.8 104.57 389.5 103.29C384.69 101.44 381.61 100.99 374 101.02C364.74 101.06 364.29 101.18 356 105.51Z" />
	<path id="Path 0" class="shp1" d="M365 119.87C363.63 120.31 360.7 121.81 358.5 123.19C356.3 124.58 352.81 127.57 350.75 129.85C348.69 132.13 345.99 135.91 344.75 138.25C342.85 141.84 342.5 144.06 342.5 152.5C342.5 161.83 342.7 162.83 345.5 167.5C347.15 170.25 350.3 174.22 352.5 176.33C354.7 178.44 358.52 181.36 361 182.83C365.07 185.24 366.46 185.5 375.5 185.5C384.75 185.5 385.91 185.27 390.89 182.5C393.86 180.85 398.13 177.45 400.39 174.95C402.65 172.45 405.39 168.63 406.48 166.45C407.93 163.55 408.55 159.97 408.78 153C409.09 144.21 408.9 143.1 406.31 138.11C404.76 135.14 401.88 131.09 399.89 129.11C397.91 127.12 393.86 124.17 390.89 122.54C386.21 119.98 384.31 119.55 376.5 119.32C371.55 119.18 366.38 119.42 365 119.87Z" />
	<path id="Path 0" class="shp0" d="M150.25 1.23C148.36 1.74 143.59 3.29 139.65 4.67C135.71 6.05 129.27 8.92 125.33 11.04C121.39 13.16 116.37 16.15 114.16 17.7C110.87 20 109.97 21.14 109.15 24C108.3 26.98 108.15 30.45 108.15 47.25C108.15 62.81 108.33 67.64 109.01 70C109.48 71.65 110.64 73.67 111.58 74.5C112.53 75.33 113.75 75.99 114.3 75.99C114.86 75.98 118.66 73.1 122.75 69.58C126.85 66.06 132.91 61.55 136.22 59.55C139.52 57.55 144.74 55.03 147.82 53.96C151.05 52.82 155.75 52 158.99 51.99C162.06 51.98 165.99 52.44 167.72 53C169.46 53.57 172.16 55.11 173.74 56.42C175.31 57.74 178.02 61.04 179.75 63.75C181.97 67.23 183.4 70.58 184.57 75.09C185.56 78.91 186.34 83.92 186.51 87.5C186.66 90.8 186.46 95.98 186.06 99C185.66 102.03 184.57 107.43 183.65 111C182.72 114.58 180.77 120.43 179.3 124C177.83 127.58 174.41 135 171.7 140.5C169 146 153.72 173 137.75 200.5C121.74 228.07 108.33 251.96 107.86 253.75C107.21 256.22 107 260.96 107 273.5C107 285.45 107.22 290.76 107.78 292.75C108.21 294.26 109.25 296.29 110.08 297.25C111.48 298.88 115.04 299 164 299C212.96 299 216.52 298.88 217.92 297.25C218.75 296.29 219.79 294.26 220.22 292.75C220.78 290.76 221 285.45 221 273.5C221 260.83 220.8 256.3 220.14 254C219.67 252.35 218.7 250.32 217.99 249.49C216.88 248.19 212.34 247.99 185.34 247.99C168.09 248 153.98 247.66 154 247.25C154.01 246.84 164.39 228.28 177.06 206C189.73 183.73 201.53 162.35 203.29 158.5C205.04 154.65 207.85 147.9 209.54 143.5C211.23 139.1 213.6 131.9 214.8 127.5C216 123.1 217.53 115.9 218.2 111.5C218.98 106.36 219.52 99.21 219.69 91.5C219.91 81.83 219.73 77.55 218.76 69.5C218.02 63.29 216.71 56.47 215.32 51.5C214.08 47.1 211.88 40.8 210.43 37.5C208.98 34.2 206.83 30.01 205.66 28.19C204.49 26.37 202.24 23.17 200.66 21.08C199.09 19 195.93 15.65 193.65 13.65C191.36 11.64 188.14 9.13 186.48 8.07C184.83 7 182.32 5.61 180.9 4.96C179.48 4.32 175.42 2.94 171.88 1.9C168.02 0.76 163.08 0.06 159.56 0.15C156.33 0.23 152.14 0.71 150.25 1.23Z" />
	<path id="Path 0" class="shp0" d="M38 1.01C37.17 1.55 29.98 4.57 22 7.72C11.75 11.77 6.39 14.49 3.7 16.98L-0.09 20.5L0.01 63.5C5.04 66.96 7.96 67.97 9.75 67.98C11.54 67.99 17.16 66.62 22.25 64.93C27.34 63.25 32.06 61.67 32.75 61.43C33.74 61.09 34 80.14 34 154.5L34 248L19 248L8 262L8 286L19 300L85.5 299.99L97 285L97 263L85.5 248.01L71 248L71 7L65.5 0C45.35 0.02 38.83 0.47 38 1.01Z" />
</svg>