<svg xmlns="http://www.w3.org/2000/svg" viewBox="0 0 500 300" width="500" height="300">
	<style>
		tspan { white-space:pre }
		.shp0 { fill: #000000 } 
		.shp1 { fill: #259ab7 } 
	</style>
	<path id="Path 0" class="shp0" d="M289 167.35C285.42 168.57 280.25 170.87 277.5 172.46C274.75 174.05 269.43 178.3 265.69 181.92C261.76 185.71 257.86 190.62 256.48 193.5C255.16 196.25 253.16 201.99 252.04 206.25C250.92 210.51 250.01 215.46 250.02 217.25C250.03 219.04 250.74 223.2 251.6 226.5C252.45 229.8 254.58 235.38 256.33 238.89C258.56 243.4 261.72 247.37 267 252.34C271.89 256.94 276.93 260.55 281.5 262.72C285.35 264.55 291.65 266.57 295.5 267.21C300.83 268.09 304.05 268.08 309 267.18C312.57 266.53 318.42 264.61 322 262.91C326.46 260.79 331.01 257.37 336.5 252C340.9 247.7 345.5 242.23 346.71 239.84C347.93 237.45 349.87 231.9 351.03 227.5C352.5 221.95 352.98 217.82 352.63 214C352.34 210.97 350.9 205.12 349.42 201C347.93 196.88 346.01 192.37 345.15 191C344.28 189.62 341.25 185.8 338.42 182.5C334.9 178.39 331.1 175.34 326.39 172.81C322.6 170.78 315.67 168.19 311 167.07C306.32 165.94 300.92 165.04 299 165.07C297.07 165.09 292.57 166.12 289 167.35ZM434.5 167.74C431.75 168.72 427.25 170.82 424.5 172.42C421.75 174.01 416.35 178.51 412.5 182.41C408.48 186.48 404.36 191.85 402.83 195C401.36 198.03 399.62 203.65 398.95 207.5C398.28 211.35 397.97 217.42 398.26 221C398.6 225.09 400.03 230.46 402.12 235.5C404.61 241.49 406.96 245.1 411.47 249.86C414.79 253.36 420.2 257.98 423.5 260.14C426.8 262.29 433.1 265.16 437.5 266.52C441.9 267.88 447.3 268.98 449.5 268.97C451.7 268.96 456.44 267.95 460.03 266.72C463.63 265.5 469.21 262.92 472.45 261C475.68 259.07 481.3 254.57 484.94 251C489.2 246.81 492.69 242.19 494.77 238C496.84 233.8 498.38 228.66 499.12 223.5C499.99 217.4 499.98 213.84 499.07 208.5C498.41 204.65 496.44 198.61 494.69 195.09C492.81 191.32 488.82 185.92 485 181.99C480.03 176.87 476.41 174.27 469.57 170.9C460.93 166.64 460.31 166.49 450.07 166.23C441.94 166.02 438.35 166.37 434.5 167.74Z" />
	<path id="Path 0" class="shp1" d="M292 183.69C290.62 183.99 287.25 185.67 284.5 187.44C281.75 189.21 278.14 192.2 276.48 194.08C274.81 195.96 272.34 199.75 270.98 202.5C268.87 206.76 268.5 208.9 268.5 217C268.5 225.73 268.74 226.91 271.46 231.5C273.08 234.25 276.01 238.23 277.96 240.34C279.9 242.45 284.2 245.52 287.5 247.16C293.04 249.91 294.18 250.11 302.5 249.8C309.68 249.54 312.49 248.97 316.38 246.99C319.07 245.62 323.34 242.24 325.88 239.47C328.42 236.71 331.51 232.32 332.75 229.72C334.54 225.97 335 223.25 335 216.5C335 209.75 334.54 207.03 332.75 203.29C331.51 200.7 328.47 196.39 326 193.7C323.48 190.96 319.08 187.66 316 186.19C311.69 184.14 308.77 183.53 302.5 183.37C298.1 183.25 293.37 183.4 292 183.69ZM439 183.86C437.62 184.31 435.37 185.26 434 185.98C432.62 186.69 429.25 189.17 426.5 191.49C423.42 194.09 420.35 197.98 418.5 201.6C415.83 206.86 415.5 208.48 415.5 216.5C415.5 223.72 415.93 226.39 417.69 230C418.89 232.47 422.04 236.75 424.69 239.51C427.33 242.27 431.97 245.78 435 247.32C440.02 249.87 441.28 250.09 449.5 249.8C456.72 249.54 459.45 248.98 463.32 246.99C465.96 245.62 470.09 242.47 472.49 240C474.89 237.52 478.02 233.25 479.45 230.5C481.68 226.2 482.05 224.24 482.05 216.5C482.05 208.75 481.68 206.8 479.45 202.5C478.01 199.75 474.97 195.55 472.67 193.17C470.38 190.78 466.25 187.68 463.5 186.27C459.56 184.26 456.7 183.65 450 183.38C445.32 183.2 440.37 183.41 439 183.86Z" />
	<path id="Path 0" class="shp0" d="M354 37.51C348.76 40.25 342.97 44.35 338.9 48.22C335.04 51.89 331.14 56.79 329.51 60C327.98 63.02 325.61 69.32 324.26 74C322.5 80.05 321.93 83.94 322.29 87.5C322.56 90.25 324.18 96.1 325.89 100.5C327.6 104.9 330.68 110.92 332.75 113.87C334.81 116.83 339.42 121.38 343 124C346.57 126.62 351.3 129.67 353.5 130.78C355.7 131.89 360.2 133.51 363.5 134.38C366.8 135.25 371.3 135.97 373.5 135.98C375.7 136 380.87 135.08 385 133.94C389.12 132.8 394.52 130.71 397 129.29C399.47 127.88 403.5 125.09 405.95 123.11C408.4 121.12 412.38 116.8 414.8 113.5C417.21 110.2 419.76 106.15 420.45 104.5C421.14 102.85 422.45 98.24 423.35 94.25C424.26 90.26 425 85.54 425.01 83.75C425.01 81.96 424.31 77.8 423.46 74.5C422.6 71.2 420.88 66.25 419.62 63.5C418.36 60.75 414.87 55.57 411.86 52C408.59 48.11 403.8 43.92 399.94 41.55C396.4 39.38 390.8 36.57 387.5 35.29C382.69 33.44 379.61 32.99 372 33.02C362.74 33.06 362.29 33.18 354 37.51Z" />
	<path id="Path 0" class="shp1" d="M363 51.87C361.62 52.31 358.7 53.81 356.5 55.19C354.3 56.58 350.81 59.57 348.75 61.85C346.69 64.13 343.99 67.91 342.75 70.25C340.85 73.84 340.5 76.06 340.5 84.5C340.5 93.83 340.7 94.83 343.5 99.5C345.15 102.25 348.3 106.22 350.5 108.33C352.7 110.44 356.52 113.36 359 114.83C363.07 117.24 364.46 117.5 373.5 117.5C382.75 117.5 383.91 117.27 388.89 114.5C391.86 112.85 396.13 109.45 398.39 106.95C400.65 104.45 403.39 100.63 404.48 98.45C405.93 95.55 406.55 91.97 406.78 85C407.09 76.21 406.9 75.1 404.31 70.11C402.76 67.14 399.88 63.09 397.89 61.11C395.91 59.12 391.86 56.17 388.89 54.54C384.21 51.98 382.31 51.55 374.5 51.32C369.55 51.18 364.37 51.42 363 51.87Z" />
	<path id="Path 0" fill-rule="evenodd" class="shp0" d="M109.33 0L132.92 0.03C153.72 0.06 156.74 0.27 158.53 1.78C159.65 2.73 161.34 4.63 162.29 6C163.89 8.32 164.01 14.72 164 183L192.5 182.91L199.04 189.5L199 227L192.2 234L164 234L164 293L158 300L117 300L111 293L111 234L7.5 233.94L0 226L-0.01 209.75C-0.01 200.81 0.24 191.47 0.55 189C1 185.42 11.64 166.16 52.49 95C80.75 45.78 105.1 4.26 106.6 2.75L109.33 0ZM81.92 133.15C66.87 159.91 54.66 182.08 54.78 182.4C54.9 182.73 67.6 183 83 183L111 183C111 105.5 110.8 83 110.55 83C110.3 83 109.91 83.34 109.68 83.75C109.46 84.16 96.96 106.39 81.92 133.15Z" />
</svg>