<svg xmlns="http://www.w3.org/2000/svg" viewBox="0 0 500 300" width="500" height="300">
	<style>
		tspan { white-space:pre }
		.shp0 { fill: #000000 } 
		.shp1 { fill: #259ab7 } 
	</style>
	<path id="Path 0" class="shp0" d="M356 105.51C350.76 108.25 344.97 112.35 340.9 116.22C337.04 119.89 333.14 124.79 331.51 128C329.98 131.03 327.61 137.32 326.26 142C324.5 148.05 323.93 151.94 324.29 155.5C324.56 158.25 326.18 164.1 327.89 168.5C329.6 172.9 332.68 178.92 334.75 181.87C336.81 184.83 341.43 189.38 345 192C348.57 194.62 353.3 197.67 355.5 198.78C357.7 199.89 362.2 201.51 365.5 202.38C368.8 203.25 373.3 203.97 375.5 203.98C377.7 204 382.88 203.08 387 201.94C391.13 200.8 396.52 198.71 399 197.29C401.48 195.88 405.5 193.09 407.95 191.11C410.4 189.12 414.38 184.8 416.8 181.5C419.21 178.2 421.76 174.15 422.45 172.5C423.14 170.85 424.45 166.24 425.35 162.25C426.26 158.26 427 153.54 427.01 151.75C427.01 149.96 426.31 145.8 425.46 142.5C424.6 139.2 422.88 134.25 421.62 131.5C420.36 128.75 416.87 123.58 413.86 120C410.59 116.11 405.8 111.92 401.94 109.55C398.4 107.38 392.8 104.57 389.5 103.29C384.69 101.44 381.61 100.99 374 101.02C364.74 101.06 364.29 101.18 356 105.51Z" />
	<path id="Path 0" class="shp1" d="M365 119.87C363.63 120.31 360.7 121.81 358.5 123.19C356.3 124.58 352.81 127.57 350.75 129.85C348.69 132.13 345.99 135.91 344.75 138.25C342.85 141.84 342.5 144.06 342.5 152.5C342.5 161.83 342.7 162.83 345.5 167.5C347.15 170.25 350.3 174.22 352.5 176.33C354.7 178.44 358.52 181.36 361 182.83C365.07 185.24 366.46 185.5 375.5 185.5C384.75 185.5 385.91 185.27 390.89 182.5C393.86 180.85 398.13 177.45 400.39 174.95C402.65 172.45 405.39 168.63 406.48 166.45C407.93 163.55 408.55 159.97 408.78 153C409.09 144.21 408.9 143.1 406.31 138.11C404.76 135.14 401.88 131.09 399.89 129.11C397.91 127.12 393.86 124.17 390.89 122.54C386.21 119.98 384.31 119.55 376.5 119.32C371.55 119.18 366.38 119.42 365 119.87Z" />
	<path id="Path 0" class="shp0" d="M75.5 2.23C72.2 2.74 63.88 4.29 57 5.67C50.13 7.05 38.88 9.92 32 12.04C25.13 14.16 16.35 17.15 12.5 18.7C6.76 21 5.19 22.14 3.75 25C2.26 27.98 2 31.45 2 48.25C2 63.81 2.32 68.64 3.5 71C4.33 72.65 6.35 74.67 8 75.5C9.65 76.33 11.79 76.99 12.75 76.99C13.71 76.98 20.35 74.1 27.5 70.58C34.65 67.06 45.22 62.55 51 60.55C56.78 58.55 65.89 56.03 71.25 54.96C76.9 53.82 85.1 53 90.75 52.99C96.11 52.98 102.97 53.44 106 54C109.03 54.57 113.75 56.11 116.5 57.42C119.25 58.74 123.97 62.04 127 64.75C130.87 68.23 133.36 71.58 135.4 76.09C137.13 79.91 138.5 84.92 138.79 88.5C139.06 91.8 138.7 96.97 138 100C137.31 103.03 135.41 108.42 133.8 112C132.18 115.58 128.77 121.42 126.2 125C123.64 128.57 117.67 136 112.95 141.5C108.22 147 81.55 174 53.67 201.5C25.73 229.07 2.32 252.96 1.5 254.75C0.36 257.22 0 261.96 0 274.5C0 286.45 0.38 291.76 1.37 293.75C2.12 295.26 3.92 297.29 5.37 298.25C7.83 299.88 14.03 300 99.5 300C184.97 300 191.17 299.88 193.63 298.25C195.08 297.29 196.88 295.26 197.63 293.75C198.62 291.76 199 286.45 199 274.5C199 261.83 198.65 257.3 197.5 255C196.68 253.35 194.99 251.32 193.75 250.49C191.81 249.19 183.89 248.99 136.75 248.99C106.64 249 82.02 248.66 82.04 248.25C82.06 247.84 100.17 229.28 122.29 207C144.42 184.72 165.02 163.35 168.08 159.5C171.14 155.65 176.05 148.9 179 144.5C181.95 140.1 186.08 132.9 188.17 128.5C190.27 124.1 192.94 116.9 194.11 112.5C195.48 107.36 196.41 100.21 196.71 92.5C197.09 82.83 196.78 78.55 195.09 70.5C193.79 64.29 191.51 57.47 189.08 52.5C186.92 48.1 183.08 41.8 180.55 38.5C178.01 35.2 174.26 31.01 172.22 29.19C170.17 27.37 166.25 24.17 163.5 22.08C160.75 20 155.24 16.65 151.25 14.65C147.26 12.64 141.64 10.13 138.75 9.07C135.86 8 131.47 6.61 129 5.96C126.53 5.32 119.44 3.94 113.25 2.9C106.51 1.76 97.89 1.06 91.75 1.15C86.11 1.23 78.8 1.71 75.5 2.23Z" />
</svg>