<svg xmlns="http://www.w3.org/2000/svg" viewBox="0 0 500 300" width="500" height="300">
	<style>
		tspan { white-space:pre }
		.shp0 { fill: #000000 } 
		.shp1 { fill: #259ab7 } 
	</style>
	<path id="Path 0" class="shp0" d="M289 101.35C285.43 102.57 280.25 104.87 277.5 106.46C274.75 108.05 269.43 112.3 265.69 115.92C261.76 119.71 257.86 124.62 256.48 127.5C255.16 130.25 253.16 135.99 252.04 140.25C250.92 144.51 250.01 149.46 250.02 151.25C250.03 153.04 250.74 157.2 251.6 160.5C252.45 163.8 254.58 169.38 256.33 172.89C258.56 177.4 261.72 181.37 267 186.34C271.89 190.94 276.93 194.55 281.5 196.72C285.35 198.55 291.65 200.57 295.5 201.21C300.83 202.09 304.05 202.08 309 201.18C312.57 200.53 318.43 198.61 322 196.91C326.46 194.79 331.01 191.37 336.5 186C340.9 181.7 345.5 176.23 346.71 173.84C347.93 171.45 349.87 165.9 351.03 161.5C352.5 155.95 352.98 151.82 352.63 148C352.34 144.97 350.9 139.13 349.42 135C347.93 130.88 346.01 126.38 345.15 125C344.28 123.63 341.25 119.8 338.42 116.5C334.9 112.39 331.1 109.34 326.39 106.81C322.6 104.78 315.68 102.19 311 101.07C306.32 99.94 300.93 99.04 299 99.07C297.07 99.09 292.57 100.12 289 101.35ZM434.5 101.74C431.75 102.72 427.25 104.82 424.5 106.42C421.75 108.01 416.35 112.51 412.5 116.41C408.48 120.48 404.36 125.85 402.83 129C401.36 132.03 399.62 137.65 398.95 141.5C398.28 145.35 397.97 151.43 398.26 155C398.6 159.09 400.03 164.46 402.12 169.5C404.61 175.49 406.96 179.1 411.47 183.86C414.79 187.36 420.2 191.98 423.5 194.14C426.8 196.29 433.1 199.16 437.5 200.52C441.9 201.88 447.3 202.98 449.5 202.97C451.7 202.96 456.44 201.95 460.03 200.72C463.63 199.5 469.21 196.93 472.45 195C475.68 193.07 481.3 188.57 484.94 185C489.2 180.81 492.69 176.19 494.77 172C496.84 167.8 498.38 162.66 499.12 157.5C499.99 151.4 499.98 147.84 499.07 142.5C498.41 138.65 496.44 132.61 494.69 129.09C492.81 125.32 488.82 119.92 485 115.99C480.03 110.87 476.41 108.27 469.57 104.9C460.93 100.64 460.31 100.49 450.07 100.23C441.94 100.02 438.35 100.37 434.5 101.74Z" />
	<path id="Path 0" class="shp1" d="M292 117.69C290.63 117.99 287.25 119.67 284.5 121.44C281.75 123.21 278.14 126.2 276.48 128.08C274.81 129.96 272.34 133.75 270.98 136.5C268.87 140.76 268.5 142.9 268.5 151C268.5 159.73 268.74 160.91 271.46 165.5C273.08 168.25 276.01 172.23 277.96 174.34C279.91 176.45 284.2 179.52 287.5 181.16C293.04 183.91 294.18 184.11 302.5 183.8C309.68 183.54 312.49 182.97 316.38 180.99C319.07 179.62 323.34 176.24 325.88 173.47C328.42 170.71 331.51 166.32 332.75 163.72C334.54 159.97 335 157.25 335 150.5C335 143.75 334.54 141.03 332.75 137.29C331.51 134.7 328.48 130.39 326 127.7C323.48 124.96 319.08 121.66 316 120.19C311.69 118.14 308.77 117.53 302.5 117.37C298.1 117.25 293.38 117.4 292 117.69ZM439 117.86C437.63 118.31 435.38 119.26 434 119.98C432.63 120.69 429.25 123.17 426.5 125.49C423.42 128.09 420.35 131.98 418.5 135.6C415.83 140.86 415.5 142.48 415.5 150.5C415.5 157.72 415.93 160.39 417.69 164C418.89 166.47 422.04 170.75 424.69 173.51C427.33 176.27 431.98 179.78 435 181.32C440.02 183.87 441.28 184.09 449.5 183.8C456.72 183.54 459.45 182.98 463.32 180.99C465.96 179.62 470.09 176.47 472.49 174C474.89 171.53 478.02 167.25 479.45 164.5C481.68 160.2 482.05 158.24 482.05 150.5C482.05 142.75 481.68 140.8 479.45 136.5C478.01 133.75 474.97 129.55 472.67 127.17C470.38 124.78 466.25 121.68 463.5 120.27C459.56 118.26 456.7 117.65 450 117.38C445.32 117.2 440.38 117.41 439 117.86Z" />
	<path id="Path 0" class="shp0" d="M67 2.03C59.02 3.02 47.1 5 40.5 6.43C33.9 7.85 25.13 9.9 21 10.97C15.36 12.43 12.82 13.67 10.75 15.96L8 19L8 57C13.94 62.94 15.9 64 18 64C19.65 64 24.49 62.92 28.75 61.59C33.01 60.26 38.98 58.49 42 57.64C45.02 56.79 52.9 55.09 59.5 53.87C68.6 52.17 75.36 51.62 87.5 51.58C100.28 51.54 104.71 51.9 109.5 53.37C112.8 54.38 117.19 56.06 119.25 57.1C121.31 58.15 124.63 60.46 126.63 62.25C128.62 64.04 131.17 67.3 132.29 69.5C133.59 72.04 134.51 76.24 134.81 81C135.16 86.64 134.81 89.97 133.39 94.42C132.18 98.2 130.21 101.63 127.93 103.92C125.96 105.89 122.14 108.56 119.43 109.86C116.72 111.16 111.58 112.87 108 113.65C103.98 114.53 92.15 115.31 77 115.7L52.5 116.32L47 122L47 159L53 165C82.06 165 94.33 165.46 99 166.03C103.67 166.6 109.75 167.79 112.5 168.67C115.25 169.55 119.3 171.19 121.5 172.3C123.7 173.42 127.69 176.4 130.36 178.92C133.04 181.44 136.3 185.64 137.61 188.25C138.93 190.86 140.45 195.93 141 199.5C141.68 203.92 141.66 208.32 140.95 213.25C140.32 217.6 138.82 222.46 137.2 225.39C135.71 228.08 133.15 231.62 131.5 233.27C129.85 234.91 126.47 237.57 124 239.16C121.53 240.76 115.9 243.28 111.5 244.75C103.77 247.34 102.73 247.43 81 247.45C59.5 247.47 57.99 247.34 47 244.58C40.67 243 32.58 240.46 29 238.93C25.42 237.41 20.48 235.01 18 233.6C15.52 232.18 11.99 231.02 10.15 231.01C7.63 231 5.96 231.86 3.4 234.5L0 238C0 278.9 0.01 279.01 2.5 282C4.45 284.34 7.15 285.65 14.75 287.94C20.11 289.56 28.1 291.79 32.5 292.9C36.9 294.01 44.77 295.6 50 296.43C55.23 297.26 64.67 298.42 71 299C80.2 299.85 85.6 299.75 98 298.5C106.53 297.64 117.78 295.99 123 294.83C128.22 293.67 135.43 291.62 139 290.26C142.57 288.91 147.75 286.66 150.5 285.26C153.25 283.86 158.65 280.59 162.5 278C166.35 275.4 172.21 270.41 175.53 266.89C178.84 263.38 183.41 257.35 185.68 253.5C187.95 249.65 190.77 244.03 191.95 241C193.13 237.97 194.77 232.13 195.58 228C196.4 223.88 197.33 215.78 197.64 210C198.04 202.78 197.75 196.84 196.72 191C195.9 186.32 194.05 179.57 192.61 176C191.17 172.43 188.53 167.1 186.74 164.18C184.96 161.25 181.44 156.52 178.92 153.68C176.4 150.83 171.07 146.25 167.08 143.5C159.9 138.55 159.85 138.49 162.16 137.08C163.45 136.3 168.21 131.91 172.75 127.33C178.95 121.07 181.85 117.2 184.43 111.75C186.31 107.76 188.62 101.58 189.55 98C190.65 93.78 191.25 87.64 191.24 80.5C191.24 73.98 190.56 66.45 189.58 62C188.67 57.88 186.14 50.79 183.96 46.25C181.1 40.29 177.99 35.88 172.75 30.37C168.76 26.17 163.03 21.06 160 19.01C156.97 16.95 151.8 13.93 148.5 12.28C145.2 10.63 139.57 8.33 136 7.17C132.43 6.01 127.25 4.57 124.5 3.96C121.75 3.35 115.22 2.21 110 1.42C104.78 0.63 96.22 0.04 91 0.1C85.78 0.17 74.97 1.03 67 2.03Z" />
</svg>