<svg xmlns="http://www.w3.org/2000/svg" viewBox="0 0 500 300" width="500" height="300">
	<style>
		tspan { white-space:pre }
		.shp0 { fill: #000000 } 
		.shp1 { fill: #259ab7 } 
		.shp2 { fill: #ff0000 } 
		.shp3 { fill: #249ab7 } 
	</style>
	<path id="Path 0" class="shp0" d="M287.93 27.46C286.69 28.2 282.93 30.03 279.61 31.53C276.28 33.03 270.11 37.67 265.9 41.84C260.73 46.95 257.09 52.37 254.7 58.51C252.74 63.51 250.8 71.02 250.38 75.18C249.79 81.11 250.56 85.25 253.91 94.13C257.02 102.37 260.09 107.39 265.11 112.39C268.91 116.19 276.11 121.29 281.11 123.73C288.68 127.42 292.12 128.18 301.61 128.2C311.32 128.23 314.44 127.53 322.82 123.47C328.57 120.68 335.16 115.91 338.71 112C342.04 108.31 346.06 102.61 347.65 99.34C349.22 96.05 351.24 89.28 352.1 84.28C353.42 76.74 353.24 73.49 351.01 65.33C349.35 59.21 346.15 52.62 342.54 47.9C339.36 43.73 334.11 38.49 330.9 36.25C327.69 33.99 321.82 30.76 317.87 29.05C312.85 26.87 307.58 25.96 300.44 26.02C294.82 26.06 289.18 26.71 287.93 27.46ZM429.64 30.22C424.64 32.5 417.3 37.58 413.35 41.52C409.39 45.45 404.86 51.22 403.3 54.34C401.72 57.47 399.63 64.12 398.63 69.12C397.27 75.97 397.25 80.08 398.54 85.79C399.48 89.96 401.57 96.26 403.19 99.81C404.82 103.36 409.21 109.33 412.97 113.07C416.73 116.82 423.71 121.74 428.5 124C435.52 127.32 439.45 128.14 448.62 128.17C458.36 128.21 461.44 127.55 469.83 123.47C476.35 120.3 482.09 115.98 486.9 110.59C492.39 104.45 494.93 99.87 497.34 91.85C499.43 84.91 500.31 78.62 499.9 73.67C499.55 69.44 497.17 61.74 494.52 56.24C491.76 50.51 487.02 43.89 483.2 40.42C479.58 37.13 472.36 32.52 467.15 30.19C459.92 26.94 455.44 25.94 448.21 26C441.2 26.05 436.35 27.15 429.64 30.22ZM293.82 173.03C290.16 173.56 283.49 175.97 279.01 178.39C274.52 180.8 267.52 186.37 263.47 190.75C257.84 196.84 255.4 201.1 253.05 208.93C251.36 214.55 249.98 221.54 250 224.47C250 227.39 251.15 233.18 252.55 237.35C253.94 241.52 256.58 247.31 258.38 250.23C260.2 253.16 265.03 258.48 269.13 262.05C273.22 265.64 280.33 270.01 284.9 271.75C289.54 273.54 296.94 274.98 301.57 275.03C306.92 275.07 313.17 273.81 319 271.51C325.48 268.96 330.78 265.27 337.37 258.7C345.3 250.82 347.12 247.93 349.91 238.86C351.69 233.03 353.15 226.04 353.13 223.33C353.12 220.62 351.73 214.15 350.06 208.93C348.38 203.72 345.13 197.1 342.86 194.2C340.57 191.31 337.01 187.34 334.92 185.38C332.84 183.42 327.89 180.17 323.93 178.14C319.97 176.1 313.06 173.92 308.59 173.27C304.12 172.6 297.47 172.5 293.82 173.03ZM428.08 177.35C422.76 179.94 415.89 185.09 411.41 189.85C406.45 195.11 402.74 200.87 400.83 206.28C399.01 211.45 397.93 218.36 398.01 224.47C398.09 231.94 399.18 236.67 402.51 244.03C405.62 250.9 409.35 255.93 415.24 261.19C419.82 265.28 426.99 269.89 431.16 271.4C435.32 272.93 441.46 274.66 444.8 275.25C448.45 275.91 453.57 275.57 457.68 274.4C461.44 273.36 467.23 271.12 470.56 269.45C473.9 267.78 480.23 262.95 484.63 258.7C489.22 254.28 494.02 247.76 495.9 243.41C498.31 237.83 499.21 232.64 499.27 223.71C499.34 213.78 498.66 210.07 495.49 203.25C493.37 198.66 488.76 192.02 485.26 188.47C481.76 184.93 474.64 179.98 469.42 177.48C461.48 173.68 458.1 172.94 448.54 172.94C439.04 172.94 435.64 173.66 428.08 177.35Z" />
	<path id="Path 3" class="shp1" d="M290.62 191.61C288.77 192.31 285.27 194.25 282.84 195.94C280.4 197.64 277.31 200.41 275.95 202.13C274.58 203.82 272.35 207.49 270.99 210.27C268.91 214.49 268.51 216.65 268.51 223.5C268.51 230.42 268.9 232.5 271.14 237.2C272.6 240.24 275.73 244.67 278.11 247.05C280.49 249.43 284.93 252.57 287.98 254.02C292.66 256.26 294.74 256.67 301.68 256.67C308.62 256.67 310.7 256.26 315.38 254.02C318.43 252.57 322.87 249.43 325.25 247.05C327.63 244.67 330.76 240.24 332.22 237.2C334.46 232.5 334.86 230.42 334.86 223.5C334.86 216.53 334.46 214.51 332.22 209.9C330.76 206.92 328.05 202.76 326.2 200.66C324.32 198.52 320.1 195.5 316.61 193.82C311.32 191.25 309.15 190.76 302.18 190.58C297.27 190.44 292.63 190.87 290.62 191.61ZM437.76 191.61C435.9 192.31 432.4 194.25 429.97 195.94C427.55 197.64 424.44 200.41 423.08 202.13C421.71 203.82 419.49 207.49 418.12 210.27C416.05 214.49 415.64 216.65 415.64 223.5C415.64 230.42 416.05 232.5 418.29 237.2C419.74 240.24 422.88 244.67 425.26 247.05C427.64 249.43 432.07 252.57 435.11 254.02C439.81 256.26 441.89 256.67 448.81 256.67C455.75 256.67 457.83 256.26 462.51 254.02C465.56 252.57 470 249.43 472.38 247.05C474.76 244.67 477.9 240.24 479.35 237.2C481.59 232.5 481.99 230.42 481.99 223.5C481.99 216.53 481.59 214.51 479.35 209.9C477.9 206.92 475.18 202.76 473.33 200.66C471.46 198.52 467.24 195.5 463.74 193.82C458.45 191.25 456.28 190.76 449.33 190.58C444.4 190.44 439.78 190.87 437.76 191.61ZM290.62 45.43C288.77 46.13 285.27 48.07 282.84 49.77C280.4 51.46 277.31 54.24 275.95 55.95C274.58 57.65 272.35 61.32 270.99 64.09C268.91 68.32 268.51 70.48 268.51 77.32C268.51 84.26 268.9 86.34 271.14 91.02C272.6 94.07 275.73 98.49 278.11 100.87C280.49 103.27 284.93 106.4 287.98 107.86C292.66 110.1 294.74 110.5 301.68 110.5C308.62 110.5 310.7 110.1 315.38 107.86C318.43 106.4 322.87 103.27 325.25 100.87C327.63 98.49 330.76 94.07 332.22 91.02C334.46 86.34 334.86 84.26 334.86 77.32C334.86 70.35 334.46 68.35 332.22 63.73C330.76 60.75 328.05 56.59 326.2 54.48C324.32 52.34 320.1 49.34 316.61 47.64C311.32 45.08 309.15 44.58 302.18 44.4C297.27 44.27 292.63 44.69 290.62 45.43ZM437.76 45.43C435.9 46.13 432.4 48.07 429.97 49.77C427.55 51.46 424.44 54.24 423.08 55.95C421.71 57.65 419.49 61.32 418.12 64.09C416.05 68.32 415.64 70.48 415.64 77.32C415.64 84.26 416.05 86.34 418.29 91.02C419.74 94.07 422.88 98.49 425.26 100.87C427.64 103.27 432.07 106.4 435.11 107.86C439.81 110.1 441.89 110.5 448.81 110.5C455.75 110.5 457.83 110.1 462.51 107.86C465.56 106.4 470 103.27 472.38 100.87C474.76 98.49 477.9 94.07 479.35 91.02C481.59 86.34 481.99 84.26 481.99 77.32C481.99 70.35 481.59 68.35 479.35 63.73C477.9 60.75 475.18 56.59 473.33 54.48C471.46 52.34 467.24 49.34 463.74 47.64C458.45 45.08 456.28 44.58 449.33 44.4C444.4 44.27 439.78 44.69 437.76 45.43Z" />
	<path id="Path 0" fill-rule="evenodd" class="shp0" d="M115.07 0.01C122.52 -0.06 129.63 0.47 134.1 1.41C138.03 2.23 146.27 4.19 152.42 5.75C158.58 7.32 165.86 9.62 168.6 10.86C171.35 12.11 175.03 14.39 176.79 15.93C178.54 17.48 181.22 21.35 182.75 24.54C185.52 30.29 185.54 30.46 185.53 47.72C185.52 60.24 185.12 66.47 184.11 69.94C183.33 72.6 181.47 76.29 179.97 78.15C178.48 80.01 175.14 82.96 172.57 84.7C168.75 87.27 166.97 87.85 162.89 87.84C159.53 87.82 153.01 86.21 142.91 82.9C129.08 78.36 127.14 77.96 117.92 77.83C112.43 77.75 106.22 78.2 104.12 78.84C102.03 79.48 98.39 81.43 91.75 86.37L107.46 86.95C118.64 87.36 125.35 88.1 130.77 89.51C134.96 90.61 141.6 92.98 145.52 94.78C149.45 96.59 154.8 99.54 157.42 101.33C160.04 103.13 165.33 107.67 169.18 111.42C173.04 115.18 178.02 120.85 180.26 124.04C182.49 127.23 186.03 133.32 188.12 137.57C190.2 141.82 193.5 150.3 199 167.52L198.6 192.15C198.22 216.21 198.14 217.01 195.34 226.45C193.76 231.76 190.65 240.02 188.44 244.8C186.22 249.58 182.56 256.1 180.3 259.29C178.04 262.48 172.82 268.38 168.71 272.4C164.59 276.41 158.02 281.72 154.09 284.19C150.16 286.66 144.38 289.74 141.24 291.04C138.1 292.34 129.32 294.75 121.73 296.39C114.14 298.03 105.79 299.38 103.17 299.37C100.56 299.37 93.27 298.31 86.99 297.03C80.71 295.75 72.57 293.61 68.91 292.28C65.25 290.94 59.04 287.98 55.12 285.68C51.07 283.32 44.27 277.92 39.41 273.2C34.66 268.59 28.45 261.28 25.47 256.78C22.52 252.32 18.72 245.84 17.01 242.39C15.31 238.93 12.95 233.5 11.77 230.31C10.58 227.12 8.51 219.95 7.17 214.37C5.82 208.79 4.11 200.31 3.36 195.53C2.61 190.75 1.47 183.14 0.82 178.63C0.01 172.93 -0.19 163.01 0.18 146.26C0.63 125.62 1.07 120.21 3.21 109.07C4.58 101.9 7.02 91.68 8.62 86.37C10.22 81.05 13.82 71.92 16.62 66.08C19.41 60.23 23.5 52.63 25.69 49.17C27.89 45.72 34.87 37.67 41.21 31.28C49.76 22.66 54.82 18.43 60.82 14.89C65.27 12.26 71.27 9.14 74.15 7.94C77.02 6.75 84.73 4.5 91.28 2.94C100.85 0.66 105.49 0.09 115.07 0.01ZM40.1 116.31C39.85 118.97 39.89 120.93 40.19 120.66C40.5 120.4 41.6 116.05 42.66 111C43.71 105.95 44.91 100.41 45.32 98.68C45.74 96.96 45.79 95.54 45.44 95.54C45.1 95.54 43.86 99.13 42.69 103.51C41.52 107.9 40.35 113.66 40.1 116.31ZM40.73 192.15C41.83 198.26 43.06 204.52 43.45 206.07C43.84 207.61 44.59 209.02 45.12 209.2C45.73 209.42 46.07 202.92 46.07 190.94C46.07 173.87 46.26 171.79 48.34 165.58C49.59 161.86 51.41 157.19 52.39 155.2C53.36 153.21 54.16 151.36 54.16 151.09C54.16 150.83 53.2 150.62 52.02 150.64C50.84 150.65 48.38 149.66 46.55 148.43C44.7 147.2 42.57 144.6 41.75 142.61C40.95 140.63 39.72 139.02 39.01 139.02C37.96 139.02 37.82 142.78 38.23 160.03C38.6 175.36 39.27 184.04 40.73 192.15ZM151.03 152.54C152.64 155.46 154.83 160.68 155.9 164.13C156.97 167.59 158.28 174.11 158.82 178.63C159.36 183.14 159.8 189.66 159.8 193.12C159.8 196.57 159.17 203.31 158.4 208.09C157.64 212.87 156.14 219.39 155.08 222.58C154.02 225.77 153.36 228.6 153.62 228.86C153.87 229.13 155.11 226.95 156.36 224.03C157.61 221.11 159.07 216.98 159.61 214.85C160.15 212.73 160.85 205.99 161.17 199.88C161.49 193.77 161.35 184.21 160.86 178.63C160.17 170.72 159.31 166.89 156.93 161.24C155.26 157.25 152.43 151.49 150.66 148.44C148.88 145.38 146.91 142.88 146.28 142.88C145.49 142.88 145.6 143.55 146.62 145.05C147.44 146.25 149.42 149.62 151.03 152.54ZM89.66 167.15C88.52 168.41 86.6 171.62 85.4 174.28C83.49 178.52 83.23 180.63 83.23 191.67C83.24 202.29 83.56 205.05 85.31 209.54C86.45 212.46 89.01 216.5 91 218.5C94.54 222.08 94.74 222.15 101.75 222.12C106.89 222.1 109.68 221.61 111.74 220.35C113.31 219.4 115.64 216.9 116.92 214.8C118.19 212.7 119.8 208.82 120.47 206.16C121.15 203.5 121.72 197.2 121.72 192.15C121.73 187.1 121.2 180.78 120.55 178.1C119.89 175.42 118.07 171.34 116.5 169.04C114.93 166.75 112.36 164.21 110.79 163.41C109.22 162.6 105.58 161.76 102.7 161.53C98.65 161.21 96.81 161.54 94.61 162.98C93.04 164 90.81 165.88 89.66 167.15Z" />
	<path id="Path 0" fill-rule="evenodd" class="shp2" d="M119.12 24.8C126.82 25.08 136.17 26.2 141.49 27.46C146.53 28.65 153.16 30.57 161.83 33.8L162.09 48.8C162.23 57.05 162 63.79 161.58 63.77C161.16 63.76 156.7 62.07 151.66 60.02C146.63 57.97 138.62 55.5 133.87 54.54C129.11 53.58 121.11 52.8 116.07 52.82C110.55 52.84 104.1 53.65 99.8 54.87C95.89 55.98 90.63 57.95 88.11 59.23C85.59 60.52 81.06 63.93 78.04 66.81C75.01 69.68 70.88 74.75 68.85 78.08C66.81 81.4 64.54 85.6 63.8 87.41C63.06 89.22 61.35 94.17 60.02 98.39C58.68 102.62 56.93 110.28 56.13 115.42C55.33 120.55 54.39 127.72 53.44 137.93L59.33 130.9C62.58 127.04 67.52 122.3 70.32 120.38C73.11 118.46 78.03 115.81 81.25 114.5C84.46 113.19 91.1 111.54 95.99 110.84C102.78 109.86 107.24 109.86 114.8 110.84C120.26 111.54 126.89 112.91 129.55 113.87C132.2 114.84 137.35 117.16 140.99 119.03C145.74 121.48 149.96 125.01 155.98 131.56C161.36 137.4 165.47 143.04 167.42 147.27C169.1 150.89 171.36 156.45 172.44 159.62C173.52 162.79 174.94 169.09 175.6 173.62C176.31 178.52 176.6 187.87 176.3 196.69C176.01 205.48 175.12 214.2 174.12 218.1C173.19 221.73 170.51 228.87 168.15 233.97C165.05 240.67 161.89 245.4 156.75 251.03C152.83 255.32 146.88 260.62 143.53 262.82C140.17 265.01 134.91 267.78 131.83 268.98C128.76 270.17 124.87 271.49 123.19 271.9C121.51 272.32 116.25 273.09 111.5 273.62C106.26 274.21 99.15 274.17 93.45 273.53C88.28 272.95 80.61 271.23 76.42 269.72C72.22 268.21 66.16 265.07 62.94 262.74C59.73 260.41 54.19 255.35 50.64 251.48C47.09 247.62 42.58 241.5 40.62 237.87C38.65 234.25 35.71 228.07 34.08 224.14C32.45 220.22 29.97 212.06 28.58 206.02C27.19 199.98 25.38 189.6 24.56 182.96C23.74 176.27 23.07 162.3 23.07 151.66C23.07 140.84 23.71 127.64 24.53 121.46C25.33 115.42 26.67 107.26 27.52 103.34C28.37 99.41 30.28 92.98 31.76 89.06C33.23 85.13 35.83 78.95 37.53 75.33C39.22 71.71 42.97 65.28 45.86 61.05C48.75 56.82 54.2 50.4 57.97 46.78C61.73 43.15 67.65 38.43 71.12 36.29C74.6 34.15 80.18 31.31 83.54 29.98C86.89 28.65 93.3 26.83 97.77 25.93C103.4 24.81 109.98 24.46 119.12 24.8ZM82.11 142.06C78.31 144.13 73.94 147.68 71.61 150.56C69.41 153.28 66.33 158.47 64.76 162.09C63.2 165.72 61.31 171.4 60.58 174.72C59.85 178.05 59.27 185.95 59.29 192.3C59.32 199.54 59.98 206.48 61.08 210.97C62.04 214.89 63.91 220.58 65.23 223.6C66.56 226.62 69.84 231.49 72.54 234.43C75.26 237.4 80.38 241.31 84.04 243.22C90.27 246.46 91.33 246.66 102.35 246.66C113.37 246.66 114.42 246.46 120.65 243.22C124.32 241.31 129.44 237.4 132.16 234.43C134.85 231.49 138.14 226.62 139.46 223.6C140.79 220.58 142.66 214.89 143.62 210.97C144.71 206.48 145.37 199.54 145.4 192.3C145.43 185.95 144.85 178.05 144.11 174.72C143.38 171.4 141.49 165.72 139.92 162.09C138.34 158.47 135.31 153.35 133.17 150.71C131.04 148.07 127 144.53 124.21 142.84C121.41 141.16 117.29 139.27 115.06 138.65C112.82 138.03 108.47 137.29 105.4 136.99C102.32 136.69 97.29 136.91 94.21 137.47C91.14 138.03 85.69 140.1 82.11 142.06Z" />
	<g id="Layer 1">
		<path id="Path 0" class="shp0" d="M358.49 102.27C355.18 104.05 350.23 107.13 347.49 109.12C344.75 111.11 340.31 115.16 337.64 118.12C334.96 121.08 332.2 124.62 331.5 126C330.8 127.37 328.82 132.66 327.11 137.75C325.4 142.84 323.99 148.69 323.99 150.75C323.98 152.81 325.04 157.65 326.34 161.5C327.65 165.35 329.98 170.97 331.52 174C333.06 177.02 336.39 181.67 338.91 184.33C341.44 186.98 346.2 190.9 349.5 193.04C352.8 195.18 358.87 198.08 363 199.48C367.32 200.94 372.72 202.02 375.75 202.01C379.05 202 384.25 200.85 389.75 198.89C394.56 197.19 401.2 193.88 404.5 191.56C407.85 189.2 412.82 184.27 415.75 180.41C418.64 176.61 421.9 171.14 423 168.25C424.1 165.36 425.54 159.96 426.21 156.25C427.25 150.42 427.17 148.48 425.64 142C424.66 137.87 422.66 132.06 421.18 129.08C419.71 126.1 415.35 120.31 411.5 116.21C405.56 109.89 402.99 108.02 394.5 103.88C384.55 99.02 384.45 99 374.5 99.02C365.16 99.04 364.1 99.26 358.49 102.27Z" />
		<path id="Path 1" class="shp3" d="M366.5 117.86C364.85 118.3 362.37 119.25 361 119.97C359.62 120.7 356.73 122.69 354.56 124.39C352.39 126.1 348.89 130.2 346.78 133.5C342.97 139.47 342.95 139.56 342.97 149.75C342.99 156.84 343.49 161.16 344.59 163.75C345.47 165.81 348.95 170.22 352.34 173.55C355.73 176.87 360.19 180.36 362.25 181.3C364.95 182.53 368.72 183 375.75 183.01C383.9 183.02 386.23 182.65 389.98 180.76C392.44 179.52 396.61 176.36 399.23 173.75C401.85 171.14 404.98 166.86 406.18 164.25C407.91 160.48 408.37 157.53 408.43 150C408.49 142.48 408.09 139.67 406.54 136.5C405.46 134.3 402.31 130.23 399.54 127.45C396.77 124.67 392.47 121.41 390 120.21C386.95 118.72 382.92 117.86 377.5 117.54C373.1 117.29 368.15 117.43 366.5 117.86Z" />
	</g>
</svg>