<svg xmlns="http://www.w3.org/2000/svg" viewBox="0 0 520 600" width="520" height="600">
	<style>
		tspan { white-space:pre }
		.shp0 { fill: #808080 } 
		.shp1 { fill: #000000 } 
		.shp2 { fill: #94af2b } 
		.shp3 { fill: #757d00 } 
		.shp4 { fill: #aeb727 } 
		.shp5 { fill: #a3a3a3 } 
		.shp6 { fill: #e9e9e9 } 
		.shp7 { fill: #a4a4a4 } 
		.shp8 { fill: #505050 } 
	</style>
	<path id="Background" class="shp0" d="M260.16 -0.7L520.31 149.5L520.31 449.91L260.16 600.11L0 449.91L0 149.5L260.16 -0.7Z" />
	<g id="Layer 1">
		<path id="Path 0" class="shp1" d="M257.45 18.92C256.93 19.42 250.65 23.18 243.5 27.27C236.35 31.36 219.92 40.78 207 48.2C194.07 55.63 178.89 64.47 173.25 67.85C167.61 71.23 162.77 74 162.5 74C162.22 74 158.74 75.94 154.75 78.32C150.76 80.7 143 85.26 137.5 88.45C132 91.64 124.57 95.95 121 98.02C117.42 100.09 108.87 105.02 102 108.99C95.12 112.96 85.45 118.58 80.5 121.47C75.55 124.36 69.47 127.85 67 129.23C64.52 130.6 56.42 135.23 49 139.5C41.57 143.78 31.45 149.63 26.5 152.52C21.55 155.4 17.16 158.49 16.75 159.38C16.34 160.27 15.99 223.66 15.98 300.25C15.97 411.13 16.22 439.84 17.23 441.15C17.93 442.05 21.54 444.64 25.25 446.9C28.96 449.15 32.22 451 32.5 451C32.77 451 38.06 454.01 44.25 457.69C50.44 461.37 60 466.9 65.5 469.99C71 473.08 81.35 479 88.5 483.16C95.65 487.32 105.89 493.26 111.25 496.36C116.61 499.46 125.39 504.55 130.75 507.66C136.11 510.77 144.77 515.79 150 518.81C155.22 521.83 160.85 525.07 162.5 526C164.15 526.93 176.97 534.33 191 542.45C205.02 550.57 224.37 561.73 234 567.24C243.62 572.75 253.19 578.33 255.25 579.63C257.31 580.93 259.9 582 261 582C262.1 582 265.81 580.27 269.25 578.15C272.69 576.04 280.22 571.58 286 568.26C291.77 564.94 309.55 554.68 325.5 545.47C341.45 536.25 356.97 527.36 360 525.71C363.02 524.06 365.95 522.37 366.5 521.96C367.05 521.55 372 518.62 377.5 515.45C383 512.28 395.82 504.88 406 499C416.17 493.13 431.25 484.42 439.5 479.64C447.75 474.86 454.61 470.96 454.75 470.98C454.89 470.99 460.51 467.72 467.25 463.72C473.99 459.72 485.06 453.31 491.86 449.47C499.75 445.02 504.54 441.69 505.11 440.25C505.62 438.97 506.01 378.35 506.02 299.25C506.03 188.78 505.78 160.16 504.77 158.83C504.07 157.91 499 154.58 493.5 151.43C488 148.27 482.15 144.92 480.5 143.97C478.85 143.02 470.3 138.07 461.5 132.96C452.7 127.85 442.57 122.03 439 120.04C435.42 118.05 427.1 113.23 420.5 109.34C413.9 105.45 403.55 99.43 397.5 95.97C391.45 92.5 382.22 87.23 377 84.24C371.77 81.26 367.05 78.47 366.5 78.05C365.95 77.63 363.02 75.93 360 74.27C356.97 72.62 346.17 66.4 336 60.47C325.82 54.54 314.12 47.81 310 45.51C305.87 43.22 298.45 38.96 293.5 36.04C288.55 33.12 280.9 28.71 276.5 26.24C272.1 23.78 267.26 20.91 265.75 19.88C264.24 18.85 261.96 18 260.7 18C259.43 18 257.97 18.41 257.45 18.92Z" />
		<path id="Path 1" class="shp2" d="M244.92 32.25C236.44 37.2 219.15 47.22 206.5 54.51C193.85 61.81 176.52 71.82 168 76.75C159.47 81.69 140.57 92.6 126 101.01C111.42 109.42 88.25 122.81 74.5 130.75C60.75 138.7 43.09 148.87 35.26 153.35L21.02 161.5L21.02 438.5C43.09 451.15 60.75 461.32 74.5 469.26C88.25 477.2 111.42 490.58 126 498.99C140.57 507.4 156.77 516.75 162 519.76C167.22 522.78 189.05 535.38 210.5 547.76C231.95 560.15 251.97 571.75 255 573.56C260.3 576.72 260.61 576.78 263.5 575.26C265.15 574.4 279.32 566.29 295 557.25C310.67 548.2 329.12 537.53 336 533.54C342.87 529.55 362 518.5 378.5 508.98C395 499.47 417.95 486.21 429.5 479.53C441.05 472.84 458.6 462.72 468.5 457.04C478.4 451.35 489.65 444.85 493.5 442.59L500.5 438.48C501.04 188.4 500.85 162.28 499.8 161.34C499.08 160.7 492.65 156.83 485.5 152.73C478.35 148.64 462.15 139.32 449.5 132.02C436.85 124.72 420.87 115.5 414 111.53C407.12 107.56 385.3 94.94 365.5 83.5C345.7 72.05 324.77 59.98 319 56.68C313.22 53.38 299.05 45.19 287.5 38.48C275.95 31.77 265.11 25.59 263.42 24.76C260.36 23.26 260.24 23.3 244.92 32.25Z" />
	</g>
	<path id="Path 0" class="shp3" d="M250 63.95C244.77 67.1 228.8 76.44 214.5 84.69C200.2 92.94 172.52 108.93 153 120.21C133.47 131.5 102.44 149.38 84.02 159.96L50.55 179.18L50.95 421.5C72.3 433.82 98.3 448.83 122.5 462.79C146.7 476.76 170.55 490.56 175.5 493.47C180.45 496.37 196.65 505.73 211.5 514.26C226.35 522.79 243.22 532.52 249 535.89C254.77 539.25 260.17 541.99 261 541.98C261.82 541.97 277.35 533.35 295.5 522.83C313.65 512.32 341.55 496.18 357.5 486.97C373.45 477.76 399.55 462.7 415.5 453.5C431.45 444.3 450.46 433.33 457.74 429.13L470.97 421.5L471.09 179.5C421.81 150.9 389.27 132.07 367 119.2C344.72 106.33 322.45 93.44 317.5 90.55C312.55 87.66 300.17 80.54 290 74.72C279.82 68.91 269.25 62.75 266.5 61.04C263.75 59.33 261.05 57.99 260.5 58.07C259.95 58.14 255.22 60.79 250 63.95Z" />
	<path id="Path 0" class="shp4" d="M246 65.81C238.57 70.1 215.4 83.52 194.5 95.63C173.6 107.74 135.35 129.82 109.5 144.7C83.65 159.58 59.69 173.39 56.25 175.38L50 179L50 273C59.69 273.05 65.87 273.67 70 274.4C74.12 275.14 81.1 277.18 85.5 278.95C89.9 280.72 96.16 283.81 99.41 285.83C102.65 287.85 107.72 291.86 110.66 294.75L116 300C127.01 298.88 127.84 299.08 131.5 301.79C133.7 303.41 138.87 306.45 143 308.53C147.12 310.62 152.54 314.39 155.04 316.91C157.54 319.44 162.97 325.77 167.11 331C171.26 336.22 176.41 341.91 178.57 343.64C180.73 345.37 186.1 348.92 190.5 351.52C194.9 354.12 204.12 359.06 211 362.49C217.87 365.92 227.55 370.34 232.5 372.31C237.45 374.27 246.22 377.22 252 378.86C257.77 380.49 267 382.64 272.5 383.64C279.46 384.91 287.36 385.46 298.5 385.46C310.72 385.45 318.99 384.8 333.5 382.69C343.95 381.16 356.32 379.23 361 378.4C365.67 377.56 373.32 375.68 378 374.21C382.67 372.74 388.75 370.18 391.5 368.5C394.25 366.83 399.65 362.98 403.5 359.94C407.35 356.9 415.67 350.87 422 346.55C428.32 342.23 441.96 332.8 452.3 325.6L471.1 312.5L470.5 178.7C413.15 145.41 376.92 124.4 353 110.52C329.07 96.65 298.92 79.16 286 71.67C273.07 64.17 261.82 58.03 261 58.02C260.17 58 253.42 61.51 246 65.81Z" />
	<path id="Path 0" fill-rule="evenodd" class="shp1" d="M260.75 58.08C261.44 58.04 268.41 61.76 276.25 66.37C284.09 70.97 322 92.96 360.5 115.25C399 137.53 439.63 161.11 471.08 179.5L471 422L453.75 431.86C444.26 437.29 402.52 461.31 361 485.25C319.47 509.19 280.21 531.75 273.75 535.39C267.29 539.02 261.32 542 260.5 542C259.67 542 251.69 537.78 242.75 532.62C233.81 527.46 187.12 500.45 51.5 421.96L50.85 416.73C50.49 413.85 50.14 359.3 49.93 179.5L121.72 138.07C161.2 115.29 207 88.81 223.5 79.22C240 69.64 254.85 60.98 256.5 59.98C258.15 58.98 260.06 58.13 260.75 58.08ZM127.75 140.78L56 182C56 412.47 56.1 419.03 57.75 419.58C58.71 419.9 104.27 446.08 159 477.75C213.72 509.42 259.17 535.5 260 535.7C260.82 535.89 273.9 528.95 289.05 520.28C304.21 511.6 350.21 485.15 391.27 461.5L465.94 418.5L465.93 182.5C344.7 112.39 298.92 85.91 286 78.42C273.07 70.92 262.05 64.62 261.5 64.41C260.95 64.19 246.77 72.02 230 81.79C213.22 91.56 167.21 118.11 127.75 140.78Z" />
	<g id="Layer 3 copy 5">
		<path id="Path 0" fill-rule="evenodd" class="shp1" d="M187.47 277C187.93 276.94 193.76 279.92 200.42 283.62C207.09 287.32 215.17 291.15 218.39 292.11C221.61 293.08 225.27 294.39 226.54 295.01C227.8 295.64 230.29 298.31 232.07 300.95C233.85 303.59 237.98 308.95 241.25 312.86C245.5 317.95 247.73 321.48 250.98 330.66L255.99 330.02C258.75 329.67 271.16 329.32 306.13 329.1L312.4 331.75C315.85 333.21 321.11 335.44 324.1 336.7C327.09 337.97 330.43 339.61 331.53 340.35C332.63 341.08 336.24 345.07 339.56 349.21C342.88 353.35 346.65 358.61 347.94 360.91C350.18 364.89 350.27 365.45 349.8 372.61C349.37 378.99 348.73 381.46 345.58 388.9C343.54 393.73 340.44 400.12 338.69 403.11C336.94 406.1 333.05 412.49 324.57 426.09L324.46 432.78C324.4 436.45 323.96 443.03 323.48 447.4C322.97 451.98 321.32 459.32 319.59 464.74C317.22 472.13 315.98 474.72 313.77 476.86C312.22 478.35 309.02 480.61 306.66 481.87C304.3 483.13 301.06 484.17 299.45 484.17C297.84 484.17 295.3 483.45 293.81 482.58C292.31 481.7 288.27 480.49 284.82 479.88C281.38 479.27 277.43 477.99 276.05 477.04C274.67 476.1 273.17 474.28 272.71 473.01C272.05 471.19 272.44 468.45 274.58 460.09C276.07 454.26 277.57 447.23 277.92 444.48C278.27 441.72 278.37 437.77 278.14 435.7C277.73 432 277.68 431.94 274.8 432.11C273.19 432.2 267.73 432.56 253.49 433.51L249.55 441.92C247.38 446.54 244.43 454.27 242.99 459.1C241.55 463.92 239.52 469.57 238.47 471.63C237.09 474.38 235.69 475.77 233.33 476.8C231.55 477.57 228.58 478.44 226.75 478.73C224.39 479.1 220.45 478.52 213.38 476.75C207.86 475.38 202.03 474.05 200.42 473.79C198.81 473.54 196.11 472.12 194.4 470.61C192.29 468.74 191.3 467.15 191.27 465.58C191.25 464.22 193.13 460.1 195.86 455.55C198.51 451.13 201.53 444.59 202.9 440.3C204.22 436.16 205.76 431.08 207.32 425.26L200.24 415.65C196.35 410.36 191.26 404.34 188.94 402.27C185.32 399.05 184.5 397.74 183.24 393.08C182.44 390.1 181.14 386.33 180.36 384.73C179.58 383.12 178.69 380.49 178.38 378.88C178.08 377.27 177.24 369.56 176.52 361.75C175.67 352.45 174.5 345.08 173.14 340.44C171.92 336.29 171.25 332.38 171.53 331.04C171.8 329.77 173.52 326.48 178.7 318.71L176.4 316.35C175.13 315.05 173.4 312.51 171 307.43L174.48 295.31C176.4 288.65 178.42 282.49 178.98 281.64C179.54 280.78 181.49 279.41 183.32 278.59C185.14 277.78 187.01 277.06 187.47 277ZM204.81 301.49C204.01 301.21 204.57 301.96 206.06 303.16C207.56 304.36 208.79 305.81 208.81 306.38C208.82 306.96 208.11 308.37 207.22 309.52C205.79 311.37 205.74 311.8 206.8 313.28C207.55 314.32 207.81 315.9 207.5 317.46C207.13 319.35 207.22 319.65 207.88 318.71C208.36 318.02 208.76 316.52 208.77 315.37C208.78 314.22 209.38 312.15 210.11 310.77C210.96 309.14 211.25 307.25 210.92 305.34C210.65 303.73 209.96 301.93 209.39 301.33C208.82 300.74 207.89 300.27 207.32 300.29C206.74 300.31 206.27 300.7 206.27 301.16C206.27 301.62 205.61 301.77 204.81 301.49ZM222.28 306.84C223.39 307.99 223.49 308.76 222.8 310.77C222.26 312.34 222.22 314.5 222.67 316.53C223.07 318.31 224.08 320.19 224.91 320.7C226.13 321.45 226.66 321.31 227.64 319.96C228.39 318.94 228.86 316.36 228.86 313.28C228.85 308.87 228.55 307.94 226.34 305.55C224.95 304.05 223.44 302.83 222.96 302.83C222.49 302.83 221.84 303.41 221.5 304.13C221.14 304.9 221.45 305.99 222.28 306.84Z" />
		<path id="Path 0" fill-rule="evenodd" class="shp5" d="M183.71 286.95C184.17 286.95 185.39 288.09 186.43 289.48C187.46 290.87 188.96 292 189.77 291.99C190.57 291.98 191.86 290.85 194.05 287.01L198.28 289.58C200.61 290.99 204.02 293.36 205.85 294.84C208 296.58 209.44 298.56 209.87 300.4C210.24 301.97 210.76 304.57 211.01 306.17C211.3 307.99 211 310.05 210.21 311.61C209.51 312.99 208.69 315.43 208.37 317.04C207.88 319.56 206.81 320.63 200.56 324.79C194.34 328.94 192.85 329.59 186.63 329.16L185.74 323.72C185.24 320.74 184.43 317.54 183.94 316.62C183.44 315.7 181.86 313.45 180.42 311.61C178.98 309.77 177.82 307.61 177.83 306.8C177.85 306 178.24 304.59 178.7 303.67C179.41 302.24 179.77 302.15 181.21 303.04C182.45 303.82 183.26 303.85 184.34 303.16C185.14 302.66 185.92 301.53 186.06 300.66C186.2 299.79 185.53 298.32 184.57 297.4C183.22 296.11 182.83 294.73 182.85 291.34C182.86 288.93 183.25 286.95 183.71 286.95ZM201.45 307.43C201.65 309.6 202.04 309.96 204.39 310.14C206.59 310.31 207.21 309.99 207.63 308.47C207.91 307.44 207.97 306.03 207.75 305.34C207.54 304.65 206.33 303.86 205.08 303.58C203.8 303.29 202.46 303.47 202.01 303.99C201.57 304.5 201.32 306.05 201.45 307.43Z" />
		<path id="Path 0" class="shp6" d="M216.13 300.45C215.82 301.53 216.04 303.54 216.62 304.92C217.56 307.14 217.45 307.86 215.66 311.19C214.2 313.92 213.83 315.52 214.3 317.04C214.65 318.19 216 320.35 217.29 321.84C218.89 323.68 219.44 325 219.02 325.94C218.49 327.09 217.54 327.23 213.23 326.81C208.2 326.31 207.97 326.38 204.04 329.47C201.82 331.22 198.88 333.21 197.5 333.91C196.12 334.61 193.77 335.43 192.28 335.72C190.45 336.08 188.39 335.75 186.01 334.71C184.05 333.86 181.7 332.34 180.79 331.34C179.87 330.34 178.83 329.53 178.49 329.55C178.14 329.56 177.86 330.89 177.86 332.5C177.86 334.11 178.65 337.02 179.62 338.97C181 341.75 181.53 345 182.07 353.81C182.44 360.01 183.16 366.12 183.65 367.39C184.14 368.65 184.54 371.85 184.53 374.49C184.52 378.27 184.96 379.92 186.58 382.22C187.97 384.18 188.8 386.74 189.1 389.95C189.39 392.98 190.1 395.25 191.02 396.11C191.83 396.85 193.8 398.18 195.41 399.06C197.3 400.1 199.14 402.2 200.62 405.02C201.88 407.42 205.08 411.63 207.74 414.39C210.4 417.15 214.44 420.49 216.73 421.82C219.02 423.16 221.74 424.75 222.78 425.38L224.66 426.51C221.49 432.06 221.42 432.75 222.36 436.15C223.19 439.19 223.19 441.32 222.36 446.81C221.79 450.58 221.32 454.7 221.32 455.97C221.31 457.87 221.92 458.53 224.87 459.8C226.82 460.65 229.82 461.87 231.54 462.52C233.62 463.3 234.94 463.42 235.51 462.86C235.98 462.4 236.77 459.39 237.28 456.17C237.97 451.72 239.45 447.93 243.43 440.3C248.17 431.23 248.63 429.91 248.23 426.51C247.86 423.28 248.05 422.6 249.6 421.7C250.59 421.13 252.06 420.84 252.86 421.06C253.66 421.28 254.79 422.6 255.37 423.98C256.14 425.84 257.13 426.64 259.13 427.01C260.62 427.28 263.35 427.33 265.19 427.12C267.02 426.91 271.16 426.09 274.38 425.29C277.6 424.49 282.77 422.94 285.87 421.83C288.97 420.73 292.45 419.82 293.6 419.82C295.54 419.82 295.65 420.04 295.19 422.96C294.82 425.34 295.22 427.14 296.87 430.48C298.06 432.89 299.03 436.28 299.02 438C299.02 439.72 298.08 445.18 296.93 450.12C295.79 455.06 295.13 459.68 295.48 460.39C295.82 461.09 298.36 462.41 301.12 463.32C303.88 464.22 307.73 464.96 309.68 464.96C312.98 464.95 313.29 464.75 314 462.23C314.42 460.74 315.41 456.7 316.2 453.25C317.14 449.18 317.46 445.59 317.11 443.01C316.73 440.2 316.93 438.49 317.79 437.16C318.74 435.69 318.82 434.47 318.17 431.52C317.72 429.45 317.62 426.63 317.95 425.26C318.29 423.88 319.38 421.81 320.38 420.66C321.38 419.51 322.96 417.07 323.88 415.23C324.81 413.39 327.59 409.06 330.06 405.61C332.53 402.17 335.64 396.9 336.98 393.92C338.33 390.93 339.61 386.79 339.83 384.73C340.16 381.6 339.71 379.91 337.15 374.7C335.46 371.25 334.27 367.77 334.52 366.97C334.76 366.16 335.71 365.51 336.63 365.51C337.55 365.51 339.2 366.73 340.3 368.22C341.48 369.84 342.67 370.68 343.22 370.31C343.74 369.97 344.16 368.74 344.16 367.6C344.16 366.45 343.33 364.28 342.33 362.79C341.33 361.3 337.95 356.78 334.81 352.76C329.41 345.83 328.84 345.36 323.89 343.79C321.02 342.88 316.88 341 314.7 339.61C312.52 338.23 308.94 336.48 306.76 335.74C303.63 334.67 301.46 334.52 296.52 335.04C293.08 335.41 287.25 335.72 283.57 335.73C279.89 335.74 274.44 335.43 271.45 335.04C266.93 334.46 265.01 334.64 259.96 336.14C256.63 337.12 253.06 337.92 252.02 337.91C250.58 337.9 250 338.53 249.51 340.63C249.16 342.13 248.87 344.4 248.88 345.66C248.89 346.92 247.95 349.09 246.8 350.46C245.52 352 243.17 353.42 240.74 354.14C237.59 355.07 235.95 355.11 232.75 354.35C229.82 353.65 227.77 352.41 225.23 349.8C222.24 346.73 221.73 345.71 221.74 342.7C221.75 340.4 223.02 336.29 225.41 330.83C228.3 324.21 229.15 321.17 229.5 316.2C229.9 310.43 229.76 309.67 227.71 306.59C226.49 304.75 225.5 302.87 225.53 302.41C225.55 301.95 225.08 301.13 224.49 300.59C223.89 300.04 221.89 299.35 220.04 299.04C217 298.53 216.63 298.67 216.13 300.45Z" />
		<path id="Path 3" class="shp7" d="M235.54 320.59C235.55 321.62 235.04 323.97 234.4 325.81C233.77 327.65 232.11 331.6 230.72 334.59C229.33 337.57 227.96 340.68 227.68 341.48C227.38 342.32 227.82 343.74 228.7 344.82C229.55 345.86 231.33 347.21 232.67 347.83C234.14 348.5 236.35 348.75 238.24 348.45C240.55 348.09 241.59 347.41 242.21 345.87C242.67 344.72 243.04 340.3 243.04 336.05C243.04 331.8 242.66 327 242.19 325.39C241.72 323.79 240.49 321.61 239.47 320.57C238.45 319.52 237.14 318.68 236.56 318.69C235.99 318.7 235.53 319.56 235.54 320.59ZM213.06 429.78C213 431.2 212.02 435.27 210.88 438.83C209.74 442.4 208.05 446.53 207.12 448.03C206.19 449.52 205.44 450.93 205.44 451.16C205.44 451.39 206 451.58 206.69 451.58C207.38 451.58 208.64 452.61 209.49 453.88C210.35 455.14 211.85 456.46 212.84 456.8C214.4 457.35 214.68 457.07 214.99 454.71C215.19 453.22 215.75 449.27 216.24 445.94C216.73 442.61 216.86 439.41 216.51 438.83C216.17 438.26 215.7 435.56 215.47 432.84C215.24 430.12 214.62 427.74 214.1 427.55C213.54 427.34 213.11 428.25 213.06 429.78ZM285.25 428.76C284.33 428.97 283.67 429.67 283.79 430.33C283.9 430.99 284.43 433.12 284.96 435.07C285.76 437.96 285.67 440.2 284.52 446.98C283.74 451.58 282.9 456.28 282.64 457.43C282.22 459.33 282.47 459.55 285.39 459.93C288.33 460.32 288.6 460.18 288.74 458.26C288.82 457.11 289.48 454.11 290.21 451.58C290.93 449.05 291.76 444.54 292.05 441.55C292.48 437.05 292.27 435.44 290.79 432.15C289.81 429.97 288.53 428.22 287.96 428.28C287.38 428.33 286.16 428.55 285.25 428.76ZM299 437.94C298.79 439.4 298.91 440.34 299.28 440.03C299.65 439.72 299.82 438.52 299.67 437.37C299.42 435.51 299.34 435.57 299 437.94Z" />
		<path id="Path 4" class="shp8" d="M206.73 452.41C206.48 452.87 206.37 453.28 206.48 453.31C206.6 453.35 207.44 453.54 208.36 453.74C209.7 454.03 209.86 453.85 209.17 452.84C208.7 452.15 208.06 451.58 207.75 451.58C207.44 451.58 206.98 451.95 206.73 452.41ZM197.78 458.89C196.25 460.15 194.53 461.74 193.97 462.44C193.41 463.13 192.93 464.07 192.9 464.53C192.88 464.99 193.9 465.85 195.18 466.45C197.08 467.34 197.61 467.34 198.11 466.45C198.45 465.85 198.73 465.08 198.74 464.74C198.75 464.39 199.69 462.61 200.84 460.77C201.99 458.93 202.93 457.24 202.93 457.01C202.93 456.78 202.4 456.59 201.75 456.59C201.1 456.59 199.31 457.62 197.78 458.89ZM203.43 462.02C202.69 463.17 201.91 465.05 201.68 466.2C201.28 468.18 201.45 468.29 205.02 468.29C208.1 468.29 209.04 467.91 210.24 466.18C211.05 465.02 211.52 463.98 211.29 463.88C211.06 463.78 209.65 462.84 208.15 461.81C206.66 460.78 205.29 459.93 205.1 459.93C204.91 459.93 204.16 460.87 203.43 462.02ZM215.21 465.16C214.11 466.65 212.96 468.34 212.66 468.92C212.37 469.49 212.59 470.54 213.17 471.25C213.74 471.96 214.78 472.53 215.46 472.52C216.22 472.5 217.2 470.92 217.93 468.51C218.6 466.32 219.19 464.06 219.26 463.49C219.32 462.91 218.89 462.44 218.29 462.44C217.7 462.44 216.31 463.66 215.21 465.16ZM276.84 465.97C276.09 466.99 275.51 468.68 275.55 469.73C275.6 470.78 276.38 472.01 277.3 472.47C278.71 473.17 279.23 472.88 280.62 470.59C281.53 469.1 282.28 467.22 282.29 466.41C282.31 465.61 281.75 464.76 281.06 464.53C280.37 464.3 279.45 464.11 279.02 464.11C278.58 464.11 277.6 464.95 276.84 465.97ZM221.25 466.83C221.22 467.86 221.03 469.56 220.83 470.59C220.51 472.33 220.78 472.47 224.45 472.44C226.63 472.42 229.36 471.9 230.51 471.28C232.59 470.15 232.58 470.14 227.37 467.55C224.5 466.12 221.96 464.95 221.73 464.95C221.5 464.95 221.29 465.79 221.25 466.83ZM283.55 469.01C282.9 471.14 282.54 473.17 282.76 473.51C282.98 473.86 284 474.15 285.03 474.16C286.5 474.18 287.14 473.45 287.96 470.82C288.53 468.97 288.86 467.17 288.69 466.83C288.52 466.48 287.56 465.96 286.56 465.67C284.97 465.2 284.59 465.62 283.55 469.01ZM292.34 470.8C292.34 474.2 292.7 475.21 294.22 476.25C296.08 477.51 296.11 477.48 296.33 473.54C296.49 470.62 296.15 469.14 295.07 468.06C294.26 467.24 293.32 466.58 292.97 466.59C292.63 466.61 292.34 468.5 292.34 470.8ZM299.85 473.32C299.86 476.21 300.11 476.65 301.75 476.65C302.78 476.65 305.13 475.66 306.97 474.45C309.52 472.76 310.02 472.1 309.06 471.63C308.37 471.3 306.01 470.79 303.82 470.51L299.83 469.99L299.85 473.32Z" />
	</g>
</svg>