<svg xmlns="http://www.w3.org/2000/svg" viewBox="0 0 520 600" width="520" height="600">
	<style>
		tspan { white-space:pre }
		.shp0 { fill: #808080 } 
		.shp1 { fill: #000000 } 
		.shp2 { fill: #b8b8b8 } 
		.shp3 { fill: #4c4e4b } 
		.shp4 { fill: #696969 } 
		.shp5 { fill: #c7c7c7 } 
		.shp6 { fill: #a7a7a7 } 
		.shp7 { fill: #656565 } 
		.shp8 { fill: #454545 } 
		.shp9 { fill: #848484 } 
		.shp10 { fill: #4c4c4c } 
	</style>
	<path id="Background" class="shp0" d="M260.16 -0.7L520.31 149.5L520.31 449.91L260.16 600.11L0 449.91L0 149.5L260.16 -0.7Z" />
	<g id="Layer 1">
		<path id="Path 0" class="shp1" d="M257.45 18.92C256.93 19.42 250.65 23.18 243.5 27.27C236.35 31.36 219.92 40.78 207 48.2C194.07 55.63 178.89 64.47 173.25 67.85C167.61 71.23 162.77 74 162.5 74C162.22 74 158.74 75.94 154.75 78.32C150.76 80.7 143 85.26 137.5 88.45C132 91.64 124.57 95.95 121 98.02C117.42 100.09 108.87 105.02 102 108.99C95.12 112.96 85.45 118.58 80.5 121.47C75.55 124.36 69.47 127.85 67 129.23C64.52 130.6 56.42 135.23 49 139.5C41.57 143.78 31.45 149.63 26.5 152.52C21.55 155.4 17.16 158.49 16.75 159.38C16.34 160.27 15.99 223.66 15.98 300.25C15.97 411.13 16.22 439.84 17.23 441.15C17.93 442.05 21.54 444.64 25.25 446.9C28.96 449.15 32.22 451 32.5 451C32.77 451 38.06 454.01 44.25 457.69C50.44 461.37 60 466.9 65.5 469.99C71 473.08 81.35 479 88.5 483.16C95.65 487.32 105.89 493.26 111.25 496.36C116.61 499.46 125.39 504.55 130.75 507.66C136.11 510.77 144.77 515.79 150 518.81C155.22 521.83 160.85 525.07 162.5 526C164.15 526.93 176.97 534.33 191 542.45C205.02 550.57 224.37 561.73 234 567.24C243.62 572.75 253.19 578.33 255.25 579.63C257.31 580.93 259.9 582 261 582C262.1 582 265.81 580.27 269.25 578.15C272.69 576.04 280.22 571.58 286 568.26C291.77 564.94 309.55 554.68 325.5 545.47C341.45 536.25 356.97 527.36 360 525.71C363.02 524.06 365.95 522.37 366.5 521.96C367.05 521.55 372 518.62 377.5 515.45C383 512.28 395.82 504.88 406 499C416.17 493.13 431.25 484.42 439.5 479.64C447.75 474.86 454.61 470.96 454.75 470.98C454.89 470.99 460.51 467.72 467.25 463.72C473.99 459.72 485.06 453.31 491.86 449.47C499.75 445.02 504.54 441.69 505.11 440.25C505.62 438.97 506.01 378.35 506.02 299.25C506.03 188.78 505.78 160.16 504.77 158.83C504.07 157.91 499 154.58 493.5 151.43C488 148.27 482.15 144.92 480.5 143.97C478.85 143.02 470.3 138.07 461.5 132.96C452.7 127.85 442.57 122.03 439 120.04C435.42 118.05 427.1 113.23 420.5 109.34C413.9 105.45 403.55 99.43 397.5 95.97C391.45 92.5 382.22 87.23 377 84.24C371.77 81.26 367.05 78.47 366.5 78.05C365.95 77.63 363.02 75.93 360 74.27C356.97 72.62 346.17 66.4 336 60.47C325.82 54.54 314.12 47.81 310 45.51C305.87 43.22 298.45 38.96 293.5 36.04C288.55 33.12 280.9 28.71 276.5 26.24C272.1 23.78 267.26 20.91 265.75 19.88C264.24 18.85 261.96 18 260.7 18C259.43 18 257.97 18.41 257.45 18.92Z" />
		<path id="Path 1" class="shp2" d="M244.92 32.25C236.44 37.2 219.15 47.22 206.5 54.51C193.85 61.81 176.52 71.82 168 76.75C159.47 81.69 140.57 92.6 126 101.01C111.42 109.42 88.25 122.81 74.5 130.75C60.75 138.7 43.09 148.87 35.26 153.35L21.02 161.5L21.02 438.5C43.09 451.15 60.75 461.32 74.5 469.26C88.25 477.2 111.42 490.58 126 498.99C140.57 507.4 156.77 516.75 162 519.76C167.22 522.78 189.05 535.38 210.5 547.76C231.95 560.15 251.97 571.75 255 573.56C260.3 576.72 260.61 576.78 263.5 575.26C265.15 574.4 279.32 566.29 295 557.25C310.67 548.2 329.12 537.53 336 533.54C342.87 529.55 362 518.5 378.5 508.98C395 499.47 417.95 486.21 429.5 479.53C441.05 472.84 458.6 462.72 468.5 457.04C478.4 451.35 489.65 444.85 493.5 442.59L500.5 438.48C501.04 188.4 500.85 162.28 499.8 161.34C499.08 160.7 492.65 156.83 485.5 152.73C478.35 148.64 462.15 139.32 449.5 132.02C436.85 124.72 420.87 115.5 414 111.53C407.12 107.56 385.3 94.94 365.5 83.5C345.7 72.05 324.77 59.98 319 56.68C313.22 53.38 299.05 45.19 287.5 38.48C275.95 31.77 265.11 25.59 263.42 24.76C260.36 23.26 260.24 23.3 244.92 32.25Z" />
	</g>
	<path id="Path 0" class="shp3" d="M250 63.95C244.77 67.1 228.8 76.44 214.5 84.69C200.2 92.94 172.52 108.93 153 120.21C133.47 131.5 102.44 149.38 84.02 159.96L50.55 179.18L50.95 421.5C72.3 433.82 98.3 448.83 122.5 462.79C146.7 476.76 170.55 490.56 175.5 493.47C180.45 496.37 196.65 505.73 211.5 514.26C226.35 522.79 243.22 532.52 249 535.89C254.77 539.25 260.17 541.99 261 541.98C261.82 541.97 277.35 533.35 295.5 522.83C313.65 512.32 341.55 496.18 357.5 486.97C373.45 477.76 399.55 462.7 415.5 453.5C431.45 444.3 450.46 433.33 457.74 429.13L470.97 421.5L471.09 179.5C421.81 150.9 389.27 132.07 367 119.2C344.72 106.33 322.45 93.44 317.5 90.55C312.55 87.66 300.17 80.54 290 74.72C279.82 68.91 269.25 62.75 266.5 61.04C263.75 59.33 261.05 57.99 260.5 58.07C259.95 58.14 255.22 60.79 250 63.95Z" />
	<path id="Path 0" class="shp4" d="M241 68.72C230.82 74.64 183.8 101.8 136.5 129.1L50.5 178.72L49.97 264.5C65.77 263.93 68.88 264.32 74.5 266.17C79.26 267.73 84.78 270.79 91.75 275.73C97.39 279.73 104.47 285.47 107.5 288.5C111.07 292.07 113.09 294.96 113.25 296.73C113.49 299.35 113.88 299.53 123 301.25C128.22 302.23 142.62 304.85 155 307.08C167.37 309.3 198.65 314.5 224.5 318.63C257.4 323.89 272.85 325.96 276 325.55C278.47 325.23 283.42 323.59 287 321.9C290.57 320.22 298.22 315.57 304 311.57C309.77 307.56 316.41 303.33 318.75 302.15C321.09 300.97 324.8 300 327 300C330.69 300 331.53 299.43 337.75 292.69C341.46 288.67 347.71 280.9 351.63 275.44C355.55 269.97 361.4 262.99 364.63 259.93C367.86 256.87 372.75 253.08 375.5 251.51C378.25 249.94 381.17 248.03 382 247.26C383.1 246.24 384.97 246.03 389 246.48C392.02 246.82 403.95 249 415.5 251.32L436.5 255.54C462.05 269.46 469.81 273.61 470.23 273.75C470.66 273.89 471 252.62 471 226.5L471 179C452.79 168.38 420.72 149.77 388 130.8C355.27 111.83 313.65 87.7 295.5 77.18C277.35 66.66 261.82 58.03 261 58.01C260.17 57.99 251.17 62.81 241 68.72Z" />
	<path id="Path 0" fill-rule="evenodd" class="shp1" d="M260.75 58.08C261.44 58.04 268.41 61.76 276.25 66.37C284.09 70.97 322 92.96 360.5 115.25C399 137.53 439.63 161.11 471.08 179.5L471 422L453.75 431.86C444.26 437.29 402.52 461.31 361 485.25C319.47 509.19 280.21 531.75 273.75 535.39C267.29 539.02 261.32 542 260.5 542C259.67 542 251.69 537.78 242.75 532.62C233.81 527.46 187.12 500.45 51.5 421.96L50.85 416.73C50.49 413.85 50.14 359.3 49.93 179.5L121.72 138.07C161.2 115.29 207 88.81 223.5 79.22C240 69.64 254.85 60.98 256.5 59.98C258.15 58.98 260.06 58.13 260.75 58.08ZM127.75 140.78L56 182C56 412.47 56.1 419.03 57.75 419.58C58.71 419.9 104.27 446.08 159 477.75C213.72 509.42 259.17 535.5 260 535.7C260.82 535.89 273.9 528.95 289.05 520.28C304.21 511.6 350.21 485.15 391.27 461.5L465.94 418.5L465.93 182.5C344.7 112.39 298.92 85.91 286 78.42C273.07 70.92 262.05 64.62 261.5 64.41C260.95 64.19 246.77 72.02 230 81.79C213.22 91.56 167.21 118.11 127.75 140.78Z" />
	<g id="Layer 6 copy">
		<path id="Path 0" class="shp1" d="M262.29 276.76C258.62 277.7 252.77 279.78 249.29 281.37C245.81 282.96 241.89 285.15 240.57 286.23C239.26 287.31 237.1 289.14 235.78 290.3C234.46 291.46 231.13 295.47 228.39 299.23C225.64 302.98 222.62 307.7 221.66 309.72C220.35 312.49 219.41 313.48 217.77 313.79C216.59 314.02 213.5 314.67 210.9 315.24C208.31 315.8 205.48 316.61 204.61 317.03C203.74 317.45 202.2 318.51 201.18 319.4C200.17 320.28 198.58 323.27 197.65 326.03C196.34 329.91 195.96 332.78 195.98 338.6L196.01 346.14C183.9 346.61 178.27 347 175.69 347.32C173.1 347.63 169.58 348.06 167.86 348.26C166.14 348.46 162.96 349.07 160.8 349.61C158.64 350.14 155.26 351.66 153.29 352.97C151.32 354.28 147.9 357.1 145.68 359.24C143.47 361.38 140.16 365.2 138.34 367.72C136.52 370.25 133.87 374.39 132.44 376.93C131.01 379.46 129.59 383.11 129.27 385.03C128.96 386.96 128.11 389.17 127.4 389.95C126.63 390.79 125.94 393.18 125.71 395.76C125.46 398.49 125.75 401.4 126.47 403.49C127.59 406.75 127.57 406.9 125.76 408.94C124.74 410.09 123.61 412.08 123.25 413.35C122.89 414.63 122.93 417.09 123.34 418.82C123.75 420.55 124.06 422.93 124.03 424.11C124 425.29 124.77 427.24 125.75 428.45C126.73 429.65 129.66 432.02 132.24 433.7C136.11 436.2 137.89 436.85 142.2 437.28C145.09 437.57 151.65 438.61 156.77 439.59C161.9 440.57 167.84 441.49 169.98 441.64C172.13 441.8 176 441.57 178.58 441.14C181.17 440.72 184.87 440.19 186.81 439.97C188.75 439.75 193.16 438.83 196.62 437.91L202.91 436.25C207.07 438.99 210.36 440.48 212.92 441.32C215.47 442.16 219.05 442.89 220.87 442.94C222.69 443 224.98 442.74 225.96 442.38C227.32 441.86 228.81 442.27 232.35 444.14C235.73 445.91 239.26 446.93 245.51 447.92C252 448.96 254.72 449.1 256.81 448.5C258.33 448.07 260.98 447.27 262.72 446.72C264.45 446.17 267.57 444.2 269.66 442.33C271.75 440.46 273.76 437.88 274.11 436.61L274.76 434.29C279.55 439.56 282.29 442.08 283.94 443.29C285.59 444.51 289.03 446.31 291.57 447.3C295.67 448.88 297.2 449.06 304.8 448.81C309.53 448.66 315.15 448.38 317.3 448.21C319.45 448.03 323.69 447.27 326.71 446.52C329.74 445.78 334.63 443.93 337.59 442.41C340.55 440.9 344.3 438.53 345.93 437.15C348.34 435.11 348.98 433.97 349.38 431C349.85 427.49 349.97 427.36 352.61 427.2C354.11 427.12 355.86 427.25 356.5 427.5C357.42 427.87 357.19 428.4 355.42 430.05C354.19 431.2 352.78 433.35 352.28 434.84C351.79 436.33 351.57 438.34 351.81 439.31C352.04 440.3 353.34 441.61 354.73 442.27C356.11 442.92 359.55 443.8 362.38 444.23L367.53 445.01C372.04 440.6 373.37 438.62 373.39 437.76C373.41 436.9 373.7 436.2 374.02 436.2C374.34 436.2 378.29 436.12 382.8 436.01C387.31 435.91 392.15 435.7 393.55 435.54C395.05 435.37 396.57 434.56 397.27 433.54C397.92 432.59 398.65 430.41 398.89 428.7C399.21 426.51 398.83 424.32 397.59 421.25C396.38 418.26 394.82 416.11 392.58 414.35C390.78 412.94 388.02 411.2 386.43 410.48C384.56 409.63 383.73 408.82 384.08 408.2C384.38 407.67 384.94 404.97 385.33 402.19C385.93 397.95 385.71 395.61 384 387.71C382.88 382.53 381.41 377.4 380.74 376.31C380.06 375.22 378.11 372.53 376.41 370.34C374.7 368.14 372.95 365.11 372.52 363.6C372.09 362.08 371.58 358.56 371.39 355.76C371.2 352.97 370.31 349.09 369.41 347.16C368.51 345.22 365.73 341.31 363.23 338.47C360.73 335.62 356.2 331.18 353.16 328.6C349.46 325.45 346.67 323.71 344.72 323.34C343.12 323.04 338.86 322.13 335.27 321.33L328.73 319.87C324.67 312.5 322.76 309.46 321.85 308.36C320.95 307.26 318.72 304.56 316.91 302.36C315.09 300.16 312.92 297.45 312.1 296.33C311.27 295.21 308.35 292.76 305.61 290.88C302.87 289 298.03 286.31 294.85 284.91C291.67 283.51 286.99 281.34 284.45 280.07C281.9 278.81 277.65 277.14 274.99 276.36C272.33 275.59 269.88 274.97 269.56 275C269.24 275.03 265.97 275.82 262.29 276.76Z" />
		<path id="Path 1" class="shp5" d="M263.75 280.55C260.94 281.46 258.37 282.25 258.05 282.3C257.72 282.36 255.77 283.07 253.71 283.88C251.65 284.7 249.79 285.35 249.57 285.34C249.36 285.32 248.11 285.95 246.8 286.73L244.42 288.14C257.54 295.04 264.19 298.95 267.67 301.27C271.15 303.59 273.99 305.23 273.98 304.9C273.97 304.58 274.54 304.86 275.26 305.53C276.46 306.64 276.53 306.53 276.17 303.99C275.96 302.48 275.29 297.9 274.69 293.8C274.09 289.71 273.58 284.87 273.56 283.04C273.54 281.22 273.18 279.71 272.75 279.69C272.32 279.67 271.27 279.49 270.42 279.28C269.57 279.07 266.57 279.64 263.75 280.55Z" />
		<path id="Path 2" class="shp6" d="M276.47 281.92C276.16 282.68 276.25 285.77 276.69 288.79C277.12 291.8 277.59 294.8 277.73 295.45C277.87 296.09 278.19 299.44 278.44 302.88C278.69 306.32 279.34 309.59 279.88 310.14C280.42 310.69 280.69 311.14 280.47 311.13C280.26 311.12 281.24 313.52 282.65 316.46C284.06 319.39 285.71 323.13 286.32 324.75C286.93 326.38 287.78 327.72 288.21 327.73C288.64 327.74 289.19 327.06 289.43 326.2C289.66 325.35 290.33 324.23 290.9 323.71C291.47 323.19 294.15 319.31 296.85 315.09C299.56 310.87 302.9 305.7 304.28 303.59C305.66 301.48 307.02 298.97 307.3 298.01C307.58 297.05 307.45 296.26 307.02 296.25C306.6 296.24 304.61 295.06 302.61 293.63C300.61 292.2 295.16 289.29 290.49 287.17C285.83 285.05 280.9 282.69 279.53 281.93C277.18 280.62 277.02 280.62 276.47 281.92Z" />
		<path id="Path 3" class="shp7" d="M240.43 291.56C239.98 292.08 239.27 292.66 238.83 292.85C238.4 293.04 236.74 294.74 235.16 296.62C233.57 298.51 231.56 301.27 230.7 302.74C229.83 304.22 228.92 305.6 228.68 305.81C228.44 306.02 227.35 307.34 226.26 308.75C224.58 310.93 224.45 311.42 225.43 312C226.06 312.37 226.94 312.45 227.38 312.18C227.81 311.91 228.7 311.63 229.34 311.55C229.99 311.47 232.1 311.23 234.04 311.01C235.98 310.79 237.74 310.49 237.96 310.33C238.18 310.17 239.24 309.82 240.33 309.56C241.41 309.3 243.96 309.1 246 309.1C248.03 309.11 249.71 308.94 249.72 308.73C249.73 308.51 252.01 308.66 254.78 309.06C258.59 309.61 260.34 310.29 261.92 311.83C263.07 312.95 264.62 314.05 265.36 314.26C266.2 314.51 266.49 315.02 266.12 315.62C265.76 316.19 265.83 316.35 266.3 316.02C266.73 315.72 267.95 316.19 269 317.06C270.04 317.93 271.41 319.1 272.03 319.66C272.65 320.23 273.43 320.61 273.76 320.51C274.1 320.41 274.18 320.67 273.96 321.1C273.73 321.52 274.16 322.32 274.9 322.88C275.65 323.44 276.81 325.31 277.48 327.05C278.15 328.78 278.89 331.79 279.13 333.73C279.37 335.66 279.66 338.13 279.77 339.21C279.89 340.28 280.21 343.23 280.47 345.75C280.74 348.27 281.13 350.44 281.35 350.58C281.56 350.71 281.83 350.33 281.95 349.73C282.08 349.13 282.29 347.94 282.42 347.08C282.55 346.23 282.83 345.53 283.04 345.54C283.26 345.55 283.51 344.41 283.6 343.02C283.69 341.63 283.98 339.79 284.24 338.94C284.5 338.09 284.76 337.39 284.83 337.39C284.9 337.4 285.13 335.82 285.35 333.9C285.59 331.82 285.3 329.27 284.63 327.63C284.02 326.11 282.82 323.45 281.97 321.71C281.12 319.97 279.82 317.21 279.07 315.58C278.32 313.95 277.73 312.18 277.76 311.64C277.8 311.11 277.38 310.28 276.84 309.8C276.3 309.32 274.64 308.42 273.15 307.8C271.67 307.18 268.38 305.14 265.86 303.27C263.34 301.4 257.2 297.78 252.23 295.23C247.25 292.69 242.75 290.6 242.21 290.6C241.67 290.6 240.87 291.03 240.43 291.56Z" />
		<path id="Path 4" class="shp8" d="M301.46 312.68C297.08 319.54 292.41 326.7 291.09 328.59L288.67 332.04C291.05 336.94 292.55 340.67 293.53 343.49C294.51 346.3 296.17 350.65 297.21 353.15C298.97 357.37 299.25 357.66 301.26 357.28C302.44 357.05 304.65 356.62 306.16 356.31C307.67 356 310.58 355.59 312.62 355.39C314.67 355.2 316.34 354.77 316.34 354.45C316.34 354.13 317.68 353.13 319.33 352.23C320.97 351.33 323.73 350.34 325.45 350.03L328.59 349.45C329.31 336.8 329.05 334.31 327.6 329.2C326.62 325.74 324.56 320.51 323.03 317.58C321.5 314.65 318.15 309.55 315.6 306.26C313.04 302.96 310.61 300.25 310.19 300.24C309.77 300.23 305.84 305.83 301.46 312.68Z" />
		<path id="Path 5" class="shp6" d="M240.6 313.68C238.44 314.19 234.74 314.89 232.37 315.24C230 315.59 227 316.05 225.7 316.25C224.41 316.46 222.29 316.79 221 316.99C219.71 317.2 216.61 317.89 214.11 318.54C211.61 319.19 209.57 319.99 209.57 320.31C209.58 320.63 209.85 320.75 210.17 320.58C210.5 320.41 211.16 321.22 211.64 322.38C212.12 323.54 213.47 325.45 214.64 326.62C215.82 327.8 219.94 332.03 223.8 336.04C228.2 340.61 231.26 343.2 232 342.97C232.65 342.77 233.19 342.26 233.2 341.83C233.21 341.41 235.08 340.39 237.36 339.57C239.63 338.76 242.57 337.16 243.89 336.01C245.21 334.86 247.11 332.56 248.12 330.89C249.12 329.22 250.15 326.46 250.4 324.75C250.65 323.04 251.1 319.62 251.4 317.16L251.95 312.69C246.2 312.74 242.76 313.17 240.6 313.68Z" />
		<path id="Path 6" class="shp8" d="M253.91 319.95C253.31 325.86 252.73 327.96 250.68 331.58L248.19 336C254.12 340.7 255.84 342.33 255.82 342.65C255.81 342.97 256.74 343.74 257.91 344.36C259.07 344.98 261.77 345.79 263.91 346.16C266.17 346.55 269.55 347.99 272.01 349.6C274.33 351.12 276.4 352.37 276.61 352.37C276.83 352.38 276.55 347.72 276 342.02C275.45 336.32 274.53 330.42 273.96 328.9C273.4 327.38 271.93 325.14 270.7 323.91C269.48 322.68 266.07 319.92 263.12 317.76C260.18 315.6 257.06 313.59 256.2 313.29C254.72 312.77 254.59 313.16 253.91 319.95ZM203.81 322.1C203.08 322.84 202.74 323.71 203.05 324.06C203.37 324.4 205.2 324.72 207.13 324.77L210.64 324.87C207.7 321.7 206.46 320.78 205.99 320.78C205.52 320.78 204.53 321.37 203.81 322.1Z" />
		<path id="Path 7" class="shp5" d="M330.91 325.16C331.25 325.72 331.61 327.07 331.71 328.14C331.82 329.22 332.11 330.63 332.36 331.28C332.62 331.93 332.85 332.73 332.87 333.05C332.9 333.37 333.19 333.64 333.51 333.65C333.83 333.66 334.62 333.68 335.27 333.7C335.91 333.72 337.89 332.46 339.66 330.9C341.43 329.33 342.92 327.82 342.96 327.53C343 327.24 340.99 326.56 338.49 326.01C335.99 325.47 333.12 324.82 332.11 324.58C330.75 324.25 330.44 324.4 330.91 325.16Z" />
		<path id="Path 8" class="shp6" d="M343.13 331.44C341.37 333.03 338.44 335.15 336.61 336.14L333.29 337.94L332.87 350.02C336.19 350.15 338.49 349.68 340.11 349.07C341.75 348.46 345.24 348.05 347.94 348.15C350.62 348.26 355.45 348.38 358.67 348.41C361.88 348.45 364.81 348.24 365.17 347.95C365.52 347.65 362.81 344.14 359.14 340.13C355.46 336.12 351.34 331.89 349.98 330.71C348.62 329.53 347.24 328.57 346.91 328.56C346.59 328.55 344.88 329.85 343.13 331.44Z" />
		<path id="Path 9" class="shp7" d="M201.22 327.38C201.37 327.77 200.94 329.13 200.26 330.4C199.4 332 199.14 333.89 199.39 336.62C199.59 338.77 199.85 342.11 199.97 344.05C200.09 345.98 200.31 348.09 200.46 348.74C200.61 349.39 200.95 351.33 201.22 353.06C201.48 354.78 202.09 357.02 202.57 358.03C203.05 359.04 205.16 361.03 207.27 362.44C209.38 363.85 211.18 365.28 211.28 365.61C211.38 365.94 211.99 366.23 212.63 366.24C213.27 366.26 213.88 366.54 213.98 366.87C214.08 367.19 215.37 368.09 216.85 368.87C218.33 369.65 221.28 370.92 223.41 371.68C225.53 372.45 228.14 373.46 229.2 373.92C230.26 374.38 232.97 374.85 235.22 374.96C237.47 375.08 239.31 374.99 239.32 374.78C239.32 374.56 240.3 374.32 241.48 374.23C242.66 374.14 243.71 373.99 243.8 373.9C243.89 373.81 242.54 372.07 240.79 370.03C239.03 367.99 237.08 365.65 236.45 364.84C235.82 364.02 233.92 360.33 232.24 356.64C230.55 352.94 228.3 347.79 227.24 345.18C225.85 341.76 224.03 339.22 220.68 336.03C218.13 333.6 214.64 330.74 212.91 329.69C211.11 328.58 207.9 327.53 205.36 327.22C202.85 326.9 201.06 326.97 201.22 327.38Z" />
		<path id="Path 10" class="shp9" d="M287.32 337.64C287.61 337.98 287.3 339.82 286.63 341.74C285.96 343.65 285.38 346.18 285.34 347.36C285.31 348.54 284.35 351.41 283.21 353.74L281.14 357.97C283.85 358.35 287.19 358.44 290.3 358.42C295.24 358.38 295.92 358.21 295.67 357.01C295.51 356.25 294.36 352.97 293.11 349.72C291.86 346.46 290.36 342.65 289.77 341.24C289.18 339.82 288.7 338.32 288.72 337.89C288.73 337.46 288.3 337.09 287.76 337.06C287.23 337.04 287.03 337.29 287.32 337.64ZM243.8 339.45C242.92 340.08 239.62 341.82 236.46 343.32C233.29 344.83 230.71 346.32 230.71 346.64C230.71 346.97 232.35 350.7 234.35 354.94C236.62 359.75 239.71 364.67 242.57 368.04L247.16 373.43C252.95 371.72 255.17 371.13 255.81 371C256.46 370.88 258.75 370.56 260.9 370.29C264.46 369.85 265.44 369.23 271.63 363.43C277.16 358.26 278.22 356.91 277.29 356.26C276.66 355.82 274.24 354.2 271.92 352.67C269.6 351.13 265.87 349.46 263.64 348.95C261.4 348.44 258.53 347.46 257.26 346.78C255.99 346.11 253.24 343.92 251.15 341.93C249.05 339.95 246.9 338.32 246.37 338.32C245.83 338.32 244.67 338.83 243.8 339.45ZM344.17 350.67C341.43 351.47 341.22 351.68 342.56 352.28C343.41 352.67 345.44 354.27 347.07 355.84C348.71 357.41 350.69 359.41 351.48 360.29C352.27 361.17 354.33 363.88 356.07 366.3C357.81 368.73 360.57 372.94 362.21 375.65C364.09 378.75 365.4 380.22 365.74 379.61C366.03 379.08 366.75 373.56 367.33 367.36C367.91 361.15 368.12 355.71 367.8 355.27C367.48 354.83 367.19 354.21 367.17 353.89C367.14 353.57 367.13 352.78 367.15 352.13C367.17 351.49 366.74 351.11 366.2 351.28C365.65 351.45 364.78 351.16 364.25 350.64C363.71 350.1 363.28 350.03 363.28 350.47C363.27 350.93 359.9 351.23 355.08 351.22C349.83 351.2 347.02 350.91 347.27 350.42C347.48 350 347.57 349.67 347.48 349.7C347.39 349.73 345.9 350.17 344.17 350.67Z" />
		<path id="Path 11" class="shp6" d="M189.4 350.14C188.46 350.47 184.79 350.81 181.25 350.9C177.7 350.99 172.86 351.4 170.49 351.81C168.12 352.22 166.08 352.62 165.95 352.71C165.83 352.79 165.61 354.5 165.46 356.49C165.31 358.48 165.37 360.01 165.59 359.89C165.81 359.76 165.92 362.22 165.83 365.36C165.74 368.5 165.94 371.37 166.26 371.74C166.58 372.1 169.59 371.11 172.95 369.52C176.46 367.86 180.56 366.55 182.58 366.42C184.51 366.31 188.01 366.78 190.35 367.48C192.7 368.17 194.63 368.69 194.66 368.61C194.69 368.54 195.87 367.02 197.29 365.24C199.53 362.42 199.75 361.76 198.99 360.21C198.51 359.23 197.76 356.67 197.33 354.51C196.61 350.86 196.36 350.55 193.82 350.07C192.33 349.78 190.33 349.81 189.4 350.14ZM326.91 353.82C324.76 354.15 322.19 354.93 321.21 355.55C319.42 356.68 319.43 356.7 324.73 362.29C327.65 365.37 331.08 369.42 332.35 371.28C333.62 373.14 335.14 375.9 335.71 377.42C336.29 378.94 336.7 382.02 336.63 384.27C336.52 387.88 336.75 388.54 338.61 389.85C339.76 390.66 343.31 392.74 346.48 394.45C349.65 396.17 352.76 398.06 353.39 398.67C354.02 399.28 355.4 399.86 356.47 399.97C357.54 400.08 359.3 400.14 360.37 400.1C361.59 400.05 362.83 399.21 363.66 397.9C364.39 396.73 365.91 394.92 367.02 393.88L369.04 391.99C365.44 389.69 363.6 387.06 362.06 383.8C360.67 380.86 358.15 376.49 356.45 374.08C354.76 371.68 353.38 369.53 353.38 369.32C353.39 369.1 351.39 366.76 348.93 364.12C346.47 361.48 343.66 358.51 342.68 357.52C341.71 356.53 340.38 355.71 339.74 355.7C339.09 355.68 338.22 355.32 337.81 354.9C337.39 354.47 335.65 353.92 333.94 353.66C332.23 353.41 329.07 353.48 326.91 353.82Z" />
		<path id="Path 12" class="shp5" d="M157.92 354.68L155.15 356.23L162.76 363.52C163.24 360.05 163.12 357.84 162.81 356.37C162.5 354.9 161.9 353.57 161.47 353.41C161.04 353.25 159.44 353.82 157.92 354.68ZM304.87 360.63C302.28 361.16 299.46 361.78 298.59 362.01C297.73 362.23 292.8 362.44 287.65 362.47C278.53 362.52 278.22 362.58 275.88 364.74L273.48 366.96C281.81 372 285.36 374.07 286.73 374.8C288.1 375.54 289.36 375.89 289.53 375.57C289.69 375.25 292.02 373.56 294.7 371.81C297.39 370.06 300.9 368.46 302.52 368.26C304.13 368.06 305.81 367.67 306.25 367.39C306.69 367.11 308.22 365.42 309.67 363.63C311.11 361.85 312.3 360.21 312.3 360C312.31 359.78 311.7 359.62 310.95 359.64C310.2 359.65 307.46 360.1 304.87 360.63Z" />
		<path id="Path 13" class="shp8" d="M313.05 363.53C311.68 365.21 310.65 366.74 310.75 366.93C310.85 367.12 314.16 367.83 318.11 368.5C322.06 369.17 325.3 369.45 325.32 369.13C325.33 368.81 323.63 366.75 321.54 364.54C319.46 362.34 317.25 360.52 316.64 360.51C316.03 360.49 314.41 361.85 313.05 363.53Z" />
		<path id="Path 14" class="shp7" d="M147.56 362.94C145.13 365.45 142.22 368.98 141.1 370.78C139.98 372.58 138.32 375.06 137.41 376.31C136.5 377.56 135.12 379.88 134.34 381.47C133.56 383.05 132.91 384.88 132.89 385.52C132.87 386.18 133.8 386.91 134.99 387.17C136.31 387.47 137.35 387.28 137.72 386.66C138.19 385.9 138.32 385.9 138.31 386.65C138.3 387.18 138.56 387.57 138.88 387.51C139.21 387.45 140.43 387.84 141.59 388.37C142.76 388.9 144.91 390.68 146.38 392.33C148.79 395.05 149.21 395.24 150.81 394.39C151.78 393.87 154.71 392.37 157.32 391.05L162.07 388.66C161.81 382.36 162.26 379.73 163.07 377.96C163.91 376.13 164.21 374.28 163.9 372.91C163.63 371.72 163.49 370.4 163.59 369.97C163.69 369.55 161.56 366.77 158.85 363.8C156.14 360.83 153.48 358.39 152.95 358.38C152.41 358.36 149.99 360.42 147.56 362.94Z" />
		<path id="Path 15" class="shp8" d="M368.86 376.96L367.65 385.7C371.88 389.35 373.67 390.12 375.47 390.18C376.97 390.22 378.74 389.95 379.39 389.58C380.44 388.98 380.42 388.25 379.21 383.54C378.43 380.45 377.05 377.33 375.96 376.18C374.93 375.08 373.35 372.84 372.46 371.2C371.57 369.57 370.67 368.23 370.46 368.22C370.24 368.22 369.53 372.15 368.86 376.96Z" />
		<path id="Path 16" class="shp9" d="M200.06 368.41C198.01 371.07 196.98 373.18 197.04 374.6C197.09 375.78 196.6 378.22 195.95 380.03C195.3 381.84 194.53 384.27 194.24 385.45C193.82 387.13 193.99 387.59 195.07 387.64C195.82 387.68 197.96 388.7 199.82 389.92C201.69 391.14 204.44 393.4 205.93 394.95C207.42 396.5 209.41 398.75 210.34 399.95C211.27 401.15 212.75 403.64 213.62 405.49C214.49 407.34 215.74 409.73 216.4 410.81C217.06 411.88 217.69 413.31 217.79 413.97C217.9 414.63 218.1 416.57 218.23 418.3C218.46 421.17 218.42 421.23 217.82 419.06C217.3 417.19 217.24 417.5 217.5 420.62C217.67 422.77 217.95 424.79 218.12 425.12C218.28 425.45 219.12 425.73 219.98 425.76C221.19 425.79 221.55 425.28 221.6 423.46C221.64 422.16 222.01 421.3 222.43 421.53C222.86 421.76 223.01 421.5 222.78 420.96C222.55 420.41 223.19 418.41 224.2 416.51C225.21 414.6 227.4 411.85 229.05 410.4C230.71 408.94 233.49 406.91 235.23 405.88L238.4 404.02C234.53 396.05 232.4 391.34 231.18 388.41C229.95 385.48 228.68 383.08 228.36 383.09C228.04 383.1 226.75 382.17 225.49 381.03C224.24 379.88 221.58 377.52 219.59 375.76C217.6 374.01 215.44 372.56 214.8 372.55C214.16 372.53 212.17 371.31 210.39 369.84C208.6 368.38 206.25 366.54 205.15 365.77L203.17 364.37L200.06 368.41Z" />
		<path id="Path 17" class="shp6" d="M268.23 371.67C267 372.8 264.62 373.82 262.31 374.19C260.18 374.54 257.91 374.86 257.27 374.92C256.62 374.98 253.26 375.77 249.8 376.69C244.97 377.97 241.58 378.3 235.13 378.15C230.52 378.04 226.74 378.03 226.74 378.14C226.74 378.25 228 379.51 229.53 380.95C231.07 382.39 233.06 383.61 233.95 383.67C234.84 383.72 236.26 384.03 237.11 384.36C237.96 384.68 240.81 385.08 243.45 385.25C246.37 385.44 248.04 385.85 247.71 386.31C247.38 386.78 247.77 386.84 248.76 386.48C249.62 386.16 252.09 385.8 254.24 385.69C256.39 385.57 260.96 385.38 264.4 385.25C267.83 385.13 272.76 384.96 275.33 384.87C278.54 384.76 281.27 384.08 283.98 382.7C286.15 381.59 288.03 380.54 288.14 380.36C288.25 380.17 287.05 379.34 285.46 378.5C283.87 377.66 280.33 375.61 277.58 373.93C274.84 372.25 272.25 370.81 271.82 370.72C271.39 370.64 270.87 370.39 270.66 370.17C270.45 369.95 269.36 370.63 268.23 371.67Z" />
		<path id="Path 18" class="shp9" d="M303.03 370.96C301.73 371.27 298.71 372.64 296.31 374.01C293.91 375.37 291.88 376.52 291.79 376.55C291.71 376.58 292.44 378.38 293.42 380.55C294.4 382.72 295.35 385.56 295.54 386.85C295.73 388.15 296.03 390.09 296.21 391.16C296.39 392.24 296.74 394.18 296.99 395.48C297.23 396.77 297.48 399.24 297.55 400.96C297.61 402.67 297.24 404.54 296.74 405.1C296 405.93 296.13 406.01 297.4 405.53C298.56 405.09 298.81 405.18 298.37 405.87C298.03 406.39 298.11 406.82 298.54 406.84C298.96 406.85 299.5 406.51 299.73 406.09C299.95 405.66 302.26 405.46 304.84 405.64C307.43 405.82 309.81 405.62 310.12 405.2C310.44 404.78 313.75 401.98 317.48 398.98C321.21 395.99 325.95 392.08 328 390.3C330.34 388.28 332.09 385.97 332.66 384.16C333.25 382.29 333.29 381.39 332.78 381.63C332.35 381.83 332.02 381.21 332.06 380.24C332.1 379.28 331.35 377.24 330.4 375.71C328.84 373.2 328.22 372.87 324.04 372.26C321.49 371.9 316.25 371.33 312.39 371C308.54 370.67 304.33 370.66 303.03 370.96Z" />
		<path id="Path 19" class="shp5" d="M180.12 370.81C179.47 371.13 176.53 372.42 173.6 373.68C170.67 374.93 168.09 376.3 167.86 376.73C167.63 377.15 167.71 377.51 168.03 377.53C168.35 377.55 171.59 377.87 175.23 378.24L181.85 378.91C189.09 374.39 191.33 372.81 191.49 372.49C191.66 372.18 191.44 371.91 191.01 371.9C190.58 371.88 189.97 371.77 189.65 371.65C189.34 371.53 188.73 371.2 188.31 370.92C187.89 370.64 186.14 370.37 184.42 370.32C182.71 370.26 180.77 370.49 180.12 370.81Z" />
		<path id="Path 20" class="shp8" d="M188.49 377.99L185.71 380.18C188.65 383.44 189.68 384.38 189.89 384.39C190.11 384.39 190.86 382.48 191.57 380.14C192.37 377.5 192.56 375.88 192.06 375.85C191.63 375.82 190.02 376.79 188.49 377.99ZM286.8 384.31L283.49 386.13C285.36 390.12 287.36 394.03 289.14 397.41C290.93 400.78 292.65 403.35 292.98 403.11C293.31 402.87 293.55 401.74 293.51 400.59C293.47 399.44 292.78 394.97 291.97 390.66C291.17 386.34 290.42 382.74 290.31 382.65C290.2 382.56 288.62 383.3 286.8 384.31Z" />
		<path id="Path 21" class="shp7" d="M166.7 381.45C165.88 382.25 165.51 382.9 165.87 382.91C166.23 382.92 166.33 383.28 166.11 383.7C165.88 384.12 166.03 385.01 166.44 385.66C166.86 386.32 167.64 386.64 168.18 386.38C168.72 386.12 172.15 386.03 175.79 386.19C179.44 386.34 183.43 386.59 184.67 386.74C186.29 386.93 187.01 386.62 187.24 385.64C187.43 384.83 187.08 384.28 186.38 384.26C185.74 384.24 185.05 383.69 184.86 383.04C184.6 382.21 182.96 381.7 179.25 381.31C176.36 381.01 172.68 380.59 171.09 380.39C168.98 380.11 167.77 380.41 166.7 381.45ZM234.3 387.13C233.32 387.72 233.3 387.86 234.21 387.89C234.82 387.92 235.09 388.19 234.82 388.51C234.54 388.82 235.14 391.03 236.15 393.42C237.16 395.81 238.47 398.3 239.07 398.96C239.66 399.62 240.31 399.99 240.51 399.78C240.71 399.58 241.09 398.53 241.35 397.47C241.61 396.4 242.22 394.13 242.7 392.43C243.18 390.73 243.58 389.07 243.6 388.75C243.62 388.43 243.02 388.15 242.27 388.14C241.52 388.13 240.47 387.66 239.95 387.1C239.18 386.3 238.98 386.29 238.97 387.06C238.96 387.78 238.55 387.82 237.42 387.21C236.57 386.76 235.79 386.39 235.69 386.4C235.58 386.4 234.95 386.73 234.3 387.13Z" />
		<path id="Path 22" class="shp9" d="M261.36 387.95C261.78 388.71 261.62 388.87 260.8 388.51C260.16 388.23 257.3 388.16 254.44 388.35C251.58 388.55 249.39 388.45 249.57 388.13C249.75 387.81 249.57 387.55 249.17 387.54C248.77 387.52 247.88 388.03 247.19 388.65C246.5 389.28 245.92 390.4 245.91 391.15C245.89 391.9 245.21 394.52 244.38 396.96L242.88 401.39C247.74 400.79 250.37 400.85 251.87 401.14C253.39 401.43 255.8 402.82 257.34 404.31C258.85 405.76 261.23 408.74 262.61 410.93C264 413.11 266.32 416.33 267.78 418.09C269.24 419.85 271.1 422.79 271.9 424.63C272.71 426.47 273.55 428 273.76 428.01C273.98 428.03 274.82 426.13 275.63 423.78C276.83 420.33 278.4 418.25 283.86 412.87L290.61 406.23C287.09 398.87 285.87 396.56 285.62 396.34C285.38 396.12 284.35 394.16 283.33 391.98L281.49 388.03C272.43 387.78 268.38 387.88 266.66 388.1C264.94 388.31 262.91 388.12 262.15 387.68C261.07 387.05 260.9 387.11 261.36 387.95Z" />
		<path id="Path 23" class="shp7" d="M333.67 391.2C332.8 392 330.75 393.38 329.12 394.27C327.49 395.16 326.32 396.24 326.52 396.68C326.72 397.11 326.62 397.46 326.3 397.45C325.98 397.45 324.64 398.39 323.32 399.55C322 400.7 319.54 402.65 317.86 403.88L314.8 406.11C318.78 408.19 322.64 409.62 325.94 410.62C329.24 411.61 334.88 414.09 338.47 416.12C342.07 418.15 345.18 419.82 345.39 419.82C345.61 419.83 346.54 418.01 347.46 415.78C348.38 413.56 349.87 409.29 350.78 406.31C351.68 403.33 352.33 400.72 352.2 400.5C352.08 400.28 350.29 399.37 348.22 398.48C346.16 397.59 342.56 395.63 340.25 394.12C337.93 392.62 335.85 391.02 335.63 390.56C335.4 390.07 334.61 390.32 333.67 391.2Z" />
		<path id="Path 24" class="shp5" d="M375.39 393.27C374.55 393.74 374.39 394.38 374.84 395.39C375.2 396.19 375.71 398.26 375.98 399.98C376.26 401.7 376.15 404.25 375.73 405.63C374.99 408.12 375.01 408.15 377.71 408.22C380.34 408.29 380.47 408.17 381.27 404.61C381.72 402.59 381.96 399.52 381.8 397.8C381.64 396.08 381.36 394.23 381.19 393.68C381.01 393.14 379.9 392.68 378.72 392.65C377.54 392.63 376.04 392.91 375.39 393.27ZM173.31 389.59C172.29 390 171.52 390.63 171.6 390.99C171.68 391.36 173.55 392.91 175.76 394.45C177.98 395.98 181.07 398.53 182.63 400.1C185.41 402.89 185.76 403.01 197.51 405.05C204.13 406.19 209.55 406.96 209.56 406.74C209.57 406.53 208.95 405.28 208.18 403.97C207.41 402.66 205.8 400.47 204.61 399.1C203.41 397.73 201.27 395.92 199.84 395.07C198.42 394.22 196.17 392.89 194.85 392.11C193.3 391.19 190.65 390.63 187.38 390.5C184.6 390.4 180.91 390.21 179.2 390.07C177.49 389.94 175.88 389.61 175.63 389.34C175.38 389.07 174.33 389.18 173.31 389.59Z" />
		<path id="Path 25" class="shp9" d="M367.53 397.02C366.61 398.28 365.94 399.44 366.04 399.6C366.15 399.75 367.54 400.14 369.14 400.46C371.43 400.92 372.06 400.79 372.08 399.87C372.1 399.23 371.79 397.82 371.39 396.73C370.99 395.65 370.33 394.75 369.93 394.74C369.53 394.73 368.44 395.75 367.53 397.02Z" />
		<path id="Path 26" class="shp10" d="M133.26 390.8C131.9 391.69 131.91 391.81 133.4 393.34C134.39 394.35 135.41 394.74 136.16 394.39C136.81 394.09 137.51 394.2 137.71 394.63C137.93 395.09 138.75 394.86 139.67 394.1C140.83 393.12 141 392.62 140.3 392.18C139.78 391.85 138.22 391.54 136.82 391.5C135.42 391.45 134.46 391.07 134.67 390.64C134.88 390.22 134.97 389.87 134.87 389.87C134.77 389.87 134.04 390.29 133.26 390.8Z" />
		<path id="Path 27" class="shp6" d="M161.95 393.02C160.21 393.88 156.47 395.77 153.64 397.22C150.81 398.67 148.32 400.07 148.09 400.32C147.87 400.57 145.74 401.58 143.35 402.56C140.96 403.54 138.47 404.73 137.81 405.21C137.16 405.68 135.91 406.33 135.04 406.66C134.18 406.98 133.2 407.19 132.88 407.11C132.56 407.03 132.29 407.32 132.28 407.75C132.27 408.18 133.22 408.79 134.39 409.1C135.56 409.41 137.21 410.13 138.05 410.69C138.9 411.25 140.81 411.94 142.31 412.21C143.8 412.48 148.34 413.38 152.4 414.21C156.45 415.05 160.38 415.7 161.14 415.66C161.89 415.63 162.36 415.86 162.17 416.18C161.99 416.49 162.86 416.78 164.1 416.81C165.35 416.85 166.37 416.61 166.38 416.29C166.39 415.97 166.84 415.72 167.38 415.74C167.91 415.75 171.05 413.53 174.34 410.79C177.64 408.06 180.64 405.24 181.02 404.53C181.52 403.6 181.12 402.62 179.56 400.96C178.37 399.7 175.17 397.07 172.43 395.13C169.69 393.18 166.93 391.56 166.28 391.53C165.64 391.5 163.69 392.17 161.95 393.02Z" />
		<path id="Path 28" class="shp7" d="M129.45 394.99C129.41 395.31 129.28 396.64 129.17 397.95C129.03 399.7 129.33 400.38 130.33 400.52C131.08 400.62 131.53 400.35 131.33 399.92C131.12 399.48 131.31 399.14 131.74 399.15C132.17 399.16 132.71 398.65 132.94 398.01C133.17 397.37 132.85 396.31 132.22 395.65C131.6 394.99 130.73 394.44 130.31 394.43C129.88 394.42 129.49 394.67 129.45 394.99Z" />
		<path id="Path 29" class="shp8" d="M142.32 396.36C141.47 396.68 139.89 396.95 138.82 396.95C137.56 396.95 136.08 397.89 134.65 399.62C133.43 401.09 132.69 402.46 133.01 402.67C133.32 402.87 136.07 401.82 139.12 400.33C142.16 398.84 144.83 397.52 145.05 397.39C145.27 397.26 145.09 396.85 144.66 396.46C144.23 396.08 143.17 396.04 142.32 396.36ZM351.53 412.19C349.63 417.29 348.07 421.99 348.05 422.63C348.03 423.43 348.57 423.69 349.78 423.47C350.75 423.28 352.69 423.16 354.08 423.19C356.18 423.24 356.63 422.95 356.68 421.5C356.72 420.53 357.64 417.49 358.72 414.73C359.81 411.97 360.96 408.22 361.28 406.41L361.85 403.11L354.98 402.92L351.53 412.19Z" />
		<path id="Path 30" class="shp10" d="M364.6 403.96C364.35 404.38 364.24 404.74 364.34 404.76C364.45 404.77 363.84 407.13 362.99 409.99C362.13 412.85 361.31 415.89 361.17 416.74C361.02 417.6 360.66 418.73 360.36 419.26C360.06 419.79 360 420.22 360.21 420.23C360.43 420.24 361.68 419.22 363.01 417.96C364.33 416.71 365.76 415.7 366.19 415.71C366.62 415.72 366.99 415.29 367.03 414.76C367.06 414.22 367.62 413.45 368.27 413.04C368.93 412.63 369.78 411.07 370.17 409.58C370.56 408.08 371.12 406.08 371.43 405.12C371.95 403.5 371.75 403.38 368.52 403.29C366.61 403.24 364.84 403.54 364.6 403.96Z" />
		<path id="Path 31" class="shp6" d="M241.92 406.7C239.72 407.79 237.4 409.13 236.77 409.66C236.13 410.19 234.89 411.13 234.02 411.74C232.46 412.82 232.49 412.9 235.09 415.28C236.56 416.62 238.96 418.59 240.43 419.67C242.38 421.09 244.38 421.71 247.78 421.97C250.35 422.17 253.32 422.79 254.38 423.35C255.44 423.92 257.18 424.59 258.24 424.84C259.31 425.09 260.88 425.55 261.73 425.86C262.58 426.17 264.41 426.49 265.8 426.56C267.19 426.63 268.34 426.43 268.35 426.11C268.36 425.78 268.02 425.51 267.59 425.5C267.16 425.49 266.99 425.13 267.22 424.71C267.45 424.29 266.22 422.23 264.49 420.15C262.76 418.06 260.14 414.45 258.66 412.12C257.18 409.79 255.2 407.36 254.25 406.73C253.3 406.1 251.04 405.38 249.22 405.14C246.67 404.8 245 405.16 241.92 406.7ZM304.78 408.96C304.74 409.39 303.21 409.75 301.38 409.76C299.56 409.77 296.8 409.94 295.25 410.14C293.7 410.34 291.93 410.97 291.31 411.56C290.57 412.25 290.21 414 290.27 416.64L290.35 420.66C297.21 424.17 299.63 425.64 300.15 426.19C300.67 426.74 302.59 427.29 304.41 427.41C306.23 427.53 308.6 427.75 309.67 427.9C310.73 428.05 312.83 428.39 314.33 428.64C315.82 428.9 320.02 429.41 323.66 429.78C327.3 430.14 330.45 430.57 330.66 430.73C330.87 430.89 334.28 431.31 338.24 431.66L345.44 432.31C345.06 427.77 344.67 425.78 344.34 424.97C344 424.14 339.99 421.58 335.27 419.17C330.61 416.8 324.36 414.05 321.39 413.07C318.41 412.09 313.88 410.9 311.31 410.43C308.75 409.95 306.39 409.69 306.06 409.86C305.74 410.02 305.33 409.7 305.17 409.16C305 408.62 304.83 408.53 304.78 408.96Z" />
		<path id="Path 32" class="shp10" d="M186.86 407.35C186.88 407.96 188.44 412.46 190.34 417.34C192.24 422.22 194.06 426.31 194.38 426.42C194.71 426.54 194.79 426.98 194.57 427.4C194.34 427.83 194.57 428.18 195.07 428.2C195.57 428.21 195.75 428.48 195.46 428.79C195.18 429.11 195.44 430.34 196.04 431.54C196.75 432.96 197.6 433.61 198.5 433.43C199.26 433.27 200.58 432.96 201.44 432.76C202.31 432.55 203.48 431.59 204.05 430.62C204.62 429.65 206.94 427.99 209.22 426.93L213.36 425.01C214 414.77 213.82 413.64 212.54 412.29C211.71 411.41 209.72 410.32 208.12 409.88C206.52 409.43 203.47 408.83 201.33 408.53C199.19 408.24 196.39 407.77 195.11 407.49C193.83 407.21 191.44 406.82 189.81 406.61C187.59 406.33 186.84 406.52 186.86 407.35Z" />
		<path id="Path 33" class="shp8" d="M178.96 410.33C176.58 412.34 173.2 415.08 171.45 416.42L168.27 418.85C170.27 423.16 170.84 424.76 170.83 425.19C170.81 425.62 171.7 428.46 172.8 431.5C174.53 436.29 175.05 437.03 176.74 437.08C177.82 437.11 181.87 436.68 185.74 436.13C189.62 435.58 193.24 434.97 193.78 434.78C194.49 434.53 194.06 432.82 192.28 428.71C190.91 425.56 188.4 419.43 186.69 415.09C184.99 410.75 183.53 407.09 183.45 406.94C183.36 406.8 181.35 408.33 178.96 410.33Z" />
		<path id="Path 34" class="shp6" d="M372.86 414.25C371.54 415.54 370.63 416.72 370.84 416.87C371.05 417.02 373.31 417.95 375.86 418.93C378.4 419.91 383.11 421.03 386.32 421.41C390.37 421.89 392.34 421.84 392.77 421.23C393.1 420.75 392.78 419.71 392.05 418.93C391.32 418.14 389.17 416.5 387.27 415.28C385.17 413.93 382.15 412.84 379.54 412.48C375.51 411.94 375.13 412.04 372.86 414.25Z" />
		<path id="Path 35" class="shp7" d="M129.44 411.18C129.2 411.86 128.65 412.09 128.11 411.73C127.51 411.33 127.33 411.52 127.59 412.3C127.83 413.02 128.71 413.4 129.86 413.27C130.9 413.16 132.11 412.74 132.55 412.34C133.08 411.86 132.96 411.35 132.2 410.85C131.56 410.43 130.78 410.07 130.44 410.05C130.11 410.04 129.66 410.54 129.44 411.18ZM285.99 415.97C285.45 416.54 285.25 417.36 285.56 417.8C285.87 418.23 285.86 418.32 285.55 417.99C285.24 417.66 284.51 417.82 283.93 418.34C283.35 418.86 281.9 420.84 280.7 422.74C279.41 424.79 278.49 427.37 278.43 429.11C278.38 430.72 278.69 432.05 279.12 432.06C279.54 432.07 280.53 431.13 281.31 429.97C282.09 428.81 283.09 427.31 283.55 426.63C284 425.95 285.2 423.96 286.21 422.21C287.55 419.91 287.91 418.47 287.52 416.98C287.08 415.29 286.81 415.11 285.99 415.97ZM227.58 418.36C226.18 420.92 225.53 423.04 225.8 424.16C226.03 425.13 225.95 426.06 225.62 426.23C225.29 426.4 225.15 428.37 225.31 430.62C225.51 433.54 226.02 435.01 227.12 435.79C228.48 436.76 228.95 436.62 231.47 434.44C233.03 433.1 234.75 431.14 235.29 430.08C235.84 429.02 237.04 426.95 237.95 425.47L239.61 422.78C236.24 419.67 234.47 418.21 233.5 417.54C232.54 416.87 231.31 415.87 230.77 415.32C229.97 414.51 229.36 415.09 227.58 418.36ZM364.63 422.08C361.44 424.63 360.77 425.53 361.47 426.35C361.96 426.92 363.32 427.39 364.5 427.41C365.68 427.42 367.51 427.98 368.57 428.65C369.62 429.33 370.84 429.71 371.27 429.51C371.71 429.3 372.07 428.79 372.09 428.36C372.1 427.93 372.56 427.1 373.11 426.52C373.66 425.94 374.75 424.74 375.53 423.86C376.91 422.27 376.88 422.22 373.27 420.78C371.26 419.98 369.4 419.21 369.15 419.08C368.89 418.95 366.86 420.3 364.63 422.08Z" />
		<path id="Path 36" class="shp9" d="M132.86 415.26L127.74 416.85C127.97 421.5 128.12 423.56 128.22 424.42C128.32 425.28 130.43 427.51 132.93 429.4C136.38 432 138.19 432.84 140.57 432.93C142.28 433 149.62 434.2 156.88 435.59C164.14 436.99 170.44 438.03 170.87 437.9C171.3 437.77 171.59 436.8 171.51 435.73C171.43 434.66 171.02 433.78 170.59 433.77C170.16 433.76 169.87 433.49 169.95 433.17C170.03 432.85 169.9 432.05 169.66 431.4C169.43 430.75 168.74 428.28 168.14 425.9C167.53 423.52 166.78 421.15 166.47 420.62C166.16 420.1 164.51 419.42 162.8 419.11C161.09 418.8 158.82 418.38 157.75 418.18C156.68 417.98 152.84 417.21 149.21 416.46C145.58 415.72 141.57 414.79 140.29 414.39C138.59 413.87 136.61 414.1 132.86 415.26ZM377.92 425.17C377.09 426.23 375.77 428.09 374.99 429.31L373.56 431.52C378.78 431.69 379.15 431.88 378.22 432.51C377.27 433.16 377.34 433.21 378.6 432.77C379.47 432.46 383.22 432.09 386.94 431.95C390.66 431.8 393.92 431.51 394.18 431.3C394.44 431.1 394.85 429.79 395.11 428.4C395.39 426.86 395.19 425.6 394.61 425.17C394.08 424.78 390.45 424.18 386.54 423.85C379.6 423.25 379.38 423.29 377.92 425.17Z" />
		<path id="Path 37" class="shp8" d="M286.61 426.6C285.38 428.61 283.43 431.37 282.28 432.75C281.14 434.12 280.37 435.4 280.58 435.58C280.79 435.76 282.85 437.39 285.16 439.21C287.47 441.03 289.98 442.53 290.73 442.54C291.68 442.55 293.16 440.44 295.6 435.6C297.84 431.15 298.83 428.39 298.35 427.96C297.93 427.59 295.77 426.32 293.55 425.13C291.33 423.95 289.36 422.97 289.18 422.97C289 422.96 287.84 424.6 286.61 426.6Z" />
		<path id="Path 38" class="shp9" d="M239.25 428.74C237.6 431.42 235.13 434.64 233.77 435.89C232.42 437.14 231.31 438.43 231.31 438.75C231.31 439.07 232.7 440.07 234.39 440.98C236.08 441.88 238.78 442.68 240.39 442.76C242.65 442.86 242.95 443.02 241.73 443.47C240.85 443.79 244.3 444.09 249.52 444.14C255.49 444.2 259.74 443.86 261.25 443.22C262.55 442.66 265.15 440.75 267.02 438.97C269.51 436.6 270.29 435.35 269.9 434.34C269.52 433.36 269.64 433.14 270.31 433.57C270.83 433.91 271.26 433.83 271.27 433.4C271.29 432.98 270.94 432.61 270.52 432.6C270.09 432.59 269.84 432.16 269.96 431.64C270.1 431.03 268.23 430.3 264.74 429.61C261.76 429.01 257.66 427.75 255.65 426.8C253.64 425.85 249.8 424.8 247.13 424.47L242.27 423.86L239.25 428.74ZM299.5 433.1C298.34 434.89 297.45 436.81 297.51 437.38C297.57 437.95 296.81 439.57 295.82 440.98C294.28 443.18 294.19 443.64 295.17 444.2C295.81 444.56 297.03 444.7 297.89 444.52C299.2 444.24 299.26 444.33 298.27 445.02C297.31 445.7 297.46 445.79 299.04 445.49C300.12 445.29 303.76 444.94 307.13 444.72C310.49 444.49 313.39 444.58 313.56 444.9C313.73 445.23 314.3 445.5 314.84 445.51C315.48 445.52 315.42 445.27 314.67 444.8C313.87 444.29 314.59 444.08 317.03 444.11C318.96 444.13 322.84 443.55 325.65 442.81C328.46 442.07 332.36 440.67 334.32 439.69C336.27 438.71 338.77 437.36 339.86 436.68C341.83 435.46 341.8 435.44 336.02 434.39C332.82 433.81 329.33 433.1 328.26 432.82C327.19 432.54 323.34 432.14 319.7 431.93C316.06 431.72 310.49 431.17 307.34 430.7L301.6 429.85L299.5 433.1Z" />
		<path id="Path 39" class="shp5" d="M358.23 432.66C356.73 434.14 356.74 434.18 358.25 434.78C359.1 435.11 361.38 435.38 363.31 435.36C365.24 435.35 367.44 435.25 368.19 435.13C368.95 435.02 369.58 434.57 369.6 434.14C369.61 433.72 368.5 432.9 367.11 432.33C365.72 431.76 363.5 431.26 362.17 431.22C360.76 431.17 359.12 431.77 358.23 432.66Z" />
		<path id="Path 40" class="shp6" d="M213.63 429.45C212.98 429.83 212.73 430.44 213.09 430.79C213.44 431.15 215.1 431.56 216.77 431.72C218.44 431.87 219.81 431.82 219.82 431.61C219.82 431.39 219.31 430.67 218.69 430.01C218.06 429.35 216.94 428.8 216.19 428.79C215.44 428.77 214.29 429.07 213.63 429.45Z" />
		<path id="Path 41" class="shp8" d="M207.19 432.88C206.26 433.9 206.27 434.2 207.24 434.84C207.87 435.25 210.65 436.36 213.42 437.3C216.18 438.25 219.76 439.04 221.37 439.08C222.98 439.11 224.31 438.88 224.33 438.56C224.35 438.24 223.59 437.17 222.64 436.19C221.41 434.91 219.96 434.37 217.6 434.29C215.77 434.23 212.98 433.61 211.39 432.92C209.8 432.22 208.45 431.66 208.39 431.66C208.33 431.67 207.79 432.22 207.19 432.88Z" />
		<path id="Path 42" class="shp10" d="M355.55 437.95C355.47 438.43 355.77 438.66 356.2 438.46C356.64 438.26 357.07 438.45 357.17 438.88C357.26 439.31 359.09 439.84 361.23 440.05C363.38 440.26 366.01 440.02 367.1 439.5C368.96 438.63 368.88 438.58 365.56 438.56C363.63 438.55 360.62 438.22 358.87 437.81C356.66 437.3 355.65 437.34 355.55 437.95Z" />
		<path id="Path 43" class="shp8" d="M366.31 439.84C365.65 440.2 364.42 440.26 363.57 439.98C362.48 439.61 362.19 439.74 362.59 440.42C362.89 440.95 363.76 441.41 364.51 441.45C365.26 441.49 366.35 441 366.93 440.35C367.52 439.7 367.88 439.18 367.75 439.18C367.61 439.18 366.96 439.48 366.31 439.84Z" />
	</g>
</svg>