<svg xmlns="http://www.w3.org/2000/svg" viewBox="0 0 420 420" width="420" height="420">
	<style>
		tspan { white-space:pre }
		.shp0 { fill: #000000 } 
		.shp1 { fill: #b37652 } 
		.shp2 { fill: #6d4332 } 
		.shp3 { fill: #ffffff } 
		.shp4 { fill: #d5ab90 } 
		.shp5 { fill: #793d1b } 
		.txt6 { font-size: 116px;fill: #000000;font-family: "DejaVu Sans";font-weight: 400 } 
		.shp7 { fill: #c6c6c6 } 
		.shp8 { fill: #a7a7a7 } 
		.shp9 { fill: #656565 } 
		.shp10 { fill: #454545 } 
		.shp11 { fill: #838383 } 
		.shp12 { fill: #4c4c4c } 
	</style>
	<g id="Layer 1 copy 10">
		<path id="Path 0" class="shp0" d="M225.34 1.1C223.65 2.07 221.28 4.31 220.08 6.07C218.72 8.06 217.88 10.81 217.88 13.29C217.88 17.05 217.68 17.33 214.63 17.79C212.83 18.06 205.06 18.75 197.34 19.33C189.62 19.9 182.18 20.58 180.81 20.82C179.43 21.07 165.22 22.4 149.24 23.78C133.26 25.16 114.77 26.78 108.15 27.38C101.54 27.98 95.34 28.67 94.37 28.9C93.25 29.17 92.6 30.31 92.58 32.08C92.55 33.6 93.31 35.51 94.25 36.34C95.2 37.17 98.49 41 101.57 44.86C104.64 48.72 110.62 57.74 114.84 64.9C119.07 72.07 123.4 78.83 124.45 79.93C125.5 81.04 127.74 84.64 129.41 87.95C131.09 91.26 134.28 99.37 136.5 105.99C138.72 112.6 141.81 124.55 143.37 132.54C146.06 146.36 146.19 148.24 145.91 170.62C145.75 183.58 144.98 199.36 144.2 205.7C143.42 212.03 142.09 221.73 141.23 227.24C140.38 232.75 139.39 239.52 139.03 242.27C138.48 246.56 138.66 247.44 140.3 248.39C141.59 249.13 144.69 249.23 149.74 248.69C153.87 248.25 173.72 246.74 193.83 245.34C213.95 243.93 231.99 242.53 233.92 242.22L237.42 241.66C238.59 254.56 238.82 258.42 238.68 258.57C238.54 258.71 231.66 258.34 223.39 257.75C213.05 257.02 191.8 256.97 155.25 257.6C126.04 258.11 89.03 258.47 73 258.41L43.87 258.31C38.94 253.26 35.81 251.34 33.75 250.79C31.42 250.17 24.89 250.07 16.63 250.54C5.72 251.15 3.01 251.61 1.85 253.05C0.61 254.57 0.68 255.48 2.38 260.06C3.45 262.95 5.25 269.38 6.39 274.34C7.52 279.3 10.05 288.32 12 294.38C13.95 300.45 17.84 309.92 20.64 315.43C23.44 320.94 27.8 329.06 30.32 333.46C32.85 337.87 36.06 343.06 37.46 345C38.86 346.94 41.36 350.09 43.02 352.01C44.67 353.93 49.86 359.51 54.54 364.41C59.23 369.32 66.44 375.87 70.57 378.97C74.71 382.08 81.47 386.5 85.61 388.81C89.74 391.11 97.18 394.61 102.14 396.58C107.1 398.56 114.09 400.79 117.67 401.55C121.26 402.3 127.12 403.23 130.7 403.62C134.28 404.01 141.95 405.37 147.74 406.64C153.52 407.92 162.54 409.47 167.78 410.09C173.01 410.71 179.78 411.64 182.81 412.15C185.84 412.66 194.41 413.73 201.85 414.52C209.29 415.32 223.49 416.5 233.42 417.15C243.34 417.81 254.61 418.94 258.47 419.68C262.33 420.42 270.22 421.32 276 421.69C283.27 422.15 291.03 421.84 301.06 420.71C309.05 419.8 319.65 417.91 324.61 416.5C329.57 415.09 336.33 412.72 339.64 411.22C342.95 409.73 348.58 406.55 352.16 404.17C355.75 401.78 360.38 398.2 362.45 396.21C364.53 394.22 366.22 392.25 366.21 391.84C366.2 391.42 367.38 389.62 368.82 387.83C370.27 386.04 372.37 382.77 373.5 380.56C374.63 378.36 376.39 375.65 377.43 374.55C378.46 373.45 379.97 370.29 380.78 367.54C381.59 364.78 382.51 360.95 382.84 359.02C383.16 357.09 384.62 352.26 386.08 348.28C387.94 343.23 389.34 340.9 390.75 340.53C391.85 340.24 394.78 340 397.26 339.99C399.74 339.98 403.46 339.52 405.53 338.97C407.59 338.42 410.48 336.73 411.94 335.22C413.4 333.7 415.46 329.98 416.53 326.95C417.59 323.92 418.7 320.31 419 318.93C419.32 317.39 418.91 315.76 417.91 314.68C417.03 313.71 415.28 312.92 414.04 312.92C412.8 312.92 410.44 311.76 408.78 310.35C407.13 308.94 399.91 304.04 392.75 299.46C385.58 294.88 377.02 289.58 373.71 287.69C370.3 285.73 366.75 282.74 365.51 280.79C364.3 278.9 362.61 276.56 361.75 275.59C360.37 274.05 358.26 273.85 344.4 273.96C330.24 274.08 327.68 273.82 319.6 271.52C314.64 270.1 305.62 268.45 299.55 267.83C293.49 267.22 285.83 266.03 282.52 265.19C279.21 264.35 273.93 263.59 270.79 263.49C265.97 263.35 265 263 264.6 261.31C264.34 260.21 263.85 256.15 263.51 252.29C263.17 248.44 262.68 243.93 262.41 242.27C261.94 239.31 262.02 239.25 268.22 237.9C271.67 237.15 280.59 235.94 288.03 235.21C295.47 234.48 308.32 232.97 316.59 231.85C324.86 230.73 340.64 229.34 351.66 228.75C362.69 228.16 380.39 227.24 391 226.71C402.66 226.12 410.98 226.1 412.04 226.65C413.21 227.26 414.72 227.09 416.55 226.15C418.07 225.37 419.52 223.95 419.77 222.98C420.03 222.02 420.08 212.66 419.88 202.19C419.68 191.64 418.78 178.23 417.86 172.13C416.95 166.06 415.27 155.47 414.13 148.58C412.99 141.69 410.95 131.77 409.6 126.53C408.25 121.29 405.33 110.7 403.12 102.98C400.91 95.27 397.52 84.22 395.59 78.43C393.65 72.64 390.01 63.85 387.5 58.89C384.98 53.93 378.32 41.98 372.7 32.33C367.07 22.69 361.75 13.22 360.86 11.29C359.98 9.36 358.22 7.21 356.96 6.51C355.15 5.5 351.65 5.46 340.14 6.31C332.15 6.9 319.75 7.78 312.58 8.26C305.42 8.74 288.73 10.29 275.5 11.7C262.28 13.12 249.31 14.28 246.69 14.28C242.07 14.3 241.93 14.21 241.93 11.29C241.93 9.64 240.94 6.82 239.72 5.03C238.5 3.23 236.8 1.22 235.96 0.55C235.11 -0.12 233.06 -0.67 231.41 -0.66C229.76 -0.66 227.03 0.14 225.34 1.1Z" />
		<path id="Path 1" class="shp1" d="M227.02 6.83C225.7 7.69 224.68 8.93 224.75 9.59C224.84 10.45 226.24 10.58 229.64 10.07C232.27 9.68 234.64 9.12 234.92 8.84C235.19 8.56 234.74 7.62 233.92 6.76C233.09 5.89 231.74 5.2 230.91 5.22C230.08 5.24 228.33 5.97 227.02 6.83Z" />
		<path id="Path 2" class="shp2" d="M225.27 14.55C224.95 15.23 224.96 16.59 225.29 17.55C225.63 18.52 226.91 19.31 228.15 19.32C229.39 19.32 231.89 18.99 233.69 18.57C235.49 18.15 236.96 17.24 236.95 16.55C236.93 15.86 235.8 14.85 234.42 14.3C233.04 13.74 230.55 13.29 228.88 13.29C227.21 13.29 225.59 13.86 225.27 14.55Z" />
		<path id="Path 3" class="shp3" d="M348.07 13.73C347.84 13.96 343.82 14.39 339.14 14.67C334.45 14.95 323.86 15.62 315.59 16.15C307.32 16.69 297.17 17.6 293.04 18.19C288.91 18.78 277.63 19.97 267.99 20.83C258.34 21.69 241.66 23.27 230.91 24.34C220.16 25.41 198.97 27.42 183.81 28.81C168.65 30.2 151.29 31.78 145.23 32.33C139.17 32.87 128.35 33.82 121.18 34.42C114.02 35.03 107.59 35.71 106.9 35.93C106.05 36.21 106.56 37.55 108.49 40.1C110.05 42.17 113.15 46.56 115.36 49.87C117.58 53.18 121.08 59.04 123.14 62.9C125.2 66.76 128.2 71.15 129.8 72.67C131.4 74.18 134.68 79.82 137.09 85.19C139.5 90.57 142.87 99.02 144.58 103.98C146.29 108.94 148.78 118.64 150.13 125.53C151.48 132.42 153.11 141.21 153.75 145.07C154.62 150.3 154.65 158.98 153.88 179.14C153.31 194.02 152.64 207.33 152.4 208.7C152.15 210.08 151.43 214.82 150.78 219.23C150.14 223.63 149.18 230.17 148.66 233.76C148.13 237.34 147.82 240.4 147.97 240.56C148.12 240.71 152.52 240.39 157.76 239.83C162.99 239.28 178.33 238.13 191.83 237.29C205.33 236.45 220.44 235.32 225.4 234.78C230.36 234.24 239.15 233.3 244.94 232.7C250.73 232.1 260.65 230.77 266.99 229.74C273.32 228.71 282.12 227.58 286.53 227.23C290.94 226.89 302.21 225.52 311.58 224.21C320.95 222.89 338.76 221.33 351.16 220.75C363.56 220.16 376.98 219.24 380.97 218.7C384.97 218.16 393.43 217.72 399.76 217.72L411.29 217.72C411.24 193.26 410.82 183.22 410.32 179.64C409.82 176.06 408.68 167.72 407.78 161.1C406.87 154.49 405.27 145.02 404.22 140.06C403.16 135.1 400.92 125.85 399.25 119.52C397.57 113.18 395.04 104.16 393.62 99.47C392.2 94.79 389.89 87.35 388.48 82.94C387.07 78.53 384.25 71.31 382.2 66.91C380.16 62.5 375.67 53.93 372.22 47.87C368.77 41.8 363.92 33.24 361.44 28.83C358.96 24.42 355.74 19.13 354.3 17.07C352.85 15.02 350.95 13.33 350.08 13.31C349.2 13.3 348.3 13.49 348.07 13.73Z" />
		<path id="Path 4" class="shp2" d="M249.2 240.43L245.94 240.77C246.62 261.35 247.75 272.62 248.88 279.1C250.02 285.58 250.97 293.02 250.99 295.64C251.03 300.03 251.33 300.61 255 303.15L258.97 305.91C258.19 281.83 257.56 272.93 257.06 270.58C256.57 268.24 256.23 265.42 256.3 264.32C256.38 263.22 256.09 258.48 255.65 253.8C255.21 249.11 254.72 244.04 254.56 242.52C254.4 241.01 253.86 239.84 253.36 239.93C252.86 240.02 250.99 240.24 249.2 240.43Z" />
		<path id="Path 5" class="shp1" d="M12.95 257.33C14.06 258.13 17.44 259.07 20.47 259.4C23.5 259.74 26.66 260.04 27.48 260.07C28.31 260.1 30.23 260.06 31.74 259.97C33.26 259.88 34.51 259.47 34.53 259.06C34.54 258.65 33.42 257.74 32.02 257.05C30.53 256.32 25.68 255.81 20.22 255.83C11.84 255.86 11.14 256.01 12.95 257.33Z" />
		<path id="Path 6" class="shp4" d="M132.67 264.19C132.41 264.44 118 264.91 100.64 265.22C83.28 265.54 64.04 266.14 57.89 266.56C47.68 267.26 46.78 267.48 47.62 269.08C48.18 270.15 50.95 271.4 54.79 272.3C58.24 273.11 65.11 274.93 70.07 276.35C76.18 278.09 80.71 278.8 84.1 278.53C86.86 278.31 96.1 277.08 104.65 275.8C119.53 273.57 122.36 273.48 172.29 273.65C200.95 273.75 228 274.14 232.41 274.51C238.08 274.98 240.65 274.84 241.18 274.01C241.6 273.36 241.48 271.26 240.93 269.33C239.95 265.91 239.8 265.82 234.67 265.75C231.77 265.71 228.51 265.53 227.4 265.35C226.3 265.17 204.64 264.74 179.26 264.38C153.89 264.02 132.92 263.93 132.67 264.19Z" />
		<path id="Path 7" class="shp5" d="M13.99 271.08C14.62 274.53 17.05 283.21 19.37 290.37C21.7 297.54 25.43 307.01 27.66 311.42C29.89 315.83 33.33 322.37 35.3 325.95C37.26 329.53 40.55 334.94 42.59 337.97C44.64 341.01 48.39 345.74 50.93 348.5C53.48 351.25 55.55 353.84 55.55 354.26C55.55 354.67 56.22 355.24 57.05 355.51C58.03 355.84 58.31 355.58 57.86 354.76C57.48 354.07 55.35 350.8 53.14 347.49C50.92 344.19 48.84 341.26 48.51 340.98C48.19 340.7 46.52 337.77 44.81 334.47C43.09 331.16 40.32 325.75 38.63 322.44C36.95 319.13 33.36 311.47 30.64 305.41C27.92 299.34 25.38 292.8 25 290.88C24.61 288.95 23.62 285.34 22.8 282.86C21.98 280.38 20.17 275.64 18.77 272.34C17.38 269.03 15.72 265.99 15.1 265.59C14.47 265.18 13.7 264.84 13.39 264.84C13.09 264.83 13.35 267.64 13.99 271.08Z" />
		<path id="Path 8" class="shp4" d="M26.48 267.83C26.48 268.38 27.76 272.32 29.33 276.6C30.89 280.87 32.52 286.17 32.94 288.37C33.36 290.57 35.28 295.76 37.2 299.89C39.12 304.03 41.73 309.89 43.01 312.92C44.28 315.95 46.79 321.14 48.57 324.45C50.36 327.75 52.35 331.13 53.01 331.96C53.67 332.79 55.19 335.61 56.38 338.22C57.57 340.84 60.04 344.68 61.87 346.74C63.7 348.81 66.29 352.08 67.62 354.01C68.95 355.94 70.95 358.58 72.06 359.87C73.17 361.17 77.69 365.21 82.1 368.85C86.51 372.49 93.05 377.15 96.63 379.21C100.21 381.27 103.26 382.75 103.39 382.51C103.53 382.27 101.5 379.09 98.88 375.46C96.27 371.82 91.62 365.62 88.57 361.68C85.52 357.74 81.02 351.58 78.57 348C76.13 344.41 73.05 340.13 71.73 338.48C70.41 336.82 67.66 332.54 65.62 328.96C63.58 325.37 60.21 318.38 58.14 313.42C56.07 308.46 53.18 301.92 51.7 298.89C50.23 295.86 48.76 293.16 48.43 292.88C48.1 292.6 46.59 289.45 45.07 285.86C43.55 282.28 41.91 278.34 41.41 277.1C40.92 275.86 40.06 274.84 39.51 274.84C38.96 274.84 38.06 273.04 37.5 270.83L36.5 266.82C28.74 266.82 26.48 267.28 26.48 267.83ZM264.17 274.59L264.48 278.35C272.25 278.74 280.59 279.78 288.03 280.92C295.47 282.05 305.39 283.7 310.08 284.57C314.76 285.44 320.17 286.21 322.1 286.26C325.03 286.35 325.65 286 325.86 284.11C326.02 282.66 325.57 281.86 324.61 281.86C323.78 281.86 320.51 280.96 317.34 279.86C314.17 278.76 305.04 276.68 297.05 275.23C289.06 273.78 280.49 272.23 278.01 271.78C275.53 271.32 271.33 270.93 268.68 270.89L263.85 270.83L264.17 274.59Z" />
		<path id="Path 9" class="shp5" d="M52.2 280.35C51.83 280.63 52.21 281.53 53.04 282.36C53.86 283.18 54.77 283.86 55.04 283.86C55.32 283.86 58.14 285.39 61.3 287.26C64.47 289.13 70.22 291.62 74.08 292.81C77.94 293.99 89.89 296.77 100.64 298.98C111.38 301.2 120.4 303.18 120.68 303.38C120.95 303.58 124.56 304.47 128.7 305.36C132.83 306.25 139.82 307.42 144.23 307.95C148.64 308.48 154.95 309.56 158.26 310.36C161.56 311.15 168.33 312.68 173.29 313.76C178.25 314.84 186.82 316.46 192.33 317.38C197.84 318.29 205.96 319.68 210.37 320.48C214.78 321.27 223.8 322.8 230.41 323.88C237.02 324.96 251 326.74 261.47 327.83C271.95 328.92 291.56 330.3 305.07 330.89C318.57 331.48 342.24 332.16 357.68 332.39C373.11 332.63 390.02 332.39 395.25 331.86C400.49 331.34 405.36 330.36 406.08 329.68C406.8 329.01 407.84 326.88 408.41 324.95C408.97 323.02 409.29 321.35 409.11 321.24C408.93 321.13 394.8 321.47 377.72 321.99C356.04 322.66 342.26 322.61 332.12 321.84C324.13 321.23 311.96 320.57 305.07 320.37C298.18 320.17 289.83 319.78 286.53 319.49C283.22 319.21 277.13 318.72 273 318.41C268.86 318.11 258.04 317.18 248.95 316.35C239.85 315.53 227.9 314.39 222.39 313.83C216.88 313.27 205.38 311.7 196.84 310.33C188.3 308.97 178.83 307.42 175.79 306.89C172.76 306.36 166.45 305.45 161.77 304.88C157.08 304.3 146.93 302.29 139.22 300.4C131.5 298.52 122.48 296.53 119.18 295.98C115.87 295.43 107.98 293.83 101.64 292.42C95.3 291 84.25 288.47 77.09 286.78C69.92 285.09 61.75 282.84 58.93 281.78C56.1 280.72 53.59 279.85 53.33 279.85C53.08 279.85 52.57 280.08 52.2 280.35Z" />
		<path id="Path 10" class="shp1" d="M154.19 280.71C153.98 281.06 154.8 282.32 156.03 283.49C157.26 284.67 159.84 286.44 161.77 287.43C163.69 288.42 167.08 291.03 169.28 293.23C171.69 295.64 175.08 297.77 177.8 298.58C180.28 299.32 183.1 299.91 184.06 299.91C185.17 299.9 183.51 297.95 179.55 294.62C176.11 291.71 170.92 287.65 168.03 285.6C165.13 283.54 160.93 281.45 158.68 280.96C156.43 280.47 154.41 280.35 154.19 280.71Z" />
		<path id="Path 11" class="shp5" d="M342.63 280.9C342.36 281.43 343.61 282.46 345.4 283.2C347.19 283.94 355.2 288.29 363.19 292.87C371.18 297.46 379.3 302.38 381.23 303.81C383.15 305.24 385.3 306.97 385.99 307.66C386.67 308.35 387.8 308.92 388.49 308.94C389.18 308.95 390.87 309.84 392.25 310.92C393.63 312 395.43 312.87 396.26 312.87C397.37 312.86 397.22 312.41 395.68 311.13C394.53 310.19 392.51 308.62 391.17 307.64C389.83 306.67 386.26 304.24 383.23 302.25C380.2 300.25 371.86 295.23 364.69 291.09C357.53 286.95 349.74 282.74 347.39 281.75C344.92 280.71 342.91 280.35 342.63 280.9Z" />
		<path id="Path 12" class="shp4" d="M137.71 281.86C137.71 282.41 139.66 285.23 142.04 288.12C145.48 292.3 147.33 293.64 151.06 294.63C153.64 295.32 156.77 295.87 158.01 295.85C159.98 295.83 160.07 295.67 158.67 294.6C157.8 293.93 155.54 292.16 153.66 290.66C151.78 289.17 147.99 286.35 145.23 284.4C142.47 282.45 139.66 280.85 138.97 280.85C138.28 280.85 137.71 281.31 137.71 281.86Z" />
		<path id="Path 13" class="shp1" d="M116.18 282.55C115.08 282.8 114.28 283.31 114.39 283.68C114.51 284.06 115.41 285.14 116.39 286.1C117.52 287.2 120.73 288.12 125.12 288.6L132.07 289.37C127.39 282.18 126.83 281.89 122.68 281.98C120.2 282.04 117.28 282.3 116.18 282.55Z" />
		<path id="Path 14" class="shp4" d="M178.82 283.47C179.64 284.35 184.55 288.3 189.74 292.24C194.93 296.17 199.66 300.16 200.26 301.09C201 302.24 203.76 303.12 208.86 303.84C213 304.42 216.61 304.67 216.88 304.4C217.16 304.12 217.16 303.75 216.88 303.57C216.61 303.39 213.45 301.26 209.87 298.83C206.28 296.4 201.54 292.61 199.32 290.39C197.1 288.18 193.95 285.34 192.31 284.08C189.95 282.27 188.07 281.79 183.33 281.82C177.87 281.85 177.47 282 178.82 283.47Z" />
		<path id="Path 15" class="shp1" d="M205.04 284.59C206.52 286.12 211.63 290.07 216.39 293.38C221.16 296.69 227.27 301.08 229.99 303.15C233.52 305.84 235.76 306.84 237.87 306.66L240.82 306.41C234.3 298.78 229.26 293.24 225.4 289.18L218.38 281.79L202.35 281.81L205.04 284.59Z" />
		<path id="Path 16" class="shp4" d="M95.68 283.81C95.65 284.39 96.3 285.09 97.13 285.36C97.96 285.64 100.49 285.86 102.76 285.86C105.63 285.86 106.75 285.48 106.44 284.61C106.18 283.89 103.82 283.23 100.86 283.06C97.77 282.87 95.71 283.17 95.68 283.81ZM232.43 284.63C232.99 285.03 236.14 288.52 239.44 292.38C242.74 296.24 246.12 299.81 246.94 300.32C247.77 300.83 250.03 302.93 251.95 304.98C255.18 308.42 256.11 308.81 263.48 309.76C267.89 310.34 271.83 310.49 272.24 310.11C272.65 309.73 271.31 307.61 269.25 305.41L265.51 301.4C264.71 305.93 264.03 307.41 263.48 307.62C262.93 307.82 259.32 305.9 255.46 303.34C251.6 300.78 247.43 297.61 246.19 296.29C244.95 294.96 243.94 292.75 243.94 291.38C243.94 290 243.37 287.73 242.69 286.34C241.59 284.12 240.81 283.81 236.42 283.85C233.67 283.87 231.87 284.22 232.43 284.63ZM334.07 285.9C334.1 286.43 335.59 288.25 337.38 289.95C339.17 291.64 343.57 295.01 347.15 297.42C350.74 299.84 357.73 304.55 362.69 307.88C371.29 313.67 371.96 313.94 377.22 313.69L382.73 313.42C370.3 304.37 363.31 299.88 359.18 297.6C355.05 295.33 347.69 291.54 342.84 289.2C337.99 286.85 334.04 285.37 334.07 285.9Z" />
		<path id="Path 17" class="shp1" d="M263.95 288.62C263.93 290.39 264.92 292.28 266.71 293.89C268.24 295.27 273.1 299.6 277.51 303.51L285.52 310.63C294.84 310.66 298.56 310.95 299.8 311.3C301.04 311.64 302.28 311.47 302.56 310.92C302.84 310.37 297.81 306.87 291.38 303.15C284.96 299.43 279.08 295.48 278.31 294.38C277.54 293.28 274.79 290.9 272.2 289.1C269.61 287.3 266.7 285.83 265.73 285.84C264.5 285.86 263.97 286.68 263.95 288.62Z" />
		<path id="Path 18" class="shp4" d="M284.52 289.38C285.63 290.26 292.16 294.34 299.05 298.45C305.94 302.56 313.38 307.48 315.59 309.39C318.62 312 320.82 312.98 324.61 313.4C327.36 313.71 329.73 313.72 329.87 313.44C330.01 313.15 327.34 311.46 323.93 309.66C320.53 307.87 314.56 303.56 310.66 300.07C306.75 296.58 301.31 292.67 298.55 291.37C295.8 290.08 291.06 288.74 288.03 288.4C282.86 287.82 282.64 287.88 284.52 289.38Z" />
		<path id="Path 19" class="shp1" d="M315.2 293.28C315.14 293.61 317.57 295.69 320.6 297.89C323.63 300.09 328.14 302.8 330.62 303.9C333.1 305 337.27 307.92 339.89 310.38C344.26 314.49 345.08 314.86 349.91 314.89C352.8 314.91 355.39 314.59 355.65 314.17C355.91 313.76 353.99 311.97 351.39 310.2C348.78 308.43 344.12 305.27 341.03 303.19C337.94 301.1 334.55 298.54 333.51 297.5C332.47 296.46 330.72 295.27 329.62 294.87C328.51 294.46 324.84 293.8 321.46 293.41C318.08 293.01 315.26 292.95 315.2 293.28Z" />
		<path id="Path 20" class="shp4" d="M60.57 297.64C60.58 298.05 60.92 298.86 61.32 299.43C61.73 300 64.76 302.55 68.07 305.1C71.38 307.64 77.24 311.05 81.1 312.67C84.95 314.29 93.75 317.03 100.64 318.75C107.53 320.47 120.6 323.67 129.7 325.85C138.79 328.03 148.71 330.11 151.74 330.46C154.78 330.81 162.67 331.99 169.28 333.09C175.9 334.18 186.04 335.94 191.83 337C197.62 338.06 210.47 339.62 220.39 340.47C230.31 341.31 242.48 342.66 247.45 343.47C252.41 344.28 261.88 345.42 268.49 346C275.1 346.58 289.53 347.12 300.56 347.2C311.58 347.27 327.59 346.81 336.13 346.16C344.67 345.5 357.87 344.41 365.45 343.73C373.04 343.04 379.24 342.15 379.23 341.73C379.23 341.32 375.95 340.97 371.96 340.96C367.96 340.94 348.23 340.49 328.11 339.95C308 339.42 286.35 338.54 280.01 338.01C273.67 337.47 262.4 336.35 254.96 335.51C247.52 334.67 235.57 333.06 228.41 331.93C221.24 330.81 212.22 329.26 208.36 328.5C204.5 327.73 196.61 326.33 190.83 325.38C185.04 324.43 172.41 321.92 162.77 319.8C153.12 317.68 143.88 315.95 142.22 315.95C140.57 315.95 135.84 315.24 131.7 314.36C127.57 313.49 121.93 312.15 119.18 311.38C116.42 310.62 107.18 308.61 98.63 306.93C90.09 305.25 79.49 302.91 75.08 301.74C70.67 300.57 65.83 299 64.31 298.25C62.8 297.5 61.33 296.89 61.05 296.89C60.78 296.89 60.56 297.23 60.57 297.64Z" />
		<path id="Path 21" class="shp1" d="M68.99 316.83C68.79 317.16 69.36 318.78 70.25 320.44C71.15 322.09 72.6 323.96 73.48 324.59C74.36 325.22 76.44 326.98 78.09 328.5C79.74 330.03 82.9 332.04 85.1 332.97C87.31 333.9 94.07 336.11 100.14 337.88C106.2 339.64 112.74 341.69 114.67 342.43C116.6 343.17 122.68 344.75 128.2 345.95C133.71 347.15 141.37 348.51 145.23 348.97C149.09 349.43 159.91 350.97 169.28 352.4C178.65 353.83 189.7 355.65 193.83 356.45C197.97 357.25 205.86 358.6 211.37 359.45C216.88 360.31 231.54 361.47 243.94 362.05C256.34 362.63 278.89 363.52 294.04 364.04C311.04 364.61 331.39 364.62 347.15 364.04C361.21 363.53 373.01 362.76 373.38 362.32C373.75 361.88 374.43 359.13 374.89 356.21L375.71 350.9C371.05 351.79 362.04 352.5 352.67 353.06C343.3 353.62 330.22 354.52 323.6 355.07C316.99 355.61 304.14 355.79 295.04 355.47C285.95 355.15 271.07 354.21 261.98 353.38C252.88 352.56 245.1 351.68 244.69 351.44C244.28 351.2 234.58 350.12 223.14 349.03C211.71 347.95 191.08 345.21 177.3 342.94C163.52 340.67 146.83 337.76 140.22 336.46C133.61 335.16 122.78 332.76 116.17 331.12C109.56 329.49 99.41 326.93 93.62 325.43C87.84 323.94 80 321.25 76.22 319.47C72.44 317.69 69.18 316.5 68.99 316.83Z" />
		<path id="Path 22" class="shp4" d="M86.07 344.61C87.06 346.19 89.05 348.74 90.5 350.27C91.94 351.8 93.69 353.04 94.37 353.03C95.06 353.02 97.77 354.08 100.39 355.39C103 356.7 107.63 358.48 110.66 359.34C113.69 360.2 120.9 361.86 126.69 363.02C132.48 364.19 143.08 366.44 150.24 368.03C157.41 369.63 167.33 371.19 172.29 371.51C177.25 371.83 185.59 372.51 190.83 373.02C196.06 373.54 206.66 374.67 214.38 375.53C222.09 376.4 235.39 377.78 243.94 378.59C253.94 379.55 278.03 380.31 311.58 380.72L363.69 381.37C367.13 375.31 368.15 373.1 368.17 372.55C368.19 371.89 361.25 371.79 347.91 372.26C336.75 372.65 316.56 372.75 303.06 372.49C289.56 372.23 271.75 371.57 263.48 371.03C255.21 370.48 239.88 369.56 229.41 368.98C218.94 368.4 206.99 367.27 202.85 366.46C198.72 365.65 191.5 364.36 186.82 363.59C182.13 362.81 170.41 361.01 160.76 359.58C151.12 358.15 138.94 356.25 133.71 355.35C128.47 354.45 121.48 352.94 118.17 351.98C114.87 351.02 106.98 348.66 100.64 346.75C94.3 344.84 88.02 342.92 86.69 342.5L84.27 341.72L86.07 344.61Z" />
		<path id="Path 23" class="shp1" d="M103.31 367.18C103.68 367.93 105.37 370.33 107.07 372.51C108.77 374.7 112.64 378.89 115.67 381.82C119.12 385.17 124.17 388.6 129.2 391.02C133.61 393.15 139.02 395.42 141.22 396.06C143.43 396.71 147.49 397.89 150.24 398.68C153 399.47 162.02 401.03 170.28 402.14C178.55 403.25 190.73 404.79 197.34 405.56C203.95 406.33 215.23 407.45 222.39 408.05C229.56 408.64 239.25 409.12 243.94 409.11C249.35 409.09 254.1 409.68 256.96 410.71C259.98 411.8 266.3 412.52 276 412.87C284.4 413.18 295.41 412.9 302.06 412.2C308.4 411.54 316.97 410.07 321.1 408.95C325.23 407.82 331.32 405.78 334.63 404.41C337.93 403.05 343.23 400.28 346.39 398.26C349.56 396.24 352.14 393.92 352.14 393.09C352.13 392.26 352.7 390.98 353.4 390.23C354.46 389.1 353.44 388.96 347.15 389.36C343.02 389.63 322.05 389.45 300.56 388.97C279.06 388.49 255.16 387.6 247.45 387C239.73 386.39 225.75 385.02 216.38 383.95C207.01 382.88 194.61 381.56 188.82 381.03C183.03 380.49 173.34 379.61 167.28 379.08C161.21 378.55 153.77 377.42 150.74 376.59C147.71 375.75 141.85 374.41 137.71 373.61C133.58 372.8 124.79 370.99 118.17 369.58C111.56 368.17 105.36 366.74 104.4 366.42C103.15 365.99 102.84 366.21 103.31 367.18Z" />
	</g>
	<text id="2:1 " style="transform: matrix(0.995,-0.105,0.105,0.995,197.956,226.401)" >
		<tspan x="0" y="0" class="txt6">2:1</tspan>
	</text>
	<g id="stone">
		<path id="Path 0" class="shp0" d="M265.01 29.17C264.87 29.35 263.8 29.78 262.62 30.13C261.45 30.47 259.27 31.52 257.78 32.44C256.3 33.37 254.86 34.15 254.58 34.17C254.3 34.2 253.03 35.13 251.75 36.23C250.48 37.34 248.55 39.47 247.47 40.98C246.38 42.49 245.09 44.53 244.6 45.53C244.11 46.52 243.35 47.6 242.91 47.94C242.47 48.27 242.15 48.84 242.19 49.21C242.23 49.58 241.77 50.86 241.16 52.05C240.55 53.25 239.52 54.28 238.87 54.35C238.22 54.41 236.13 55.19 234.22 56.07C231.34 57.41 230.57 58.14 229.77 60.35C229.24 61.81 228.76 63.71 228.7 64.56C228.63 65.4 228.74 67.69 228.94 69.63C229.26 72.75 229.12 73.22 227.82 73.62C227.01 73.87 222.75 74.83 218.37 75.77C213.54 76.79 209.39 78.07 207.85 79C206.45 79.84 204.21 81.72 202.88 83.16C201.55 84.6 199.28 88.04 197.83 90.8C196.29 93.76 194.75 98.12 194.1 101.4C193.28 105.54 193.19 107.74 193.75 109.95C194.31 112.16 194.25 113.39 193.55 114.74C192.86 116.05 192.78 117.51 193.26 120C193.78 122.7 194.4 123.84 196.18 125.33C197.42 126.37 199.08 127.48 199.87 127.79C200.65 128.09 204.08 128.63 207.49 128.98C211.64 129.4 216.48 129.32 222.1 128.72C228.63 128.03 231.55 127.41 235.18 125.93C239.42 124.2 239.97 124.11 241.19 124.93C241.93 125.43 243.4 126.1 244.47 126.43C245.54 126.75 248.15 126.82 250.28 126.58C252.69 126.31 255.91 126.58 258.87 127.29C261.94 128.03 265 128.27 267.63 127.97C270.26 127.66 272.48 126.96 274.03 125.93C275.33 125.07 276.96 123.73 277.65 122.96C278.33 122.19 279.04 121.01 279.22 120.33C279.39 119.66 279.84 119.07 280.21 119.03C280.58 118.98 281.42 119.65 282.08 120.51C282.74 121.37 284.98 122.8 287.04 123.68C290.62 125.2 291.18 125.23 298.53 124.38C304.17 123.73 307.3 123.02 310.14 121.77C312.28 120.83 315.17 119.31 316.56 118.39C317.95 117.47 319.55 116.1 320.11 115.34C320.67 114.58 321.28 113.02 321.46 111.88C321.68 110.47 322.26 109.69 323.23 109.46C324.03 109.28 324.71 109.35 324.75 109.63C324.79 109.9 324.44 110.79 323.98 111.59C323.51 112.39 323.22 113.96 323.32 115.07C323.47 116.58 323.97 117.25 325.31 117.73C326.3 118.08 328.33 118.46 329.83 118.57C332.19 118.74 332.75 118.52 334.08 116.89C334.92 115.86 335.56 114.71 335.51 114.34C335.45 113.97 338.18 113.1 341.56 112.4C344.95 111.71 348.07 110.73 348.5 110.24C348.92 109.75 349.1 107.99 348.89 106.33C348.68 104.67 347.86 102.46 347.07 101.43C346.27 100.4 344.43 99 342.97 98.33L340.31 97.11C339.3 88.14 338.45 84.66 337.47 82.46C336.59 80.5 334.73 77.65 333.34 76.13C331.46 74.08 330.42 72.07 329.34 68.42C328.54 65.7 327.27 62.71 326.51 61.77C325.76 60.82 323.02 58.29 320.43 56.13C316.96 53.23 314.75 51.97 312.04 51.31C310.02 50.82 307.09 50.33 305.54 50.23C303.51 50.1 302.41 49.6 301.66 48.47C301.08 47.6 299.52 45.79 298.2 44.44C296.88 43.1 295.03 41.22 294.08 40.28C293.13 39.33 291.49 37.84 290.42 36.96C289.36 36.08 285.96 34.48 282.86 33.41C279.77 32.34 276.28 31.1 275.11 30.65C273.93 30.21 271.56 29.59 269.84 29.27C268.12 28.95 266.38 28.73 265.98 28.77C265.58 28.81 265.14 28.99 265.01 29.17Z" />
		<path id="Path 1" class="shp7" d="M260.51 33.95C257.66 35.23 254.98 36.67 254.55 37.14C254.12 37.61 254.04 38.18 254.36 38.41C254.68 38.63 256.55 39.45 258.51 40.23C260.47 41 263.36 42.13 264.93 42.73C266.5 43.33 268.2 44.16 268.72 44.59C269.23 45.01 269.94 45.17 270.29 44.94C270.64 44.72 270.96 44.83 271 45.2C271.04 45.57 271.31 45.85 271.58 45.82C271.86 45.78 271.87 44.48 271.61 42.92C271.35 41.36 270.57 38.31 269.89 36.14C269.2 33.97 268.28 32.02 267.83 31.79C267.39 31.57 266.72 31.44 266.35 31.5C265.99 31.56 263.36 32.66 260.51 33.95Z" />
		<path id="Path 2" class="shp8" d="M271.83 37.79C272.35 40.82 273.07 44.18 273.43 45.26C273.79 46.34 274.62 48.16 275.28 49.3C275.94 50.44 276.51 51.68 276.56 52.05C276.6 52.42 276.94 52.69 277.31 52.64C277.68 52.6 278.05 53.09 278.14 53.74C278.22 54.38 278.72 55.39 279.24 55.97C280.11 56.93 280.32 56.82 281.6 54.68C282.38 53.38 284.09 50.21 285.41 47.62C286.72 45.04 287.77 42.7 287.72 42.42C287.68 42.14 287.88 42.01 288.18 42.13C288.47 42.25 288.6 41.39 288.47 40.23C288.23 38.21 287.85 37.96 280.39 35.14C276.08 33.5 272.18 32.19 271.73 32.22C271.1 32.27 271.13 33.69 271.83 37.79Z" />
		<path id="Path 3" class="shp0" d="M270.54 37.26C270.37 37.93 270.43 38.92 270.68 39.45C270.93 39.99 271.43 40.39 271.8 40.34C272.17 40.3 272.41 39.89 272.33 39.43C272.25 38.97 271.89 38.02 271.52 37.31C270.92 36.14 270.83 36.13 270.54 37.26Z" />
		<path id="Path 4" class="shp9" d="M249.8 40.94C249.13 41.38 248.66 42.09 248.76 42.53C248.86 42.97 248.24 44.39 247.37 45.69C246.51 47 245.16 49.12 244.37 50.41L242.94 52.75C248.59 51.4 252.01 50.52 254.19 49.92C256.48 49.3 259.31 48.95 260.9 49.11C262.66 49.28 264.47 50.1 265.9 51.37C267.34 52.65 267.9 52.9 267.47 52.08C266.95 51.09 267.34 51.21 269.13 52.57C270.42 53.54 272.25 55.32 273.19 56.52C274.14 57.72 275.04 59.15 275.19 59.7C275.34 60.24 275.85 62.33 276.32 64.33C276.8 66.33 277.32 68.11 277.49 68.28C277.65 68.45 277.91 68.42 278.05 68.22C278.2 68.01 278.33 67.18 278.35 66.37C278.37 65.57 278.59 64.62 278.84 64.28C279.09 63.93 279.12 62.21 278.91 60.46C278.7 58.7 278.2 57.15 277.81 57.01C277.42 56.87 276.19 54.82 275.07 52.47C273.36 48.83 272.7 48.08 270.76 47.52C269.25 47.08 268.61 46.55 268.87 45.96C269.1 45.44 269.01 45.27 268.65 45.55C268.31 45.82 267.06 45.59 265.88 45.03C264.69 44.48 263.08 43.82 262.3 43.58C261.53 43.34 259.69 42.55 258.21 41.83C256.74 41.11 255.63 40.36 255.74 40.16C255.86 39.96 254.84 39.87 253.48 39.97C252.13 40.07 250.47 40.51 249.8 40.94Z" />
		<path id="Path 5" class="shp0" d="M255.87 39.97C255.65 40.28 256.69 41.07 258.17 41.73C259.65 42.39 261.4 42.87 262.04 42.81C262.69 42.75 263.26 43 263.3 43.37C263.34 43.74 264.34 44.39 265.51 44.81C266.68 45.24 267.94 45.55 268.31 45.51C268.68 45.47 268.8 45.15 268.57 44.8C268.34 44.45 267.44 43.94 266.57 43.66C265.69 43.38 263.19 42.3 261.02 41.26C258.84 40.23 256.88 39.39 256.66 39.4C256.44 39.41 256.09 39.67 255.87 39.97Z" />
		<path id="Path 6" class="shp10" d="M289.82 42.18C289.44 42.88 287.28 47.18 285.03 51.75L280.92 60.05C282.97 63.51 284.6 66.5 285.88 68.93L288.21 73.35C293.6 72.06 297.25 70.54 299.81 69.15L304.45 66.62C304.18 61.57 303.6 58.63 302.99 56.82C302.37 55.02 300.92 52.13 299.76 50.39C298.59 48.65 296.28 45.78 294.62 44.01C292.96 42.23 291.35 40.81 291.05 40.84C290.75 40.88 290.2 41.48 289.82 42.18Z" />
		<path id="Path 7" class="shp8" d="M254.07 51.89C253.56 52.29 251.21 53.18 248.86 53.87C246.5 54.56 243.53 55.38 242.26 55.69C240.98 56 238.99 56.75 237.83 57.36L235.73 58.47C241.37 63.62 244.44 66.17 246.2 67.47L249.4 69.82C253.49 66.82 255.31 65.23 256.09 64.36C256.86 63.48 257.74 62.12 258.04 61.34C258.34 60.55 258.61 59.45 258.65 58.88C258.68 58.32 258.76 56.47 258.83 54.78C258.95 51.94 258.83 51.67 257.32 51.39C256.42 51.22 255.53 51.1 255.35 51.12C255.16 51.15 254.59 51.5 254.07 51.89Z" />
		<path id="Path 8" class="shp10" d="M260.44 51.68C260.2 51.93 260.16 53.07 260.35 54.2C260.54 55.34 260.51 57.51 260.27 59.04C260.04 60.56 259.49 62.39 259.04 63.09C258.32 64.24 258.57 64.63 261.4 66.72C263.14 68 264.94 69.02 265.41 68.98C265.87 68.93 268.4 69.59 271.02 70.43L275.79 71.97C274.07 64.45 273.07 61.13 272.47 59.74C271.74 58.07 270.25 56.51 268.06 55.12C266.24 53.96 263.88 52.6 262.82 52.11C261.76 51.61 260.69 51.42 260.44 51.68ZM232.57 60.19C232.64 60.84 233.35 61.14 234.53 61.02C236.2 60.85 236.27 60.74 235.25 59.88C234.63 59.36 233.75 58.99 233.29 59.06C232.83 59.13 232.5 59.64 232.57 60.19Z" />
		<path id="Path 9" class="shp7" d="M304.68 53.98C305.04 54.65 305.24 55.51 305.13 55.9C305.02 56.28 305.37 56.93 305.9 57.32C306.67 57.9 307.3 57.59 308.99 55.8C310.16 54.57 310.81 53.56 310.43 53.56C310.06 53.56 309.28 53.49 308.71 53.4C308.14 53.32 306.85 53.14 305.85 53.01C304.27 52.8 304.12 52.93 304.68 53.98Z" />
		<path id="Path 10" class="shp9" d="M232.17 62.62C232.21 62.99 231.92 63.18 231.53 63.04C231.14 62.89 230.91 63.53 231.02 64.46C231.12 65.38 230.91 66.17 230.54 66.21C230.17 66.26 229.94 66.9 230.02 67.64C230.11 68.37 230.54 69.17 230.99 69.4C231.51 69.66 231.77 70.87 231.72 72.72C231.67 74.31 231.86 75.71 232.16 75.81C232.45 75.92 233.02 77 233.42 78.22C233.91 79.68 235.11 81.02 236.94 82.15C238.47 83.09 239.79 83.78 239.87 83.68C239.96 83.58 240.93 84.02 242.03 84.65C243.13 85.29 244.41 85.75 244.87 85.69C245.33 85.62 246.75 85.95 248.02 86.41C249.29 86.87 251.1 87.28 252.04 87.31C252.98 87.35 254.44 87.45 255.3 87.53C256.38 87.64 257 87.25 257.36 86.26C257.65 85.48 257.86 84.69 257.84 84.51C257.82 84.32 257.43 84.29 256.98 84.44C256.53 84.58 256.18 84.16 256.19 83.5C256.21 82.85 255.89 82.43 255.48 82.57C255.06 82.71 253.34 80.99 251.65 78.75C249.95 76.52 248.5 74.16 248.41 73.51C248.33 72.86 247.95 72.22 247.55 72.08C247.16 71.94 246.76 71.06 246.65 70.14C246.54 69.22 246.17 68.65 245.82 68.87C245.47 69.1 244.63 68.43 243.95 67.39C243.27 66.34 242.33 65.52 241.87 65.56C241.4 65.6 240.21 64.89 239.22 63.99C238.23 63.09 237.65 62.71 237.93 63.15C238.22 63.59 237.35 63.47 235.94 62.87C234.56 62.28 233.13 61.83 232.76 61.87C232.39 61.92 232.12 62.25 232.17 62.62Z" />
		<path id="Path 11" class="shp8" d="M309.53 57.56C307.83 59.06 306.29 60.66 306.1 61.12C305.9 61.58 305.93 63 306.14 64.29L306.54 66.63C319.49 64.82 323.48 64.05 323.76 63.75C324.04 63.46 323.45 62.33 322.45 61.24C321.44 60.15 320.41 59.43 320.15 59.63C319.9 59.84 319.63 59.63 319.56 59.17C319.49 58.71 318.28 57.47 316.86 56.41C315.44 55.36 313.91 54.57 313.45 54.67C313 54.76 311.23 56.06 309.53 57.56Z" />
		<path id="Path 12" class="shp0" d="M243.42 66.76C244.17 67.8 245.15 68.6 245.62 68.55C246.08 68.5 246.44 68.31 246.42 68.12C246.4 67.94 245.6 67.11 244.65 66.29C243.7 65.46 242.73 64.81 242.5 64.83C242.26 64.86 242.67 65.73 243.42 66.76Z" />
		<path id="Path 13" class="shp11" d="M253.04 69.11C250.97 70.46 249.35 71.7 249.44 71.87C249.54 72.04 250.46 73.62 251.51 75.38C252.56 77.14 253.64 78.54 253.91 78.51C254.19 78.47 254.33 79.06 254.24 79.82C254.13 80.61 254.33 81.02 254.69 80.79C255.04 80.56 255.35 80.6 255.39 80.87C255.43 81.15 256.57 82.35 257.92 83.55C260.05 85.43 260.57 85.61 261.97 84.89C262.85 84.43 264.47 83.82 265.56 83.53C266.65 83.24 268.13 82.81 268.85 82.58C269.57 82.34 271.44 80.6 273 78.71C274.56 76.82 275.69 74.91 275.51 74.47C275.33 74.02 273.77 73.13 272.05 72.49C270.32 71.85 267.82 71.15 266.48 70.94C265.15 70.72 262.72 69.62 261.1 68.5C259.47 67.38 257.84 66.5 257.47 66.55C257.1 66.61 255.11 67.76 253.04 69.11ZM280.56 65.02C280.44 65.7 280.25 67.33 280.14 68.65C280.03 69.98 279.59 71.71 279.17 72.51C278.74 73.31 278.43 74.19 278.46 74.47C278.5 74.74 280.34 74.76 282.56 74.5L286.59 74.04C285.2 70.77 284.23 68.97 283.53 67.92C282.84 66.88 282.25 65.66 282.24 65.22C282.22 64.77 281.89 64.27 281.49 64.1C281.1 63.93 280.68 64.35 280.56 65.02Z" />
		<path id="Path 14" class="shp8" d="M220.29 77.68C216.81 78.39 213.76 79.23 213.51 79.56C213.26 79.88 213.12 81.98 213.19 84.22C213.27 86.49 213.67 88.62 214.1 89.05C214.53 89.47 215.4 89.62 216.03 89.39C216.65 89.16 218.32 88.32 219.72 87.52C221.67 86.42 223.26 86.07 226.36 86.06C230.11 86.04 230.52 85.9 231.38 84.36C232.15 82.99 232.14 82.16 231.31 79.74C230.76 78.12 229.92 76.61 229.45 76.39C228.99 76.17 228.15 76.08 227.61 76.19C227.06 76.3 223.76 76.97 220.29 77.68Z" />
		<path id="Path 15" class="shp11" d="M313.25 66.87C312.53 67.21 313.17 67.99 315.67 69.83C317.81 71.41 318.92 72.66 318.67 73.23C318.43 73.76 318.51 73.9 318.88 73.57C319.21 73.26 320.89 74.66 322.64 76.7C324.37 78.73 326.16 80.35 326.63 80.3C327.11 80.25 327.39 79.28 327.29 78.02C327.2 76.81 327.06 75.6 326.98 75.33C326.91 75.06 327.15 74.8 327.52 74.76C327.89 74.71 328.15 74.38 328.11 74.01C328.07 73.64 327.82 73.48 327.56 73.66C327.3 73.85 326.87 72.13 326.61 69.86L326.13 65.73C316.9 66.26 313.78 66.62 313.25 66.87Z" />
		<path id="Path 16" class="shp7" d="M209.24 80.76C208.42 80.95 207.8 81.48 207.87 81.94C207.93 82.4 208.79 83.22 209.78 83.76C210.77 84.3 211.54 84.44 211.5 84.07C211.45 83.7 211.74 83.52 212.13 83.66C212.52 83.8 212.84 83.84 212.84 83.75C212.84 83.65 212.37 82.87 211.79 82C211.07 80.91 210.26 80.52 209.24 80.76Z" />
		<path id="Path 17" class="shp8" d="M302.69 69.91C301.92 70.18 301.16 70.85 300.99 71.4C300.82 72 301.84 73.42 303.54 74.91C305.1 76.28 306.89 77.84 307.51 78.38C308.14 78.92 309.08 80.07 309.62 80.93C310.16 81.79 310.85 83.16 311.16 83.96C311.5 84.84 311.44 85.33 311.02 85.17C310.63 85.03 310.38 85.44 310.47 86.09C310.55 86.73 311.05 87.7 311.57 88.24C312.08 88.78 313.95 89.76 315.71 90.41C317.47 91.06 319.17 91.9 319.49 92.28C319.82 92.68 320.04 92.69 320.01 92.3C319.98 91.93 320.22 91.99 320.55 92.43C320.87 92.87 322.37 93.28 323.88 93.34C326.36 93.44 326.72 93.26 327.72 91.35C328.32 90.19 329.11 89.02 329.46 88.74C329.84 88.43 329.62 88.05 328.92 87.78C328.27 87.53 326.85 86.05 325.77 84.49C324.69 82.93 322.85 80.46 321.67 79.01C320.49 77.55 317.9 75.09 315.91 73.54C313.91 72 311.66 70.36 310.89 69.91C310.13 69.45 308.28 69.16 306.8 69.25C305.31 69.34 303.46 69.63 302.69 69.91Z" />
		<path id="Path 18" class="shp9" d="M316.56 71.26C317.39 71.93 318.22 72.47 318.4 72.45C318.58 72.43 318.19 71.85 317.52 71.17C316.85 70.48 316.02 69.95 315.68 69.97C315.34 70 315.73 70.58 316.56 71.26ZM204.31 85.43C203.67 86.15 202.27 88.22 201.2 90.03C200.12 91.84 198.72 94.68 198.09 96.34C197.45 98.01 197.11 99.66 197.34 100C197.57 100.35 198.43 100.56 199.26 100.47C200.1 100.38 202.1 101.17 203.72 102.23C206.4 103.98 206.81 104.06 208.25 103.1C209.12 102.52 210.55 101.68 211.44 101.23C212.91 100.48 213.03 99.94 212.92 94.72C212.81 89.87 212.59 88.8 211.45 87.48C210.71 86.63 209.59 85.53 208.97 85.04C208.35 84.55 207.31 84.14 206.66 84.13C206.01 84.12 204.96 84.7 204.31 85.43Z" />
		<path id="Path 19" class="shp7" d="M294.7 74.08C294.57 74.25 292.96 74.74 291.14 75.16C289.32 75.58 285.88 76.31 283.5 76.79C281.12 77.27 278.23 78.07 277.07 78.57C275.91 79.06 275.07 79.79 275.21 80.19C275.35 80.59 277.07 81.52 279.03 82.27C280.99 83.02 282.69 83.87 282.82 84.15C282.94 84.43 283.77 84.19 284.65 83.62C285.53 83.05 286.22 82.36 286.17 82.08C286.13 81.81 286.75 81.3 287.55 80.95C288.36 80.59 289.31 80.21 289.67 80.09C290.03 79.97 291.05 79.49 291.93 79.02C292.81 78.56 293.78 77.65 294.08 77.01C294.38 76.36 294.47 75.84 294.29 75.86C294.1 75.88 294.37 75.56 294.88 75.15C295.4 74.74 295.62 74.26 295.38 74.08C295.15 73.9 294.84 73.9 294.7 74.08Z" />
		<path id="Path 20" class="shp10" d="M296.52 75.97C295.98 76.98 295.7 77.91 295.9 78.04C296.1 78.16 297.95 78.29 300.02 78.32L303.77 78.36C300.82 75.67 299.63 74.7 299.23 74.47C298.83 74.23 298.28 74.06 298.01 74.09C297.74 74.12 297.07 74.96 296.52 75.97Z" />
		<path id="Path 21" class="shp0" d="M213.93 86.51C214.03 87.44 214.22 87.72 214.34 87.15C214.47 86.57 214.38 85.82 214.15 85.47C213.92 85.12 213.82 85.59 213.93 86.51Z" />
		<path id="Path 22" class="shp11" d="M233.33 86C232.79 86.98 232.38 88.09 232.43 88.46C232.47 88.83 232.2 89.17 231.83 89.21C231.46 89.25 231.2 89.59 231.24 89.96C231.28 90.33 231.6 90.45 231.95 90.22C232.37 89.94 232.42 90.39 232.1 91.56C231.84 92.53 231.56 94.09 231.48 95.04C231.37 96.42 231.8 96.97 233.68 97.82C234.96 98.41 236.93 99.56 238.06 100.38C239.18 101.2 241.56 103.85 243.33 106.26C245.92 109.78 246.64 111.33 246.95 114.02C247.22 116.38 247.58 117.28 248.15 117.05C248.6 116.88 248.93 116.41 248.88 116.01C248.84 115.61 249.01 115 249.26 114.66C249.51 114.32 249.65 113.51 249.56 112.86C249.48 112.22 250.41 110.39 251.63 108.81C252.85 107.22 254.49 105.5 255.27 104.98C256.05 104.46 256.66 103.66 256.62 103.2C256.57 102.74 255.99 101.5 255.31 100.46C254.64 99.41 254.2 98.31 254.33 98.02C254.46 97.72 254.27 97.51 253.9 97.56C253.53 97.6 252.47 96.34 251.54 94.77C250.55 93.09 249.27 91.82 248.46 91.72C247.7 91.62 246.88 91.1 246.63 90.57C246.38 90.03 243.66 88.35 240.58 86.83C237.5 85.31 234.83 84.09 234.65 84.13C234.47 84.17 233.87 85.01 233.33 86Z" />
		<path id="Path 23" class="shp0" d="M256.08 83.35C255.9 84.01 256.16 84.36 256.79 84.29C257.35 84.22 257.8 83.88 257.8 83.53C257.79 83.18 257.47 82.76 257.09 82.59C256.7 82.43 256.25 82.77 256.08 83.35Z" />
		<path id="Path 24" class="shp7" d="M219.2 90.56C216.88 92.07 216.46 92.61 217.29 92.99C217.88 93.25 219.65 93.33 221.22 93.15C222.87 92.97 225.02 92.14 226.28 91.22C227.49 90.33 228.44 89.3 228.4 88.93C228.35 88.56 227.87 88.31 227.31 88.37C226.76 88.44 225.38 88.52 224.24 88.56C223.11 88.59 220.84 89.5 219.2 90.56Z" />
		<path id="Path 25" class="shp8" d="M271.69 83.61C271.02 84.23 267.43 85.7 263.73 86.88C260.03 88.06 255.49 89.2 253.64 89.42C251.79 89.63 250.32 90.11 250.36 90.48C250.4 90.85 251.17 91.49 252.06 91.9C252.95 92.32 255.36 92.68 257.43 92.7C259.49 92.72 261.74 92.96 262.42 93.22C263.23 93.53 263.52 93.48 263.25 93.07C263.03 92.72 263.29 92.39 263.85 92.32C264.4 92.26 265.36 91.92 265.98 91.58C266.77 91.14 266.98 91.21 266.69 91.84C266.4 92.46 266.85 92.66 268.18 92.5C269.23 92.38 270.29 92.03 270.53 91.72C270.78 91.41 272.23 90.95 273.76 90.69C275.29 90.44 277.73 89.93 279.19 89.57C280.65 89.21 282.16 88.42 282.56 87.8C283.15 86.87 283.06 86.61 282.05 86.33C281.37 86.14 279.19 85.17 277.2 84.16C275.22 83.16 273.44 82.37 273.26 82.42C273.08 82.46 272.37 83 271.69 83.61Z" />
		<path id="Path 26" class="shp11" d="M290.19 81.45C290.24 81.82 290.1 81.91 289.87 81.66C289.64 81.4 288.99 81.8 288.42 82.54C287.85 83.28 286.95 84.11 286.42 84.39C285.66 84.78 285.65 85.13 286.35 86.06C286.84 86.71 287.83 89.01 288.53 91.17C289.24 93.34 289.72 95.81 289.6 96.67C289.48 97.52 289.82 98.68 290.35 99.24C290.88 99.79 291.25 100.36 291.17 100.5C291.1 100.64 291.05 100.98 291.06 101.26C291.08 101.54 291.51 101.34 292.03 100.81C292.62 100.21 293.13 100.09 293.39 100.48C293.61 100.83 294.63 100.99 295.64 100.82L297.48 100.53L293.33 99.97C297.08 99.4 298.79 98.15 301.78 95.05C304.04 92.71 306.49 90.13 307.24 89.31C307.99 88.5 308.42 87.55 308.19 87.2C307.96 86.85 308.08 86.53 308.45 86.49C308.82 86.45 308.87 85.75 308.57 84.94C308.26 84.14 307.58 82.83 307.04 82.04C306.5 81.25 305.46 80.67 304.72 80.76C303.59 80.9 303.53 80.8 304.31 80.11C305.04 79.46 304.92 79.4 303.77 79.84C302.96 80.14 301.89 80.22 301.4 80.01C300.91 79.8 298.16 79.89 295.3 80.2C292.25 80.54 290.13 81.06 290.19 81.45Z" />
		<path id="Path 27" class="shp10" d="M329.03 79.18C329 80.96 328.9 82.96 328.82 83.63C328.74 84.37 329.46 85.28 330.69 85.99C331.79 86.62 333.45 87.05 334.37 86.93C335.96 86.73 336.01 86.57 335.32 83.91C334.92 82.36 333.69 79.89 332.58 78.43C331.48 76.96 330.24 75.8 329.83 75.85C329.42 75.9 329.06 77.39 329.03 79.18ZM227.51 92.18C226.19 93.51 226.17 93.69 227.3 94.5C228.11 95.09 228.72 95.13 229.12 94.63C229.45 94.22 229.54 93.17 229.33 92.31C228.95 90.76 228.93 90.75 227.51 92.18Z" />
		<path id="Path 28" class="shp9" d="M217.21 94.9C216.15 95.26 215.37 95.77 215.47 96.04C215.57 96.31 215.7 96.9 215.76 97.37C215.83 97.97 217.37 98.02 221.31 97.53C224.31 97.16 226.87 96.71 227 96.54C227.12 96.36 226.8 95.88 226.28 95.48C225.75 95.08 224.21 94.8 222.85 94.86C221.48 94.91 220.4 94.73 220.44 94.44C220.49 94.16 220.21 93.99 219.83 94.08C219.45 94.17 218.27 94.54 217.21 94.9Z" />
		<path id="Path 29" class="shp10" d="M282.67 89.63C281.62 90.56 281.74 90.89 284.71 95.36C287.3 99.25 287.87 99.8 287.88 98.4C287.89 97.46 287.27 94.93 286.5 92.77C285.73 90.61 284.81 88.8 284.44 88.74C284.08 88.69 283.28 89.08 282.67 89.63ZM263.98 93.42C264.77 93.85 265.81 94.16 266.27 94.1C266.73 94.04 267.22 93.67 267.36 93.28C267.51 92.89 267.39 92.55 267.11 92.52C266.82 92.49 265.67 92.51 264.56 92.56C262.63 92.63 262.6 92.68 263.98 93.42Z" />
		<path id="Path 30" class="shp9" d="M254.65 96.11C255.02 97.19 255.95 98.82 256.71 99.74L258.09 101.41C258.87 96.64 258.9 94.89 258.66 94.45C258.41 94.01 257.26 93.76 256.1 93.9C254.09 94.13 254.01 94.25 254.65 96.11Z" />
		<path id="Path 31" class="shp0" d="M267.7 93.24C267.74 93.61 268.08 93.88 268.45 93.83C268.82 93.79 269.17 93.44 269.24 93.06C269.31 92.68 268.97 92.41 268.49 92.47C268.01 92.52 267.66 92.87 267.7 93.24Z" />
		<path id="Path 32" class="shp11" d="M269.7 92.84C269.73 93.11 267.95 93.63 265.74 93.98C263.54 94.32 261.52 94.75 261.26 94.92C260.99 95.09 260.68 96.13 260.55 97.22C260.42 98.31 260.2 99.75 260.07 100.42C259.86 101.45 260.25 101.58 262.67 101.29C265.05 100.99 265.96 101.28 268.15 103.01C269.59 104.15 271.93 106.41 273.34 108.05C274.76 109.68 276.4 111.57 276.99 112.25C277.95 113.36 278.16 113.37 279.05 112.35C279.6 111.73 279.99 110.84 279.92 110.38C279.85 109.92 280.28 109.09 280.87 108.54C281.46 107.99 283.01 106.13 284.31 104.41C286.54 101.45 286.61 101.18 285.57 99.52C284.97 98.56 283.33 96.29 281.93 94.48L279.38 91.19C271.83 92.08 269.66 92.56 269.7 92.84Z" />
		<path id="Path 33" class="shp7" d="M219.2 100.18C219.03 100.59 219.95 101.48 221.24 102.16C222.54 102.85 224.36 104.02 225.29 104.76C226.22 105.5 227.67 106.19 228.53 106.28C229.38 106.37 232.32 106.64 235.07 106.88C237.81 107.13 240.2 107.31 240.39 107.29C240.57 107.26 240.67 106.87 240.61 106.41C240.55 105.95 239.31 104.56 237.87 103.32C236.43 102.08 234.36 100.74 233.29 100.33C232.21 99.93 229.65 99.6 227.59 99.6C225.53 99.6 222.87 99.56 221.68 99.52C220.49 99.48 219.38 99.78 219.2 100.18Z" />
		<path id="Path 34" class="shp9" d="M309.91 90.28C308.88 91.08 307.35 92.56 306.52 93.57C305.69 94.57 303.92 96.53 302.6 97.91C301.27 99.3 300.48 100.33 300.84 100.21C301.2 100.09 302.45 100.27 303.61 100.62C304.78 100.96 306.76 101.55 308.02 101.93C309.28 102.31 310.76 102.56 311.32 102.5C311.87 102.43 312.35 102.61 312.37 102.89C312.4 103.16 313.77 103.81 315.43 104.33C318.38 105.24 318.46 105.23 319.15 103.9C319.54 103.15 319.79 101.93 319.71 101.19C319.63 100.45 319.91 99.04 320.34 98.05C320.76 97.07 321.06 95.81 321.01 95.25C320.96 94.69 319.89 93.92 318.62 93.54C317.36 93.15 315.27 92.24 313.97 91.52C312.67 90.8 311.71 89.89 311.84 89.5C311.96 89.11 312 88.8 311.93 88.81C311.85 88.82 310.94 89.49 309.91 90.28Z" />
		<path id="Path 35" class="shp12" d="M197.76 103.36C197.6 103.75 198.03 104.31 198.72 104.59C199.41 104.88 200.18 104.86 200.44 104.56C200.69 104.26 200.87 103.79 200.83 103.52C200.78 103.24 200.09 103.3 199.29 103.65C198.26 104.1 197.94 104.04 198.22 103.43C198.43 102.96 198.48 102.6 198.33 102.61C198.18 102.63 197.92 102.97 197.76 103.36Z" />
		<path id="Path 36" class="shp10" d="M198.02 103.78C197.31 104.89 197.37 104.91 198.66 104.05C199.44 103.52 200.06 102.94 200.04 102.76C200.02 102.57 199.73 102.45 199.4 102.49C199.08 102.53 198.45 103.11 198.02 103.78Z" />
		<path id="Path 37" class="shp8" d="M211.22 104C209.24 105.37 206.76 107.05 205.72 107.73C204.67 108.4 202.56 109.73 201.02 110.68C199.49 111.62 198.3 112.64 198.39 112.94C198.48 113.24 199.16 113.41 199.9 113.32C200.64 113.24 201.43 113.45 201.65 113.8C201.88 114.15 203.45 114.43 205.13 114.42C206.85 114.41 208.08 114.72 207.93 115.12C207.79 115.51 207.98 115.8 208.35 115.75C208.72 115.71 208.98 115.37 208.94 115C208.89 114.6 210.3 114.57 212.51 114.92C214.51 115.25 216.51 115.48 216.94 115.43C217.38 115.39 218.16 114.84 218.67 114.22C219.19 113.6 220.01 113.25 220.5 113.44C220.99 113.63 221.15 113.53 220.84 113.23C220.53 112.92 221.38 111.47 222.71 110.01C224.05 108.54 225.1 107.12 225.05 106.85C225 106.57 223.09 105.26 220.81 103.93C218.53 102.6 216.25 101.51 215.74 101.51C215.23 101.5 213.2 102.62 211.22 104Z" />
		<path id="Path 38" class="shp7" d="M333.62 89.03C333.46 89.42 333.61 90.71 333.96 91.88C334.3 93.06 334.71 94.65 334.88 95.42C335.07 96.35 335.55 96.69 336.32 96.44C336.95 96.24 337.43 95.54 337.39 94.89C337.34 94.24 337.32 92.94 337.34 92C337.35 91.07 337.18 89.78 336.95 89.15C336.72 88.53 335.95 88.08 335.23 88.16C334.5 88.25 333.78 88.64 333.62 89.03Z" />
		<path id="Path 39" class="shp9" d="M195.27 106.66C195.03 107.28 195 107.93 195.21 108.09C195.41 108.26 196.1 108.1 196.73 107.74C197.36 107.38 197.72 106.8 197.54 106.45C197.35 106.1 196.86 105.74 196.45 105.67C196.04 105.59 195.51 106.04 195.27 106.66Z" />
		<path id="Path 40" class="shp11" d="M330.13 91.47C330.21 92.22 330.73 92.77 331.29 92.7C331.93 92.63 332.16 92.1 331.91 91.27C331.7 90.54 331.18 89.99 330.75 90.04C330.32 90.09 330.04 90.74 330.13 91.47Z" />
		<path id="Path 41" class="shp10" d="M199.84 106.67C198.98 107.18 198.38 107.99 198.52 108.48C198.71 109.19 199.26 109.07 201.25 107.89C202.62 107.08 203.59 106.2 203.41 105.94C203.22 105.68 202.7 105.53 202.24 105.61C201.78 105.69 200.7 106.17 199.84 106.67ZM255.5 100.05C254.81 100.56 254.81 100.78 255.49 101.03C255.98 101.21 256.5 101.03 256.64 100.64C256.78 100.25 256.78 99.81 256.64 99.66C256.5 99.51 255.99 99.68 255.5 100.05ZM321.45 100.82C320.76 103.61 320.25 106.27 320.31 106.74C320.37 107.26 321.18 107.42 322.47 107.17C324.38 106.79 324.6 106.41 325.61 101.87C326.21 99.18 326.65 96.6 326.59 96.14C326.53 95.67 325.65 95.39 324.59 95.52C322.86 95.72 322.6 96.16 321.45 100.82Z" />
		<path id="Path 42" class="shp12" d="M328.01 96.82C327.75 97.79 327.52 99.66 327.48 100.97C327.45 102.29 327.64 103.34 327.92 103.32C328.2 103.29 329.17 102.34 330.07 101.2C330.97 100.05 331.45 98.91 331.14 98.66C330.82 98.4 330.94 98.16 331.41 98.12C331.87 98.07 332.16 97.28 332.05 96.36C331.9 95.01 331.53 94.72 330.17 94.87C328.99 95.01 328.33 95.6 328.01 96.82Z" />
		<path id="Path 43" class="shp0" d="M294.19 100.1C294.67 100.21 295.43 100.12 295.87 99.91C296.32 99.7 295.92 99.62 295 99.72C294.08 99.83 293.71 100 294.19 100.1Z" />
		<path id="Path 44" class="shp9" d="M254.16 105.7C253.36 106.35 253.4 106.44 254.41 106.34C255.05 106.27 255.55 105.91 255.5 105.54C255.46 105.17 255.35 104.88 255.26 104.9C255.17 104.91 254.67 105.27 254.16 105.7Z" />
		<path id="Path 45" class="shp8" d="M259.18 104.9C258.46 105.16 257.98 105.64 258.11 105.97C258.24 106.3 257.89 106.63 257.34 106.69C256.79 106.75 256.01 107.32 255.61 107.95C255.01 108.9 255.28 109.37 257.3 110.81C258.63 111.76 260.09 112.49 260.56 112.43C261.02 112.37 261.82 112.66 262.34 113.08C262.87 113.49 263.26 113.53 263.21 113.16C263.17 112.79 263.48 112.91 263.9 113.42C264.42 114.04 264.64 114.07 264.58 113.51C264.52 112.91 265.48 112.94 268.01 113.63C269.94 114.15 272.28 114.49 273.21 114.39C274.13 114.28 274.85 113.89 274.81 113.52C274.77 113.15 272.94 110.99 270.76 108.71C268.57 106.44 266.42 104.39 265.98 104.17C265.53 103.95 264.12 103.92 262.83 104.1C261.54 104.29 259.9 104.65 259.18 104.9ZM334.09 96.29C334.12 96.57 334.83 96.78 335.67 96.76C336.88 96.74 336.97 96.62 336.12 96.21C335.53 95.93 334.81 95.71 334.54 95.74C334.26 95.77 334.06 96.02 334.09 96.29Z" />
		<path id="Path 46" class="shp10" d="M222.44 112.77L218.66 116.6C221.4 121.83 222.65 124.01 223.2 124.83C224.15 126.23 224.43 126.26 228.52 125.33C230.89 124.78 233.12 124.18 233.47 123.99C233.82 123.8 234.01 122.77 233.88 121.71C233.76 120.64 233.52 119.9 233.35 120.05C233.18 120.21 232.58 119.63 232.01 118.78C231.45 117.92 231.08 116.52 231.19 115.67C231.31 114.73 231.22 114.48 230.95 115.03C230.64 115.66 229.97 114.97 228.86 112.89C227.96 111.21 227 109.63 226.72 109.39C226.44 109.14 224.52 110.67 222.44 112.77Z" />
		<path id="Path 47" class="shp12" d="M229.08 109.58C229.15 110.15 229.35 110.6 229.54 110.58C229.72 110.56 230.02 111.21 230.2 112.03C230.39 112.86 231.58 115.22 232.85 117.29C234.13 119.35 235.03 121.2 234.87 121.4C234.71 121.6 235.28 121.94 236.15 122.16C237.02 122.39 238.16 122.37 238.7 122.12C239.23 121.87 239.61 121.21 239.55 120.66C239.49 120.1 239.89 119.6 240.44 119.53C241 119.47 241.4 119.04 241.33 118.58C241.27 118.12 241.48 117.93 241.8 118.17C242.11 118.4 242.87 118.24 243.48 117.8C244.16 117.31 244.41 116.45 244.15 115.53C243.91 114.72 244.01 113.57 244.37 112.99C244.88 112.15 244.83 112.09 244.1 112.68C243.37 113.29 243.25 113.13 243.5 111.86C243.73 110.67 243.41 110.1 242.17 109.48C241.28 109.03 239.02 108.67 237.15 108.7C235.28 108.72 232.67 108.69 231.35 108.64C229.49 108.56 228.99 108.77 229.08 109.58Z" />
		<path id="Path 48" class="shp10" d="M233.4 108.71C234 108.97 235 109.01 235.63 108.79C236.26 108.57 236.75 108.23 236.73 108.05C236.71 107.86 235.71 107.83 234.51 107.98C232.94 108.16 232.63 108.37 233.4 108.71Z" />
		<path id="Path 49" class="shp8" d="M289.33 103.67C288.81 104.06 288.15 104.27 287.85 104.14C287.56 104.01 287.25 104.3 287.16 104.78C287.08 105.25 287.24 106.61 287.51 107.8C287.79 108.99 288.31 109.92 288.68 109.88C289.05 109.83 289.2 110.2 289.01 110.69C288.82 111.18 288.91 111.33 289.22 111.03C289.52 110.73 290.9 110.92 292.27 111.46C293.64 111.99 294.92 112.41 295.1 112.38C295.28 112.35 297.43 112.33 299.86 112.32C302.29 112.32 304.84 112.52 305.53 112.78C306.21 113.03 306.75 113.01 306.73 112.73C306.71 112.45 308.61 112.37 310.96 112.56C313.32 112.74 316.07 112.8 317.09 112.7C318.66 112.54 318.91 112.23 318.74 110.66C318.61 109.41 317.89 108.44 316.52 107.65C315.41 107.01 312.59 105.84 310.25 105.06C307.92 104.27 304.44 103.35 302.53 103.01C300.62 102.67 297.08 102.52 294.66 102.68C292.24 102.84 289.84 103.28 289.33 103.67Z" />
		<path id="Path 50" class="shp12" d="M195.94 114.84C195.99 115 196.49 115.23 197.07 115.35C197.64 115.47 198.21 115.33 198.33 115.04C198.45 114.74 197.94 114.51 197.21 114.53C196.47 114.54 195.9 114.69 195.94 114.84Z" />
		<path id="Path 51" class="shp8" d="M333.76 100.7C332.43 102.32 332.43 102.36 333.8 102.66C334.57 102.83 335.41 102.83 335.68 102.66C335.94 102.49 336.34 102.64 336.56 102.99C336.79 103.33 337.66 103.53 338.49 103.43C339.32 103.33 340.43 103.59 340.95 104C341.47 104.41 341.86 104.45 341.81 104.08C341.77 103.71 342.38 103.33 343.18 103.24C343.97 103.15 344.69 102.76 344.77 102.38C344.86 101.99 343.56 101.17 341.9 100.56C340.24 99.94 338.03 99.35 337 99.24C335.61 99.1 334.76 99.48 333.76 100.7Z" />
		<path id="Path 52" class="shp10" d="M243.56 111.34C243.45 111.92 243.69 112.89 244.09 113.5C244.66 114.36 244.76 114.13 244.59 112.42C244.47 111.21 244.23 110.25 244.07 110.27C243.9 110.28 243.67 110.77 243.56 111.34Z" />
		<path id="Path 53" class="shp11" d="M198.44 116.96C197.28 117.43 196.21 118.22 196.05 118.7C195.9 119.19 196.37 120.67 197.11 121.99C197.85 123.31 198.75 124.35 199.12 124.31C199.49 124.26 200.23 124.56 200.76 124.97C201.29 125.38 202.43 126.01 203.3 126.38C204.17 126.74 205.04 127.03 205.22 127.01C205.41 126.98 205.37 126.68 205.14 126.33C204.87 125.92 205.5 125.83 206.99 126.07C208.23 126.28 210.47 126.47 211.97 126.51C213.47 126.54 216.31 126.54 218.27 126.51C220.43 126.47 221.81 126.18 221.76 125.78C221.72 125.41 221.36 124.99 220.97 124.85C220.58 124.7 219.77 122.96 219.16 120.97C218.4 118.46 217.69 117.29 216.85 117.15C216.18 117.04 214.41 116.93 212.91 116.91C211.41 116.88 208.24 116.63 205.86 116.36C203.49 116.08 201.33 115.91 201.05 115.98C200.78 116.04 199.61 116.48 198.44 116.96Z" />
		<path id="Path 54" class="shp9" d="M252.37 112.2C252.09 113.07 251.62 114.66 251.32 115.72C251.02 116.79 250.86 118.34 250.96 119.17C251.12 120.42 251.25 120.5 251.75 119.59C252.23 118.72 252.31 118.82 252.13 120.06C251.99 121.1 252.26 121.69 252.96 121.83C253.54 121.95 254.47 121.62 255.03 121.08C255.59 120.55 256.77 118.81 257.64 117.21L259.23 114.3C256.4 112.52 255.54 111.62 255.48 111.16C255.42 110.7 254.81 110.39 254.12 110.47C253.43 110.54 252.64 111.33 252.37 112.2ZM283.65 109.47C282.81 110.86 281.91 112.86 281.65 113.92C281.39 114.98 281.38 115.98 281.62 116.14C281.86 116.3 282.8 115.27 283.72 113.85C284.63 112.44 285.43 110.41 285.49 109.35C285.55 108.28 285.5 107.31 285.39 107.18C285.27 107.05 284.48 108.08 283.65 109.47Z" />
		<path id="Path 55" class="shp11" d="M287.21 108C287.32 108.93 287.51 109.21 287.63 108.64C287.75 108.06 287.66 107.31 287.44 106.96C287.21 106.61 287.11 107.08 287.21 108Z" />
		<path id="Path 56" class="shp0" d="M231.26 115.91C230.99 116.5 231.26 117.63 231.93 118.67C232.55 119.64 233.26 120.17 233.51 119.85C233.76 119.52 233.46 118.29 232.84 117.09C232.01 115.5 231.59 115.19 231.26 115.91Z" />
		<path id="Path 57" class="shp9" d="M331.47 104.11C331 104.34 330.01 105.25 329.27 106.13C327.95 107.71 327.95 107.73 329.37 108.41C330.16 108.79 331.01 108.92 331.27 108.71C331.52 108.49 332.15 108.58 332.65 108.89C333.31 109.3 333.88 108.86 334.68 107.29C335.29 106.09 335.7 105.05 335.6 104.97C335.5 104.89 334.72 104.57 333.87 104.26C333.02 103.95 331.94 103.88 331.47 104.11ZM264.56 113.51C264.56 113.61 265.1 114.08 265.77 114.57C266.86 115.36 266.93 115.33 266.45 114.32C266.16 113.7 265.62 113.22 265.25 113.27C264.88 113.31 264.57 113.42 264.56 113.51Z" />
		<path id="Path 58" class="shp0" d="M266.01 113.85C266.04 114.23 266.56 114.71 267.15 114.92C267.74 115.13 268.34 115.14 268.48 114.93C268.62 114.73 268.11 114.25 267.34 113.87C266.51 113.46 265.97 113.45 266.01 113.85Z" />
		<path id="Path 59" class="shp9" d="M267.71 113.97C268.9 114.61 268.99 114.83 268.19 115.2C267.59 115.48 267.8 115.61 268.74 115.53C269.58 115.46 270.36 115.17 270.49 114.87C270.62 114.58 269.72 114.08 268.49 113.76C266.53 113.26 266.43 113.28 267.71 113.97Z" />
		<path id="Path 60" class="shp11" d="M260.24 115.56C259.84 116.16 259.54 116.88 259.58 117.15C259.61 117.43 258.87 118.82 257.92 120.24C256.97 121.66 256.21 123.12 256.23 123.5C256.26 123.87 257.31 124.43 258.56 124.75C259.82 125.07 262.98 125.14 265.57 124.91L270.29 124.49L262.33 126.31C268.52 125.78 270.85 125.14 271.98 124.4C273.02 123.72 274.55 122.39 275.36 121.46C276.18 120.52 276.68 119.54 276.47 119.29C276.27 119.03 276.39 118.63 276.73 118.41C277.08 118.18 277.18 117.71 276.95 117.36C276.73 117.01 276.25 116.91 275.91 117.14C275.56 117.37 275.24 117.25 275.2 116.88C275.15 116.51 274.74 116.26 274.28 116.32C273.82 116.37 271.56 116.05 269.26 115.6C266.96 115.15 264.15 114.71 263.02 114.63C261.65 114.52 260.72 114.84 260.24 115.56Z" />
		<path id="Path 61" class="shp9" d="M277.83 113.17C276.74 113.8 276.73 113.89 277.74 113.82C278.38 113.77 279.02 113.41 279.15 113.02C279.28 112.63 279.32 112.34 279.25 112.38C279.17 112.41 278.53 112.77 277.83 113.17Z" />
		<path id="Path 62" class="shp10" d="M286.44 112.35C286.14 112.85 285.22 114.49 284.4 115.99L282.9 118.72C288.45 121.72 289.23 121.87 289.85 121.13C290.28 120.62 291.07 118.85 291.61 117.2C292.15 115.54 292.56 113.96 292.54 113.69C292.51 113.41 291.51 112.76 290.33 112.24C289.14 111.72 287.9 111.33 287.57 111.37C287.24 111.41 286.73 111.85 286.44 112.35Z" />
		<path id="Path 63" class="shp11" d="M336.73 107.37C335.48 109.04 335.42 109.41 336.34 109.85C336.93 110.13 339.31 110.14 341.62 109.88C345.42 109.45 345.88 109.24 346.46 107.64C346.82 106.66 346.94 105.75 346.74 105.61C346.53 105.46 344.53 105.36 342.29 105.38C338.48 105.4 338.11 105.54 336.73 107.37Z" />
		<path id="Path 64" class="shp8" d="M245.48 119.92C245.59 120.31 246.13 120.58 246.68 120.52C247.24 120.45 247.6 120.08 247.49 119.68C247.39 119.29 246.84 119.02 246.29 119.09C245.74 119.15 245.37 119.52 245.48 119.92Z" />
		<path id="Path 65" class="shp11" d="M294.87 113.76C295.13 114.2 294.95 114.83 294.45 115.17C293.95 115.51 293.09 117.29 292.52 119.13L291.5 122.49C294.42 122.6 296.97 122.38 299.05 122.07C301.14 121.77 303.04 121.26 303.29 120.95C303.54 120.65 304.22 120.36 304.81 120.32C305.6 120.26 305.54 120.43 304.6 120.97C303.38 121.67 303.39 121.7 304.84 121.58C305.68 121.51 306.32 121.15 306.28 120.78C306.24 120.41 307.55 119.8 309.19 119.42C310.83 119.05 312.57 118.23 313.06 117.61C313.55 117 313.97 116.72 313.98 117C314 117.28 314.44 116.99 314.96 116.37C315.49 115.75 315.88 115.02 315.83 114.74C315.78 114.47 314.98 114.33 314.06 114.43C313.14 114.54 312.21 114.27 312 113.82C311.7 113.18 311.63 113.18 311.66 113.86C311.69 114.33 311.31 114.55 310.82 114.37C310.33 114.18 308.1 114.12 305.87 114.23C303.63 114.34 301.1 114.14 300.23 113.79C298.95 113.27 298.48 113.36 297.71 114.28C296.87 115.29 296.64 115.28 295.58 114.19C294.92 113.51 294.6 113.32 294.87 113.76Z" />
		<path id="Path 66" class="shp9" d="M296.02 114.48C296.07 114.85 296.93 115.03 297.94 114.88C299.34 114.67 299.52 114.49 298.7 114.12C298.11 113.85 297.25 113.67 296.79 113.72C296.32 113.77 295.98 114.11 296.02 114.48ZM335.02 109.95C335.05 110.33 335.69 110.73 336.45 110.83C337.21 110.93 337.83 110.87 337.83 110.69C337.84 110.52 337.19 110.12 336.41 109.81C335.44 109.43 335 109.47 335.02 109.95Z" />
		<path id="Path 67" class="shp10" d="M256.13 119.5C255.83 119.8 255.67 120.3 255.77 120.6C255.87 120.9 256.36 121.02 256.87 120.87C257.38 120.72 258.02 120.29 258.29 119.92C258.58 119.52 258.46 119.47 258 119.78C257.57 120.08 257.09 120.01 256.94 119.63C256.79 119.25 256.42 119.19 256.13 119.5Z" />
		<path id="Path 68" class="shp7" d="M328.01 111.49C327.87 111.87 327.43 112.06 327.04 111.91C326.65 111.77 326.37 111.96 326.41 112.33C326.45 112.7 326.72 113.01 327 113.03C327.28 113.05 328.5 112.98 329.71 112.89C330.91 112.79 331.79 112.46 331.66 112.15C331.54 111.84 330.72 111.41 329.85 111.2C328.92 110.97 328.16 111.09 328.01 111.49Z" />
		<path id="Path 69" class="shp10" d="M241.52 122.08C241.33 122.5 241.56 122.96 242.04 123.08C242.52 123.21 244.33 123.62 246.06 123.99C247.79 124.37 249.58 124.63 250.04 124.57C250.5 124.51 250.75 123.94 250.58 123.31C250.38 122.58 249.42 122.11 247.88 122.02C246.56 121.94 244.67 121.74 243.68 121.58C242.6 121.41 241.74 121.61 241.52 122.08ZM327.22 115.81C327.4 116.07 328 116.23 328.56 116.16C329.11 116.1 329.47 115.82 329.36 115.54C329.25 115.26 328.64 115.1 328.02 115.18C327.4 115.27 327.04 115.55 327.22 115.81Z" />
		<path id="Path 70" class="shp0" d="M265.1 125.25C265.58 125.35 266.34 125.26 266.78 125.06C267.22 124.85 266.83 124.76 265.91 124.87C264.98 124.98 264.62 125.15 265.1 125.25Z" />
		<path id="Path 71" class="shp9" d="M267.79 124.94C268.27 125.04 269.02 124.95 269.47 124.75C269.91 124.54 269.52 124.45 268.59 124.56C267.67 124.67 267.31 124.84 267.79 124.94ZM303.18 121.07C302.96 121.44 303.41 121.54 304.2 121.3C304.97 121.06 305.59 120.71 305.57 120.52C305.55 120.34 305.09 120.24 304.56 120.3C304.02 120.36 303.4 120.71 303.18 121.07Z" />
	</g>
</svg>