<svg xmlns="http://www.w3.org/2000/svg" viewBox="0 0 420 420" width="420" height="420">
	<style>
		tspan { white-space:pre }
		.shp0 { fill: #000000 } 
		.shp1 { fill: #b37652 } 
		.shp2 { fill: #6d4332 } 
		.shp3 { fill: #ffffff } 
		.shp4 { fill: #d5ab90 } 
		.shp5 { fill: #793d1b } 
		.txt6 { font-size: 116px;fill: #000000;font-family: "DejaVu Sans";font-weight: 400 } 
		.shp7 { fill: #cdaa4f } 
		.shp8 { fill: #bea259 } 
		.shp9 { fill: #e4ca82 } 
		.shp10 { fill: #9c8138 } 
		.shp11 { fill: #c9ae7c } 
		.shp12 { fill: #b9a379 } 
		.shp13 { fill: #ab956d } 
	</style>
	<g id="Layer 1 copy 10">
		<path id="Path 0" class="shp0" d="M225.34 1.1C223.65 2.07 221.28 4.31 220.08 6.07C218.72 8.06 217.88 10.81 217.88 13.29C217.88 17.05 217.68 17.33 214.63 17.79C212.83 18.06 205.06 18.75 197.34 19.33C189.62 19.9 182.18 20.58 180.81 20.82C179.43 21.07 165.22 22.4 149.24 23.78C133.26 25.16 114.77 26.78 108.15 27.38C101.54 27.98 95.34 28.67 94.37 28.9C93.25 29.17 92.6 30.31 92.58 32.08C92.55 33.6 93.31 35.51 94.25 36.34C95.2 37.17 98.49 41 101.57 44.86C104.64 48.72 110.62 57.74 114.84 64.9C119.07 72.07 123.4 78.83 124.45 79.93C125.5 81.04 127.74 84.64 129.41 87.95C131.09 91.26 134.28 99.37 136.5 105.99C138.72 112.6 141.81 124.55 143.37 132.54C146.06 146.36 146.19 148.24 145.91 170.62C145.75 183.58 144.98 199.36 144.2 205.7C143.42 212.03 142.09 221.73 141.23 227.24C140.38 232.75 139.39 239.52 139.03 242.27C138.48 246.56 138.66 247.44 140.3 248.39C141.59 249.13 144.69 249.23 149.74 248.69C153.87 248.25 173.72 246.74 193.83 245.34C213.95 243.93 231.99 242.53 233.92 242.22L237.42 241.66C238.59 254.56 238.82 258.42 238.68 258.57C238.54 258.71 231.66 258.34 223.39 257.75C213.05 257.02 191.8 256.97 155.25 257.6C126.04 258.11 89.03 258.47 73 258.41L43.87 258.31C38.94 253.26 35.81 251.34 33.75 250.79C31.42 250.17 24.89 250.07 16.63 250.54C5.72 251.15 3.01 251.61 1.85 253.05C0.61 254.57 0.68 255.48 2.38 260.06C3.45 262.95 5.25 269.38 6.39 274.34C7.52 279.3 10.05 288.32 12 294.38C13.95 300.45 17.84 309.92 20.64 315.43C23.44 320.94 27.8 329.06 30.32 333.46C32.85 337.87 36.06 343.06 37.46 345C38.86 346.94 41.36 350.09 43.02 352.01C44.67 353.93 49.86 359.51 54.54 364.41C59.23 369.32 66.44 375.87 70.57 378.97C74.71 382.08 81.47 386.5 85.61 388.81C89.74 391.11 97.18 394.61 102.14 396.58C107.1 398.56 114.09 400.79 117.67 401.55C121.26 402.3 127.12 403.23 130.7 403.62C134.28 404.01 141.95 405.37 147.74 406.64C153.52 407.92 162.54 409.47 167.78 410.09C173.01 410.71 179.78 411.64 182.81 412.15C185.84 412.66 194.41 413.73 201.85 414.52C209.29 415.32 223.49 416.5 233.42 417.15C243.34 417.81 254.61 418.94 258.47 419.68C262.33 420.42 270.22 421.32 276 421.69C283.27 422.15 291.03 421.84 301.06 420.71C309.05 419.8 319.65 417.91 324.61 416.5C329.57 415.09 336.33 412.72 339.64 411.22C342.95 409.73 348.58 406.55 352.16 404.17C355.75 401.78 360.38 398.2 362.45 396.21C364.53 394.22 366.22 392.25 366.21 391.84C366.2 391.42 367.38 389.62 368.82 387.83C370.27 386.04 372.37 382.77 373.5 380.56C374.63 378.36 376.39 375.65 377.43 374.55C378.46 373.45 379.97 370.29 380.78 367.54C381.59 364.78 382.51 360.95 382.84 359.02C383.16 357.09 384.62 352.26 386.08 348.28C387.94 343.23 389.34 340.9 390.75 340.53C391.85 340.24 394.78 340 397.26 339.99C399.74 339.98 403.46 339.52 405.53 338.97C407.59 338.42 410.48 336.73 411.94 335.22C413.4 333.7 415.46 329.98 416.53 326.95C417.59 323.92 418.7 320.31 419 318.93C419.32 317.39 418.91 315.76 417.91 314.68C417.03 313.71 415.28 312.92 414.04 312.92C412.8 312.92 410.44 311.76 408.78 310.35C407.13 308.94 399.91 304.04 392.75 299.46C385.58 294.88 377.02 289.58 373.71 287.69C370.3 285.73 366.75 282.74 365.51 280.79C364.3 278.9 362.61 276.56 361.75 275.59C360.37 274.05 358.26 273.85 344.4 273.96C330.24 274.08 327.68 273.82 319.6 271.52C314.64 270.1 305.62 268.45 299.55 267.83C293.49 267.22 285.83 266.03 282.52 265.19C279.21 264.35 273.93 263.59 270.79 263.49C265.97 263.35 265 263 264.6 261.31C264.34 260.21 263.85 256.15 263.51 252.29C263.17 248.44 262.68 243.93 262.41 242.27C261.94 239.31 262.02 239.25 268.22 237.9C271.67 237.15 280.59 235.94 288.03 235.21C295.47 234.48 308.32 232.97 316.59 231.85C324.86 230.73 340.64 229.34 351.66 228.75C362.69 228.16 380.39 227.24 391 226.71C402.66 226.12 410.98 226.1 412.04 226.65C413.21 227.26 414.72 227.09 416.55 226.15C418.07 225.37 419.52 223.95 419.77 222.98C420.03 222.02 420.08 212.66 419.88 202.19C419.68 191.64 418.78 178.23 417.86 172.13C416.95 166.06 415.27 155.47 414.13 148.58C412.99 141.69 410.95 131.77 409.6 126.53C408.25 121.29 405.33 110.7 403.12 102.98C400.91 95.27 397.52 84.22 395.59 78.43C393.65 72.64 390.01 63.85 387.5 58.89C384.98 53.93 378.32 41.98 372.7 32.33C367.07 22.69 361.75 13.22 360.86 11.29C359.98 9.36 358.22 7.21 356.96 6.51C355.15 5.5 351.65 5.46 340.14 6.31C332.15 6.9 319.75 7.78 312.58 8.26C305.42 8.74 288.73 10.29 275.5 11.7C262.28 13.12 249.31 14.28 246.69 14.28C242.07 14.3 241.93 14.21 241.93 11.29C241.93 9.64 240.94 6.82 239.72 5.03C238.5 3.23 236.8 1.22 235.96 0.55C235.11 -0.12 233.06 -0.67 231.41 -0.66C229.76 -0.66 227.03 0.14 225.34 1.1Z" />
		<path id="Path 1" class="shp1" d="M227.02 6.83C225.7 7.69 224.68 8.93 224.75 9.59C224.84 10.45 226.24 10.58 229.64 10.07C232.27 9.68 234.64 9.12 234.92 8.84C235.19 8.56 234.74 7.62 233.92 6.76C233.09 5.89 231.74 5.2 230.91 5.22C230.08 5.24 228.33 5.97 227.02 6.83Z" />
		<path id="Path 2" class="shp2" d="M225.27 14.55C224.95 15.23 224.96 16.59 225.29 17.55C225.63 18.52 226.91 19.31 228.15 19.32C229.39 19.32 231.89 18.99 233.69 18.57C235.49 18.15 236.96 17.24 236.95 16.55C236.93 15.86 235.8 14.85 234.42 14.3C233.04 13.74 230.55 13.29 228.88 13.29C227.21 13.29 225.59 13.86 225.27 14.55Z" />
		<path id="Path 3" class="shp3" d="M348.07 13.73C347.84 13.96 343.82 14.39 339.14 14.67C334.45 14.95 323.86 15.62 315.59 16.15C307.32 16.69 297.17 17.6 293.04 18.19C288.91 18.78 277.63 19.97 267.99 20.83C258.34 21.69 241.66 23.27 230.91 24.34C220.16 25.41 198.97 27.42 183.81 28.81C168.65 30.2 151.29 31.78 145.23 32.33C139.17 32.87 128.35 33.82 121.18 34.42C114.02 35.03 107.59 35.71 106.9 35.93C106.05 36.21 106.56 37.55 108.49 40.1C110.05 42.17 113.15 46.56 115.36 49.87C117.58 53.18 121.08 59.04 123.14 62.9C125.2 66.76 128.2 71.15 129.8 72.67C131.4 74.18 134.68 79.82 137.09 85.19C139.5 90.57 142.87 99.02 144.58 103.98C146.29 108.94 148.78 118.64 150.13 125.53C151.48 132.42 153.11 141.21 153.75 145.07C154.62 150.3 154.65 158.98 153.88 179.14C153.31 194.02 152.64 207.33 152.4 208.7C152.15 210.08 151.43 214.82 150.78 219.23C150.14 223.63 149.18 230.17 148.66 233.76C148.13 237.34 147.82 240.4 147.97 240.56C148.12 240.71 152.52 240.39 157.76 239.83C162.99 239.28 178.33 238.13 191.83 237.29C205.33 236.45 220.44 235.32 225.4 234.78C230.36 234.24 239.15 233.3 244.94 232.7C250.73 232.1 260.65 230.77 266.99 229.74C273.32 228.71 282.12 227.58 286.53 227.23C290.94 226.89 302.21 225.52 311.58 224.21C320.95 222.89 338.76 221.33 351.16 220.75C363.56 220.16 376.98 219.24 380.97 218.7C384.97 218.16 393.43 217.72 399.76 217.72L411.29 217.72C411.24 193.26 410.82 183.22 410.32 179.64C409.82 176.06 408.68 167.72 407.78 161.1C406.87 154.49 405.27 145.02 404.22 140.06C403.16 135.1 400.92 125.85 399.25 119.52C397.57 113.18 395.04 104.16 393.62 99.47C392.2 94.79 389.89 87.35 388.48 82.94C387.07 78.53 384.25 71.31 382.2 66.91C380.16 62.5 375.67 53.93 372.22 47.87C368.77 41.8 363.92 33.24 361.44 28.83C358.96 24.42 355.74 19.13 354.3 17.07C352.85 15.02 350.95 13.33 350.08 13.31C349.2 13.3 348.3 13.49 348.07 13.73Z" />
		<path id="Path 4" class="shp2" d="M249.2 240.43L245.94 240.77C246.62 261.35 247.75 272.62 248.88 279.1C250.02 285.58 250.97 293.02 250.99 295.64C251.03 300.03 251.33 300.61 255 303.15L258.97 305.91C258.19 281.83 257.56 272.93 257.06 270.58C256.57 268.24 256.23 265.42 256.3 264.32C256.38 263.22 256.09 258.48 255.65 253.8C255.21 249.11 254.72 244.04 254.56 242.52C254.4 241.01 253.86 239.84 253.36 239.93C252.86 240.02 250.99 240.24 249.2 240.43Z" />
		<path id="Path 5" class="shp1" d="M12.95 257.33C14.06 258.13 17.44 259.07 20.47 259.4C23.5 259.74 26.66 260.04 27.48 260.07C28.31 260.1 30.23 260.06 31.74 259.97C33.26 259.88 34.51 259.47 34.53 259.06C34.54 258.65 33.42 257.74 32.02 257.05C30.53 256.32 25.68 255.81 20.22 255.83C11.84 255.86 11.14 256.01 12.95 257.33Z" />
		<path id="Path 6" class="shp4" d="M132.67 264.19C132.41 264.44 118 264.91 100.64 265.22C83.28 265.54 64.04 266.14 57.89 266.56C47.68 267.26 46.78 267.48 47.62 269.08C48.18 270.15 50.95 271.4 54.79 272.3C58.24 273.11 65.11 274.93 70.07 276.35C76.18 278.09 80.71 278.8 84.1 278.53C86.86 278.31 96.1 277.08 104.65 275.8C119.53 273.57 122.36 273.48 172.29 273.65C200.95 273.75 228 274.14 232.41 274.51C238.08 274.98 240.65 274.84 241.18 274.01C241.6 273.36 241.48 271.26 240.93 269.33C239.95 265.91 239.8 265.82 234.67 265.75C231.77 265.71 228.51 265.53 227.4 265.35C226.3 265.17 204.64 264.74 179.26 264.38C153.89 264.02 132.92 263.93 132.67 264.19Z" />
		<path id="Path 7" class="shp5" d="M13.99 271.08C14.62 274.53 17.05 283.21 19.37 290.37C21.7 297.54 25.43 307.01 27.66 311.42C29.89 315.83 33.33 322.37 35.3 325.95C37.26 329.53 40.55 334.94 42.59 337.97C44.64 341.01 48.39 345.74 50.93 348.5C53.48 351.25 55.55 353.84 55.55 354.26C55.55 354.67 56.22 355.24 57.05 355.51C58.03 355.84 58.31 355.58 57.86 354.76C57.48 354.07 55.35 350.8 53.14 347.49C50.92 344.19 48.84 341.26 48.51 340.98C48.19 340.7 46.52 337.77 44.81 334.47C43.09 331.16 40.32 325.75 38.63 322.44C36.95 319.13 33.36 311.47 30.64 305.41C27.92 299.34 25.38 292.8 25 290.88C24.61 288.95 23.62 285.34 22.8 282.86C21.98 280.38 20.17 275.64 18.77 272.34C17.38 269.03 15.72 265.99 15.1 265.59C14.47 265.18 13.7 264.84 13.39 264.84C13.09 264.83 13.35 267.64 13.99 271.08Z" />
		<path id="Path 8" class="shp4" d="M26.48 267.83C26.48 268.38 27.76 272.32 29.33 276.6C30.89 280.87 32.52 286.17 32.94 288.37C33.36 290.57 35.28 295.76 37.2 299.89C39.12 304.03 41.73 309.89 43.01 312.92C44.28 315.95 46.79 321.14 48.57 324.45C50.36 327.75 52.35 331.13 53.01 331.96C53.67 332.79 55.19 335.61 56.38 338.22C57.57 340.84 60.04 344.68 61.87 346.74C63.7 348.81 66.29 352.08 67.62 354.01C68.95 355.94 70.95 358.58 72.06 359.87C73.17 361.17 77.69 365.21 82.1 368.85C86.51 372.49 93.05 377.15 96.63 379.21C100.21 381.27 103.26 382.75 103.39 382.51C103.53 382.27 101.5 379.09 98.88 375.46C96.27 371.82 91.62 365.62 88.57 361.68C85.52 357.74 81.02 351.58 78.57 348C76.13 344.41 73.05 340.13 71.73 338.48C70.41 336.82 67.66 332.54 65.62 328.96C63.58 325.37 60.21 318.38 58.14 313.42C56.07 308.46 53.18 301.92 51.7 298.89C50.23 295.86 48.76 293.16 48.43 292.88C48.1 292.6 46.59 289.45 45.07 285.86C43.55 282.28 41.91 278.34 41.41 277.1C40.92 275.86 40.06 274.84 39.51 274.84C38.96 274.84 38.06 273.04 37.5 270.83L36.5 266.82C28.74 266.82 26.48 267.28 26.48 267.83ZM264.17 274.59L264.48 278.35C272.25 278.74 280.59 279.78 288.03 280.92C295.47 282.05 305.39 283.7 310.08 284.57C314.76 285.44 320.17 286.21 322.1 286.26C325.03 286.35 325.65 286 325.86 284.11C326.02 282.66 325.57 281.86 324.61 281.86C323.78 281.86 320.51 280.96 317.34 279.86C314.17 278.76 305.04 276.68 297.05 275.23C289.06 273.78 280.49 272.23 278.01 271.78C275.53 271.32 271.33 270.93 268.68 270.89L263.85 270.83L264.17 274.59Z" />
		<path id="Path 9" class="shp5" d="M52.2 280.35C51.83 280.63 52.21 281.53 53.04 282.36C53.86 283.18 54.77 283.86 55.04 283.86C55.32 283.86 58.14 285.39 61.3 287.26C64.47 289.13 70.22 291.62 74.08 292.81C77.94 293.99 89.89 296.77 100.64 298.98C111.38 301.2 120.4 303.18 120.68 303.38C120.95 303.58 124.56 304.47 128.7 305.36C132.83 306.25 139.82 307.42 144.23 307.95C148.64 308.48 154.95 309.56 158.26 310.36C161.56 311.15 168.33 312.68 173.29 313.76C178.25 314.84 186.82 316.46 192.33 317.38C197.84 318.29 205.96 319.68 210.37 320.48C214.78 321.27 223.8 322.8 230.41 323.88C237.02 324.96 251 326.74 261.47 327.83C271.95 328.92 291.56 330.3 305.07 330.89C318.57 331.48 342.24 332.16 357.68 332.39C373.11 332.63 390.02 332.39 395.25 331.86C400.49 331.34 405.36 330.36 406.08 329.68C406.8 329.01 407.84 326.88 408.41 324.95C408.97 323.02 409.29 321.35 409.11 321.24C408.93 321.13 394.8 321.47 377.72 321.99C356.04 322.66 342.26 322.61 332.12 321.84C324.13 321.23 311.96 320.57 305.07 320.37C298.18 320.17 289.83 319.78 286.53 319.49C283.22 319.21 277.13 318.72 273 318.41C268.86 318.11 258.04 317.18 248.95 316.35C239.85 315.53 227.9 314.39 222.39 313.83C216.88 313.27 205.38 311.7 196.84 310.33C188.3 308.97 178.83 307.42 175.79 306.89C172.76 306.36 166.45 305.45 161.77 304.88C157.08 304.3 146.93 302.29 139.22 300.4C131.5 298.52 122.48 296.53 119.18 295.98C115.87 295.43 107.98 293.83 101.64 292.42C95.3 291 84.25 288.47 77.09 286.78C69.92 285.09 61.75 282.84 58.93 281.78C56.1 280.72 53.59 279.85 53.33 279.85C53.08 279.85 52.57 280.08 52.2 280.35Z" />
		<path id="Path 10" class="shp1" d="M154.19 280.71C153.98 281.06 154.8 282.32 156.03 283.49C157.26 284.67 159.84 286.44 161.77 287.43C163.69 288.42 167.08 291.03 169.28 293.23C171.69 295.64 175.08 297.77 177.8 298.58C180.28 299.32 183.1 299.91 184.06 299.91C185.17 299.9 183.51 297.95 179.55 294.62C176.11 291.71 170.92 287.65 168.03 285.6C165.13 283.54 160.93 281.45 158.68 280.96C156.43 280.47 154.41 280.35 154.19 280.71Z" />
		<path id="Path 11" class="shp5" d="M342.63 280.9C342.36 281.43 343.61 282.46 345.4 283.2C347.19 283.94 355.2 288.29 363.19 292.87C371.18 297.46 379.3 302.38 381.23 303.81C383.15 305.24 385.3 306.97 385.99 307.66C386.67 308.35 387.8 308.92 388.49 308.94C389.18 308.95 390.87 309.84 392.25 310.92C393.63 312 395.43 312.87 396.26 312.87C397.37 312.86 397.22 312.41 395.68 311.13C394.53 310.19 392.51 308.62 391.17 307.64C389.83 306.67 386.26 304.24 383.23 302.25C380.2 300.25 371.86 295.23 364.69 291.09C357.53 286.95 349.74 282.74 347.39 281.75C344.92 280.71 342.91 280.35 342.63 280.9Z" />
		<path id="Path 12" class="shp4" d="M137.71 281.86C137.71 282.41 139.66 285.23 142.04 288.12C145.48 292.3 147.33 293.64 151.06 294.63C153.64 295.32 156.77 295.87 158.01 295.85C159.98 295.83 160.07 295.67 158.67 294.6C157.8 293.93 155.54 292.16 153.66 290.66C151.78 289.17 147.99 286.35 145.23 284.4C142.47 282.45 139.66 280.85 138.97 280.85C138.28 280.85 137.71 281.31 137.71 281.86Z" />
		<path id="Path 13" class="shp1" d="M116.18 282.55C115.08 282.8 114.28 283.31 114.39 283.68C114.51 284.06 115.41 285.14 116.39 286.1C117.52 287.2 120.73 288.12 125.12 288.6L132.07 289.37C127.39 282.18 126.83 281.89 122.68 281.98C120.2 282.04 117.28 282.3 116.18 282.55Z" />
		<path id="Path 14" class="shp4" d="M178.82 283.47C179.64 284.35 184.55 288.3 189.74 292.24C194.93 296.17 199.66 300.16 200.26 301.09C201 302.24 203.76 303.12 208.86 303.84C213 304.42 216.61 304.67 216.88 304.4C217.16 304.12 217.16 303.75 216.88 303.57C216.61 303.39 213.45 301.26 209.87 298.83C206.28 296.4 201.54 292.61 199.32 290.39C197.1 288.18 193.95 285.34 192.31 284.08C189.95 282.27 188.07 281.79 183.33 281.82C177.87 281.85 177.47 282 178.82 283.47Z" />
		<path id="Path 15" class="shp1" d="M205.04 284.59C206.52 286.12 211.63 290.07 216.39 293.38C221.16 296.69 227.27 301.08 229.99 303.15C233.52 305.84 235.76 306.84 237.87 306.66L240.82 306.41C234.3 298.78 229.26 293.24 225.4 289.18L218.38 281.79L202.35 281.81L205.04 284.59Z" />
		<path id="Path 16" class="shp4" d="M95.68 283.81C95.65 284.39 96.3 285.09 97.13 285.36C97.96 285.64 100.49 285.86 102.76 285.86C105.63 285.86 106.75 285.48 106.44 284.61C106.18 283.89 103.82 283.23 100.86 283.06C97.77 282.87 95.71 283.17 95.68 283.81ZM232.43 284.63C232.99 285.03 236.14 288.52 239.44 292.38C242.74 296.24 246.12 299.81 246.94 300.32C247.77 300.83 250.03 302.93 251.95 304.98C255.18 308.42 256.11 308.81 263.48 309.76C267.89 310.34 271.83 310.49 272.24 310.11C272.65 309.73 271.31 307.61 269.25 305.41L265.51 301.4C264.71 305.93 264.03 307.41 263.48 307.62C262.93 307.82 259.32 305.9 255.46 303.34C251.6 300.78 247.43 297.61 246.19 296.29C244.95 294.96 243.94 292.75 243.94 291.38C243.94 290 243.37 287.73 242.69 286.34C241.59 284.12 240.81 283.81 236.42 283.85C233.67 283.87 231.87 284.22 232.43 284.63ZM334.07 285.9C334.1 286.43 335.59 288.25 337.38 289.95C339.17 291.64 343.57 295.01 347.15 297.42C350.74 299.84 357.73 304.55 362.69 307.88C371.29 313.67 371.96 313.94 377.22 313.69L382.73 313.42C370.3 304.37 363.31 299.88 359.18 297.6C355.05 295.33 347.69 291.54 342.84 289.2C337.99 286.85 334.04 285.37 334.07 285.9Z" />
		<path id="Path 17" class="shp1" d="M263.95 288.62C263.93 290.39 264.92 292.28 266.71 293.89C268.24 295.27 273.1 299.6 277.51 303.51L285.52 310.63C294.84 310.66 298.56 310.95 299.8 311.3C301.04 311.64 302.28 311.47 302.56 310.92C302.84 310.37 297.81 306.87 291.38 303.15C284.96 299.43 279.08 295.48 278.31 294.38C277.54 293.28 274.79 290.9 272.2 289.1C269.61 287.3 266.7 285.83 265.73 285.84C264.5 285.86 263.97 286.68 263.95 288.62Z" />
		<path id="Path 18" class="shp4" d="M284.52 289.38C285.63 290.26 292.16 294.34 299.05 298.45C305.94 302.56 313.38 307.48 315.59 309.39C318.62 312 320.82 312.98 324.61 313.4C327.36 313.71 329.73 313.72 329.87 313.44C330.01 313.15 327.34 311.46 323.93 309.66C320.53 307.87 314.56 303.56 310.66 300.07C306.75 296.58 301.31 292.67 298.55 291.37C295.8 290.08 291.06 288.74 288.03 288.4C282.86 287.82 282.64 287.88 284.52 289.38Z" />
		<path id="Path 19" class="shp1" d="M315.2 293.28C315.14 293.61 317.57 295.69 320.6 297.89C323.63 300.09 328.14 302.8 330.62 303.9C333.1 305 337.27 307.92 339.89 310.38C344.26 314.49 345.08 314.86 349.91 314.89C352.8 314.91 355.39 314.59 355.65 314.17C355.91 313.76 353.99 311.97 351.39 310.2C348.78 308.43 344.12 305.27 341.03 303.19C337.94 301.1 334.55 298.54 333.51 297.5C332.47 296.46 330.72 295.27 329.62 294.87C328.51 294.46 324.84 293.8 321.46 293.41C318.08 293.01 315.26 292.95 315.2 293.28Z" />
		<path id="Path 20" class="shp4" d="M60.57 297.64C60.58 298.05 60.92 298.86 61.32 299.43C61.73 300 64.76 302.55 68.07 305.1C71.38 307.64 77.24 311.05 81.1 312.67C84.95 314.29 93.75 317.03 100.64 318.75C107.53 320.47 120.6 323.67 129.7 325.85C138.79 328.03 148.71 330.11 151.74 330.46C154.78 330.81 162.67 331.99 169.28 333.09C175.9 334.18 186.04 335.94 191.83 337C197.62 338.06 210.47 339.62 220.39 340.47C230.31 341.31 242.48 342.66 247.45 343.47C252.41 344.28 261.88 345.42 268.49 346C275.1 346.58 289.53 347.12 300.56 347.2C311.58 347.27 327.59 346.81 336.13 346.16C344.67 345.5 357.87 344.41 365.45 343.73C373.04 343.04 379.24 342.15 379.23 341.73C379.23 341.32 375.95 340.97 371.96 340.96C367.96 340.94 348.23 340.49 328.11 339.95C308 339.42 286.35 338.54 280.01 338.01C273.67 337.47 262.4 336.35 254.96 335.51C247.52 334.67 235.57 333.06 228.41 331.93C221.24 330.81 212.22 329.26 208.36 328.5C204.5 327.73 196.61 326.33 190.83 325.38C185.04 324.43 172.41 321.92 162.77 319.8C153.12 317.68 143.88 315.95 142.22 315.95C140.57 315.95 135.84 315.24 131.7 314.36C127.57 313.49 121.93 312.15 119.18 311.38C116.42 310.62 107.18 308.61 98.63 306.93C90.09 305.25 79.49 302.91 75.08 301.74C70.67 300.57 65.83 299 64.31 298.25C62.8 297.5 61.33 296.89 61.05 296.89C60.78 296.89 60.56 297.23 60.57 297.64Z" />
		<path id="Path 21" class="shp1" d="M68.99 316.83C68.79 317.16 69.36 318.78 70.25 320.44C71.15 322.09 72.6 323.96 73.48 324.59C74.36 325.22 76.44 326.98 78.09 328.5C79.74 330.03 82.9 332.04 85.1 332.97C87.31 333.9 94.07 336.11 100.14 337.88C106.2 339.64 112.74 341.69 114.67 342.43C116.6 343.17 122.68 344.75 128.2 345.95C133.71 347.15 141.37 348.51 145.23 348.97C149.09 349.43 159.91 350.97 169.28 352.4C178.65 353.83 189.7 355.65 193.83 356.45C197.97 357.25 205.86 358.6 211.37 359.45C216.88 360.31 231.54 361.47 243.94 362.05C256.34 362.63 278.89 363.52 294.04 364.04C311.04 364.61 331.39 364.62 347.15 364.04C361.21 363.53 373.01 362.76 373.38 362.32C373.75 361.88 374.43 359.13 374.89 356.21L375.71 350.9C371.05 351.79 362.04 352.5 352.67 353.06C343.3 353.62 330.22 354.52 323.6 355.07C316.99 355.61 304.14 355.79 295.04 355.47C285.95 355.15 271.07 354.21 261.98 353.38C252.88 352.56 245.1 351.68 244.69 351.44C244.28 351.2 234.58 350.12 223.14 349.03C211.71 347.95 191.08 345.21 177.3 342.94C163.52 340.67 146.83 337.76 140.22 336.46C133.61 335.16 122.78 332.76 116.17 331.12C109.56 329.49 99.41 326.93 93.62 325.43C87.84 323.94 80 321.25 76.22 319.47C72.44 317.69 69.18 316.5 68.99 316.83Z" />
		<path id="Path 22" class="shp4" d="M86.07 344.61C87.06 346.19 89.05 348.74 90.5 350.27C91.94 351.8 93.69 353.04 94.37 353.03C95.06 353.02 97.77 354.08 100.39 355.39C103 356.7 107.63 358.48 110.66 359.34C113.69 360.2 120.9 361.86 126.69 363.02C132.48 364.19 143.08 366.44 150.24 368.03C157.41 369.63 167.33 371.19 172.29 371.51C177.25 371.83 185.59 372.51 190.83 373.02C196.06 373.54 206.66 374.67 214.38 375.53C222.09 376.4 235.39 377.78 243.94 378.59C253.94 379.55 278.03 380.31 311.58 380.72L363.69 381.37C367.13 375.31 368.15 373.1 368.17 372.55C368.19 371.89 361.25 371.79 347.91 372.26C336.75 372.65 316.56 372.75 303.06 372.49C289.56 372.23 271.75 371.57 263.48 371.03C255.21 370.48 239.88 369.56 229.41 368.98C218.94 368.4 206.99 367.27 202.85 366.46C198.72 365.65 191.5 364.36 186.82 363.59C182.13 362.81 170.41 361.01 160.76 359.58C151.12 358.15 138.94 356.25 133.71 355.35C128.47 354.45 121.48 352.94 118.17 351.98C114.87 351.02 106.98 348.66 100.64 346.75C94.3 344.84 88.02 342.92 86.69 342.5L84.27 341.72L86.07 344.61Z" />
		<path id="Path 23" class="shp1" d="M103.31 367.18C103.68 367.93 105.37 370.33 107.07 372.51C108.77 374.7 112.64 378.89 115.67 381.82C119.12 385.17 124.17 388.6 129.2 391.02C133.61 393.15 139.02 395.42 141.22 396.06C143.43 396.71 147.49 397.89 150.24 398.68C153 399.47 162.02 401.03 170.28 402.14C178.55 403.25 190.73 404.79 197.34 405.56C203.95 406.33 215.23 407.45 222.39 408.05C229.56 408.64 239.25 409.12 243.94 409.11C249.35 409.09 254.1 409.68 256.96 410.71C259.98 411.8 266.3 412.52 276 412.87C284.4 413.18 295.41 412.9 302.06 412.2C308.4 411.54 316.97 410.07 321.1 408.95C325.23 407.82 331.32 405.78 334.63 404.41C337.93 403.05 343.23 400.28 346.39 398.26C349.56 396.24 352.14 393.92 352.14 393.09C352.13 392.26 352.7 390.98 353.4 390.23C354.46 389.1 353.44 388.96 347.15 389.36C343.02 389.63 322.05 389.45 300.56 388.97C279.06 388.49 255.16 387.6 247.45 387C239.73 386.39 225.75 385.02 216.38 383.95C207.01 382.88 194.61 381.56 188.82 381.03C183.03 380.49 173.34 379.61 167.28 379.08C161.21 378.55 153.77 377.42 150.74 376.59C147.71 375.75 141.85 374.41 137.71 373.61C133.58 372.8 124.79 370.99 118.17 369.58C111.56 368.17 105.36 366.74 104.4 366.42C103.15 365.99 102.84 366.21 103.31 367.18Z" />
	</g>
	<text id="2:1 " style="transform: matrix(0.995,-0.105,0.105,0.995,197.956,226.401)" >
		<tspan x="0" y="0" class="txt6">2:1</tspan>
	</text>
	<g id="wheat">
		<path id="Path 0" class="shp0" d="M267.01 30.6L265.37 33.66C262.69 29.96 261.51 28.92 261.02 28.98C260.52 29.03 259.77 30.25 259.34 31.69L258.57 34.3C255.38 31.49 254.17 30.91 253.67 31.14C253.19 31.36 252.6 32.83 252.36 34.4L251.91 37.26C247.37 34.46 245.78 33.68 245.45 33.72C245.12 33.75 244.76 34.2 244.65 34.72C244.5 35.42 243.99 35.59 242.59 35.4C241.26 35.22 240.75 35.36 240.82 35.9C240.88 36.38 240.37 36.6 239.39 36.51C238.36 36.42 237.79 36.68 237.65 37.3C237.53 37.9 237.05 38.14 236.36 37.96C235.69 37.79 235.02 38.1 234.63 38.76C234.27 39.36 233.82 39.58 233.62 39.26C233.42 38.95 232.85 38.74 232.35 38.8C231.75 38.86 231.52 39.49 231.65 40.69C231.82 42.19 231.64 42.46 230.62 42.32C229.84 42.22 229.22 42.57 228.94 43.27C228.57 44.17 228.32 44.25 227.62 43.71C227.14 43.33 226.41 43.07 226 43.12C225.59 43.17 225.31 43.76 225.38 44.42C225.48 45.3 225.16 45.61 224.15 45.61C223.13 45.61 222.78 45.96 222.78 46.98C222.78 48.09 222.49 48.32 221.25 48.21C220 48.1 219.64 48.39 219.29 49.79C218.95 51.18 218.49 51.54 216.92 51.72C215.21 51.9 215.02 52.1 215.29 53.41C215.47 54.23 216.19 55.85 216.9 57.03C218.18 59.12 218.18 59.19 217.01 60.66C216.36 61.48 215.84 62.36 215.86 62.6C215.88 62.85 217.03 63.48 218.43 63.99C220.57 64.79 220.94 65.16 220.82 66.46C220.71 67.68 221.08 68.17 222.61 68.84C223.66 69.31 224.58 70.17 224.64 70.75C224.7 71.39 225.83 72.2 227.58 72.85C229.15 73.43 230.76 74.48 231.18 75.19C231.59 75.89 233.23 77.22 234.82 78.13C236.41 79.04 237.63 80.13 237.52 80.56C237.41 80.99 237.99 81.84 238.81 82.45C239.63 83.05 241.65 84.06 243.3 84.69C246.07 85.73 246.38 86.05 247.24 88.75C247.75 90.36 248.16 93.26 248.15 95.18C248.14 98.4 248.25 98.73 249.69 99.54L251.25 100.41C249.96 105.05 248.31 110.09 246.74 114.6C245.18 119.11 243.41 124.41 242.82 126.38L241.74 129.97C243.81 131.71 245.67 132.44 247.2 132.72C248.73 132.99 251.68 133.71 253.75 134.31C256.6 135.14 259.56 135.36 265.99 135.22C270.65 135.11 275.37 135.25 276.48 135.52C278.05 135.89 278.64 135.82 279.14 135.17C279.5 134.72 281.15 134.19 282.82 134C284.48 133.81 287.69 133.04 289.94 132.29C292.2 131.53 295.36 130.5 296.97 129.99C298.59 129.48 301.44 128.07 303.31 126.86C305.17 125.65 307.27 123.99 307.96 123.18C308.66 122.37 309.42 121.21 309.65 120.6C309.95 119.83 309.65 118.85 308.64 117.37C307.85 116.21 306.41 114.25 305.44 113.02C304.48 111.79 300.94 106.58 297.58 101.44C293.3 94.9 291.59 91.81 291.89 91.14C292.12 90.61 292.08 88.43 291.79 86.3C291.47 83.91 291.54 81.8 291.95 80.84C292.32 79.98 292.87 78.96 293.17 78.58C293.48 78.2 293.82 77.59 293.94 77.22C294.05 76.86 295.34 75.56 296.79 74.33C298.24 73.11 299.76 71.39 300.16 70.51C300.57 69.63 300.75 68.72 300.58 68.49C300.4 68.26 301.23 67.08 302.41 65.86C303.6 64.65 304.53 63.25 304.47 62.75C304.42 62.26 305.39 60.54 306.63 58.95C307.88 57.35 309.53 54.98 310.3 53.69C311.08 52.4 311.54 50.95 311.32 50.47C311.1 49.99 311.37 49.32 311.91 48.97C312.46 48.62 313.33 47.5 313.85 46.48C314.78 44.65 314.77 44.62 313.39 43.72C312.07 42.86 312.02 42.62 312.38 39.44C312.69 36.76 312.6 35.92 311.95 35.39C311.29 34.85 310.84 34.89 309.7 35.63C308.45 36.43 308.26 36.41 308.19 35.49C308.14 34.91 307.64 34.15 307.09 33.79C306.28 33.27 305.75 33.35 304.38 34.24C303.44 34.84 302.51 35.15 302.31 34.92C302.11 34.69 301.9 33.96 301.85 33.3C301.8 32.64 301.52 31.93 301.24 31.72C300.95 31.51 300.22 31.69 299.6 32.12C298.7 32.74 298.35 32.71 297.91 31.98C297.41 31.15 297.26 31.17 296.28 32.24C295.24 33.37 295.17 33.37 294.7 32.26C294.43 31.63 294.06 30.78 293.88 30.38C293.63 29.8 293.33 29.84 292.42 30.54C291.49 31.27 291.18 31.28 290.66 30.58C290.27 30.06 289.7 29.95 289.13 30.3C288.55 30.65 288.09 30.54 287.83 29.98C287.61 29.51 287.1 29.16 286.68 29.21C286.27 29.27 285.51 29.83 284.98 30.46C284.08 31.55 284.02 31.56 283.93 30.56C283.88 29.98 283.55 29.41 283.2 29.28C282.85 29.15 282.19 29.36 281.73 29.74C281.13 30.25 280.79 30.2 280.5 29.57C280.28 29.1 279.85 28.73 279.55 28.77C279.24 28.8 278.6 29.35 278.11 29.99C277.28 31.08 277.21 31.08 276.74 29.83C276.47 29.11 276.02 28.55 275.74 28.58C275.47 28.61 274.64 29.45 273.92 30.45C273.19 31.44 272.5 32.13 272.4 31.98C272.29 31.82 271.63 30.74 270.92 29.56C270.22 28.39 269.42 27.45 269.15 27.48C268.87 27.51 267.91 28.91 267.01 30.6Z" />
		<path id="Path 1" class="shp7" d="M260.75 34.25C260.47 35.24 260.15 36.46 260.05 36.97C259.95 37.49 260.24 38.23 260.71 38.64C261.39 39.23 261.37 39.52 260.63 40.16C260.13 40.6 259.71 41.78 259.7 42.78C259.7 44.29 259.93 44.6 261.06 44.6C262.12 44.6 262.55 45.07 262.96 46.67C263.32 48.1 263.97 48.92 265.05 49.32C266.41 49.83 266.77 49.73 267.72 48.57C268.33 47.84 268.79 47.04 268.75 46.79C268.72 46.55 268.01 46.42 267.19 46.51C266.36 46.6 265.53 46.49 265.35 46.26C265.16 46.03 265.69 44.6 266.52 43.09C267.35 41.58 268 40.08 267.96 39.75C267.93 39.42 267.36 39.21 266.7 39.28C266.04 39.35 265.39 39.7 265.26 40.04C265.13 40.39 264.7 40.64 264.31 40.6C263.84 40.56 263.51 39.36 263.36 37.17C263.21 34.9 262.83 33.6 262.2 33.14C261.43 32.57 261.19 32.76 260.75 34.25Z" />
		<path id="Path 2" class="shp8" d="M267.73 34.01C267.31 35.22 267.13 36.47 267.33 36.78C267.53 37.09 268.17 37.31 268.75 37.25C269.33 37.2 270.03 36.51 270.32 35.72C270.69 34.66 270.61 33.93 270.02 32.98C269.57 32.27 269.04 31.71 268.84 31.74C268.65 31.78 268.14 32.79 267.73 34.01Z" />
		<path id="Path 3" class="shp9" d="M254.3 36.54C254.05 37.65 253.88 38.77 253.91 39.01C253.95 39.26 254.65 39.39 255.47 39.3C256.36 39.2 257.08 38.69 257.23 38.04C257.37 37.44 257.05 36.38 256.51 35.68C255.98 34.97 255.36 34.43 255.14 34.46C254.92 34.49 254.54 35.43 254.3 36.54Z" />
		<path id="Path 4" class="shp7" d="M294.39 31.69C294.44 32.19 294.77 32.7 295.12 32.83C295.48 32.96 295.57 32.56 295.32 31.89C295.09 31.25 294.76 30.74 294.59 30.76C294.43 30.78 294.34 31.2 294.39 31.69Z" />
		<path id="Path 5" class="shp10" d="M247.57 37.61C247.59 37.84 247.72 38.57 247.86 39.22C248 39.87 248.86 41.21 249.78 42.2C251.14 43.67 251.28 44.06 250.57 44.39C250.09 44.61 249.24 44.99 248.69 45.24C247.8 45.65 247.88 45.84 249.38 46.84C250.32 47.46 251.63 48.22 252.3 48.52C253.45 49.04 253.47 49.13 252.6 50.46C251.72 51.8 251.74 51.87 253.13 52.53C253.92 52.91 255.4 53.5 256.41 53.84C257.43 54.18 258.38 54.79 258.53 55.2C258.71 55.66 258.16 56 257.01 56.12C256.02 56.23 255.24 56.52 255.26 56.77C255.29 57.02 256.78 58.01 258.58 58.98C261.09 60.34 261.81 61.04 261.68 61.98C261.56 62.9 262.17 63.57 264.05 64.6C265.45 65.37 266.62 66.27 266.66 66.59C266.69 66.92 266.32 67.24 265.82 67.29C265.33 67.35 264.82 67.68 264.69 68.02C264.56 68.37 266.08 69.5 268.07 70.54C270.05 71.57 272.13 73.12 272.69 73.97C273.25 74.83 273.96 75.37 274.27 75.17C274.62 74.94 274.39 74.2 273.68 73.26C272.78 72.07 272.52 70.86 272.49 67.93C272.47 65.84 272.26 64.17 272.01 64.21C271.76 64.24 271.07 64.74 270.46 65.3C269.85 65.86 269.15 66.34 268.91 66.36C268.66 66.38 268.48 64.73 268.5 62.68L268.55 58.97C265.64 59.72 265.59 59.63 265.01 55.7L264.41 51.67C262.15 53.39 261.47 53.58 261.25 53.23C261.05 52.92 261.04 51.62 261.23 50.35C261.42 49.08 261.56 47.76 261.53 47.43C261.5 47.06 260.7 47.09 259.42 47.51L257.36 48.19L257.23 41.53C252.72 42.61 252.43 42.51 251.67 41.08C251.21 40.21 250.09 38.98 249.19 38.35C248.28 37.71 247.56 37.38 247.57 37.61Z" />
		<path id="Path 6" class="shp7" d="M277.17 35.32C276.61 36.65 276.63 37.15 277.28 37.67C277.92 38.2 278.18 37.94 278.53 36.47C278.77 35.44 278.72 34.38 278.42 34.11C278.12 33.84 277.57 34.37 277.17 35.32Z" />
		<path id="Path 7" class="shp10" d="M230.99 41.06C230.97 41.89 231.15 42.55 231.4 42.53C231.65 42.51 231.77 41.82 231.68 40.99C231.59 40.17 231.41 39.51 231.28 39.52C231.15 39.54 231.02 40.23 230.99 41.06Z" />
		<path id="Path 8" class="shp8" d="M284.09 36.23C283.49 37.43 283.11 38.66 283.26 38.98C283.4 39.3 283.75 39.53 284.03 39.5C284.32 39.47 285.01 38.49 285.57 37.33C286.27 35.85 286.37 35.03 285.89 34.63C285.4 34.23 284.87 34.7 284.09 36.23ZM240.49 40.18C240.31 40.45 240.88 41.62 241.75 42.79C242.63 43.95 243.68 44.86 244.09 44.81C244.5 44.75 244.82 44.58 244.8 44.41C244.79 44.25 244.32 43.41 243.76 42.55C243.21 41.7 242.32 40.7 241.79 40.35C241.26 39.99 240.68 39.92 240.49 40.18Z" />
		<path id="Path 9" class="shp10" d="M291.33 35.44C290.72 36.3 290.19 37.54 290.15 38.2C290.11 38.9 290.46 39.45 291 39.51C291.51 39.56 292.21 38.95 292.56 38.14C292.91 37.34 293.03 36.05 292.82 35.28L292.45 33.88L291.33 35.44Z" />
		<path id="Path 10" class="shp8" d="M298.13 37.05C297.55 38.3 297.3 39.8 297.56 40.45C297.85 41.19 297.53 42.33 296.7 43.58C295.85 44.84 295.55 45.96 295.85 46.7C296.11 47.34 295.95 48.59 295.5 49.47C295.05 50.36 294.74 51.55 294.8 52.13C294.87 52.71 294.12 54.43 293.14 55.95C292.15 57.48 291.51 59.05 291.7 59.45C291.89 59.85 291.36 61.27 290.52 62.61C289.51 64.21 289.14 65.46 289.44 66.22C289.75 67 289.3 68.41 288.07 70.47C287.06 72.16 286.26 73.82 286.3 74.15C286.34 74.48 286.9 74.69 287.56 74.62C288.22 74.55 289.78 73.83 291.03 73.03C292.28 72.22 293.27 71.29 293.23 70.96C293.2 70.63 292.61 70.29 291.93 70.2C291.26 70.1 290.67 69.76 290.64 69.43C290.6 69.1 291.56 67.9 292.77 66.77C294.73 64.94 294.88 64.58 294.1 63.62C293.32 62.66 293.5 62.24 295.8 59.79C297.22 58.28 298.22 56.79 298.02 56.48C297.82 56.17 297.11 55.97 296.45 56.05C295.79 56.12 295.23 55.98 295.19 55.73C295.16 55.48 296.27 54.34 297.67 53.18C299.06 52.03 300.17 50.95 300.12 50.79C300.08 50.63 299.55 50.21 298.94 49.86C297.91 49.27 297.93 49.11 299.19 47.82C299.94 47.06 300.99 45.98 301.51 45.44C302.04 44.9 302.3 44.21 302.1 43.9C301.9 43.58 301.19 43.39 300.54 43.46C299.88 43.53 299.17 43.34 298.97 43.02C298.77 42.71 299.01 41.18 299.51 39.63C300.1 37.76 300.2 36.46 299.79 35.8C299.25 34.95 299.02 35.12 298.13 37.05Z" />
		<path id="Path 11" class="shp10" d="M234.38 43.73C234.44 44.39 235.1 45.55 235.84 46.3C236.93 47.42 237.32 47.52 237.89 46.83C238.48 46.13 238.22 45.68 236.44 44.26C234.54 42.74 234.29 42.68 234.38 43.73Z" />
		<path id="Path 12" class="shp8" d="M269.67 41.38C269.23 42.56 269.2 43.37 269.59 43.51C269.94 43.64 270.87 43.4 271.66 42.98C272.44 42.56 273.3 41.65 273.56 40.96C273.81 40.26 274.01 39.56 273.99 39.39C273.97 39.23 273.16 39.18 272.17 39.29C270.79 39.44 270.22 39.91 269.67 41.38Z" />
		<path id="Path 13" class="shp9" d="M303.29 38.18C302.44 39.21 301.83 40.37 301.94 40.76C302.05 41.15 302.68 41.4 303.34 41.33C304.1 41.25 304.8 40.45 305.27 39.15C305.67 38.01 305.74 36.92 305.42 36.7C305.11 36.48 304.15 37.15 303.29 38.18Z" />
		<path id="Path 14" class="shp7" d="M275.47 41.7C275.09 42.38 275.33 42.88 276.43 43.62C277.36 44.25 278.21 44.4 278.75 44.04C279.22 43.73 279.95 42.98 280.39 42.39C280.83 41.79 281.04 41.23 280.86 41.14C280.68 41.04 279.51 40.93 278.26 40.87C276.67 40.81 275.83 41.05 275.47 41.7Z" />
		<path id="Path 15" class="shp8" d="M282.83 42.75C282.21 43.7 281.81 45.18 281.93 46.04C282.05 46.9 281.67 48.2 281.08 48.93C280.48 49.68 280.2 50.7 280.44 51.28C280.68 51.83 281.14 52.26 281.47 52.23C281.8 52.19 282.93 51.31 283.99 50.28C285.04 49.25 285.88 48.2 285.85 47.95C285.83 47.7 285.25 47.43 284.57 47.33C283.9 47.24 283.31 46.9 283.28 46.57C283.24 46.24 283.92 45.6 284.79 45.15C285.66 44.69 286.9 43.67 287.56 42.87C288.21 42.07 288.6 41.23 288.41 41C288.23 40.77 287.15 40.68 286.02 40.8C284.52 40.97 283.65 41.5 282.83 42.75Z" />
		<path id="Path 16" class="shp10" d="M307.17 41.06C305.99 42.61 304.53 44.75 303.92 45.82C303.25 47 303 48.22 303.29 48.92C303.6 49.67 303.37 50.56 302.64 51.42C302.02 52.16 301.58 53.23 301.65 53.81C301.75 54.57 302.28 54.8 303.58 54.66C304.57 54.55 306.03 54.12 306.82 53.7C307.6 53.28 308.22 52.66 308.18 52.33C308.15 52 307.56 51.66 306.89 51.56C306.21 51.47 305.62 51.13 305.59 50.8C305.55 50.47 306.93 49.36 308.66 48.34C310.38 47.31 311.63 46.22 311.42 45.91C311.22 45.6 310.25 45.43 309.26 45.54C308.21 45.65 307.43 45.42 307.4 44.98C307.36 44.57 308.05 43.33 308.93 42.24C309.81 41.14 310.47 39.77 310.4 39.19C310.33 38.62 310.06 38.17 309.79 38.2C309.53 38.23 308.35 39.52 307.17 41.06Z" />
		<path id="Path 17" class="shp8" d="M228.23 48.5C228.26 48.92 228.91 49.87 229.66 50.62L231.03 51.99C230.83 49.9 230.59 48.9 230.37 48.42C230.16 47.94 229.57 47.6 229.08 47.65C228.58 47.71 228.2 48.09 228.23 48.5ZM243.63 47.27C243.49 47.62 242.83 47.97 242.17 48.04C241.51 48.11 240.98 48.37 240.99 48.62C241.01 48.87 241.81 49.32 242.77 49.63C243.74 49.93 245.12 50.66 245.86 51.25C246.95 52.13 247.07 52.5 246.54 53.31C246.18 53.86 246.05 54.56 246.25 54.87C246.46 55.18 247.68 55.74 248.97 56.11C250.26 56.47 251.38 56.76 251.47 56.74C251.55 56.73 251.57 56.31 251.52 55.81C251.46 55.32 250.78 54.23 250 53.4C249.1 52.44 248.65 51.38 248.77 50.5C248.92 49.42 248.47 48.84 246.7 47.84C245.45 47.15 244.31 46.59 244.16 46.61C244.02 46.62 243.77 46.92 243.63 47.27Z" />
		<path id="Path 18" class="shp10" d="M289.68 43.74C289.01 44.76 288.81 45.7 289.16 46.23C289.52 46.8 289.25 47.66 288.37 48.74C287.49 49.82 287.22 50.68 287.58 51.24C287.88 51.72 288.6 52.06 289.18 52.01C289.76 51.96 290.92 51.28 291.75 50.51C292.58 49.74 293.24 48.84 293.2 48.51C293.16 48.18 292.58 47.84 291.9 47.74C291.22 47.65 290.71 47.32 290.76 47C290.81 46.68 291.7 45.69 292.75 44.81C293.79 43.92 294.7 42.85 294.76 42.42C294.84 41.92 294.17 41.73 292.82 41.88C291.35 42.04 290.45 42.58 289.68 43.74Z" />
		<path id="Path 19" class="shp9" d="M221.91 51.78C221.97 52.44 222.63 53.59 223.37 54.35C224.6 55.61 224.74 55.63 225.09 54.58C225.36 53.74 224.98 53.06 223.63 52.01C221.95 50.69 221.81 50.67 221.91 51.78Z" />
		<path id="Path 20" class="shp8" d="M272.42 46.12C271.73 46.61 271.06 47.43 270.93 47.93C270.81 48.44 271.15 49.01 271.69 49.2C272.38 49.44 272.9 49.06 273.41 47.95C273.82 47.07 274.04 46.1 273.91 45.79C273.77 45.45 273.16 45.59 272.42 46.12Z" />
		<path id="Path 21" class="shp10" d="M235.75 50.36L234.27 50.77C236.34 52.43 237.91 53.09 239.1 53.3C240.63 53.58 241.43 53.49 241.8 52.99C242.16 52.51 241.8 51.85 240.66 50.93C239.75 50.18 238.6 49.66 238.11 49.76C237.62 49.87 236.56 50.14 235.75 50.36Z" />
		<path id="Path 22" class="shp7" d="M275.3 48.79C274.83 49.58 274.5 50.44 274.56 50.69C274.63 50.94 275.26 50.92 275.98 50.63C276.7 50.35 277.71 49.62 278.22 49.02C278.73 48.42 279 47.74 278.82 47.51C278.63 47.28 277.95 47.15 277.31 47.22C276.66 47.29 275.76 48 275.3 48.79Z" />
		<path id="Path 23" class="shp10" d="M218.04 54.93C218.08 55.26 219.18 56.64 220.5 58C221.82 59.36 222.73 60.62 222.53 60.81C222.33 61 221.53 61.22 220.76 61.31C219.82 61.41 219.54 61.68 219.89 62.13C220.18 62.5 221.62 63.16 223.09 63.6C224.55 64.04 225.78 64.6 225.81 64.85C225.85 65.1 225.6 65.6 225.27 65.97C224.93 66.34 224.86 66.97 225.1 67.36C225.35 67.75 227.08 68.31 228.95 68.6C230.81 68.9 232.37 69.41 232.41 69.74C232.44 70.07 232.07 70.39 231.57 70.44C231.08 70.49 230.8 70.87 230.95 71.27C231.1 71.67 232.7 72.59 234.51 73.31C237.14 74.35 237.7 74.81 237.3 75.58C236.94 76.27 237.08 76.78 237.79 77.35C238.34 77.79 239.33 78.09 239.99 78.01C240.65 77.94 241.16 77.55 241.12 77.13C241.08 76.72 240.11 75.32 238.96 74.03C237.81 72.74 236.94 71.19 237.03 70.6C237.14 69.87 236.36 69.02 234.61 67.98C233.04 67.05 231.99 65.97 231.93 65.24C231.88 64.58 231.34 63.68 230.74 63.25C230.14 62.81 229.36 62.01 229 61.47C228.61 60.87 228.56 60.09 228.86 59.51C229.24 58.78 229 58.36 227.91 57.81C226.65 57.16 226.37 57.19 225.66 58.04C225.22 58.57 224.52 59.05 224.11 59.11C223.7 59.16 223.3 58.66 223.23 58C223.16 57.34 222.22 56.22 221.14 55.5C220.06 54.79 218.9 54.23 218.57 54.27C218.24 54.3 218 54.6 218.04 54.93Z" />
		<path id="Path 24" class="shp8" d="M231.83 53.42C231.87 53.75 231.04 54.33 230 54.71L228.1 55.39C234.26 58.88 234.3 58.93 233.15 59.95C232.03 60.95 232.03 61.02 233.18 61.89C233.84 62.39 235.22 62.98 236.24 63.2C237.27 63.43 238.36 64 238.66 64.48C239.06 65.12 238.89 65.39 238.01 65.49C237.35 65.56 236.71 65.9 236.58 66.25C236.45 66.6 237.81 67.61 239.6 68.5C242.84 70.1 242.86 70.12 241.73 71.3L240.6 72.49C242.9 74.21 244.21 74.88 244.98 75.1C246.01 75.39 246.4 75.92 246.41 77.08C246.43 78.38 247.02 78.98 249.66 80.39C252.07 81.68 252.97 81.91 253.24 81.29C253.43 80.84 253.54 79.93 253.48 79.27C253.42 78.6 252.03 77.06 250.38 75.81C248.74 74.58 247.35 73.16 247.29 72.66C247.24 72.17 247.53 71.74 247.95 71.71C248.36 71.67 247.42 70.55 245.85 69.2C244.21 67.79 243.09 66.37 243.21 65.83C243.34 65.23 242.35 64.3 240.48 63.24C238.87 62.34 237.53 61.39 237.52 61.14C237.5 60.89 237.8 60.48 238.19 60.22C238.67 59.9 238.15 59.28 236.62 58.33C234.55 57.05 234.41 56.81 235.13 55.8C235.84 54.79 235.76 54.58 234.29 53.71C233.4 53.18 232.47 52.76 232.22 52.78C231.97 52.8 231.8 53.09 231.83 53.42Z" />
		<path id="Path 25" class="shp10" d="M239.61 55.75C238.72 56.15 238.06 56.66 238.14 56.87C238.22 57.09 239.36 57.66 240.68 58.14C241.99 58.62 243.39 58.81 243.78 58.56C244.17 58.31 244.45 57.73 244.42 57.27C244.38 56.81 243.65 56.11 242.78 55.72C241.65 55.21 240.77 55.21 239.61 55.75Z" />
		<path id="Path 26" class="shp9" d="M267.33 52.87C267.19 53.38 267.12 54.21 267.17 54.7C267.23 55.2 267.68 55.56 268.17 55.5C268.67 55.45 269.28 54.84 269.54 54.14C269.8 53.44 269.98 52.61 269.94 52.28C269.91 51.95 269.36 51.73 268.73 51.8C268.1 51.87 267.47 52.35 267.33 52.87ZM271.25 55.77C270.86 56.82 270.66 58.14 270.81 58.7C271.02 59.47 271.46 59.06 272.47 57.16C273.22 55.74 273.82 54.38 273.79 54.13C273.76 53.88 273.34 53.72 272.85 53.78C272.36 53.83 271.64 54.73 271.25 55.77Z" />
		<path id="Path 27" class="shp7" d="M275.93 54.05C275.79 54.4 275.83 54.94 276.03 55.25C276.28 55.63 276.68 55.58 277.23 55.12C277.69 54.73 277.9 54.16 277.7 53.85C277.5 53.54 277.08 53.31 276.77 53.35C276.45 53.38 276.08 53.7 275.93 54.05Z" />
		<path id="Path 28" class="shp8" d="M279.7 55.55C279.31 56.54 279.03 57.62 279.06 57.95C279.1 58.28 279.46 58.51 279.87 58.45C280.29 58.4 281.43 57.59 282.41 56.66C283.39 55.73 284.07 54.77 283.92 54.54C283.77 54.3 282.92 54.03 282.02 53.93C280.69 53.78 280.28 54.07 279.7 55.55ZM250.59 58.17C249.82 58.62 249.27 59.21 249.37 59.48C249.46 59.75 250.84 60.58 252.43 61.33C254.01 62.07 255.34 62.95 255.38 63.28C255.42 63.61 255.15 64.25 254.78 64.7C254.4 65.15 254.24 65.6 254.42 65.69C254.6 65.77 255.98 66.58 257.5 67.48C259.02 68.38 260.29 69.39 260.32 69.72C260.36 70.05 259.8 70.53 259.08 70.79C257.78 71.26 257.78 71.28 259.04 71.86C259.74 72.18 262.04 73.83 264.15 75.52C266.25 77.21 268.09 78.44 268.24 78.26C268.39 78.07 267.85 76.97 267.06 75.81C266.26 74.64 265.57 73.28 265.53 72.79C265.48 72.29 264.39 70.91 263.1 69.72C261.28 68.03 260.9 67.37 261.39 66.75C261.89 66.13 261.56 65.66 259.92 64.64C258.75 63.91 257.56 62.73 257.26 62.01C256.96 61.29 255.78 59.92 254.63 58.96C253.49 58 252.43 57.25 252.27 57.29C252.12 57.33 251.36 57.73 250.59 58.17Z" />
		<path id="Path 29" class="shp10" d="M288.09 54.37C287.13 54.63 285.91 55.47 285.4 56.25C284.88 57.03 284.53 58.27 284.62 59.01C284.71 59.75 284.2 61.24 283.49 62.32C282.6 63.66 282.34 64.7 282.68 65.6C283.02 66.53 282.7 67.62 281.57 69.36C280.69 70.71 280.05 72.49 280.14 73.31C280.23 74.13 280.51 74.8 280.76 74.79C281 74.77 281.56 74.26 282 73.65C282.43 73.04 283.73 71.79 284.88 70.88C286.03 69.97 286.81 68.97 286.61 68.66C286.41 68.34 285.72 68.28 285.08 68.52C284.2 68.84 283.88 68.65 283.78 67.75C283.7 67.03 284.37 66.02 285.47 65.21C286.47 64.47 287.45 63.41 287.64 62.85C287.83 62.27 287.72 61.86 287.38 61.9C287.05 61.93 286.74 61.56 286.69 61.06C286.63 60.57 287.64 59.02 288.93 57.63C290.21 56.24 291.41 54.74 291.6 54.3C291.81 53.79 291.55 53.58 290.89 53.71C290.31 53.82 289.06 54.12 288.09 54.37ZM245.26 61.07C244.72 61.45 243.99 61.66 243.65 61.53C243.3 61.4 243.04 61.57 243.08 61.9C243.12 62.23 244.65 63.49 246.49 64.71C249.32 66.58 249.69 67.03 248.93 67.63C248.17 68.23 248.42 68.56 250.65 69.87C252.09 70.71 253.28 71.67 253.29 72C253.3 72.34 252.89 73 252.37 73.47C251.49 74.28 251.51 74.37 252.7 74.89C253.4 75.2 255.25 76.5 256.81 77.78C258.37 79.06 259.78 80.09 259.94 80.08C260.11 80.06 259.95 78.91 259.59 77.54C259.13 75.76 258.18 74.36 256.33 72.73C254.85 71.43 253.81 70.04 253.93 69.51C254.04 68.99 253.18 67.65 252.02 66.53C250.67 65.22 250 64.09 250.16 63.4C250.33 62.64 249.83 62.01 248.48 61.3C247.41 60.75 246.48 60.32 246.4 60.34C246.32 60.36 245.81 60.69 245.26 61.07ZM299.81 58.68C298.32 60.2 298.23 60.5 299.11 61.07C299.93 61.6 300.54 61.42 302.47 60.09C303.76 59.2 304.89 58.19 304.96 57.84C305.04 57.5 304.3 57.16 303.31 57.08C301.97 56.98 301.09 57.37 299.81 58.68Z" />
		<path id="Path 30" class="shp9" d="M273.96 61.24C274.01 61.74 274.26 62.13 274.51 62.12C274.76 62.11 275.24 61.64 275.58 61.09C276.09 60.26 275.99 60.11 275.03 60.22C274.39 60.29 273.91 60.75 273.96 61.24Z" />
		<path id="Path 31" class="shp8" d="M277.51 62.37C277.04 63.09 276.82 63.93 277.02 64.25C277.22 64.56 277.72 64.78 278.14 64.75C278.55 64.71 279.37 64.06 279.95 63.3C280.87 62.1 280.88 61.85 280.05 61.46C279.52 61.21 278.93 61.02 278.73 61.03C278.53 61.05 277.98 61.65 277.51 62.37Z" />
		<path id="Path 32" class="shp10" d="M296.68 65.58C296.19 66.22 296.03 66.91 296.3 67.12C296.57 67.33 297.5 67.02 298.35 66.44C299.2 65.86 299.87 65.11 299.84 64.78C299.8 64.45 299.27 64.23 298.66 64.3C298.05 64.37 297.16 64.94 296.68 65.58Z" />
		<path id="Path 33" class="shp8" d="M278.25 67.61C277.8 67.83 277 68.49 276.47 69.09C275.94 69.69 275.54 70.38 275.58 70.62C275.61 70.87 275.98 71.03 276.39 70.99C276.81 70.94 277.88 70.18 278.79 69.3C279.7 68.41 280.13 67.6 279.75 67.47C279.37 67.34 278.7 67.4 278.25 67.61Z" />
		<path id="Path 34" class="shp9" d="M268.71 74.26C268.75 74.59 269.34 75.62 270.02 76.55C270.71 77.48 271.47 78.22 271.72 78.19C271.97 78.15 272.11 77.66 272.03 77.08C271.96 76.51 271.3 75.49 270.57 74.81C269.84 74.14 269.11 73.61 268.95 73.63C268.78 73.64 268.67 73.93 268.71 74.26ZM261.69 76.87C261.74 77.19 262.27 78.21 262.87 79.15C263.48 80.08 264.2 80.82 264.47 80.79C264.75 80.76 265.12 80.52 265.31 80.25C265.49 79.98 265.1 79.06 264.43 78.22C263.76 77.37 262.85 76.59 262.4 76.48C261.96 76.38 261.64 76.55 261.69 76.87Z" />
		<path id="Path 35" class="shp10" d="M241.82 80.83C240.84 81.36 241.24 81.64 244.45 82.68C246.52 83.36 248.41 83.66 248.64 83.35C248.87 83.04 247.95 82.16 246.6 81.4C245.26 80.63 243.89 80.05 243.56 80.1C243.23 80.16 242.45 80.48 241.82 80.83Z" />
		<path id="Path 36" class="shp11" d="M277.61 77.34C277.61 77.62 277.1 77.94 276.48 78.08C275.86 78.21 274.16 79.52 272.7 80.99C271.24 82.46 269.69 84.16 269.26 84.77C268.74 85.49 268.69 86.03 269.12 86.34C269.53 86.63 270.82 85.62 272.51 83.67C274.02 81.94 276.07 80.02 277.08 79.41C278.09 78.8 278.91 78.11 278.9 77.88C278.9 77.65 278.61 77.33 278.26 77.16C277.9 76.99 277.61 77.07 277.61 77.34Z" />
		<path id="Path 37" class="shp12" d="M279.37 77.34C279.4 77.67 279.7 77.91 280.03 77.87C280.36 77.84 280.68 77.53 280.74 77.19C280.8 76.85 280.5 76.61 280.08 76.66C279.65 76.7 279.33 77.01 279.37 77.34Z" />
		<path id="Path 38" class="shp11" d="M287.29 77.69C287.33 78.02 288.03 78.21 288.86 78.12C289.68 78.03 290.33 77.74 290.3 77.49C290.27 77.23 289.56 77.04 288.73 77.06C287.9 77.08 287.25 77.37 287.29 77.69Z" />
		<path id="Path 39" class="shp12" d="M283.69 80.51C283.54 80.86 284.1 81.07 284.92 80.98C285.75 80.89 286.26 80.56 286.06 80.25C285.86 79.94 285.3 79.72 284.82 79.78C284.34 79.83 283.83 80.16 283.69 80.51ZM254.04 84.37C253.58 84.71 253.35 85.13 253.53 85.3C253.72 85.47 255 85.27 256.38 84.87C257.76 84.47 258.87 84 258.85 83.84C258.82 83.67 257.92 83.58 256.84 83.64C255.76 83.69 254.5 84.02 254.04 84.37Z" />
		<path id="Path 40" class="shp13" d="M251.07 84.99C251.09 85.16 251.66 85.37 252.34 85.46C253.04 85.56 253.41 85.39 253.21 85.06C253 84.75 252.43 84.54 251.94 84.59C251.45 84.65 251.06 84.83 251.07 84.99ZM275.23 84.17C274.52 85.05 274.53 85.15 275.34 85.04C275.84 84.97 276.6 85.23 277.03 85.61C277.46 86 278.52 86.3 279.38 86.29C280.34 86.28 281.03 85.91 281.15 85.34C281.28 84.75 282.12 84.32 283.45 84.17C284.61 84.05 285.53 83.74 285.51 83.49C285.49 83.25 284.44 82.95 283.17 82.85C281.9 82.74 279.77 82.77 278.44 82.91C277.09 83.05 275.68 83.61 275.23 84.17ZM255.44 87.14C254.57 87.41 253.23 87.79 252.46 87.99C251.7 88.19 251.05 88.69 251.03 89.11C251 89.68 252.08 89.63 255.59 88.9C258.13 88.38 261.06 87.65 262.11 87.28C263.16 86.91 264 86.41 263.96 86.16C263.93 85.91 262.35 85.92 260.46 86.18C258.57 86.44 256.31 86.87 255.44 87.14Z" />
		<path id="Path 41" class="shp12" d="M277.89 86.61C277.46 86.94 272.27 87.88 266.35 88.7C257.75 89.88 255.43 90.38 254.79 91.19C254.07 92.11 255.09 92.06 264.75 90.74C270.67 89.93 277.66 88.89 280.28 88.42C282.9 87.95 285.72 87.52 286.54 87.45C287.57 87.38 287.84 87.16 287.38 86.78C287.01 86.47 285.08 86.25 283.08 86.29C281.08 86.33 279.27 86.28 279.06 86.19C278.85 86.09 278.32 86.28 277.89 86.61Z" />
		<path id="Path 42" class="shp13" d="M274.12 92.02C273.33 92.74 273.91 92.77 277.5 92.2C279.88 91.82 282.06 91.24 282.34 90.91C282.65 90.55 281.29 90.48 278.97 90.74C276.82 90.97 274.66 91.55 274.12 92.02Z" />
		<path id="Path 43" class="shp11" d="M261.47 95.54C260.64 96.88 259.71 98.62 259.42 99.4C259.12 100.19 258.97 101.64 259.08 102.63C259.18 103.62 259.54 104.4 259.87 104.36C260.2 104.32 260.8 103.64 261.2 102.85C261.6 102.05 261.97 100.85 262.03 100.18C262.09 99.5 262.3 98.39 262.51 97.7C262.72 97.01 263.31 95.85 263.82 95.13C264.33 94.4 264.6 93.62 264.42 93.39C264.24 93.16 263.84 93 263.53 93.03C263.23 93.07 262.3 94.19 261.47 95.54Z" />
		<path id="Path 44" class="shp13" d="M252.73 97.86C252.96 98.17 253.56 98.38 254.05 98.32C254.55 98.27 254.92 97.95 254.89 97.62C254.85 97.29 254.25 97.09 253.56 97.16C252.87 97.24 252.49 97.55 252.73 97.86Z" />
		<path id="Path 45" class="shp10" d="M288.14 94.44C287.71 94.79 289.66 98.09 294.11 104.55C297.74 109.83 301.67 115.48 302.85 117.1C304.03 118.73 305.54 120.15 306.22 120.26C306.9 120.37 307.51 120.3 307.57 120.11C307.63 119.91 307.04 118.8 306.24 117.64C305.45 116.47 303.83 114.26 302.64 112.72C301.45 111.18 298.18 106.28 295.38 101.83C292.57 97.38 289.93 93.79 289.52 93.84C289.11 93.89 288.49 94.16 288.14 94.44Z" />
		<path id="Path 46" class="shp8" d="M280.32 97.11C280.35 97.36 282.82 100.98 285.82 105.16C288.82 109.33 292.16 114.02 293.23 115.57C294.31 117.12 296.29 119.88 297.63 121.7C298.97 123.52 300.28 125.08 300.54 125.17C300.8 125.26 301.27 125.18 301.58 124.97C301.9 124.77 300.77 122.67 299.05 120.25C297.34 117.85 295.3 115 294.51 113.92C293.72 112.83 292.27 110.94 291.29 109.72C290.32 108.49 287.97 105.19 286.08 102.4C284.19 99.6 282.31 97.15 281.91 96.95C281.5 96.75 280.97 96.6 280.72 96.62C280.47 96.64 280.29 96.86 280.32 97.11Z" />
		<path id="Path 47" class="shp9" d="M253.27 100.63C253.1 100.93 252.48 103 251.9 105.23C251.32 107.47 249.48 113.13 247.81 117.82C246.15 122.51 244.76 126.92 244.72 127.62C244.69 128.33 244.94 128.97 245.28 129.04C245.62 129.11 246.73 126.51 247.73 123.25C248.74 119.99 250.01 115.91 250.56 114.18C251.11 112.45 252.33 108.83 253.27 106.14C254.46 102.73 254.77 101.06 254.29 100.66C253.9 100.35 253.45 100.33 253.27 100.63Z" />
		<path id="Path 48" fill-rule="evenodd" class="shp10" d="M273.7 98.1C274.19 98.15 275.44 99.33 276.47 100.72C277.51 102.11 279.42 104.77 280.73 106.63C282.04 108.48 283.34 110.25 283.61 110.56C283.89 110.86 285.02 112.38 286.13 113.92C287.23 115.47 289.53 118.7 291.24 121.1C292.95 123.5 294.56 126.12 294.82 126.93C295.07 127.74 295.01 128.43 294.68 128.46C294.35 128.5 293.59 127.97 292.99 127.28C292.39 126.6 289.73 123 287.07 119.28C284.41 115.57 280.12 109.26 277.53 105.27C274.59 100.74 273.15 98.04 273.7 98.1ZM265.28 99.63C265.82 99.67 267.21 100.98 268.37 102.52C269.53 104.06 273.1 108.99 276.3 113.48C279.51 117.97 283.36 123.63 284.87 126.05C286.44 128.57 287.37 130.61 287.05 130.82C286.74 131.02 286.21 130.87 285.87 130.49C285.53 130.11 284.07 128.02 282.62 125.84C281.18 123.66 279.43 121.12 278.73 120.2C278.04 119.27 276.21 116.74 274.67 114.57C273.13 112.4 270.16 108.29 268.07 105.43C265.98 102.57 264.28 100.08 264.29 99.89C264.3 99.69 264.75 99.58 265.28 99.63ZM269.91 99.01C270.4 98.96 270.82 99.05 270.84 99.21C270.86 99.38 270.48 99.69 270.01 99.91C269.53 100.13 269.11 100.04 269.07 99.71C269.04 99.38 269.41 99.07 269.91 99.01Z" />
		<path id="Path 49" class="shp8" d="M269.71 99.94C269.72 100.11 270.44 101.33 271.29 102.65C272.14 103.98 273.98 106.58 275.37 108.43C276.77 110.28 278.22 111.96 278.59 112.16C279.01 112.39 279.04 112.55 278.68 112.58C278.32 112.61 278.39 112.92 278.85 113.33C279.27 113.71 281.79 117.41 284.45 121.54C287.11 125.67 289.57 129.16 289.92 129.29C290.26 129.42 290.65 129.24 290.78 128.89C290.91 128.54 289.68 126.42 288.05 124.18C286.42 121.94 283.31 117.57 281.14 114.47C278.97 111.37 277.01 108.72 276.79 108.57C276.57 108.43 276.28 107.98 276.16 107.58C276.03 107.18 274.79 105.2 273.4 103.18C272.01 101.16 270.6 99.54 270.27 99.58C269.94 99.61 269.69 99.78 269.71 99.94ZM255.95 105.52C255.64 105.99 254.93 107.65 254.37 109.21C253.81 110.77 252.65 114.45 251.8 117.38C250.94 120.31 249.76 124.34 249.17 126.32C248.54 128.48 248.36 130.02 248.74 130.16C249.09 130.29 250.22 127.91 251.26 124.88C252.3 121.84 253.83 117.37 254.65 114.95C255.48 112.52 256.54 109.46 257.02 108.14C257.63 106.48 257.69 105.58 257.21 105.21C256.74 104.85 256.33 104.95 255.95 105.52ZM261.77 109.46C260.76 112.49 259.4 116.6 258.76 118.59C258.11 120.58 257.6 122.35 257.61 122.51C257.63 122.68 257.05 124.45 256.32 126.45C255.59 128.45 254.88 130.71 254.75 131.47C254.57 132.48 254.75 132.84 255.4 132.77C255.92 132.71 257 130.74 257.96 128.09C258.88 125.57 260.33 121.11 261.2 118.17C262.06 115.24 263.23 111.09 263.79 108.94C264.34 106.79 264.77 104.76 264.74 104.43C264.7 104.1 264.43 103.86 264.14 103.89C263.85 103.92 262.78 106.43 261.77 109.46Z" />
		<path id="Path 50" class="shp9" d="M289.14 102.21C289.01 102.48 289.52 103.51 290.28 104.52C291.03 105.52 291.72 106.33 291.8 106.32C291.88 106.31 291.9 105.9 291.85 105.41C291.8 104.91 291.55 104.53 291.3 104.56C291.05 104.58 290.96 104.32 291.09 103.97C291.21 103.62 290.9 103.25 290.39 103.14C289.87 103.03 289.55 102.65 289.67 102.31C289.78 101.96 289.77 101.69 289.63 101.7C289.49 101.72 289.27 101.95 289.14 102.21Z" />
		<path id="Path 51" class="shp10" d="M264.79 113.38C264.14 115.7 263.55 117.95 263.47 118.38C263.38 118.81 263.58 119.13 263.91 119.09C264.24 119.05 265.24 116.9 266.12 114.3C267 111.7 267.71 109.43 267.69 109.27C267.68 109.1 267.28 109.01 266.81 109.06C266.32 109.11 265.46 110.95 264.79 113.38Z" />
		<path id="Path 52" class="shp8" d="M266.78 118.93C265.62 122.14 264.22 126.53 263.66 128.67C263.11 130.82 262.89 132.75 263.18 132.97C263.46 133.2 264.01 132.93 264.4 132.39C264.8 131.84 266.22 127.45 267.57 122.63C268.92 117.81 270 113.67 269.97 113.42C269.94 113.17 269.69 112.99 269.41 113.02C269.13 113.06 267.95 115.71 266.78 118.93Z" />
		<path id="Path 53" class="shp10" d="M270.85 119.6C270.56 120.43 269.71 123.37 268.95 126.12C268.2 128.88 267.5 131.48 267.4 131.91C267.31 132.34 267.63 132.64 268.13 132.59C268.7 132.52 269.43 130.84 270.13 127.97C270.74 125.48 271.5 122.46 271.83 121.26C272.16 120.05 272.19 118.84 271.9 118.57C271.61 118.3 271.14 118.76 270.85 119.6Z" />
		<path id="Path 54" class="shp7" d="M274.82 124.42C275.11 126.97 275.65 130.06 276.03 131.28C276.52 132.83 277.03 133.45 277.77 133.36C278.35 133.29 278.89 133.02 278.98 132.76C279.08 132.5 278.5 129.49 277.7 126.08C276.9 122.66 276.21 119.8 276.17 119.72C276.14 119.64 275.7 119.62 275.21 119.67C274.48 119.75 274.41 120.68 274.82 124.42Z" />
		<path id="Path 55" class="shp10" d="M259.94 128.93C259.26 130.84 258.73 132.68 258.76 133.01C258.8 133.34 259.15 133.44 259.55 133.24C259.94 133.04 260.71 131.32 261.25 129.41C261.8 127.51 262.22 125.81 262.21 125.65C262.19 125.48 261.95 125.37 261.67 125.4C261.4 125.43 260.62 127.02 259.94 128.93Z" />
		<path id="Path 56" class="shp9" d="M271.61 130.23C271.26 131.52 271.16 132.77 271.41 133C271.66 133.23 272.31 133.23 272.87 132.99C273.62 132.67 273.82 131.93 273.63 130.16C273.48 128.84 273.12 127.79 272.81 127.82C272.51 127.86 271.97 128.94 271.61 130.23ZM280.42 128.2C280.27 128.55 280.5 129.49 280.92 130.27C281.34 131.06 282.09 131.66 282.58 131.61C283.08 131.55 283.47 131.38 283.45 131.21C283.43 131.05 282.92 130.15 282.32 129.21C281.72 128.27 281.1 127.52 280.95 127.54C280.81 127.56 280.56 127.85 280.42 128.2Z" />
	</g>
</svg>