<svg xmlns="http://www.w3.org/2000/svg" viewBox="0 0 520 600" width="520" height="600">
	<style>
		tspan { white-space:pre }
		.shp0 { fill: #808080 } 
		.shp1 { fill: #000000 } 
		.shp2 { fill: #d5db71 } 
		.shp3 { fill: #d4b247 } 
		.shp4 { fill: #e3c462 } 
		.shp5 { fill: #cdab50 } 
		.shp6 { fill: #bea259 } 
		.shp7 { fill: #e5ca82 } 
		.shp8 { fill: #9c8139 } 
		.shp9 { fill: #c9ae7d } 
		.shp10 { fill: #ab956d } 
		.shp11 { fill: #b9a37a } 
	</style>
	<path id="Background" class="shp0" d="M260.16 -0.7L520.31 149.5L520.31 449.91L260.16 600.11L0 449.91L0 149.5L260.16 -0.7Z" />
	<path id="Path 0" class="shp1" d="M257.45 18.92C256.93 19.42 250.65 23.18 243.5 27.27C236.35 31.36 219.92 40.78 207 48.2C194.07 55.63 178.89 64.47 173.25 67.85C167.61 71.23 162.77 74 162.5 74C162.22 74 158.74 75.94 154.75 78.32C150.76 80.7 143 85.26 137.5 88.45C132 91.64 124.57 95.95 121 98.02C117.42 100.09 108.87 105.02 102 108.99C95.12 112.96 85.45 118.58 80.5 121.47C75.55 124.36 69.47 127.85 67 129.23C64.52 130.6 56.42 135.23 49 139.5C41.57 143.78 31.45 149.63 26.5 152.52C21.55 155.4 17.16 158.49 16.75 159.38C16.34 160.27 15.99 223.66 15.98 300.25C15.97 411.13 16.22 439.84 17.23 441.15C17.93 442.05 21.54 444.64 25.25 446.9C28.96 449.15 32.22 451 32.5 451C32.77 451 38.06 454.01 44.25 457.69C50.44 461.37 60 466.9 65.5 469.99C71 473.08 81.35 479 88.5 483.16C95.65 487.32 105.89 493.26 111.25 496.36C116.61 499.46 125.39 504.55 130.75 507.66C136.11 510.77 144.77 515.79 150 518.81C155.22 521.83 160.85 525.07 162.5 526C164.15 526.93 176.97 534.33 191 542.45C205.02 550.57 224.37 561.73 234 567.24C243.62 572.75 253.19 578.33 255.25 579.63C257.31 580.93 259.9 582 261 582C262.1 582 265.81 580.27 269.25 578.15C272.69 576.04 280.22 571.58 286 568.26C291.77 564.94 309.55 554.68 325.5 545.47C341.45 536.25 356.97 527.36 360 525.71C363.02 524.06 365.95 522.37 366.5 521.96C367.05 521.55 372 518.62 377.5 515.45C383 512.28 395.82 504.88 406 499C416.17 493.13 431.25 484.42 439.5 479.64C447.75 474.86 454.61 470.96 454.75 470.98C454.89 470.99 460.51 467.72 467.25 463.72C473.99 459.72 485.06 453.31 491.86 449.47C499.75 445.02 504.54 441.69 505.11 440.25C505.62 438.97 506.01 378.35 506.02 299.25C506.03 188.78 505.78 160.16 504.77 158.83C504.07 157.91 499 154.58 493.5 151.43C488 148.27 482.15 144.92 480.5 143.97C478.85 143.02 470.3 138.07 461.5 132.96C452.7 127.85 442.57 122.03 439 120.04C435.42 118.05 427.1 113.23 420.5 109.34C413.9 105.45 403.55 99.43 397.5 95.97C391.45 92.5 382.22 87.23 377 84.24C371.77 81.26 367.05 78.47 366.5 78.05C365.95 77.63 363.02 75.93 360 74.27C356.97 72.62 346.17 66.4 336 60.47C325.82 54.54 314.12 47.81 310 45.51C305.87 43.22 298.45 38.96 293.5 36.04C288.55 33.12 280.9 28.71 276.5 26.24C272.1 23.78 267.26 20.91 265.75 19.88C264.24 18.85 261.96 18 260.7 18C259.43 18 257.97 18.41 257.45 18.92Z" />
	<path id="Path 1" class="shp2" d="M244.92 32.25C236.44 37.2 219.15 47.22 206.5 54.51C193.85 61.81 176.52 71.82 168 76.75C159.47 81.69 140.57 92.6 126 101.01C111.42 109.42 88.25 122.81 74.5 130.75C60.75 138.7 43.09 148.87 35.26 153.35L21.02 161.5L21.02 438.5C43.09 451.15 60.75 461.32 74.5 469.26C88.25 477.2 111.42 490.58 126 498.99C140.57 507.4 156.77 516.75 162 519.76C167.22 522.78 189.05 535.38 210.5 547.76C231.95 560.15 251.97 571.75 255 573.56C260.3 576.72 260.61 576.78 263.5 575.26C265.15 574.4 279.32 566.29 295 557.25C310.67 548.2 329.12 537.53 336 533.54C342.87 529.55 362 518.5 378.5 508.98C395 499.47 417.95 486.21 429.5 479.53C441.05 472.84 458.6 462.72 468.5 457.04C478.4 451.35 489.65 444.85 493.5 442.59L500.5 438.48C501.04 188.4 500.85 162.28 499.8 161.34C499.08 160.7 492.65 156.83 485.5 152.73C478.35 148.64 462.15 139.32 449.5 132.02C436.85 124.72 420.87 115.5 414 111.53C407.12 107.56 385.3 94.94 365.5 83.5C345.7 72.05 324.77 59.98 319 56.68C313.22 53.38 299.05 45.19 287.5 38.48C275.95 31.77 265.11 25.59 263.42 24.76C260.36 23.26 260.24 23.3 244.92 32.25Z" />
	<path id="Path 0" class="shp3" d="M250 63.95C244.77 67.1 228.8 76.44 214.5 84.69C200.2 92.94 172.52 108.93 153 120.21C133.47 131.5 102.44 149.38 84.02 159.96L50.55 179.18L50.95 421.5C72.3 433.82 98.3 448.83 122.5 462.79C146.7 476.76 170.55 490.56 175.5 493.47C180.45 496.37 196.65 505.73 211.5 514.26C226.35 522.79 243.22 532.52 249 535.89C254.77 539.25 260.17 541.99 261 541.98C261.82 541.97 277.35 533.35 295.5 522.83C313.65 512.32 341.55 496.18 357.5 486.97C373.45 477.76 399.55 462.7 415.5 453.5C431.45 444.3 450.46 433.33 457.74 429.13L470.97 421.5L471.09 179.5C421.81 150.9 389.27 132.07 367 119.2C344.72 106.33 322.45 93.44 317.5 90.55C312.55 87.66 300.17 80.54 290 74.72C279.82 68.91 269.25 62.75 266.5 61.04C263.75 59.33 261.05 57.99 260.5 58.07C259.95 58.14 255.22 60.79 250 63.95Z" />
	<path id="Path 0" class="shp4" d="M249 63.89C243.77 67.1 235.11 72.25 229.75 75.36C224.39 78.46 215.84 83.4 210.75 86.34C205.66 89.27 195.65 95.06 188.5 99.19C181.35 103.32 173.47 107.83 171 109.23C168.52 110.62 163.8 113.32 160.5 115.24C157.2 117.15 147.52 122.76 139 127.69C130.47 132.63 111.12 143.78 96 152.47C80.87 161.16 64.34 170.68 59.25 173.63L50 179L49.95 421.5C56.58 425.28 69.64 432.81 83.25 440.69C96.86 448.56 108.45 455 109 455C109.55 455 113.26 451.5 117.25 447.22C122.27 441.82 125.79 436.83 128.68 430.97C130.98 426.31 134 418.45 135.37 413.5C136.75 408.55 139.56 398.65 141.62 391.5C145.01 379.7 145.41 377.03 145.94 362.5C146.38 350.31 146.93 345.67 148.24 343C149.19 341.07 152.33 336.84 155.23 333.59C158.13 330.35 163.2 325.87 166.5 323.65C169.8 321.44 175.2 318.4 178.5 316.91C181.8 315.42 187.42 313.43 191 312.5C194.57 311.58 199.97 310.38 203 309.85C206.02 309.31 219.3 308.5 232.5 308.05C252.2 307.38 257.4 306.89 261.5 305.34C264.25 304.3 267.85 302.44 269.5 301.2C272.17 299.2 273.22 299.02 279 299.62L285.5 300.3C293.25 292.65 300.9 287.23 307.5 283.32C314.1 279.41 320.81 275.15 322.41 273.86C324.01 272.56 326.56 269.7 328.06 267.5C329.57 265.3 331.95 260.12 333.35 256C334.75 251.87 337.27 240.62 338.95 231C340.63 221.37 342.75 210.35 343.67 206.5C344.59 202.65 346.43 197.02 347.77 194C349.11 190.97 353.45 184.45 357.42 179.5C361.39 174.55 367.72 165.77 371.48 160C375.6 153.69 381.41 146.51 386.04 142L393.76 134.5C361.78 115.72 340.57 103.39 326 94.97C311.42 86.55 291.17 74.8 281 68.86C270.82 62.92 261.6 58.06 260.5 58.06C259.4 58.07 254.22 60.69 249 63.89Z" />
	<path id="Path 0" fill-rule="evenodd" class="shp1" d="M260.75 58.08C261.44 58.04 268.41 61.76 276.25 66.37C284.09 70.97 322 92.96 360.5 115.25C399 137.53 439.63 161.11 471.08 179.5L471 422L453.75 431.86C444.26 437.29 402.52 461.31 361 485.25C319.47 509.19 280.21 531.75 273.75 535.39C267.29 539.02 261.32 542 260.5 542C259.67 542 251.69 537.78 242.75 532.62C233.81 527.46 187.12 500.45 51.5 421.96L50.85 416.73C50.49 413.85 50.14 359.3 49.93 179.5L121.72 138.07C161.2 115.29 207 88.81 223.5 79.22C240 69.64 254.85 60.98 256.5 59.98C258.15 58.98 260.06 58.13 260.75 58.08ZM127.75 140.78L56 182C56 412.47 56.1 419.03 57.75 419.58C58.71 419.9 104.27 446.08 159 477.75C213.72 509.42 259.17 535.5 260 535.7C260.82 535.89 273.9 528.95 289.05 520.28C304.21 511.6 350.21 485.15 391.27 461.5L465.94 418.5L465.93 182.5C344.7 112.39 298.92 85.91 286 78.42C273.07 70.92 262.05 64.62 261.5 64.41C260.95 64.19 246.77 72.02 230 81.79C213.22 91.56 167.21 118.11 127.75 140.78Z" />
	<g id="Layer 3 copy 3">
		<path id="Path 0" class="shp1" d="M254.57 278.52C253.74 280.05 252.65 282.35 252.15 283.63C251.65 284.91 250.96 285.98 250.62 285.99C250.28 286.01 248.6 284.23 246.88 282.03C244.88 279.46 243.26 278.15 242.33 278.34C241.33 278.54 240.43 280.46 239.34 284.72C238.49 288.07 237.51 290.83 237.17 290.86C236.83 290.89 234.49 288.96 231.97 286.57C229.45 284.17 226.82 282.25 226.14 282.28C225.46 282.32 224.57 283.3 224.18 284.46C223.5 286.44 223.34 286.5 221.53 285.42C220.47 284.79 218.95 284.3 218.15 284.35C217.36 284.39 216.56 285.19 216.38 286.11C216.07 287.66 215.89 287.7 213.91 286.65C212.74 286.03 211.23 285.73 210.56 286C209.89 286.26 209.38 287.22 209.43 288.13C209.5 289.56 209.25 289.68 207.6 288.98C206.55 288.54 205.24 288.42 204.68 288.72C204.13 289.02 203.71 290 203.76 290.92C203.84 292.53 203.77 292.52 201.2 290.84C198.56 289.12 198.54 289.12 197.48 290.83C196.79 291.94 196.67 293.34 197.13 294.81C197.64 296.39 197.54 297.08 196.82 297.11C196.25 297.13 195.57 296.78 195.32 296.33C195.07 295.89 194.12 295.57 193.21 295.61C192.18 295.67 191.59 296.24 191.65 297.15C191.71 297.94 191.57 298.88 191.35 299.24C191.12 299.59 190.06 299.17 188.99 298.31C187.92 297.44 186.39 296.77 185.59 296.82C184.47 296.89 184.19 297.61 184.33 300.02L184.52 303.12C181.64 300.57 180.54 300.24 179.77 300.67C179.11 301.05 178.45 302.67 178.3 304.27C178.16 305.88 177.85 307.2 177.62 307.22C177.39 307.23 176.2 306.64 174.96 305.9C172.8 304.61 172.68 304.63 171.65 306.28C171.06 307.22 170.62 308.93 170.67 310.07L170.76 312.14C163.6 310.16 163.11 310.18 162.54 311.32C162.19 312.03 162.32 314.16 162.82 316.08C163.32 317.99 164.56 321.01 165.56 322.79C166.57 324.56 167.22 326.39 167.02 326.86C166.82 327.33 165.63 328.33 164.38 329.1C163.13 329.86 162.06 331.13 162 331.92C161.94 332.78 162.83 333.73 164.26 334.31C165.56 334.83 167.79 336.14 169.22 337.22C171.28 338.78 171.61 339.39 170.81 340.21C170.26 340.78 169.84 341.8 169.86 342.49C169.89 343.17 171.67 344.76 173.82 346.02C176.07 347.34 177.56 348.76 177.34 349.36C177.13 349.95 177.18 350.97 177.44 351.64C177.7 352.31 178.29 352.84 178.74 352.82C179.2 352.8 181.89 354.15 184.71 355.83C188.14 357.87 189.74 359.31 189.5 360.15C189.31 360.84 189.65 362.01 190.26 362.74C190.87 363.46 193.55 365.47 196.23 367.2C200.45 369.93 200.99 370.56 200.34 372.04C199.73 373.44 200.11 374.19 202.51 376.31C204.11 377.73 207.79 379.97 210.68 381.28L215.95 383.68C217.21 391.34 217.9 393.92 218.3 394.35C218.7 394.79 218.74 396.65 218.4 398.5C218.05 400.34 217.67 402.6 217.56 403.52C217.45 404.44 217.16 405.86 216.92 406.67C216.68 407.48 217.09 409.05 217.84 410.15C218.58 411.25 219.94 412.3 220.86 412.48C222.13 412.73 222.44 413.27 222.15 414.7C221.93 415.74 220.26 420.22 218.44 424.65C216.62 429.08 211.98 439.03 208.14 446.77C204.3 454.5 200.6 462.54 199.92 464.63C199.19 466.87 198.94 469.36 199.3 470.68C199.69 472.1 200.79 473.24 202.25 473.76C203.53 474.21 205.81 475.03 207.33 475.57C208.84 476.11 210.35 476.53 210.7 476.51C211.04 476.48 212.65 477.01 214.29 477.69C215.92 478.36 217.84 479.37 218.55 479.93C219.27 480.49 222.69 481.72 226.17 482.66C229.93 483.68 232.97 484.08 233.69 483.65C234.38 483.24 236.09 483.37 237.65 483.94C239.16 484.49 241.13 484.72 242.03 484.44C242.93 484.17 246.6 484.56 250.17 485.32C253.75 486.08 257.79 486.44 259.14 486.12C260.81 485.73 262.29 486 263.75 486.97C265.46 488.11 266.49 488.23 268.76 487.54C270.33 487.06 271.98 486.29 272.41 485.82C272.88 485.31 273.71 485.24 274.47 485.64C275.18 486 278.73 486 282.36 485.64C285.99 485.27 290.81 484.46 293.06 483.85C295.31 483.23 298.26 482.52 299.62 482.28C300.98 482.04 304.5 481.46 307.44 480.99C310.38 480.52 313.33 479.65 313.98 479.07C314.64 478.48 316.81 477.11 318.81 476.03C320.81 474.95 322.91 474.04 323.48 474C324.04 473.97 325.57 472.76 326.86 471.32C328.16 469.89 329.59 468.69 330.05 468.67C330.5 468.64 331.44 467.57 332.12 466.28C333.28 464.08 333.25 463.69 331.67 460.28C330.73 458.27 328.85 455.01 327.48 453.03C326.11 451.04 322.73 445.24 319.96 440.13C317.19 435.03 313.67 427.92 312.14 424.35C310.61 420.78 307.89 415.31 306.1 412.21L302.84 406.57C305.12 401.5 305.36 399.27 305 396.08C304.72 393.58 304.44 390.7 304.38 389.68C304.31 388.65 304.97 386.75 305.83 385.45C306.69 384.15 307.36 382.71 307.32 382.26C307.28 381.8 307.97 380.93 308.85 380.31C309.74 379.69 310.43 378.54 310.4 377.74C310.36 376.77 311.88 375.52 314.98 373.98C317.53 372.71 321.12 370 322.95 367.96C324.79 365.92 326.28 363.97 326.27 363.63C326.26 363.29 325.76 362.6 325.15 362.1C324.28 361.38 324.47 360.96 326.07 360.07C327.18 359.46 329.64 357.53 331.54 355.78C334 353.51 334.82 352.19 334.41 351.17C334.01 350.18 334.51 349.29 336.04 348.24C337.25 347.42 339.77 345.32 341.63 343.6C343.59 341.78 344.9 339.87 344.72 339.07C344.54 338.27 345.54 336.84 347.14 335.63C348.64 334.49 350.23 332.86 350.69 332.01C351.33 330.81 351.2 330.27 350.08 329.55C348.8 328.74 348.96 328.44 351.5 326.83C353.08 325.84 355.19 323.95 356.2 322.64C357.21 321.34 358.02 319.61 358 318.81C357.98 317.99 356.82 316.88 355.33 316.25C353.5 315.48 352.86 314.76 353.21 313.87C353.49 313.17 354.15 311.18 354.69 309.44C355.22 307.7 355.67 304.69 355.68 302.75C355.7 299.44 355.56 299.21 353.42 299.13C352.16 299.08 350.16 299.74 348.98 300.6L346.84 302.17C347.5 297.36 347.25 295.95 346.56 295.29C345.97 294.73 344.74 294.33 343.83 294.39C342.92 294.46 340.83 295.52 339.18 296.75L336.18 298.98C335.82 291.99 335.36 290.53 334.48 290.15C333.7 289.81 332.67 290.18 331.83 291.09C331.07 291.92 330.17 292.62 329.83 292.65C329.49 292.68 329.18 291.96 329.13 291.05C329.08 290.14 328.38 289.18 327.57 288.93C326.53 288.61 325.69 289.15 324.75 290.74C324.02 291.98 323.05 293.02 322.59 293.05C322.13 293.07 321.67 291.23 321.55 288.95C321.4 286.21 320.98 284.82 320.3 284.84C319.73 284.85 318.55 285.66 317.69 286.64C316.83 287.61 315.93 288.2 315.68 287.95C315.44 287.69 315.13 287.14 315 286.73C314.86 286.32 314.73 285.61 314.71 285.15C314.68 284.7 313.92 284.37 313.01 284.41C312.1 284.46 311.19 284.88 310.98 285.35C310.78 285.82 310.24 286.22 309.78 286.24C309.33 286.26 308.92 285.54 308.87 284.63C308.82 283.72 308.2 282.72 307.49 282.42C306.62 282.04 305.42 282.72 303.84 284.47L301.49 287.09C301.33 283.56 300.71 282.28 300.01 281.97C299.23 281.63 298.21 282.01 297.37 282.94C296.61 283.78 295.69 284.2 295.32 283.88C294.94 283.56 294.62 282.64 294.59 281.84C294.56 281.01 293.91 280.41 293.09 280.44C292.29 280.47 290.93 281.3 290.07 282.28C289.21 283.27 288.22 284.08 287.88 284.08C287.54 284.09 287.41 283.52 287.61 282.83C287.8 282.13 287.74 281.01 287.48 280.34C287.21 279.67 286.35 279.16 285.55 279.2C284.75 279.24 283.14 280.63 281.97 282.29C280.8 283.95 279.47 285.32 279.02 285.35C278.56 285.37 277.4 283.1 276.43 280.29C275.44 277.43 274.13 275.11 273.45 275C272.74 274.89 270.77 277.28 268.62 280.86C266.62 284.18 264.6 286.74 264.14 286.53C263.67 286.33 263.25 285.51 263.2 284.72C263.15 283.92 261.9 281.56 260.43 279.46C258.96 277.37 257.38 275.68 256.92 275.7C256.46 275.73 255.4 276.99 254.57 278.52Z" />
		<path id="Path 1" class="shp5" d="M254.73 288.06L252.88 293.76C256.56 296.18 256.64 296.46 255.59 297.74C254.94 298.53 253.67 299.1 252.77 299.01C251.33 298.86 251.12 299.38 251.12 303.19L251.11 307.55C254.6 306.56 255.89 306.59 256.22 306.97C256.56 307.36 257.05 309.74 257.33 312.28C257.72 315.91 258.09 316.8 259.05 316.47C259.72 316.24 260.96 316.61 261.79 317.3C262.62 317.98 263.59 318.54 263.93 318.55C264.27 318.55 265.51 317.18 266.68 315.5C267.85 313.82 268.79 312.26 268.78 312.03C268.77 311.8 267.27 311.69 265.45 311.79C263.62 311.88 261.89 311.51 261.58 310.95C261.28 310.4 262.07 308.77 263.34 307.33C264.62 305.9 266.23 303.76 266.93 302.58C267.62 301.4 268.16 299.79 268.11 298.99C268.06 298.05 267.37 297.56 266.16 297.6C265.14 297.63 263.77 298.28 263.13 299.04C262.48 299.8 261.49 300.43 260.92 300.44C260.34 300.45 259.64 300 259.35 299.44C259.07 298.89 259.33 296.54 259.94 294.22C260.55 291.91 260.79 289.28 260.47 288.39C260.15 287.49 259.39 285.74 258.79 284.5C258.18 283.25 257.44 282.27 257.13 282.3C256.83 282.33 255.74 284.93 254.73 288.06Z" />
		<path id="Path 2" class="shp6" d="M270.44 285.38C269.31 287.03 268.05 289.43 267.65 290.71C267.25 291.99 267.22 293.25 267.59 293.51C267.96 293.78 269.2 294.18 270.36 294.41C272.1 294.75 272.69 294.35 273.87 292.05C275.18 289.5 275.18 289 273.89 285.82L272.49 282.37L270.44 285.38Z" />
		<path id="Path 3" class="shp7" d="M242.4 289.5C241.68 292.18 240.98 294.85 240.84 295.42C240.65 296.19 241.4 296.3 243.66 295.82C245.35 295.46 247.37 294.8 248.15 294.34C249.37 293.63 249.4 293.22 248.4 291.26C247.76 290.01 246.45 288.01 245.47 286.81L243.7 284.62L242.4 289.5Z" />
		<path id="Path 4" class="shp8" d="M228.48 289.63C228.48 290.32 228.61 291.8 228.76 292.94C228.92 294.07 229.62 296 230.32 297.22C231.02 298.43 232.44 300.23 233.48 301.2C234.9 302.55 235.16 303.28 234.54 304.26C234.1 304.97 233.22 305.43 232.6 305.29C231.98 305.14 230.72 304.98 229.81 304.92C228.89 304.87 227.87 304.97 227.54 305.15C227.2 305.34 228.02 306.58 229.34 307.93C230.67 309.27 233.18 311.01 234.94 311.79C236.69 312.57 238.15 313.77 238.19 314.45C238.22 315.13 237.15 316.12 235.81 316.65C234.47 317.17 233.38 317.88 233.39 318.23C233.39 318.57 234.67 319.7 236.21 320.74C237.76 321.78 240.74 323.17 242.83 323.83C245.63 324.73 246.73 325.55 247.03 326.98C247.42 328.85 247.3 328.9 243.58 328.49C241.46 328.26 239.57 328.36 239.38 328.71C239.19 329.06 240.85 330.75 243.07 332.46C245.28 334.17 248.17 336.17 249.49 336.9C250.81 337.64 251.92 338.97 251.96 339.89C252.01 340.81 251.5 341.57 250.81 341.61C250.12 341.64 249.58 342.04 249.61 342.5C249.63 342.95 249.93 343.3 250.27 343.26C250.61 343.23 252.96 344.7 255.48 346.52C258.12 348.43 259.99 350.38 259.86 351.1C259.74 351.79 258.54 352.61 257.19 352.91L254.74 353.47C259.48 357.86 261.61 359.31 262.53 359.53C263.45 359.75 265.19 360.78 266.39 361.83C267.58 362.87 269.49 365.41 270.62 367.46C271.76 369.51 273.24 371.16 273.92 371.12C275.03 371.07 275.01 370.65 273.73 367.4C272.94 365.38 271.92 363.76 271.47 363.78C271.01 363.8 270.44 362.81 270.2 361.56C269.96 360.32 270.39 357.68 271.14 355.7C271.9 353.72 272.46 350.98 272.39 349.62C272.32 348.25 271.98 346.97 271.62 346.77C271.27 346.58 270.1 347.39 269.02 348.59C267.94 349.79 266.31 350.8 265.4 350.85C263.92 350.92 263.8 350.59 264.25 347.77C264.52 346.04 264.9 343.3 265.09 341.69C265.28 340.09 265.16 338.13 264.82 337.35C264.29 336.12 263.94 336.08 262.18 337.07C260.83 337.84 259.86 337.96 259.26 337.43C258.64 336.89 258.57 335.09 259.03 331.63C259.41 328.87 259.52 325.37 259.29 323.86L258.87 321.1C255.48 323.97 253.94 324.84 253.26 324.87C252.58 324.91 251.87 324.48 251.69 323.92C251.51 323.36 251.95 321 252.67 318.68C253.38 316.36 253.93 313.81 253.89 313.01C253.82 311.74 253.3 311.67 249.69 312.4C245.91 313.17 245.57 313.1 245.54 311.58C245.52 310.66 245.95 308.4 246.5 306.55C247.05 304.69 247.29 302.34 247.02 301.33C246.76 300.32 246.36 299.5 246.13 299.51C245.9 299.52 244.04 300.08 241.98 300.76C238.79 301.81 238.13 301.82 237.43 300.79C236.98 300.13 236.57 298.84 236.53 297.93C236.48 297.02 234.65 294.5 232.46 292.33C230.14 290.04 228.47 288.91 228.48 289.63Z" />
		<path id="Path 5" class="shp7" d="M221.32 292.24C221.32 293.61 222.06 295.22 223.1 296.14C224.08 297 225.07 297.51 225.3 297.27C225.53 297.03 225.08 295.46 224.28 293.79C223.49 292.12 222.5 290.56 222.08 290.33C221.65 290.1 221.31 290.96 221.32 292.24ZM280.58 289.84C279.48 291.49 278.77 293.11 279 293.44C279.24 293.77 280.25 293.41 281.24 292.64C282.24 291.87 283.3 290.41 283.59 289.4C283.88 288.4 283.77 287.41 283.35 287.21C282.93 287 281.68 288.19 280.58 289.84Z" />
		<path id="Path 6" class="shp6" d="M213.87 293.71C213.91 294.62 215.21 297.45 216.75 300C218.29 302.54 219.71 304.71 219.91 304.81C220.1 304.92 220.79 304.41 221.44 303.7C222.49 302.53 222.24 301.81 219.18 297.17C217.28 294.3 215.29 291.98 214.76 292C214.22 292.03 213.82 292.8 213.87 293.71Z" />
		<path id="Path 7" class="shp5" d="M287.48 291.29C286.52 293.08 285.87 295.1 286.04 295.78C286.21 296.45 286.54 297.46 286.77 298.02C287.08 298.74 287.72 298.5 288.98 297.22C290.16 296.01 290.74 294.34 290.72 292.22C290.7 290.47 290.35 288.81 289.95 288.54C289.55 288.26 288.44 289.5 287.48 291.29Z" />
		<path id="Path 8" class="shp7" d="M296.1 290.49C295.7 291.08 295.16 292.22 294.91 293.03C294.65 293.84 294.81 294.49 295.27 294.47C295.72 294.44 296.61 293.46 297.23 292.29C297.85 291.11 298.02 289.99 297.6 289.79C297.17 289.59 296.5 289.9 296.1 290.49Z" />
		<path id="Path 9" class="shp6" d="M300.43 295.25C297.7 299.99 297.5 300.72 298.65 301.76C299.81 302.81 300.21 302.63 302.25 300.12C303.51 298.57 304.53 296.47 304.51 295.44C304.49 294.41 304.6 292.91 304.76 292.11C304.91 291.3 304.69 290.48 304.27 290.28C303.85 290.08 302.13 292.32 300.43 295.25Z" />
		<path id="Path 10" class="shp8" d="M202.09 298.18C201.71 298.51 201.51 299.75 201.64 300.92C201.77 302.09 202.97 304.2 204.3 305.61C206.52 307.94 206.87 308.06 208.32 306.89C209.89 305.65 209.86 305.56 206.9 302.21C205.23 300.33 203.63 298.52 203.32 298.19C203.02 297.85 202.47 297.85 202.09 298.18ZM313.61 297C312.25 298.99 311.19 301 311.25 301.48C311.32 301.96 311.98 302.78 312.71 303.32C313.77 304.09 314.3 304.06 315.32 303.18C316.03 302.57 317.06 300.74 317.62 299.12C318.18 297.49 318.6 295.51 318.55 294.71C318.49 293.91 317.92 293.29 317.27 293.32C316.62 293.36 314.98 295.01 313.61 297Z" />
		<path id="Path 11" class="shp7" d="M196.12 304.18C196.15 305.09 196.87 306.45 197.73 307.19C198.58 307.93 199.56 308.54 199.9 308.53C200.24 308.52 200.49 308.24 200.46 307.9C200.42 307.56 199.42 306.21 198.23 304.9C196.35 302.83 196.07 302.74 196.12 304.18Z" />
		<path id="Path 12" class="shp6" d="M272.59 300.42C272.34 301.23 271.51 302.86 270.74 304.04C269.98 305.22 269.64 306.47 269.99 306.8C270.33 307.14 271.55 307.34 272.68 307.26C273.82 307.17 275.66 306.23 276.76 305.16C277.87 304.09 279.36 302.15 280.07 300.86L281.36 298.51C273.99 298.89 272.94 299.28 272.59 300.42ZM329.3 297.83C328.17 298.95 326.71 301.1 326.06 302.62C325.34 304.33 325.22 305.52 325.74 305.75C326.21 305.96 326.64 306.77 326.7 307.57C326.75 308.37 325.3 310.88 323.46 313.15C320.75 316.49 320.33 317.46 321.24 318.24C321.86 318.78 322.38 319.86 322.4 320.66C322.42 321.46 321.1 323.3 319.46 324.74C317.27 326.68 316.79 327.52 317.63 327.95C318.32 328.3 318.62 329.27 318.38 330.42C318.16 331.46 316.01 334.18 313.6 336.48C310.59 339.35 309.51 340.89 310.14 341.43C310.64 341.86 311.09 342.77 311.14 343.46C311.18 344.14 309.44 346.56 307.25 348.85C303.71 352.55 303.41 353.16 304.41 354.59C305.34 355.92 305.28 356.7 304.03 359.31C303.21 361.02 301.18 363.66 299.54 365.15C297.65 366.86 296.58 368.57 296.66 369.74C296.73 370.85 297.37 371.67 298.24 371.77C299.05 371.86 301.89 370.95 304.57 369.74C307.25 368.54 310.07 366.88 310.83 366.06C311.6 365.24 311.93 364.34 311.56 364.05C311.19 363.77 309.96 363.46 308.81 363.36C307.61 363.27 306.62 362.59 306.45 361.76C306.26 360.82 307.2 359.7 309.18 358.52C310.84 357.53 313.09 355.91 314.18 354.91C316.06 353.19 316.08 353.06 314.58 352.17C313.68 351.64 313.09 350.53 313.21 349.57C313.33 348.64 315.94 345.95 319.14 343.45C322.29 341.01 325.05 338.53 325.28 337.95C325.59 337.17 324.67 337 321.77 337.3C318.4 337.65 317.84 337.49 317.77 336.14C317.72 335.08 318.62 334.2 320.54 333.45C322.1 332.83 324.74 331.16 326.4 329.74C328.06 328.31 329.39 326.87 329.35 326.53C329.31 326.19 328.25 325.87 327 325.82C325.56 325.76 324.61 325.2 324.43 324.29C324.23 323.3 325.19 322.32 327.58 321.12C329.47 320.17 332.07 318.17 333.36 316.68C334.66 315.19 335.39 313.7 334.99 313.38C334.59 313.05 332.75 312.86 330.89 312.96C328.88 313.06 327.37 312.72 327.18 312.11C327 311.55 327.2 310.61 327.63 310.01C328.07 309.42 329.3 307.39 330.38 305.51C331.84 302.96 332.21 301.29 331.85 298.94L331.36 295.79L329.3 297.83ZM188.98 306.32C188.94 307.67 189.86 310.1 191.09 311.91L193.27 315.12C194.67 310.91 194.5 310.07 193.14 308.28C192.22 307.07 190.93 305.6 190.26 305.01C189.23 304.09 189.04 304.28 188.98 306.32Z" />
		<path id="Path 13" class="shp7" d="M181.94 308.24C181.67 308.98 182.27 310.24 183.39 311.27C184.64 312.43 185.38 312.68 185.51 312C185.61 311.42 184.96 310.05 184.06 308.96C182.74 307.36 182.32 307.22 181.94 308.24Z" />
		<path id="Path 14" class="shp5" d="M282.31 304.75L280.18 307.7C283.63 307.52 284.49 308.03 284.82 309.12C285.09 310.02 285.97 310.73 286.77 310.7C287.57 310.67 289.62 309.35 291.32 307.77C293.19 306.03 294.19 304.49 293.82 303.88C293.39 303.17 292.26 303.11 289.97 303.67C287.27 304.32 286.64 304.22 286.2 303.03C285.91 302.25 285.4 301.65 285.06 301.7C284.72 301.75 283.48 303.12 282.31 304.75Z" />
		<path id="Path 15" class="shp7" d="M340.4 300.95C339.32 301.77 337.45 303.46 336.25 304.71C335.05 305.96 334.1 307.45 334.14 308.01C334.18 308.58 335.25 309.21 336.52 309.41C338.12 309.67 339.24 309.29 340.22 308.18C340.99 307.31 341.94 305.26 342.33 303.65C342.73 302.03 342.89 300.42 342.71 300.08C342.52 299.75 341.48 300.14 340.4 300.95Z" />
		<path id="Path 16" class="shp6" d="M219.86 308.46C219.48 309.07 218.08 309.3 216.12 309.07C214.39 308.87 213 308.98 213.03 309.32C213.05 309.66 213.46 310.48 213.92 311.14C214.39 311.8 216.98 313.35 219.69 314.58C223.24 316.19 224.7 317.33 224.92 318.67C225.15 320.12 224.68 320.68 222.75 321.27C221.39 321.68 220.42 322.39 220.6 322.83C220.77 323.28 223.19 324.73 225.97 326.06C228.75 327.39 231.5 328.46 232.07 328.44C232.64 328.43 232.9 328.05 232.65 327.61C232.39 327.16 232.53 326.22 232.95 325.51C233.54 324.53 233 323.63 230.7 321.69C229.04 320.29 227.65 318.59 227.62 317.9C227.58 317.22 228.08 316.07 228.73 315.36C229.77 314.2 229.46 313.68 225.98 310.72C223.82 308.9 221.69 307.42 221.26 307.44C220.83 307.46 220.2 307.92 219.86 308.46Z" />
		<path id="Path 17" class="shp7" d="M175.36 313.67C175.75 315.42 176.94 317.65 178.01 318.63C179.09 319.62 180.15 320.4 180.38 320.38C180.61 320.36 181.24 319.47 181.79 318.42C182.69 316.69 182.54 316.27 180.33 314.27C178.98 313.04 177.15 311.69 176.27 311.27C174.79 310.56 174.72 310.75 175.36 313.67Z" />
		<path id="Path 18" class="shp6" d="M296.24 308.48C293.31 312.13 293.16 312.57 294.31 314.23C295.47 315.91 295.32 316.3 292.31 319.73C290.52 321.77 289.49 323.5 290.02 323.59C290.55 323.68 291 324.31 291.04 324.99C291.08 325.67 291.38 326.23 291.73 326.22C292.07 326.21 293.47 325.67 294.84 325.02C296.21 324.37 298.46 322.75 299.84 321.42C301.22 320.09 302.34 318.82 302.33 318.59C302.32 318.36 301.18 318.05 299.8 317.89C298.43 317.74 297.09 317.24 296.84 316.8C296.59 316.36 296.82 315.39 297.35 314.66C297.89 313.93 299.07 313.31 299.98 313.29C300.89 313.27 302.89 312.23 304.43 310.98C305.96 309.73 307.47 308.15 307.77 307.47C308.08 306.8 308.1 305.97 307.82 305.65C307.54 305.32 305.95 305.2 304.28 305.38C302.61 305.56 300.83 305.44 300.33 305.11C299.79 304.77 298.11 306.15 296.24 308.48Z" />
		<path id="Path 19" class="shp8" d="M206.54 312.44C205.42 312.95 203.47 313.21 202.21 313.03C200.94 312.85 199.91 312.98 199.92 313.32C199.93 313.66 200.82 314.7 201.91 315.63C202.99 316.55 205.98 318.17 208.55 319.23C211.12 320.28 213.38 320.82 213.59 320.44C213.8 320.05 214.52 319.47 215.19 319.16C216.13 318.7 215.57 317.77 212.69 314.99C210.64 313.01 208.88 311.43 208.77 311.46C208.66 311.5 207.65 311.94 206.54 312.44ZM347.98 306.38C346.41 307.67 344.5 309.54 343.74 310.54C342.97 311.54 340.39 314.62 338.01 317.38C334.53 321.4 333.88 322.59 334.76 323.36C335.37 323.89 335.89 324.97 335.93 325.77C335.96 326.57 334.65 328.43 333.01 329.91C330.39 332.28 330.15 332.83 330.97 334.57C331.68 336.08 332.5 336.51 334.39 336.37C335.75 336.26 338.6 335.46 340.72 334.59C342.84 333.72 344.65 332.62 344.75 332.16C344.84 331.7 343.67 331.01 342.15 330.64C340.1 330.13 339.42 329.53 339.54 328.34C339.66 327.14 340.83 326.41 344.2 325.45C346.67 324.74 349.56 323.44 350.61 322.56C351.66 321.69 352.62 320.49 352.75 319.92C352.92 319.18 351.76 318.93 348.85 319.08C346.57 319.2 344.5 318.93 344.25 318.49C344 318.05 343.95 317.21 344.15 316.63C344.35 316.05 345.59 314.86 346.92 313.99C348.25 313.12 349.72 311.55 350.19 310.5C350.66 309.45 351.22 307.55 351.43 306.29C351.64 305.02 351.59 304 351.32 304.01C351.06 304.02 349.55 305.09 347.98 306.38ZM309.84 310.91C307.43 314.16 307.24 314.81 308.23 316.28C309.24 317.79 309.02 318.25 305.98 320.96C302.72 323.87 302.66 324.04 303.96 325.98C305.11 327.68 305.71 327.88 307.97 327.31C309.44 326.93 311.97 325.59 313.61 324.31C315.25 323.04 316.57 321.54 316.55 320.97C316.53 320.36 315.47 319.98 314.03 320.06C312.66 320.13 311.34 319.83 311.09 319.38C310.84 318.94 310.79 318.1 310.98 317.52C311.17 316.94 312.34 316.15 313.59 315.77C314.83 315.39 317.18 313.86 318.82 312.38C320.46 310.9 321.77 309.32 321.75 308.87C321.73 308.41 319.85 308.13 317.57 308.25C315.29 308.37 313.23 308.19 313 307.84C312.76 307.5 311.34 308.88 309.84 310.91ZM166.91 316.05C166.91 316.52 168.05 318.96 169.44 321.46C170.93 324.17 172.73 326.27 173.86 326.63C175.16 327.05 175.72 327.82 175.65 329.11C175.55 330.77 175.12 330.98 172.01 330.96C170.06 330.95 168.49 331.12 168.5 331.35C168.51 331.58 169.59 332.64 170.9 333.71C172.22 334.79 174.94 336.05 176.96 336.51C178.99 336.98 180.99 337.81 181.42 338.36C181.91 338.99 181.76 339.84 181.02 340.66C180.37 341.38 179.09 341.82 178.16 341.64C177.24 341.46 176.51 341.69 176.53 342.14C176.55 342.6 178.02 343.82 179.78 344.86C181.55 345.9 184.88 347.02 187.18 347.35C189.48 347.68 191.75 348.3 192.23 348.73C192.81 349.25 192.79 349.89 192.18 350.63C191.67 351.25 190.1 351.72 188.7 351.68C187.3 351.64 186.14 351.7 186.13 351.81C186.12 351.93 188.15 353.26 190.65 354.77C193.14 356.28 196.62 357.97 198.38 358.52C200.81 359.28 201.55 359.92 201.43 361.19C201.34 362.11 200.8 362.88 200.23 362.91C199.66 362.94 199.28 363.33 199.39 363.79C199.5 364.24 200.39 365.2 201.37 365.92C202.35 366.65 204.29 367.52 205.68 367.86C208.12 368.47 208.2 368.4 208.06 365.78C207.96 363.79 206.95 362.08 204.2 359.25C202.16 357.15 200.44 354.78 200.4 353.98C200.35 353.18 200.95 352.17 201.73 351.74C202.92 351.08 202.36 350.45 198.2 347.77C195.48 346.02 192.85 343.87 192.35 342.98C191.7 341.84 191.72 340.97 192.4 339.99C193.2 338.85 193.06 338.4 191.55 337.34C190.55 336.64 188.96 334.86 188.02 333.39C186.34 330.75 186.34 330.7 187.91 329.48C189.49 328.26 189.48 328.23 187.33 326.27C186.13 325.18 184.5 324.32 183.7 324.35C182.9 324.38 181.92 325.17 181.51 326.11C181.1 327.04 180.02 327.85 179.11 327.89C177.9 327.96 177.43 327.43 177.35 325.91C177.29 324.77 175.95 322.37 174.37 320.58C172.8 318.79 170.47 316.85 169.2 316.26C167.83 315.63 166.9 315.55 166.91 316.05Z" />
		<path id="Path 20" class="shp6" d="M275.69 311.84C274.71 312.09 273.36 313.14 272.69 314.17C272.02 315.2 271.49 316.51 271.53 317.08C271.56 317.65 272.15 318.08 272.83 318.05C273.51 318.01 274.11 318.45 274.16 319.02C274.2 319.58 275.45 318.49 276.92 316.59C278.4 314.69 279.59 312.66 279.57 312.09C279.54 311.52 279.06 311.13 278.49 311.22C277.93 311.32 276.67 311.59 275.69 311.84ZM194.86 317.94C194.53 319.3 193.74 319.66 190.73 319.82L187 320.01C190.6 324.01 193.22 325.83 195.14 326.65C197.06 327.46 198.66 328.68 198.7 329.36C198.73 330.07 197.75 330.82 196.37 331.14C195.05 331.44 193.87 332.16 193.75 332.74C193.63 333.31 195.17 334.77 197.17 335.97C199.18 337.16 201.95 338.45 203.34 338.82C205.06 339.29 206 340.14 206.27 341.49C206.66 343.38 206.52 343.46 203.66 343.02C201.83 342.74 200.48 342.89 200.26 343.4C200.05 343.87 201.68 345.37 203.88 346.74C206.08 348.11 209.03 350.11 210.44 351.17L213 353.12C210.4 355.5 209.26 356.03 208.79 355.83C208.32 355.62 207.97 356.01 208 356.7C208.04 357.38 209.72 359.16 211.74 360.65C213.76 362.15 216.16 363.42 217.07 363.49C218.24 363.57 218.77 364.23 218.85 365.68C218.92 367.1 218.5 367.78 217.51 367.83C216.72 367.87 216.08 368.18 216.1 368.52C216.11 368.86 219.03 371.23 222.59 373.79C226.15 376.34 229.52 378.42 230.09 378.39C230.7 378.37 231.27 376.72 231.47 374.38C231.78 370.72 231.61 370.25 229.33 368.46C227.97 367.39 225.45 365 223.73 363.14C222.02 361.29 220.77 359.21 220.97 358.51C221.16 357.82 221.87 357.22 222.56 357.19C223.24 357.15 223.8 357.03 223.8 356.91C223.8 356.8 221.63 354.58 218.98 351.98C216.33 349.37 214.13 346.78 214.1 346.21C214.07 345.64 214.68 344.82 215.46 344.38C216.7 343.67 216.57 343.41 214.31 342.17C212.9 341.4 211.55 340.56 211.3 340.31C211.06 340.06 209.39 338.83 207.6 337.58C205.8 336.33 204.33 335.02 204.33 334.68C204.33 334.34 204.87 333.47 205.52 332.75C206.16 332.03 206.7 331.35 206.72 331.23C206.73 331.12 205.16 329.99 203.23 328.72C201.3 327.45 199.7 325.76 199.68 324.96C199.66 324.16 200.37 323.28 201.27 323.01C202.17 322.73 202.89 322.23 202.86 321.89C202.83 321.55 201.27 320.13 199.38 318.75C197.49 317.36 195.79 316.24 195.61 316.24C195.42 316.25 195.09 317.02 194.86 317.94Z" />
		<path id="Path 21" class="shp5" d="M280.36 319C278.48 321.61 277.97 322.91 278.7 323.2C279.28 323.43 281.21 322.81 282.99 321.82C284.76 320.83 286.92 319.2 287.78 318.19C289.08 316.68 289.13 316.32 288.09 316.09C287.39 315.93 285.99 315.68 284.96 315.52C283.52 315.29 282.46 316.1 280.36 319Z" />
		<path id="Path 22" class="shp8" d="M212.86 322.83C212.9 323.28 212.09 323.68 211.07 323.73C210.04 323.78 208.48 324.36 207.6 325.02C206.05 326.19 206.07 326.27 208.58 327.78C209.99 328.63 212.39 329.87 213.91 330.54C215.43 331.21 217.04 331.74 217.5 331.71C217.95 331.69 218.06 331.22 217.74 330.66C217.41 330.11 217.69 329.25 218.36 328.76C219.39 328.01 219.04 327.4 216.19 324.94C214.32 323.34 212.82 322.39 212.86 322.83Z" />
		<path id="Path 23" class="shp7" d="M266.35 322.88C265 323.54 263.85 324.88 263.63 326.06C263.42 327.18 263.5 328.69 263.8 329.41C264.22 330.42 264.79 330.54 266.18 329.91C267.19 329.46 268.23 328.61 268.51 328.03C268.79 327.44 269.27 325.92 269.58 324.65C269.89 323.38 269.82 322.2 269.42 322.03C269.03 321.87 267.64 322.25 266.35 322.88ZM271.18 331C270.05 333.11 268.93 336.35 268.69 338.2C268.3 341.09 268.44 341.55 269.69 341.47C270.7 341.41 270.96 340.95 270.57 339.96C270.25 339.17 270.48 337.95 271.08 337.23C271.67 336.52 273.09 334.58 274.23 332.92C275.37 331.26 276.28 329.25 276.25 328.45C276.22 327.6 275.59 327.04 274.71 327.08C273.83 327.13 272.39 328.72 271.18 331Z" />
		<path id="Path 24" class="shp5" d="M282.07 327.6C280.89 328.09 280.22 328.98 280.36 329.87C280.5 330.68 280.18 331.83 279.65 332.43C278.9 333.29 279.03 333.49 280.31 333.39C281.2 333.32 282.79 332.09 283.86 330.66C285.12 328.97 285.49 327.83 284.91 327.42C284.42 327.07 283.14 327.15 282.07 327.6Z" />
		<path id="Path 25" class="shp6" d="M232.4 330.94C232.43 331.39 231.33 331.82 229.96 331.9C228.6 331.97 227.49 332.3 227.49 332.65C227.5 332.99 229.18 334.7 231.22 336.45C233.26 338.2 235.78 339.84 236.82 340.1C237.96 340.39 238.75 341.23 238.8 342.23C238.85 343.14 238.16 344.3 237.27 344.8C235.93 345.56 235.84 345.93 236.77 347.01C237.37 347.72 239.89 349.46 242.36 350.87C245.32 352.56 246.88 354 246.94 355.09C246.99 356 246.66 356.95 246.22 357.2C245.78 357.45 244.46 357.34 243.3 356.94C242.14 356.54 241.02 356.51 240.82 356.86C240.62 357.21 241.13 358.08 241.96 358.78C242.79 359.48 244.7 360.59 246.22 361.25C247.74 361.92 251.16 364.86 253.83 367.81C256.49 370.75 258.91 374.18 259.21 375.42C259.5 376.66 260.23 377.65 260.84 377.61C261.45 377.58 262.18 377.36 262.47 377.12C262.77 376.87 262.41 375.86 261.69 374.87C260.96 373.88 259.51 371.06 258.45 368.61C257.4 366.15 256.49 363.11 256.42 361.86C256.36 360.61 255.83 359.43 255.25 359.24C254.67 359.06 252.8 357.23 251.1 355.19C248.28 351.82 248.12 351.39 249.37 350.49C250.12 349.94 250.73 349.03 250.72 348.46C250.7 347.89 249.94 347.28 249.02 347.1C248.09 346.92 246.14 345.34 244.68 343.58C243.02 341.6 242.15 339.77 242.35 338.72C242.6 337.47 241.81 336.51 239.26 334.94C237.38 333.78 235.62 332.19 235.35 331.41C235.07 330.62 234.29 330.01 233.6 330.05C232.92 330.08 232.38 330.48 232.4 330.94ZM287.86 332.03C286.68 333.79 285.75 335.6 285.79 336.05C285.84 336.51 286.24 337.42 286.69 338.08C287.38 339.1 288.02 338.9 290.96 336.72C292.86 335.3 295.21 333.31 296.17 332.3C297.13 331.28 297.73 330.17 297.5 329.84C297.26 329.51 296.06 329.53 294.82 329.88C293.5 330.25 292.3 330.14 291.9 329.62C291.53 329.12 290.95 328.74 290.61 328.78C290.27 328.81 289.03 330.28 287.86 332.03Z" />
		<path id="Path 26" class="shp8" d="M219.89 335.57C218.84 336.82 218.29 336.91 216.31 336.16C214.91 335.63 213.91 335.6 213.8 336.09C213.7 336.53 215.49 338.39 217.77 340.21C220.05 342.03 223 344.21 224.31 345.06C225.92 346.09 226.57 347.07 226.3 348.07C226.08 348.88 225.34 349.57 224.66 349.61C223.97 349.64 223.42 349.95 223.42 350.29C223.42 350.63 225.76 352.57 228.62 354.59C231.48 356.61 233.72 358.73 233.6 359.31C233.48 359.89 232.49 360.53 231.39 360.74C230.3 360.95 229.12 361.39 228.76 361.71C228.41 362.03 229.31 363.26 230.77 364.44C232.23 365.62 233.89 366.54 234.46 366.49C235.02 366.45 237.59 369.11 240.16 372.43C242.73 375.74 245.2 378.24 245.64 377.99C246.14 377.7 245.93 376.48 245.05 374.7C244.29 373.14 243.59 370.28 243.5 368.34C243.36 365.22 242.95 364.54 239.87 362.31C237.96 360.92 235.73 358.61 234.92 357.17C233.53 354.7 233.53 354.48 234.93 353.47C236.32 352.47 236.13 352.12 232.27 348.42C229.99 346.23 228.08 343.7 228.04 342.79C227.99 341.88 228.41 340.99 228.97 340.81C229.55 340.63 228.53 339.33 226.63 337.82C224.78 336.35 222.79 334.91 222.21 334.62C221.62 334.33 220.58 334.75 219.89 335.57ZM307.14 331.83C304.1 333 303.4 333.05 302.85 332.14C302.36 331.33 301.32 332 298.83 334.7C296 337.78 295.64 338.55 296.57 339.59C297.3 340.42 297.44 341.33 296.99 342.32C296.61 343.14 294.86 345.38 293.11 347.3C290.07 350.61 289.99 350.85 291.42 352.15C292.86 353.45 292.82 353.7 290.63 357.06C289.36 359.01 287.42 361.2 286.32 361.92C284.79 362.92 284.3 364.02 284.27 366.5C284.24 369.27 284.48 369.75 285.89 369.67C286.8 369.63 287.52 369.31 287.49 368.97C287.46 368.63 288.88 367.24 290.65 365.9C292.42 364.55 294.43 363.42 295.11 363.38C295.79 363.35 297.27 362.06 298.4 360.51C300.12 358.17 300.23 357.69 299.08 357.57C298.32 357.5 296.98 357.85 296.09 358.35C295.02 358.96 294.05 359.01 293.19 358.5C292.39 358.02 292.11 357.22 292.46 356.34C292.76 355.58 294.37 354.19 296.04 353.25C297.7 352.32 299.93 350.67 301 349.59C302.07 348.5 302.94 347.34 302.94 346.99C302.94 346.65 302.19 346.22 301.27 346.04C300.34 345.86 299.55 345.25 299.5 344.68C299.46 344.11 301.45 341.86 303.92 339.68C306.39 337.5 309.35 334.85 310.49 333.79C311.88 332.51 312.27 331.63 311.67 331.15C311.11 330.69 309.41 330.95 307.14 331.83Z" />
		<path id="Path 27" class="shp7" d="M274.66 341.64C274.36 342.36 274.52 343.32 275 343.77C275.57 344.32 276.41 344.3 277.48 343.71C278.37 343.22 279.46 342.2 279.91 341.44C280.61 340.26 280.32 340.07 277.96 340.2C276.28 340.28 274.98 340.85 274.66 341.64Z" />
		<path id="Path 28" class="shp8" d="M329.74 339.79C329.46 340.38 327.78 341.86 326.02 343.1C323.01 345.2 322.88 345.46 323.96 347.34C324.8 348.82 325.53 349.19 326.73 348.75C327.62 348.42 329.81 347.37 331.59 346.41C333.36 345.45 335.53 344.06 336.41 343.33C337.78 342.18 337.82 341.89 336.72 341.28C336.01 340.88 334.41 340.61 333.16 340.66C331.9 340.72 330.74 340.31 330.57 339.75C330.32 338.93 330.15 338.94 329.74 339.79Z" />
		<path id="Path 29" class="shp6" d="M282.41 344.77C280.3 346.8 280.09 347.39 280.96 348.76C281.52 349.64 282.08 350.45 282.2 350.56C282.32 350.67 284.02 349.65 285.99 348.29C287.96 346.93 289.56 345.35 289.55 344.78C289.53 344.21 288.78 343.79 287.87 343.83C286.96 343.88 286.19 343.55 286.17 343.09C286.14 342.64 285.85 342.29 285.51 342.33C285.17 342.37 283.77 343.47 282.41 344.77ZM283.3 355.42C283.07 355.73 282.13 356.08 281.22 356.2C280.31 356.31 278.56 357.66 277.34 359.2C276.11 360.74 275.4 362.15 275.75 362.35C276.1 362.54 277.4 362.34 278.63 361.9C279.87 361.46 282.22 360.03 283.87 358.72C285.51 357.41 286.65 355.98 286.4 355.53C286.15 355.09 285.45 354.75 284.84 354.78C284.23 354.81 283.54 355.1 283.3 355.42Z" />
		<path id="Path 30" class="shp8" d="M318.7 355.38C317.48 356.71 316.58 358.05 316.68 358.36C316.79 358.68 317.62 358.89 318.53 358.85C319.45 358.8 321.64 357.94 323.42 356.93C325.19 355.93 326.54 354.93 326.41 354.72C326.29 354.51 325.24 354.17 324.09 353.98C322.94 353.78 321.75 353.48 321.45 353.3C321.15 353.12 319.91 354.06 318.7 355.38Z" />
		<path id="Path 31" class="shp7" d="M262.14 365.03C261.85 365.54 261.9 366.59 262.24 367.37C262.58 368.15 263.88 370.42 265.12 372.41C267.01 375.44 267.48 375.79 268 374.54C268.36 373.71 268.22 371.91 267.69 370.41C267.17 368.95 265.83 366.94 264.71 365.94C263.4 364.77 262.48 364.44 262.14 365.03ZM247.69 369.37C247.75 370.4 248.62 372.78 249.63 374.67C251.06 377.36 251.9 378.08 253.53 377.99C254.66 377.94 255.59 377.42 255.57 376.85C255.56 376.28 253.94 373.94 251.98 371.64C250.02 369.35 248.23 367.48 248 367.49C247.77 367.5 247.63 368.35 247.69 369.37ZM315.22 366.91C313.91 368.12 313.13 369.28 313.48 369.49C313.84 369.7 315.39 369.05 316.94 368.06C318.48 367.07 319.54 365.89 319.29 365.45C319.04 365 318.56 364.66 318.21 364.67C317.87 364.69 316.52 365.7 315.22 366.91Z" />
		<path id="Path 32" class="shp8" d="M211.63 372.78C211.24 373.37 210.03 373.61 208.66 373.37C207.39 373.15 206.36 373.25 206.35 373.59C206.35 373.94 206.85 374.61 207.47 375.09C208.09 375.57 211.08 377.16 214.12 378.62C217.4 380.19 220.41 381.1 221.5 380.83C222.52 380.59 223.34 380.21 223.33 379.98C223.31 379.75 222.26 378.78 220.98 377.82C219.71 376.86 217.23 375.1 215.48 373.93C213.2 372.39 212.1 372.07 211.63 372.78Z" />
		<path id="Path 33" class="shp7" d="M235.14 374.8C234.91 375.27 234.94 376.2 235.2 376.87C235.47 377.54 236.43 378.05 237.34 378C238.25 377.96 238.97 377.64 238.93 377.3C238.9 376.96 238.39 376.07 237.79 375.32C237.2 374.56 236.45 373.95 236.13 373.95C235.81 373.95 235.36 374.33 235.14 374.8Z" />
		<path id="Path 34" class="shp9" d="M280.17 373.73C280.02 373.96 279.16 374.34 278.26 374.58C277.35 374.81 276.62 375.07 276.62 375.14C276.63 375.2 275.94 375.42 275.09 375.62C274.24 375.81 272.43 376.87 271.06 377.97C269.69 379.06 267.34 381.38 265.83 383.11C264.32 384.84 262.1 386.95 260.88 387.8C259.67 388.65 258.89 389.71 259.14 390.16C259.39 390.6 260.44 390.94 261.46 390.9C262.63 390.87 264.34 389.55 266.05 387.38C267.55 385.48 269.15 383.87 269.6 383.81C270.06 383.74 270.95 383.02 271.59 382.19C272.24 381.37 273.76 380.18 274.99 379.56C276.21 378.94 277.4 378.42 277.62 378.4C277.85 378.39 279.13 377.77 280.46 377.01C281.79 376.26 282.97 375.57 283.08 375.49C283.19 375.41 284.14 375.73 285.19 376.21C286.24 376.69 288.12 376.81 289.35 376.47C290.73 376.1 291.27 375.6 290.74 375.2C290.27 374.83 288.19 374.48 286.13 374.42C284.08 374.36 281.95 374.09 281.42 373.82C280.88 373.54 280.32 373.51 280.17 373.73Z" />
		<path id="Path 35" class="shp10" d="M291.53 376.02C291.83 376.46 292.76 376.79 293.6 376.74C294.44 376.7 294.98 376.3 294.8 375.85C294.62 375.4 293.69 375.08 292.73 375.13C291.77 375.18 291.23 375.58 291.53 376.02Z" />
		<path id="Path 36" class="shp9" d="M295.03 376.25C295.21 376.7 296.41 377.33 297.7 377.66C298.98 377.98 301.06 378.34 302.33 378.45C303.59 378.57 304.62 378.38 304.62 378.04C304.63 377.7 304.12 377.02 303.51 376.53C302.89 376.04 300.66 375.59 298.54 375.54C296.22 375.48 294.83 375.76 295.03 376.25Z" />
		<path id="Path 37" class="shp11" d="M229.28 382.73C227.25 383.18 224.79 383.8 223.82 384.1C222.85 384.4 222.06 385.19 222.05 385.87C222.04 386.55 222.4 386.9 222.84 386.64C223.29 386.39 225.96 385.83 228.79 385.39C231.62 384.95 235.43 384.57 237.26 384.55C239.08 384.52 241.22 384.28 242.01 384C242.79 383.73 243.22 383.04 242.95 382.49C242.65 381.85 240.71 381.55 237.72 381.69C235.11 381.8 231.31 382.27 229.28 382.73Z" />
		<path id="Path 38" class="shp10" d="M242.89 382.7C243.19 383.14 244.55 383.44 245.92 383.37C247.3 383.3 248.2 382.88 247.95 382.44C247.69 381.99 246.33 381.69 244.92 381.76C243.43 381.84 242.58 382.23 242.89 382.7Z" />
		<path id="Path 39" class="shp11" d="M253.35 382.57C253.39 383.44 254.14 383.71 255.83 383.48C257.16 383.3 258.7 382.66 259.25 382.06C260.04 381.18 259.55 381 256.76 381.15C254.22 381.28 253.3 381.66 253.35 382.57ZM287.29 381.02C287.29 381.36 288.73 382.02 290.48 382.48C292.22 382.94 295.34 383.44 297.4 383.6C299.76 383.77 300.83 383.6 300.29 383.14C299.81 382.74 297.34 381.91 294.79 381.32C292.25 380.72 289.52 380.26 288.72 380.31C287.93 380.36 287.28 380.67 287.29 381.02Z" />
		<path id="Path 40" class="shp10" d="M272.68 387.12L269.88 389.18C274.39 389.26 276.29 389.83 277.01 390.5C277.73 391.17 278.97 391.68 279.76 391.61C280.56 391.55 282.03 391.02 283.02 390.43C284.02 389.85 287.35 389.3 290.43 389.22C293.7 389.13 296.01 388.73 295.98 388.24C295.96 387.79 295.29 387.46 294.49 387.51C293.7 387.56 291.34 387.11 289.25 386.52C287.17 385.92 283.21 385.35 280.47 385.25C276.19 385.08 275.08 385.35 272.68 387.12ZM229 389.34C225.72 389.91 223.05 390.74 223.08 391.2C223.1 391.65 224.16 392.19 225.42 392.38C226.69 392.57 232.93 392.2 239.29 391.55C245.79 390.89 251.3 389.94 251.87 389.39C252.43 388.85 252.86 388.13 252.83 387.79C252.79 387.45 248.75 387.42 243.86 387.74C238.97 388.06 232.28 388.78 229 389.34Z" />
		<path id="Path 41" class="shp11" d="M277.1 392.34C277.14 393.05 275.43 393.49 271.57 393.77C268.5 393.99 264.12 394.18 261.84 394.19C259.56 394.2 257.49 393.96 257.25 393.67C257 393.38 249.93 393.8 241.52 394.61C233.12 395.42 225.78 396.28 225.22 396.52C224.66 396.76 224.22 397.23 224.24 397.57C224.26 397.91 226.61 398.16 229.46 398.13C232.31 398.09 237.63 398.07 241.29 398.09C244.94 398.1 258.75 397.81 271.97 397.42C289.91 396.91 296.52 396.45 298.03 395.63C299.31 394.94 299.73 394.28 299.18 393.85C298.7 393.47 295.14 393.12 291.25 393.07C287.16 393.02 283.82 392.58 283.31 392.01C282.83 391.47 281.22 391.09 279.74 391.16C278.14 391.25 277.07 391.72 277.1 392.34Z" />
		<path id="Path 42" class="shp10" d="M224.82 403.31C225.15 403.89 226.45 404.46 227.72 404.59C228.98 404.71 232.34 404.72 235.19 404.61C238.14 404.5 240.35 404.06 240.33 403.59C240.3 403.13 239.43 402.6 238.4 402.41C237.36 402.22 233.74 402.11 230.36 402.16C225.53 402.24 224.34 402.48 224.82 403.31Z" />
		<path id="Path 43" class="shp9" d="M247.61 402.23C246.87 402.58 244.81 404.81 243.02 407.18C241.22 409.56 239.13 413.12 238.36 415.1C237.59 417.08 237.02 419.82 237.09 421.19C237.16 422.56 237.51 423.83 237.86 424.01C238.21 424.2 239.48 423.39 240.67 422.21C241.86 421.03 242.82 419.59 242.79 419.03C242.76 418.46 243.7 415.7 244.88 412.9C246.07 410.1 248.12 406.53 249.45 404.98C250.79 403.43 251.59 401.97 251.23 401.75C250.88 401.53 250.22 401.4 249.76 401.47C249.31 401.54 248.34 401.88 247.61 402.23Z" />
		<path id="Path 44" class="shp10" d="M263.08 402.19C259.91 402.52 256.97 403.16 256.56 403.62C256.09 404.14 260.69 404.25 269.03 403.93C276.3 403.65 283.55 403.32 285.14 403.19C286.73 403.07 289.42 402.76 291.12 402.5C292.82 402.24 294.21 401.85 294.2 401.62C294.19 401.39 290.15 401.13 285.24 401.04C280.32 400.96 274.63 401.04 272.58 401.24C270.54 401.44 266.26 401.87 263.08 402.19Z" />
		<path id="Path 45" class="shp11" d="M223.51 408.56C223.33 408.83 223.85 409.45 224.68 409.96C225.5 410.46 227.1 410.68 228.23 410.44C229.36 410.2 230.86 410.28 231.56 410.63C232.26 410.97 233.75 410.87 234.87 410.41C235.99 409.94 236.7 409.39 236.47 409.18C236.23 408.97 233.29 408.64 229.93 408.44C226.58 408.24 223.68 408.29 223.51 408.56ZM252.92 409.31C253.09 410.17 255.99 410.2 266.78 409.48C274.29 408.97 280.32 408.27 280.19 407.91C280.06 407.56 273.82 407.48 266.33 407.75C255.44 408.13 252.76 408.44 252.92 409.31Z" />
		<path id="Path 46" class="shp8" d="M296.88 409.55C295.64 409.74 294.64 410.27 294.66 410.73C294.68 411.18 296.35 414.37 298.36 417.8C300.38 421.23 304.87 429.5 308.34 436.17C311.81 442.84 316.87 452.21 319.58 457C322.63 462.4 324.97 465.66 325.74 465.59C326.42 465.53 327.46 465.18 328.06 464.81C328.92 464.28 328.68 463.33 326.87 460.11C325.62 457.9 321.96 451.55 318.74 446.01C315.52 440.47 311.27 432.28 309.3 427.82C307.32 423.35 304.52 417.43 303.06 414.65C301.61 411.87 300.13 409.51 299.78 409.39C299.43 409.28 298.13 409.35 296.88 409.55Z" />
		<path id="Path 47" class="shp7" d="M226 415.54C226.04 416.22 224.42 420.7 222.4 425.48C220.38 430.27 216.92 437.82 214.71 442.28C212.5 446.73 209.73 452.29 208.57 454.63C207.41 456.98 206.15 459.28 205.77 459.76C205.38 460.24 205.1 461.19 205.14 461.87C205.18 462.55 204.71 464.26 204.08 465.66C203.46 467.06 202.98 468.67 203.03 469.24C203.07 469.81 203.67 470.25 204.35 470.21C205.03 470.18 206.44 468.42 207.47 466.31C208.5 464.21 209.31 461.73 209.26 460.82C209.21 459.91 209.54 458.96 209.98 458.71C210.42 458.46 212.89 453.38 215.46 447.43C218.03 441.47 222.22 432.29 224.78 427.02C227.33 421.75 229.48 416.91 229.56 416.27C229.63 415.63 229.03 414.92 228.23 414.68C227.42 414.45 226.58 414.26 226.35 414.27C226.12 414.29 225.97 414.86 226 415.54Z" />
		<path id="Path 48" class="shp6" d="M257.74 414.15C257.25 414.52 259.03 418.53 262.34 424.44C265.31 429.77 268.33 435.03 269.05 436.13C269.76 437.24 272.95 442.86 276.14 448.63C279.32 454.41 283.15 461.87 284.65 465.21C286.15 468.56 288.41 473.11 289.68 475.33C291.31 478.16 292.55 479.39 293.87 479.47C295.72 479.58 295.71 479.52 292.74 473.72C291.09 470.49 287.23 463.69 284.17 458.6C281.11 453.5 276.45 445.15 273.82 440.04C271.19 434.92 267.1 427.16 264.73 422.8C262.36 418.43 260 414.56 259.48 414.19C258.97 413.83 258.18 413.81 257.74 414.15Z" />
		<path id="Path 49" class="shp8" d="M248.42 415.62C248.45 416.07 250.57 420.17 253.15 424.71C255.73 429.26 259.01 434.97 260.44 437.41C261.88 439.85 265.98 447.11 269.55 453.54C273.13 459.98 277.03 467.06 278.21 469.28C279.4 471.5 281.23 475.05 282.28 477.17C283.34 479.28 284.77 481.26 285.48 481.57C286.18 481.87 287.02 481.83 287.34 481.48C287.66 481.13 286.79 478.84 285.41 476.39C284.03 473.95 282.88 471.57 282.85 471.12C282.83 470.66 281.35 467.47 279.57 464.02C277.79 460.58 270.88 448.06 264.22 436.2C253.78 417.61 251.85 414.65 250.24 414.72C249.22 414.76 248.4 415.16 248.42 415.62ZM264.93 414.14C264.93 414.25 265.51 415.44 266.22 416.77C266.94 418.1 269.21 422.28 271.28 426.06C273.35 429.83 275.06 433.2 275.08 433.54C275.1 433.88 276.84 437.34 278.93 441.23C281.02 445.11 285.49 452.82 288.87 458.35C292.24 463.88 295.57 469.81 296.28 471.51C296.98 473.22 298.36 475.54 299.33 476.67C300.54 478.09 301.54 478.54 302.52 478.11C303.81 477.55 303.67 476.94 300.91 471.22C299.24 467.77 296.62 462.95 295.09 460.52C293.55 458.09 288.53 449.2 283.92 440.76C279.31 432.32 274.7 424.16 273.67 422.61C272.65 421.07 271.1 418.44 270.24 416.78C269.1 414.6 268.15 413.78 266.8 413.84C265.78 413.89 264.94 414.03 264.93 414.14Z" />
		<path id="Path 50" class="shp9" d="M273.81 414.08C273.6 414.44 273.99 415.45 274.68 416.33C275.36 417.21 276.19 417.58 276.51 417.16C276.84 416.74 276.63 416.28 276.05 416.15C275.48 416.01 275.17 415.52 275.38 415.05C275.58 414.58 275.4 414.03 274.97 413.81C274.54 413.6 274.02 413.72 273.81 414.08Z" />
		<path id="Path 51" class="shp6" d="M279.9 413.78C279.93 414.12 281.98 417.84 284.45 422.05C286.92 426.26 293.51 438.06 299.08 448.27C304.66 458.49 310 468.11 310.94 469.66C311.88 471.21 313.17 472.79 313.8 473.16C314.44 473.54 315.6 473.58 316.38 473.24C317.63 472.7 317.26 471.74 313.22 465.18C310.7 461.09 306 453.02 302.78 447.25C299.56 441.48 295.96 435.32 294.77 433.55C293.58 431.79 292.27 429.43 291.86 428.31C291.45 427.19 289.51 423.27 287.55 419.61C284.48 413.87 283.69 412.96 281.91 413.05C280.77 413.11 279.87 413.44 279.9 413.78Z" />
		<path id="Path 52" class="shp7" d="M288.97 413.1C288.98 413.33 290.26 415.97 291.8 418.97C293.35 421.97 296.96 428.58 299.83 433.65C302.7 438.72 305.53 443.43 306.12 444.11C307.02 445.17 307.11 445.05 306.68 443.31C306.4 442.19 305.39 439.81 304.43 438.03C303.46 436.26 300.78 431.17 298.46 426.72C296.14 422.27 293.84 418.1 293.35 417.44C292.86 416.78 292.04 415.42 291.53 414.42C291.02 413.42 290.23 412.62 289.78 412.64C289.32 412.67 288.96 412.87 288.97 413.1Z" />
		<path id="Path 53" class="shp6" d="M228.69 428.47C227.08 431.87 225.35 435.41 224.84 436.35C224.34 437.29 222.88 440.54 221.6 443.58C220.33 446.61 217.15 454.16 214.55 460.34C211.95 466.53 209.83 471.77 209.84 472C209.85 472.23 210.63 472.28 211.58 472.12C212.93 471.89 215.15 467.65 221.98 452.28C226.75 441.53 231.39 431.39 232.29 429.74C233.23 428.02 233.75 425.79 233.52 424.49C233.3 423.24 232.78 422.24 232.37 422.26C231.96 422.29 230.3 425.08 228.69 428.47ZM243.15 429.8C241.63 433.42 238.77 439.64 236.8 443.62C234.82 447.6 231.97 454.1 230.47 458.06C228.96 462.02 227.24 466.22 226.65 467.39C226.05 468.57 224.71 471.34 223.66 473.57C221.91 477.28 221.87 477.65 223.23 478.08C224.27 478.42 225.28 477.77 226.65 475.89C227.71 474.42 230.66 468.51 233.2 462.75C235.74 457 240.32 446.27 243.38 438.92C246.44 431.57 248.72 425.01 248.46 424.33C248.2 423.66 247.51 423.14 246.94 423.17C246.37 423.2 244.66 426.18 243.15 429.8Z" />
		<path id="Path 54" class="shp7" d="M281.08 426.16C280.87 426.52 281.26 427.53 281.94 428.41C282.63 429.29 283.46 429.66 283.78 429.24C284.11 428.81 283.9 428.36 283.32 428.22C282.75 428.09 282.44 427.59 282.64 427.13C282.85 426.66 282.66 426.1 282.24 425.89C281.81 425.68 281.29 425.8 281.08 426.16ZM233.06 438C230.95 442.22 229.35 446.31 229.51 447.09C229.67 447.89 231.7 444.67 234.11 439.8C236.49 435 238.08 430.91 237.66 430.7C237.23 430.49 235.16 433.77 233.06 438Z" />
		<path id="Path 55" class="shp8" d="M247.03 440.81C244.93 446.05 240.73 455.89 237.69 462.67C234.66 469.45 231.54 476.05 230.76 477.35C229.71 479.09 229.61 479.79 230.39 480.02C230.97 480.2 232.04 479.86 232.78 479.28C233.52 478.69 235.62 474.31 237.46 469.53C239.3 464.75 240.79 460.57 240.76 460.23C240.74 459.88 241.8 457.68 243.13 455.33C244.45 452.98 247.17 447.61 249.17 443.39C251.17 439.18 252.82 435.17 252.83 434.49C252.84 433.8 252.78 432.78 252.7 432.21C252.62 431.64 252.17 431.2 251.7 431.22C251.23 431.25 249.13 435.56 247.03 440.81Z" />
		<path id="Path 56" class="shp6" d="M255.27 441.12C254.5 442.24 251.71 447.56 249.06 452.95C246.42 458.33 243.54 464.83 242.68 467.39C241.82 469.95 240.34 473.85 239.39 476.07C237.93 479.48 237.85 480.16 238.92 480.45C239.62 480.65 240.78 480.31 241.51 479.7C242.23 479.09 243.61 476.5 244.56 473.94C245.51 471.37 246.57 468.52 246.92 467.59C247.27 466.65 249.13 462.07 251.06 457.41C252.98 452.74 255.31 447.2 256.24 445.1C257.17 443 257.64 440.79 257.29 440.19C256.8 439.35 256.32 439.57 255.27 441.12Z" />
		<path id="Path 57" class="shp7" d="M226.64 452.24C225.9 453.99 225.2 455.9 225.08 456.47C224.96 457.05 225.22 457.32 225.67 457.07C226.11 456.82 226.98 455.46 227.59 454.06C228.2 452.66 228.42 451.54 228.08 451.58C227.74 451.62 227.91 451.05 228.45 450.32C229 449.58 229.12 449 228.72 449.02C228.32 449.04 227.38 450.49 226.64 452.24ZM291.52 446.18C291.53 446.4 292.57 448.4 293.83 450.62C295.08 452.84 296.47 454.45 296.92 454.2C297.4 453.92 296.89 452.12 295.64 449.7C294.5 447.47 293.1 445.68 292.53 445.71C291.96 445.74 291.51 445.95 291.52 446.18Z" />
		<path id="Path 58" class="shp8" d="M253.5 463.09C250.76 469.85 248.49 475.95 248.43 476.64C248.38 477.33 247.97 478.1 247.53 478.35C247.08 478.6 246.75 479.36 246.79 480.05C246.82 480.73 247.5 481.27 248.3 481.24C249.31 481.2 250.57 479.17 252.43 474.59C253.91 470.96 255.86 465.9 256.77 463.34C257.67 460.78 258.67 458.3 258.98 457.83C259.3 457.35 259.68 455.56 259.84 453.84C260 452.01 259.78 450.73 259.29 450.75C258.84 450.78 256.23 456.33 253.5 463.09Z" />
		<path id="Path 59" class="shp5" d="M263.69 454.88C263.67 455 263.68 459.76 263.72 465.47C263.75 471.17 264.11 477.6 264.51 479.75C265.14 483.1 265.5 483.64 267.1 483.55C268.13 483.48 269.38 483.14 269.9 482.78C270.57 482.3 270.55 480.99 269.83 478.02C269.29 475.76 268.73 470.56 268.6 466.46C268.41 460.82 267.99 458.46 266.87 456.8C266.06 455.58 265.02 454.61 264.56 454.63C264.11 454.66 263.72 454.77 263.69 454.88Z" />
		<path id="Path 60" class="shp7" d="M219.75 467.75C217.83 471.91 217.02 474.55 217.65 474.53C218.22 474.51 219.95 471.81 221.49 468.52C223.03 465.23 224.27 462.16 224.25 461.71C224.22 461.25 223.91 460.89 223.54 460.91C223.18 460.93 221.47 464.01 219.75 467.75ZM256.32 476.05C255.21 478.94 254.32 481.6 254.35 481.94C254.37 482.28 255.51 482.5 256.87 482.43C258.88 482.32 259.45 481.86 259.86 479.99C260.14 478.72 260.18 476.1 259.96 474.17C259.75 472.24 259.29 470.69 258.96 470.72C258.62 470.75 257.43 473.15 256.32 476.05ZM273.4 475.14C273.67 477.06 274.36 479.46 274.93 480.45C275.5 481.45 276.7 482.23 277.62 482.18C278.93 482.11 279.15 481.72 278.67 480.26C278.34 479.25 277.29 476.88 276.32 474.98C275.36 473.09 274.2 471.57 273.74 471.59C273.25 471.62 273.11 473.12 273.4 475.14Z" />
	</g>
</svg>