<svg xmlns="http://www.w3.org/2000/svg" viewBox="0 0 420 420" width="420" height="420">
	<style>
		tspan { white-space:pre }
		.shp0 { fill: #000000 } 
		.shp1 { fill: #b37652 } 
		.shp2 { fill: #6d4332 } 
		.shp3 { fill: #ffffff } 
		.shp4 { fill: #d5ab90 } 
		.shp5 { fill: #793d1b } 
		.txt6 { font-size: 116px;fill: #000000;font-family: "DejaVu Sans";font-weight: 400 } 
		.shp7 { fill: #a3a3a3 } 
		.shp8 { fill: #e9e9e9 } 
		.shp9 { fill: #505050 } 
	</style>
	<g id="Layer 1 copy 10">
		<path id="Path 0" class="shp0" d="M225.34 1.1C223.65 2.07 221.28 4.31 220.08 6.07C218.72 8.06 217.88 10.81 217.88 13.29C217.88 17.05 217.68 17.33 214.63 17.79C212.83 18.06 205.06 18.75 197.34 19.33C189.62 19.9 182.18 20.58 180.81 20.82C179.43 21.07 165.22 22.4 149.24 23.78C133.26 25.16 114.77 26.78 108.15 27.38C101.54 27.98 95.34 28.67 94.37 28.9C93.25 29.17 92.6 30.31 92.58 32.08C92.55 33.6 93.31 35.51 94.25 36.34C95.2 37.17 98.49 41 101.57 44.86C104.64 48.72 110.62 57.74 114.84 64.9C119.07 72.07 123.4 78.83 124.45 79.93C125.5 81.04 127.74 84.64 129.41 87.95C131.09 91.26 134.28 99.37 136.5 105.99C138.72 112.6 141.81 124.55 143.37 132.54C146.06 146.36 146.19 148.24 145.91 170.62C145.75 183.58 144.98 199.36 144.2 205.7C143.42 212.03 142.09 221.73 141.23 227.24C140.38 232.75 139.39 239.52 139.03 242.27C138.48 246.56 138.66 247.44 140.3 248.39C141.59 249.13 144.69 249.23 149.74 248.69C153.87 248.25 173.72 246.74 193.83 245.34C213.95 243.93 231.99 242.53 233.92 242.22L237.42 241.66C238.59 254.56 238.82 258.42 238.68 258.57C238.54 258.71 231.66 258.34 223.39 257.75C213.05 257.02 191.8 256.97 155.25 257.6C126.04 258.11 89.03 258.47 73 258.41L43.87 258.31C38.94 253.26 35.81 251.34 33.75 250.79C31.42 250.17 24.89 250.07 16.63 250.54C5.72 251.15 3.01 251.61 1.85 253.05C0.61 254.57 0.68 255.48 2.38 260.06C3.45 262.95 5.25 269.38 6.39 274.34C7.52 279.3 10.05 288.32 12 294.38C13.95 300.45 17.84 309.92 20.64 315.43C23.44 320.94 27.8 329.06 30.32 333.46C32.85 337.87 36.06 343.06 37.46 345C38.86 346.94 41.36 350.09 43.02 352.01C44.67 353.93 49.86 359.51 54.54 364.41C59.23 369.32 66.44 375.87 70.57 378.97C74.71 382.08 81.47 386.5 85.61 388.81C89.74 391.11 97.18 394.61 102.14 396.58C107.1 398.56 114.09 400.79 117.67 401.55C121.26 402.3 127.12 403.23 130.7 403.62C134.28 404.01 141.95 405.37 147.74 406.64C153.52 407.92 162.54 409.47 167.78 410.09C173.01 410.71 179.78 411.64 182.81 412.15C185.84 412.66 194.41 413.73 201.85 414.52C209.29 415.32 223.49 416.5 233.42 417.15C243.34 417.81 254.61 418.94 258.47 419.68C262.33 420.42 270.22 421.32 276 421.69C283.27 422.15 291.03 421.84 301.06 420.71C309.05 419.8 319.65 417.91 324.61 416.5C329.57 415.09 336.33 412.72 339.64 411.22C342.95 409.73 348.58 406.55 352.16 404.17C355.75 401.78 360.38 398.2 362.45 396.21C364.53 394.22 366.22 392.25 366.21 391.84C366.2 391.42 367.38 389.62 368.82 387.83C370.27 386.04 372.37 382.77 373.5 380.56C374.63 378.36 376.39 375.65 377.43 374.55C378.46 373.45 379.97 370.29 380.78 367.54C381.59 364.78 382.51 360.95 382.84 359.02C383.16 357.09 384.62 352.26 386.08 348.28C387.94 343.23 389.34 340.9 390.75 340.53C391.85 340.24 394.78 340 397.26 339.99C399.74 339.98 403.46 339.52 405.53 338.97C407.59 338.42 410.48 336.73 411.94 335.22C413.4 333.7 415.46 329.98 416.53 326.95C417.59 323.92 418.7 320.31 419 318.93C419.32 317.39 418.91 315.76 417.91 314.68C417.03 313.71 415.28 312.92 414.04 312.92C412.8 312.92 410.44 311.76 408.78 310.35C407.13 308.94 399.91 304.04 392.75 299.46C385.58 294.88 377.02 289.58 373.71 287.69C370.3 285.73 366.75 282.74 365.51 280.79C364.3 278.9 362.61 276.56 361.75 275.59C360.37 274.05 358.26 273.85 344.4 273.96C330.24 274.08 327.68 273.82 319.6 271.52C314.64 270.1 305.62 268.45 299.55 267.83C293.49 267.22 285.83 266.03 282.52 265.19C279.21 264.35 273.93 263.59 270.79 263.49C265.97 263.35 265 263 264.6 261.31C264.34 260.21 263.85 256.15 263.51 252.29C263.17 248.44 262.68 243.93 262.41 242.27C261.94 239.31 262.02 239.25 268.22 237.9C271.67 237.15 280.59 235.94 288.03 235.21C295.47 234.48 308.32 232.97 316.59 231.85C324.86 230.73 340.64 229.34 351.66 228.75C362.69 228.16 380.39 227.24 391 226.71C402.66 226.12 410.98 226.1 412.04 226.65C413.21 227.26 414.72 227.09 416.55 226.15C418.07 225.37 419.52 223.95 419.77 222.98C420.03 222.02 420.08 212.66 419.88 202.19C419.68 191.64 418.78 178.23 417.86 172.13C416.95 166.06 415.27 155.47 414.13 148.58C412.99 141.69 410.95 131.77 409.6 126.53C408.25 121.29 405.33 110.7 403.12 102.98C400.91 95.27 397.52 84.22 395.59 78.43C393.65 72.64 390.01 63.85 387.5 58.89C384.98 53.93 378.32 41.98 372.7 32.33C367.07 22.69 361.75 13.22 360.86 11.29C359.98 9.36 358.22 7.21 356.96 6.51C355.15 5.5 351.65 5.46 340.14 6.31C332.15 6.9 319.75 7.78 312.58 8.26C305.42 8.74 288.73 10.29 275.5 11.7C262.28 13.12 249.31 14.28 246.69 14.28C242.07 14.3 241.93 14.21 241.93 11.29C241.93 9.64 240.94 6.82 239.72 5.03C238.5 3.23 236.8 1.22 235.96 0.55C235.11 -0.12 233.06 -0.67 231.41 -0.66C229.76 -0.66 227.03 0.14 225.34 1.1Z" />
		<path id="Path 1" class="shp1" d="M227.02 6.83C225.7 7.69 224.68 8.93 224.75 9.59C224.84 10.45 226.24 10.58 229.64 10.07C232.27 9.68 234.64 9.12 234.92 8.84C235.19 8.56 234.74 7.62 233.92 6.76C233.09 5.89 231.74 5.2 230.91 5.22C230.08 5.24 228.33 5.97 227.02 6.83Z" />
		<path id="Path 2" class="shp2" d="M225.27 14.55C224.95 15.23 224.96 16.59 225.29 17.55C225.63 18.52 226.91 19.31 228.15 19.32C229.39 19.32 231.89 18.99 233.69 18.57C235.49 18.15 236.96 17.24 236.95 16.55C236.93 15.86 235.8 14.85 234.42 14.3C233.04 13.74 230.55 13.29 228.88 13.29C227.21 13.29 225.59 13.86 225.27 14.55Z" />
		<path id="Path 3" class="shp3" d="M348.07 13.73C347.84 13.96 343.82 14.39 339.14 14.67C334.45 14.95 323.86 15.62 315.59 16.15C307.32 16.69 297.17 17.6 293.04 18.19C288.91 18.78 277.63 19.97 267.99 20.83C258.34 21.69 241.66 23.27 230.91 24.34C220.16 25.41 198.97 27.42 183.81 28.81C168.65 30.2 151.29 31.78 145.23 32.33C139.17 32.87 128.35 33.82 121.18 34.42C114.02 35.03 107.59 35.71 106.9 35.93C106.05 36.21 106.56 37.55 108.49 40.1C110.05 42.17 113.15 46.56 115.36 49.87C117.58 53.18 121.08 59.04 123.14 62.9C125.2 66.76 128.2 71.15 129.8 72.67C131.4 74.18 134.68 79.82 137.09 85.19C139.5 90.57 142.87 99.02 144.58 103.98C146.29 108.94 148.78 118.64 150.13 125.53C151.48 132.42 153.11 141.21 153.75 145.07C154.62 150.3 154.65 158.98 153.88 179.14C153.31 194.02 152.64 207.33 152.4 208.7C152.15 210.08 151.43 214.82 150.78 219.23C150.14 223.63 149.18 230.17 148.66 233.76C148.13 237.34 147.82 240.4 147.97 240.56C148.12 240.71 152.52 240.39 157.76 239.83C162.99 239.28 178.33 238.13 191.83 237.29C205.33 236.45 220.44 235.32 225.4 234.78C230.36 234.24 239.15 233.3 244.94 232.7C250.73 232.1 260.65 230.77 266.99 229.74C273.32 228.71 282.12 227.58 286.53 227.23C290.94 226.89 302.21 225.52 311.58 224.21C320.95 222.89 338.76 221.33 351.16 220.75C363.56 220.16 376.98 219.24 380.97 218.7C384.97 218.16 393.43 217.72 399.76 217.72L411.29 217.72C411.24 193.26 410.82 183.22 410.32 179.64C409.82 176.06 408.68 167.72 407.78 161.1C406.87 154.49 405.27 145.02 404.22 140.06C403.16 135.1 400.92 125.85 399.25 119.52C397.57 113.18 395.04 104.16 393.62 99.47C392.2 94.79 389.89 87.35 388.48 82.94C387.07 78.53 384.25 71.31 382.2 66.91C380.16 62.5 375.67 53.93 372.22 47.87C368.77 41.8 363.92 33.24 361.44 28.83C358.96 24.42 355.74 19.13 354.3 17.07C352.85 15.02 350.95 13.33 350.08 13.31C349.2 13.3 348.3 13.49 348.07 13.73Z" />
		<path id="Path 4" class="shp2" d="M249.2 240.43L245.94 240.77C246.62 261.35 247.75 272.62 248.88 279.1C250.02 285.58 250.97 293.02 250.99 295.64C251.03 300.03 251.33 300.61 255 303.15L258.97 305.91C258.19 281.83 257.56 272.93 257.06 270.58C256.57 268.24 256.23 265.42 256.3 264.32C256.38 263.22 256.09 258.48 255.65 253.8C255.21 249.11 254.72 244.04 254.56 242.52C254.4 241.01 253.86 239.84 253.36 239.93C252.86 240.02 250.99 240.24 249.2 240.43Z" />
		<path id="Path 5" class="shp1" d="M12.95 257.33C14.06 258.13 17.44 259.07 20.47 259.4C23.5 259.74 26.66 260.04 27.48 260.07C28.31 260.1 30.23 260.06 31.74 259.97C33.26 259.88 34.51 259.47 34.53 259.06C34.54 258.65 33.42 257.74 32.02 257.05C30.53 256.32 25.68 255.81 20.22 255.83C11.84 255.86 11.14 256.01 12.95 257.33Z" />
		<path id="Path 6" class="shp4" d="M132.67 264.19C132.41 264.44 118 264.91 100.64 265.22C83.28 265.54 64.04 266.14 57.89 266.56C47.68 267.26 46.78 267.48 47.62 269.08C48.18 270.15 50.95 271.4 54.79 272.3C58.24 273.11 65.11 274.93 70.07 276.35C76.18 278.09 80.71 278.8 84.1 278.53C86.86 278.31 96.1 277.08 104.65 275.8C119.53 273.57 122.36 273.48 172.29 273.65C200.95 273.75 228 274.14 232.41 274.51C238.08 274.98 240.65 274.84 241.18 274.01C241.6 273.36 241.48 271.26 240.93 269.33C239.95 265.91 239.8 265.82 234.67 265.75C231.77 265.71 228.51 265.53 227.4 265.35C226.3 265.17 204.64 264.74 179.26 264.38C153.89 264.02 132.92 263.93 132.67 264.19Z" />
		<path id="Path 7" class="shp5" d="M13.99 271.08C14.62 274.53 17.05 283.21 19.37 290.37C21.7 297.54 25.43 307.01 27.66 311.42C29.89 315.83 33.33 322.37 35.3 325.95C37.26 329.53 40.55 334.94 42.59 337.97C44.64 341.01 48.39 345.74 50.93 348.5C53.48 351.25 55.55 353.84 55.55 354.26C55.55 354.67 56.22 355.24 57.05 355.51C58.03 355.84 58.31 355.58 57.86 354.76C57.48 354.07 55.35 350.8 53.14 347.49C50.92 344.19 48.84 341.26 48.51 340.98C48.19 340.7 46.52 337.77 44.81 334.47C43.09 331.16 40.32 325.75 38.63 322.44C36.95 319.13 33.36 311.47 30.64 305.41C27.92 299.34 25.38 292.8 25 290.88C24.61 288.95 23.62 285.34 22.8 282.86C21.98 280.38 20.17 275.64 18.77 272.34C17.38 269.03 15.72 265.99 15.1 265.59C14.47 265.18 13.7 264.84 13.39 264.84C13.09 264.83 13.35 267.64 13.99 271.08Z" />
		<path id="Path 8" class="shp4" d="M26.48 267.83C26.48 268.38 27.76 272.32 29.33 276.6C30.89 280.87 32.52 286.17 32.94 288.37C33.36 290.57 35.28 295.76 37.2 299.89C39.12 304.03 41.73 309.89 43.01 312.92C44.28 315.95 46.79 321.14 48.57 324.45C50.36 327.75 52.35 331.13 53.01 331.96C53.67 332.79 55.19 335.61 56.38 338.22C57.57 340.84 60.04 344.68 61.87 346.74C63.7 348.81 66.29 352.08 67.62 354.01C68.95 355.94 70.95 358.58 72.06 359.87C73.17 361.17 77.69 365.21 82.1 368.85C86.51 372.49 93.05 377.15 96.63 379.21C100.21 381.27 103.26 382.75 103.39 382.51C103.53 382.27 101.5 379.09 98.88 375.46C96.27 371.82 91.62 365.62 88.57 361.68C85.52 357.74 81.02 351.58 78.57 347.99C76.13 344.41 73.05 340.13 71.73 338.48C70.41 336.82 67.66 332.54 65.62 328.96C63.58 325.37 60.21 318.38 58.14 313.42C56.07 308.46 53.18 301.92 51.7 298.89C50.23 295.86 48.76 293.16 48.43 292.88C48.1 292.6 46.59 289.45 45.07 285.86C43.55 282.28 41.91 278.34 41.41 277.1C40.92 275.86 40.06 274.84 39.51 274.84C38.96 274.84 38.06 273.04 37.5 270.83L36.5 266.82C28.74 266.82 26.48 267.28 26.48 267.83ZM264.17 274.59L264.48 278.35C272.25 278.74 280.59 279.78 288.03 280.92C295.47 282.05 305.39 283.7 310.08 284.57C314.76 285.44 320.17 286.21 322.1 286.26C325.03 286.35 325.65 286 325.86 284.11C326.02 282.66 325.57 281.86 324.61 281.86C323.78 281.86 320.51 280.96 317.34 279.86C314.17 278.76 305.04 276.68 297.05 275.23C289.06 273.78 280.49 272.23 278.01 271.78C275.53 271.32 271.33 270.93 268.68 270.89L263.85 270.83L264.17 274.59Z" />
		<path id="Path 9" class="shp5" d="M52.2 280.35C51.83 280.63 52.21 281.53 53.04 282.36C53.86 283.18 54.77 283.86 55.04 283.86C55.32 283.86 58.14 285.39 61.3 287.26C64.47 289.13 70.22 291.62 74.08 292.81C77.94 293.99 89.89 296.77 100.64 298.98C111.38 301.2 120.4 303.18 120.68 303.38C120.95 303.58 124.56 304.47 128.7 305.36C132.83 306.25 139.82 307.42 144.23 307.95C148.64 308.48 154.95 309.56 158.26 310.36C161.56 311.15 168.33 312.68 173.29 313.76C178.25 314.84 186.82 316.46 192.33 317.38C197.84 318.29 205.96 319.68 210.37 320.48C214.78 321.27 223.8 322.8 230.41 323.88C237.02 324.96 251 326.74 261.47 327.83C271.95 328.92 291.56 330.3 305.07 330.89C318.57 331.48 342.24 332.16 357.68 332.39C373.11 332.63 390.02 332.39 395.25 331.86C400.49 331.34 405.36 330.36 406.08 329.68C406.8 329.01 407.84 326.88 408.41 324.95C408.97 323.02 409.29 321.35 409.11 321.24C408.93 321.13 394.8 321.47 377.72 321.99C356.04 322.66 342.26 322.61 332.12 321.84C324.13 321.23 311.96 320.57 305.07 320.37C298.18 320.17 289.83 319.78 286.53 319.49C283.22 319.21 277.13 318.72 273 318.41C268.86 318.11 258.04 317.18 248.95 316.35C239.85 315.53 227.9 314.39 222.39 313.83C216.88 313.27 205.38 311.7 196.84 310.33C188.3 308.97 178.83 307.42 175.79 306.89C172.76 306.36 166.45 305.45 161.77 304.88C157.08 304.3 146.93 302.29 139.22 300.4C131.5 298.52 122.48 296.53 119.18 295.98C115.87 295.43 107.98 293.83 101.64 292.42C95.3 291 84.25 288.47 77.09 286.78C69.92 285.09 61.75 282.84 58.93 281.78C56.1 280.72 53.59 279.85 53.33 279.85C53.08 279.85 52.57 280.08 52.2 280.35Z" />
		<path id="Path 10" class="shp1" d="M154.19 280.71C153.98 281.06 154.8 282.32 156.03 283.49C157.26 284.67 159.84 286.44 161.77 287.43C163.69 288.42 167.08 291.03 169.28 293.23C171.69 295.64 175.08 297.77 177.8 298.58C180.28 299.32 183.1 299.91 184.06 299.91C185.17 299.9 183.51 297.95 179.55 294.62C176.11 291.71 170.92 287.65 168.03 285.6C165.13 283.54 160.93 281.45 158.68 280.96C156.43 280.47 154.41 280.35 154.19 280.71Z" />
		<path id="Path 11" class="shp5" d="M342.63 280.9C342.36 281.43 343.61 282.46 345.4 283.2C347.19 283.94 355.2 288.29 363.19 292.87C371.18 297.46 379.3 302.38 381.23 303.81C383.15 305.24 385.3 306.97 385.99 307.66C386.67 308.35 387.8 308.92 388.49 308.94C389.18 308.95 390.87 309.84 392.25 310.92C393.63 312 395.43 312.87 396.26 312.87C397.37 312.86 397.22 312.41 395.68 311.13C394.53 310.19 392.51 308.62 391.17 307.64C389.83 306.67 386.26 304.24 383.23 302.25C380.2 300.25 371.86 295.23 364.69 291.09C357.53 286.95 349.74 282.74 347.39 281.75C344.92 280.71 342.91 280.35 342.63 280.9Z" />
		<path id="Path 12" class="shp4" d="M137.71 281.86C137.71 282.41 139.66 285.23 142.04 288.12C145.48 292.3 147.33 293.64 151.06 294.63C153.64 295.32 156.77 295.87 158.01 295.85C159.98 295.83 160.07 295.67 158.67 294.6C157.8 293.93 155.54 292.16 153.66 290.66C151.78 289.17 147.99 286.35 145.23 284.4C142.47 282.45 139.66 280.85 138.97 280.85C138.28 280.85 137.71 281.31 137.71 281.86Z" />
		<path id="Path 13" class="shp1" d="M116.18 282.55C115.08 282.8 114.28 283.31 114.39 283.68C114.51 284.06 115.41 285.14 116.39 286.1C117.52 287.2 120.73 288.12 125.12 288.6L132.07 289.37C127.39 282.18 126.83 281.89 122.68 281.98C120.2 282.04 117.28 282.3 116.18 282.55Z" />
		<path id="Path 14" class="shp4" d="M178.82 283.47C179.64 284.35 184.55 288.3 189.74 292.24C194.93 296.17 199.66 300.16 200.26 301.09C201 302.24 203.76 303.12 208.86 303.84C213 304.42 216.61 304.67 216.88 304.4C217.16 304.12 217.16 303.75 216.88 303.57C216.61 303.39 213.45 301.26 209.87 298.83C206.28 296.4 201.54 292.61 199.32 290.39C197.1 288.18 193.95 285.34 192.31 284.08C189.95 282.27 188.07 281.79 183.33 281.82C177.87 281.85 177.47 282 178.82 283.47Z" />
		<path id="Path 15" class="shp1" d="M205.04 284.59C206.52 286.12 211.63 290.07 216.39 293.38C221.16 296.69 227.27 301.08 229.99 303.15C233.52 305.84 235.76 306.84 237.87 306.66L240.82 306.41C234.3 298.78 229.26 293.24 225.4 289.18L218.38 281.79L202.35 281.81L205.04 284.59Z" />
		<path id="Path 16" class="shp4" d="M95.68 283.81C95.65 284.39 96.3 285.09 97.13 285.36C97.96 285.64 100.49 285.86 102.76 285.86C105.63 285.86 106.75 285.48 106.44 284.61C106.18 283.89 103.82 283.23 100.86 283.06C97.77 282.87 95.71 283.17 95.68 283.81ZM232.43 284.63C232.99 285.03 236.14 288.52 239.44 292.38C242.74 296.24 246.12 299.81 246.94 300.32C247.77 300.83 250.03 302.93 251.95 304.98C255.18 308.42 256.11 308.81 263.48 309.76C267.89 310.34 271.83 310.49 272.24 310.11C272.65 309.73 271.31 307.61 269.25 305.41L265.51 301.4C264.71 305.93 264.03 307.41 263.48 307.62C262.93 307.82 259.32 305.9 255.46 303.34C251.6 300.78 247.43 297.61 246.19 296.29C244.95 294.96 243.94 292.75 243.94 291.38C243.94 290 243.37 287.73 242.69 286.34C241.59 284.12 240.81 283.81 236.42 283.85C233.67 283.87 231.87 284.22 232.43 284.63ZM334.07 285.9C334.1 286.43 335.59 288.25 337.38 289.95C339.17 291.64 343.57 295.01 347.15 297.42C350.74 299.84 357.73 304.55 362.69 307.88C371.29 313.67 371.96 313.94 377.22 313.69L382.73 313.42C370.3 304.37 363.31 299.88 359.18 297.6C355.05 295.33 347.69 291.54 342.84 289.2C337.99 286.85 334.04 285.37 334.07 285.9Z" />
		<path id="Path 17" class="shp1" d="M263.95 288.62C263.93 290.39 264.92 292.28 266.71 293.89C268.24 295.27 273.1 299.6 277.51 303.51L285.52 310.63C294.84 310.66 298.56 310.95 299.8 311.3C301.04 311.64 302.28 311.47 302.56 310.92C302.84 310.37 297.81 306.87 291.38 303.15C284.96 299.43 279.08 295.48 278.31 294.38C277.54 293.28 274.79 290.9 272.2 289.1C269.61 287.3 266.7 285.83 265.73 285.84C264.5 285.86 263.97 286.68 263.95 288.62Z" />
		<path id="Path 18" class="shp4" d="M284.52 289.38C285.63 290.26 292.16 294.34 299.05 298.45C305.94 302.56 313.38 307.48 315.59 309.39C318.62 312 320.82 312.98 324.61 313.4C327.36 313.71 329.73 313.72 329.87 313.44C330.01 313.15 327.34 311.46 323.93 309.66C320.53 307.87 314.56 303.56 310.66 300.07C306.75 296.58 301.31 292.67 298.55 291.37C295.8 290.08 291.06 288.74 288.03 288.4C282.86 287.82 282.64 287.88 284.52 289.38Z" />
		<path id="Path 19" class="shp1" d="M315.2 293.28C315.14 293.61 317.57 295.69 320.6 297.89C323.63 300.09 328.14 302.8 330.62 303.9C333.1 305 337.27 307.92 339.89 310.38C344.26 314.49 345.08 314.86 349.91 314.89C352.8 314.91 355.39 314.59 355.65 314.17C355.91 313.76 353.99 311.97 351.39 310.2C348.78 308.43 344.12 305.27 341.03 303.19C337.94 301.1 334.55 298.54 333.51 297.5C332.47 296.46 330.72 295.27 329.62 294.87C328.51 294.46 324.84 293.8 321.46 293.41C318.08 293.01 315.26 292.95 315.2 293.28Z" />
		<path id="Path 20" class="shp4" d="M60.57 297.64C60.58 298.05 60.92 298.86 61.32 299.43C61.73 300 64.76 302.55 68.07 305.1C71.38 307.64 77.24 311.05 81.1 312.67C84.95 314.29 93.75 317.03 100.64 318.75C107.53 320.47 120.6 323.67 129.7 325.85C138.79 328.03 148.71 330.11 151.74 330.46C154.78 330.81 162.67 331.99 169.28 333.09C175.89 334.18 186.04 335.94 191.83 337C197.62 338.06 210.47 339.62 220.39 340.47C230.31 341.31 242.48 342.66 247.44 343.47C252.41 344.28 261.88 345.42 268.49 346C275.1 346.58 289.53 347.12 300.56 347.2C311.58 347.27 327.59 346.81 336.13 346.16C344.67 345.5 357.87 344.41 365.45 343.73C373.04 343.04 379.24 342.15 379.23 341.73C379.23 341.32 375.95 340.97 371.96 340.96C367.96 340.94 348.23 340.49 328.11 339.95C308 339.42 286.35 338.54 280.01 338.01C273.67 337.47 262.4 336.35 254.96 335.51C247.52 334.67 235.57 333.06 228.41 331.93C221.24 330.81 212.22 329.26 208.36 328.5C204.5 327.73 196.61 326.33 190.83 325.38C185.04 324.43 172.41 321.92 162.77 319.8C153.12 317.68 143.88 315.95 142.22 315.95C140.57 315.95 135.84 315.24 131.7 314.36C127.57 313.49 121.93 312.15 119.18 311.38C116.42 310.62 107.18 308.61 98.63 306.93C90.09 305.25 79.49 302.91 75.08 301.74C70.67 300.57 65.83 299 64.31 298.25C62.8 297.5 61.33 296.89 61.05 296.89C60.78 296.89 60.56 297.23 60.57 297.64Z" />
		<path id="Path 21" class="shp1" d="M68.99 316.83C68.79 317.16 69.36 318.78 70.25 320.44C71.15 322.09 72.6 323.96 73.48 324.59C74.36 325.22 76.44 326.98 78.09 328.5C79.74 330.03 82.9 332.04 85.1 332.97C87.31 333.9 94.07 336.11 100.14 337.88C106.2 339.64 112.74 341.69 114.67 342.43C116.6 343.17 122.68 344.75 128.19 345.95C133.71 347.15 141.37 348.51 145.23 348.97C149.09 349.43 159.91 350.97 169.28 352.4C178.65 353.83 189.7 355.65 193.83 356.45C197.97 357.25 205.86 358.6 211.37 359.45C216.88 360.31 231.54 361.47 243.94 362.05C256.34 362.63 278.89 363.52 294.04 364.04C311.04 364.61 331.39 364.62 347.15 364.04C361.21 363.53 373.01 362.76 373.38 362.32C373.75 361.88 374.43 359.13 374.89 356.21L375.71 350.9C371.05 351.79 362.04 352.5 352.67 353.06C343.3 353.62 330.22 354.52 323.6 355.07C316.99 355.61 304.14 355.79 295.04 355.47C285.95 355.15 271.07 354.21 261.98 353.38C252.88 352.56 245.1 351.68 244.69 351.44C244.28 351.2 234.58 350.12 223.14 349.03C211.71 347.95 191.08 345.21 177.3 342.94C163.52 340.67 146.83 337.76 140.22 336.46C133.61 335.16 122.78 332.76 116.17 331.12C109.56 329.49 99.41 326.93 93.62 325.43C87.84 323.94 80 321.25 76.22 319.47C72.44 317.69 69.18 316.5 68.99 316.83Z" />
		<path id="Path 22" class="shp4" d="M86.07 344.61C87.06 346.19 89.05 348.74 90.5 350.27C91.94 351.8 93.69 353.04 94.37 353.03C95.06 353.02 97.77 354.08 100.39 355.39C103 356.7 107.63 358.48 110.66 359.34C113.69 360.2 120.9 361.86 126.69 363.02C132.48 364.19 143.08 366.44 150.24 368.03C157.41 369.63 167.33 371.19 172.29 371.51C177.25 371.83 185.59 372.51 190.83 373.02C196.06 373.54 206.66 374.67 214.38 375.53C222.09 376.4 235.39 377.78 243.94 378.59C253.94 379.55 278.03 380.31 311.58 380.72L363.69 381.37C367.13 375.31 368.15 373.1 368.17 372.55C368.19 371.89 361.25 371.79 347.91 372.26C336.75 372.65 316.56 372.75 303.06 372.49C289.56 372.23 271.75 371.57 263.48 371.03C255.21 370.48 239.88 369.56 229.41 368.98C218.94 368.4 206.99 367.27 202.85 366.46C198.72 365.65 191.5 364.36 186.82 363.59C182.13 362.81 170.41 361.01 160.76 359.58C151.12 358.15 138.94 356.25 133.71 355.35C128.47 354.45 121.48 352.94 118.17 351.98C114.87 351.02 106.98 348.66 100.64 346.75C94.3 344.84 88.02 342.92 86.69 342.5L84.27 341.72L86.07 344.61Z" />
		<path id="Path 23" class="shp1" d="M103.31 367.18C103.68 367.93 105.37 370.33 107.07 372.51C108.77 374.7 112.64 378.89 115.67 381.82C119.12 385.17 124.17 388.6 129.2 391.02C133.61 393.15 139.02 395.42 141.22 396.06C143.43 396.71 147.49 397.89 150.24 398.68C153 399.47 162.02 401.03 170.28 402.14C178.55 403.25 190.73 404.79 197.34 405.56C203.95 406.33 215.23 407.45 222.39 408.05C229.56 408.64 239.25 409.12 243.94 409.11C249.35 409.09 254.1 409.68 256.96 410.71C259.98 411.8 266.29 412.52 276 412.87C284.4 413.18 295.41 412.9 302.06 412.2C308.4 411.54 316.97 410.07 321.1 408.95C325.23 407.82 331.32 405.78 334.63 404.41C337.93 403.05 343.23 400.28 346.39 398.26C349.56 396.24 352.14 393.92 352.14 393.09C352.13 392.26 352.7 390.98 353.4 390.23C354.46 389.1 353.44 388.96 347.15 389.36C343.02 389.63 322.05 389.45 300.56 388.97C279.06 388.49 255.16 387.6 247.44 387C239.73 386.39 225.75 385.02 216.38 383.95C207.01 382.88 194.61 381.56 188.82 381.03C183.03 380.49 173.34 379.61 167.28 379.08C161.21 378.55 153.77 377.42 150.74 376.59C147.71 375.75 141.85 374.41 137.71 373.61C133.58 372.8 124.79 370.99 118.17 369.58C111.56 368.17 105.36 366.74 104.4 366.42C103.15 365.99 102.84 366.21 103.31 367.18Z" />
	</g>
	<text id="2:1 " style="transform: matrix(0.995,-0.105,0.105,0.995,197.956,226.401)" >
		<tspan x="0" y="0" class="txt6">2:1</tspan>
	</text>
	<g id="sheep2">
		<path id="Path 0" class="shp0" d="M226.19 34.8C224.95 35.67 224.22 36.87 223.87 38.63C223.58 40.03 223.07 43.11 222.72 45.46C222.37 47.82 222.12 50.01 222.17 50.35C222.22 50.68 223.26 52.06 224.49 53.41L226.72 55.86L223.86 62.8C226.5 70.09 227.85 74.14 228.56 76.51C229.27 78.87 230 81.83 230.18 83.08C230.37 84.33 231.74 87.68 233.23 90.52C235.46 94.77 236.64 96.26 239.82 98.83C241.95 100.56 244.72 103.07 245.97 104.41C247.23 105.76 248.49 106.97 248.77 107.09C249.05 107.22 249.01 109.32 248.67 111.76C248.33 114.19 247.54 117.94 246.91 120.08C246.28 122.22 245.26 124.6 244.65 125.38C244.03 126.17 243.66 127.51 243.81 128.45C243.98 129.45 244.86 130.67 246.04 131.52C247.6 132.65 249.49 133.05 255.47 133.49C262 133.97 263.25 133.91 265.21 132.96C266.44 132.36 267.93 131.1 268.51 130.16C269.09 129.22 269.98 126.02 270.49 123.04C270.99 120.07 271.85 116.1 272.41 114.23C272.96 112.36 273.37 110.62 273.32 110.37C273.27 110.13 273.53 109.57 273.91 109.13C274.28 108.69 277.09 107.78 280.14 107.11L285.69 105.88C286.54 111.76 286.56 115.73 286.28 118.5C286 121.27 285.74 124.24 285.69 125.1C285.63 126.25 286.12 127.04 287.58 128.11C288.67 128.9 290.26 129.59 291.12 129.63C291.98 129.67 294.54 130 296.81 130.36C300.42 130.94 301.19 130.89 302.94 129.92C304.04 129.32 305.78 127.97 306.79 126.94C307.81 125.9 308.88 124.04 309.18 122.8C309.48 121.56 309.98 117.86 310.31 114.58C310.67 110.92 310.63 106.71 310.21 103.74C309.61 99.5 309.69 98.51 310.84 95.9C311.56 94.26 312.99 90.83 314.02 88.29C315.05 85.75 316.47 81.15 317.18 78.06C318.1 74.06 318.32 71.47 317.97 69.1C317.55 66.31 317.02 65.26 314.74 62.62C313.23 60.88 311.42 58.99 310.7 58.42C309.99 57.85 308.84 56.87 308.14 56.26C307.45 55.64 305.41 54.65 303.62 54.06C301.82 53.46 298.77 52.61 296.82 52.16C293.54 51.41 292.28 51.5 278.9 53.55L264.51 55.76C261.79 51.6 258.7 48.17 255.88 45.46C251.02 40.77 250.51 40.46 245.92 39.29C243.26 38.61 238.59 37.18 235.53 36.12C232.47 35.05 229.66 33.97 229.28 33.71C228.9 33.46 228.46 33.31 228.3 33.38C228.14 33.46 227.19 34.1 226.19 34.8Z" />
		<path id="Path 1" class="shp7" d="M227.05 41.56C227.2 42.56 227.71 43.81 228.18 44.33C228.65 44.86 228.93 45.79 228.8 46.41C228.65 47.1 228.04 47.55 227.18 47.58C226.2 47.62 225.79 48 225.77 48.88C225.77 49.56 226.79 51.36 228.06 52.87C229.33 54.39 230.68 56.76 231.07 58.15C231.67 60.28 232 60.65 233.15 60.48C233.9 60.37 236.07 58.99 237.98 57.43C240.9 55.02 241.54 54.13 242.04 51.7C242.37 50.12 242.53 48.14 242.4 47.31C242.26 46.47 241.86 45.07 241.49 44.19C241.06 43.12 239.54 41.94 236.99 40.67C234.87 39.61 232.79 38.81 232.38 38.88C231.96 38.95 231.55 39.44 231.46 39.96C231.37 40.49 230.95 40.98 230.54 41.06C230.12 41.14 229.31 40.83 228.73 40.37C228.15 39.92 227.47 39.59 227.22 39.64C226.98 39.7 226.9 40.56 227.05 41.56Z" />
		<path id="Path 3" class="shp8" d="M245.04 44.9C245.38 46.12 245.41 48.14 245.12 49.38C244.62 51.44 244.71 51.81 246.18 53.71C247.06 54.86 247.69 56.09 247.57 56.45C247.46 56.8 246.32 57.11 245.04 57.12C243.09 57.14 242.29 57.55 240.01 59.75C238.52 61.18 236.51 62.65 235.54 63C234.34 63.45 232.86 63.36 230.85 62.74C229.24 62.24 227.81 62.01 227.68 62.23C227.54 62.44 228.2 64.51 229.15 66.83C230.1 69.15 231.2 72.25 231.58 73.73C231.96 75.2 232.62 77.62 233.03 79.09C233.44 80.56 234 82.57 234.27 83.55C234.55 84.53 235.7 87.18 236.83 89.43C238.26 92.28 239.57 93.98 241.11 94.99C242.33 95.79 244.5 97.66 245.94 99.15C247.37 100.64 249.99 102.72 251.76 103.77C253.53 104.82 255.78 105.94 256.77 106.27C257.76 106.59 258.6 107.13 258.65 107.47C258.7 107.8 258.49 108.25 258.18 108.47C257.88 108.68 257.89 110.29 258.21 112.03C258.53 113.77 258.83 116.86 258.88 118.9C258.94 121.72 259.17 122.73 259.87 123.13C260.37 123.41 262.03 124 263.57 124.43C266.02 125.11 266.42 125.09 266.76 124.22C266.98 123.68 267.13 121.98 267.08 120.46C267.04 118.93 267.36 117.21 267.8 116.63C268.25 116.05 268.56 115.31 268.51 114.97C268.45 114.64 268.97 112.61 269.66 110.46C270.35 108.31 270.78 105.67 270.62 104.58C270.44 103.37 270.65 102.44 271.18 102.17C271.66 101.93 272.76 102.33 273.64 103.05C274.52 103.77 275.94 104.4 276.79 104.44C277.65 104.49 281.51 103.21 285.35 101.6C289.2 99.99 292.69 98.63 293.11 98.56C293.53 98.5 293.97 99.13 294.1 99.97C294.22 100.8 294.89 102.44 295.59 103.62C296.29 104.79 296.97 106.57 297.11 107.57C297.25 108.57 297.25 110.39 297.12 111.6C296.98 112.81 296.91 114.78 296.96 115.96C297.04 117.7 297.39 118.31 298.79 119.09C299.98 119.75 301.47 119.92 303.48 119.62L306.44 119.19C307 113.82 307.03 110.47 306.86 108.28C306.69 106.09 306.36 103.07 306.12 101.57C305.75 99.2 306.16 97.79 309.22 90.88C311.15 86.49 312.95 81.76 313.21 80.36C313.47 78.95 313.6 77.26 313.51 76.59C313.42 75.93 312.54 73.83 311.55 71.93C310.34 69.59 309.93 68.25 310.29 67.78C310.64 67.31 311.22 67.37 312.05 67.96C312.73 68.45 313.62 68.8 314.04 68.75C314.46 68.7 314.78 68.51 314.76 68.35C314.73 68.18 314.3 67.34 313.81 66.48C313.31 65.61 312.45 64.56 311.91 64.13C311.36 63.7 309.83 62.25 308.52 60.92C306.59 58.95 304.89 58.09 299.63 56.41C293.8 54.54 292.71 54.39 289.19 54.95C287.02 55.3 284.31 55.78 283.15 56.04C282 56.29 278.85 56.67 276.15 56.88C272.41 57.17 270.5 57.64 268.08 58.83C265.04 60.32 264.89 60.51 264.69 63.14C264.54 65.17 263.99 66.36 262.6 67.73C260.99 69.29 260.27 69.58 257.92 69.6C255.95 69.63 254.52 69.17 253.04 68.05C251.48 66.87 250.89 65.94 250.75 64.48C250.65 63.39 251.01 60.69 251.55 58.48C252.1 56.27 252.49 53 252.42 51.22C252.32 48.75 251.91 47.39 250.68 45.44C249.66 43.83 248.51 42.81 247.57 42.66C246.75 42.53 245.71 42.48 245.25 42.55C244.64 42.63 244.58 43.27 245.04 44.9Z" />
		<path id="Path 4" class="shp0" d="M237.89 47.68C238.07 48.89 238.42 49.15 239.63 48.96C240.74 48.8 241.09 48.41 240.96 47.52C240.86 46.86 240.35 46.24 239.82 46.14C239.3 46.05 238.6 46.02 238.26 46.07C237.93 46.12 237.76 46.84 237.89 47.68Z" />
		<path id="Path 6" class="shp7" d="M256 52.7C256.1 53.37 255.53 56.1 254.74 58.78C253.73 62.21 253.5 63.93 253.99 64.62C254.37 65.16 255.65 65.85 256.85 66.14C258.53 66.55 259.32 66.47 260.29 65.78C261.45 64.95 261.49 64.46 260.77 59.57C260.13 55.17 259.74 54.02 258.51 52.79C257.69 51.97 256.75 51.35 256.42 51.4C256.09 51.45 255.9 52.03 256 52.7Z" />
		<path id="Path 8" class="shp7" d="M289.85 103.26C289.47 103.58 289.47 105.26 289.85 107.42C290.21 109.42 290.5 112.96 290.51 115.3L290.53 119.55C293.1 118.76 293.44 118.06 293.71 115.52C293.9 113.79 293.81 110.73 293.51 108.73C293.14 106.19 292.6 104.74 291.73 103.9C291.02 103.23 290.2 102.95 289.85 103.26ZM252.47 113.51C252.22 115.68 251.77 118.19 251.46 119.09C250.94 120.59 251.07 120.84 253.04 122.15C254.22 122.94 255.35 123.33 255.55 123.01C255.75 122.7 255.85 120.78 255.77 118.75C255.69 116.71 255.28 113.78 254.86 112.22C254.45 110.66 253.84 109.43 253.51 109.48C253.19 109.53 252.72 111.34 252.47 113.51Z" />
		<path id="Path 9" class="shp9" d="M293.58 108.1C293.77 109.25 293.91 109.46 293.97 108.66C294.01 107.98 293.88 107.16 293.67 106.85C293.46 106.54 293.42 107.1 293.58 108.1ZM247.15 125.73C245.92 127.15 245.56 128.04 245.95 128.75C246.26 129.3 246.85 129.71 247.27 129.65C247.69 129.6 248.41 128.38 248.87 126.94C249.34 125.49 249.54 124.18 249.31 124.02C249.09 123.85 248.12 124.63 247.15 125.73ZM250.34 126.65C250.07 127.35 249.93 128.35 250.04 128.87C250.17 129.5 250.83 129.72 252.05 129.53C253.07 129.38 254.01 128.83 254.19 128.28C254.39 127.67 253.99 126.91 253.11 126.25C252.34 125.68 251.52 125.24 251.28 125.29C251.04 125.34 250.62 125.95 250.34 126.65ZM256.65 127.1C255.98 128.03 255.55 129.25 255.69 129.8C255.84 130.35 256.37 130.74 256.87 130.67C257.37 130.59 257.97 129.95 258.21 129.23C258.44 128.51 258.46 127.36 258.26 126.66C257.88 125.42 257.87 125.42 256.65 127.1ZM287.9 123.06C287.78 123.5 287.85 124.38 288.06 125C288.26 125.62 288.71 126.19 289.06 126.26C289.41 126.33 289.94 125.65 290.23 124.74C290.52 123.84 290.58 122.84 290.36 122.53C290.15 122.23 289.55 122.04 289.04 122.11C288.53 122.19 288.02 122.61 287.9 123.06ZM260.03 128.95C260.29 130.72 260.37 130.75 262.52 130.07C263.74 129.69 264.99 129.18 265.29 128.94C265.6 128.7 264.82 128.16 263.56 127.74C262.3 127.31 260.93 127 260.51 127.05C260.07 127.1 259.87 127.89 260.03 128.95ZM291.76 123.25C291.64 123.78 291.63 124.76 291.73 125.43C291.83 126.1 292.31 126.58 292.82 126.5C293.32 126.43 293.8 125.94 293.89 125.41C293.99 124.89 293.98 123.91 293.88 123.24C293.78 122.58 293.31 122.09 292.84 122.16C292.37 122.23 291.88 122.72 291.76 123.25ZM296.67 124.37C296.96 125.69 297.47 126.73 297.8 126.68C298.14 126.63 298.41 126.03 298.4 125.35C298.4 124.67 297.89 123.63 297.27 123.04C296.21 122.03 296.18 122.1 296.67 124.37ZM300.35 125.06C300.47 125.89 300.85 126.53 301.18 126.48C301.52 126.43 302.61 125.82 303.61 125.13C305.07 124.12 305.24 123.78 304.45 123.46C303.9 123.24 302.71 123.17 301.79 123.3C300.41 123.5 300.16 123.81 300.35 125.06Z" />
	</g>
</svg>